G04 DipTrace 2.4.0.2*
%INBottom.gbr*%
%MOIN*%
%ADD13C,0.05*%
%ADD14C,0.013*%
%ADD15C,0.02*%
%ADD17C,0.04*%
%ADD20C,0.025*%
%ADD24R,0.0748X0.0748*%
%ADD25C,0.0748*%
%ADD28R,0.0591X0.0591*%
%ADD29C,0.0591*%
%ADD30R,0.0531X0.0531*%
%ADD32R,0.063X0.063*%
%ADD33C,0.063*%
%ADD34R,0.0638X0.0638*%
%ADD35C,0.0638*%
%ADD37C,0.0787*%
%ADD38C,0.2187*%
%ADD39C,0.0591*%
%ADD40C,0.0748*%
%FSLAX44Y44*%
G04*
G70*
G90*
G75*
G01*
%LNBottom*%
%LPD*%
X45815Y5628D2*
D13*
X52315D1*
X52690Y5253D1*
Y4690D1*
X39630Y13909D2*
D14*
X39347D1*
X39065Y14190D1*
Y15190D1*
X39253Y15378D1*
X40065D1*
X42130Y13312D1*
Y12940D1*
X49690Y8065D2*
Y9190D1*
X39630Y15909D2*
Y15940D1*
X40003D1*
X42628Y13315D1*
Y12503D1*
X43065Y12065D1*
Y11753D1*
X43253Y11940D1*
X43130D1*
X48690Y8065D2*
Y9628D1*
X53440Y15503D2*
Y14003D1*
X54003Y15503D2*
Y14003D1*
X54565Y15503D2*
Y14003D1*
X55128Y15503D2*
Y14003D1*
X44819Y10626D2*
Y15253D1*
X28003Y11069D2*
Y11190D1*
X28690Y11878D1*
X29940D1*
X30253Y12190D1*
X31690Y9690D2*
D15*
Y7440D1*
Y9690D2*
D14*
X32940D1*
X34503Y8127D1*
X44503Y9003D2*
Y9815D1*
X44815Y10128D1*
X45257Y11126D2*
Y15690D1*
X52567Y18440D2*
Y19190D1*
X39630Y10909D2*
X41159D1*
X41253Y11003D1*
X42130D1*
Y10940D1*
X50690Y8065D2*
Y8815D1*
X39630Y14909D2*
Y14875D1*
X41503Y13003D1*
Y12378D1*
X41690Y12190D1*
X41880D1*
X42130Y11940D1*
D17*
X45815Y5628D3*
X49690Y8065D3*
Y9190D3*
X48690Y8065D3*
Y9628D3*
X53440Y15503D3*
Y14003D3*
X54003Y15503D3*
Y14003D3*
X54565Y15503D3*
Y14003D3*
X55128Y15503D3*
Y14003D3*
X44819Y10626D3*
Y15253D3*
X28003Y11069D3*
X30253Y12190D3*
X31690Y9690D3*
Y7440D3*
X34503Y8127D3*
X44503Y9003D3*
X44815Y10128D3*
X31690Y9690D3*
X45257Y11126D3*
Y15690D3*
X52567Y18440D3*
Y19190D3*
X50690Y8065D3*
Y8815D3*
X55565Y20815D3*
X57815D3*
X60065D3*
X62315D3*
X64565D3*
X55565Y20190D3*
X57815D3*
X60065D3*
X62315D3*
X64565D3*
X32943Y18816D3*
X33318D3*
X42440Y14565D3*
X43003D3*
X43565D3*
X44128D3*
X52940Y13440D3*
X43963Y12865D3*
X44315Y13190D3*
X52440Y12940D3*
X51940Y12440D3*
X54940D3*
X48878Y12128D3*
X44003Y11940D3*
X54440D3*
X48878Y11565D3*
X53940Y11440D3*
X44003Y11378D3*
X53440Y10940D3*
X52940Y10440D3*
X26315Y10253D3*
X43128Y10190D3*
X43690D3*
X47757Y6877D3*
X32943Y19191D3*
X52445Y6877D3*
X33318Y19191D3*
X47257Y6877D3*
X52945D3*
X51632Y19816D3*
X60128Y11628D3*
X59815Y11315D3*
X4340Y23816D2*
D20*
X28554D1*
X30701D2*
X45179D1*
X47326D2*
X69554D1*
X4340Y23568D2*
X28401D1*
X30854D2*
X45026D1*
X47479D2*
X49761D1*
X51713D2*
X52011D1*
X53963D2*
X54261D1*
X56213D2*
X56511D1*
X58463D2*
X58761D1*
X60713D2*
X61011D1*
X62963D2*
X63261D1*
X65213D2*
X69401D1*
X4340Y23319D2*
X28312D1*
X30944D2*
X44937D1*
X47569D2*
X49761D1*
X51854D2*
X52007D1*
X54104D2*
X54257D1*
X56354D2*
X56507D1*
X58604D2*
X58757D1*
X60854D2*
X61007D1*
X63104D2*
X63257D1*
X65354D2*
X69312D1*
X4340Y23070D2*
X28276D1*
X30979D2*
X44901D1*
X47604D2*
X49761D1*
X51858D2*
X52007D1*
X54108D2*
X54257D1*
X56358D2*
X56507D1*
X58608D2*
X58757D1*
X60858D2*
X61007D1*
X63108D2*
X63257D1*
X65358D2*
X69276D1*
X4340Y22822D2*
X28288D1*
X30967D2*
X44913D1*
X47592D2*
X49761D1*
X51721D2*
X52011D1*
X53971D2*
X54261D1*
X56221D2*
X56511D1*
X58471D2*
X58761D1*
X60721D2*
X61011D1*
X62971D2*
X63261D1*
X65221D2*
X69288D1*
X4340Y22573D2*
X28347D1*
X30909D2*
X37362D1*
X38147D2*
X44972D1*
X47534D2*
X69347D1*
X4340Y22324D2*
X28460D1*
X30795D2*
X32898D1*
X34686D2*
X37218D1*
X38295D2*
X45085D1*
X47420D2*
X69460D1*
X4340Y22076D2*
X22636D1*
X24744D2*
X25386D1*
X26494D2*
X28651D1*
X30604D2*
X32792D1*
X34686D2*
X37214D1*
X38299D2*
X45276D1*
X47229D2*
X69651D1*
X4340Y21827D2*
X22636D1*
X24744D2*
X25386D1*
X26494D2*
X28984D1*
X30272D2*
X32819D1*
X34686D2*
X37347D1*
X38166D2*
X45609D1*
X46897D2*
X69984D1*
X71272D2*
X71542D1*
X4340Y21578D2*
X22636D1*
X24744D2*
X25386D1*
X26494D2*
X33003D1*
X34686D2*
X71542D1*
X4340Y21330D2*
X22636D1*
X24744D2*
X25386D1*
X26494D2*
X31085D1*
X31799D2*
X36163D1*
X36475D2*
X71542D1*
X4340Y21081D2*
X25558D1*
X26323D2*
X27183D1*
X29123D2*
X30913D1*
X31971D2*
X35835D1*
X36803D2*
X71542D1*
X4340Y20832D2*
X25405D1*
X26475D2*
X27030D1*
X29123D2*
X30894D1*
X31991D2*
X35765D1*
X36873D2*
X71542D1*
X4340Y20584D2*
X25398D1*
X26483D2*
X27023D1*
X29123D2*
X30917D1*
X31967D2*
X35816D1*
X36819D2*
X71542D1*
X4340Y20335D2*
X25523D1*
X26358D2*
X27148D1*
X29123D2*
X30917D1*
X31967D2*
X36069D1*
X36565D2*
X71542D1*
X4340Y20086D2*
X22636D1*
X24744D2*
X25386D1*
X26494D2*
X30917D1*
X31967D2*
X66437D1*
X68385D2*
X71542D1*
X4340Y19837D2*
X22636D1*
X24744D2*
X25386D1*
X26494D2*
X30917D1*
X31967D2*
X66437D1*
X68647D2*
X71542D1*
X4340Y19589D2*
X22636D1*
X24744D2*
X25386D1*
X26494D2*
X52370D1*
X52764D2*
X66437D1*
X68721D2*
X71542D1*
X4340Y19340D2*
X22636D1*
X24744D2*
X25386D1*
X26494D2*
X52136D1*
X53002D2*
X66437D1*
X68690D2*
X71542D1*
X4340Y19091D2*
X52120D1*
X53014D2*
X66437D1*
X68526D2*
X71542D1*
X4340Y18843D2*
X52241D1*
X52893D2*
X71542D1*
X4340Y18594D2*
X52136D1*
X52998D2*
X71542D1*
X4340Y18345D2*
X52116D1*
X53018D2*
X71542D1*
X4340Y18097D2*
X52276D1*
X52858D2*
X71542D1*
X4340Y17848D2*
X71542D1*
X4340Y17599D2*
X71542D1*
X4340Y17351D2*
X71542D1*
X4340Y17102D2*
X71542D1*
X4340Y16853D2*
X71542D1*
X4340Y16605D2*
X25655D1*
X26350D2*
X71542D1*
X4340Y16356D2*
X25421D1*
X26584D2*
X39319D1*
X39940D2*
X71542D1*
X4340Y16107D2*
X25351D1*
X26655D2*
X39112D1*
X40284D2*
X45109D1*
X45405D2*
X71542D1*
X4340Y15858D2*
X25386D1*
X26619D2*
X39077D1*
X40534D2*
X44831D1*
X45682D2*
X53163D1*
X55405D2*
X71542D1*
X4340Y15610D2*
X25546D1*
X26576D2*
X28851D1*
X29530D2*
X39038D1*
X40784D2*
X44546D1*
X45709D2*
X52995D1*
X55573D2*
X71542D1*
X4340Y15361D2*
X25659D1*
X26819D2*
X28612D1*
X29768D2*
X38792D1*
X41030D2*
X44374D1*
X45580D2*
X53003D1*
X55565D2*
X71542D1*
X4340Y15112D2*
X25585D1*
X26889D2*
X28538D1*
X29842D2*
X38741D1*
X41280D2*
X41784D1*
X45580D2*
X53116D1*
X55451D2*
X71542D1*
X4340Y14864D2*
X25616D1*
X26858D2*
X28569D1*
X29811D2*
X38741D1*
X45580D2*
X53116D1*
X55451D2*
X71542D1*
X4340Y14615D2*
X25773D1*
X26701D2*
X28726D1*
X29772D2*
X38741D1*
X45580D2*
X53116D1*
X55451D2*
X71542D1*
X4340Y14366D2*
X28866D1*
X30018D2*
X38741D1*
X45580D2*
X53116D1*
X55451D2*
X71542D1*
X4340Y14118D2*
X28792D1*
X30092D2*
X38749D1*
X45580D2*
X52995D1*
X55573D2*
X71542D1*
X4340Y13869D2*
X28819D1*
X30065D2*
X38937D1*
X45580D2*
X52511D1*
X55565D2*
X71542D1*
X4340Y13620D2*
X28972D1*
X29912D2*
X39159D1*
X40100D2*
X40437D1*
X45580D2*
X52265D1*
X55362D2*
X71542D1*
X4340Y13372D2*
X39347D1*
X39912D2*
X40683D1*
X45580D2*
X52015D1*
X55116D2*
X71542D1*
X4340Y13123D2*
X39120D1*
X40139D2*
X40933D1*
X45580D2*
X51765D1*
X55366D2*
X71542D1*
X4340Y12874D2*
X39077D1*
X40186D2*
X41179D1*
X45580D2*
X51519D1*
X55612D2*
X71542D1*
X4340Y12626D2*
X39155D1*
X40104D2*
X41179D1*
X45580D2*
X51269D1*
X55819D2*
X71542D1*
X4340Y12377D2*
X29835D1*
X30670D2*
X39359D1*
X39905D2*
X41179D1*
X45580D2*
X51062D1*
X55733D2*
X71542D1*
X4340Y12128D2*
X28499D1*
X30709D2*
X39124D1*
X40139D2*
X41304D1*
X45580D2*
X51054D1*
X55487D2*
X71542D1*
X4340Y11879D2*
X28241D1*
X30580D2*
X39077D1*
X40186D2*
X41554D1*
X45580D2*
X51054D1*
X55237D2*
X66632D1*
X67510D2*
X71542D1*
X4340Y11631D2*
X27995D1*
X30135D2*
X39155D1*
X40108D2*
X41562D1*
X45580D2*
X51054D1*
X54987D2*
X66472D1*
X67670D2*
X71542D1*
X4340Y11382D2*
X25038D1*
X26092D2*
X27675D1*
X28643D2*
X39073D1*
X40186D2*
X41812D1*
X45631D2*
X51140D1*
X54741D2*
X66441D1*
X67701D2*
X71542D1*
X4340Y11133D2*
X25038D1*
X26092D2*
X27546D1*
X28459D2*
X39073D1*
X45717D2*
X51390D1*
X54491D2*
X66515D1*
X67627D2*
X71542D1*
X4340Y10885D2*
X25038D1*
X26092D2*
X27585D1*
X28420D2*
X39073D1*
X43682D2*
X44444D1*
X45643D2*
X51640D1*
X54241D2*
X66780D1*
X67362D2*
X71542D1*
X4340Y10636D2*
X25038D1*
X26092D2*
X39073D1*
X41307D2*
X41671D1*
X43588D2*
X44359D1*
X45280D2*
X51886D1*
X53994D2*
X71542D1*
X4340Y10387D2*
X25023D1*
X26108D2*
X39073D1*
X40186D2*
X44429D1*
X45209D2*
X52136D1*
X53744D2*
X71542D1*
X4340Y10139D2*
X25030D1*
X26100D2*
X44355D1*
X45276D2*
X52386D1*
X53494D2*
X71542D1*
X4340Y9890D2*
X25179D1*
X25951D2*
X31280D1*
X33190D2*
X44187D1*
X45205D2*
X48319D1*
X49061D2*
X52632D1*
X53248D2*
X71542D1*
X4340Y9641D2*
X31234D1*
X33440D2*
X44179D1*
X44826D2*
X48230D1*
X49151D2*
X71542D1*
X4340Y9393D2*
X31331D1*
X33686D2*
X36382D1*
X37315D2*
X44179D1*
X44826D2*
X48300D1*
X49080D2*
X49280D1*
X50100D2*
X71542D1*
X4340Y9144D2*
X31331D1*
X33936D2*
X36280D1*
X37420D2*
X44066D1*
X44940D2*
X48366D1*
X49014D2*
X49234D1*
X50147D2*
X50382D1*
X50998D2*
X71542D1*
X4340Y8895D2*
X31331D1*
X33014D2*
X33284D1*
X34186D2*
X36300D1*
X37397D2*
X44058D1*
X44948D2*
X48366D1*
X49014D2*
X49347D1*
X50034D2*
X50237D1*
X51143D2*
X71542D1*
X4340Y8647D2*
X31331D1*
X33014D2*
X33534D1*
X34432D2*
X36468D1*
X37233D2*
X44230D1*
X44776D2*
X48366D1*
X49014D2*
X49366D1*
X50014D2*
X50265D1*
X51116D2*
X71542D1*
X4340Y8398D2*
X31331D1*
X32049D2*
X33784D1*
X34869D2*
X48366D1*
X49014D2*
X49366D1*
X50014D2*
X50366D1*
X51014D2*
X71542D1*
X4340Y8149D2*
X31331D1*
X32049D2*
X34030D1*
X34963D2*
X48237D1*
X51143D2*
X71542D1*
X4340Y7900D2*
X31331D1*
X32049D2*
X34109D1*
X34901D2*
X48261D1*
X49119D2*
X49266D1*
X50119D2*
X50266D1*
X51119D2*
X71542D1*
X4340Y7652D2*
X31284D1*
X32096D2*
X46800D1*
X53401D2*
X71542D1*
X4340Y7403D2*
X31234D1*
X32147D2*
X46745D1*
X53455D2*
X71542D1*
X4340Y7154D2*
X31339D1*
X32041D2*
X46745D1*
X53455D2*
X71542D1*
X4340Y6906D2*
X46745D1*
X53455D2*
X71542D1*
X4340Y6657D2*
X33386D1*
X34494D2*
X35042D1*
X35596D2*
X46745D1*
X53455D2*
X71542D1*
X4340Y6408D2*
X22698D1*
X24057D2*
X33386D1*
X34494D2*
X34812D1*
X35826D2*
X46745D1*
X53455D2*
X69948D1*
X71307D2*
X71542D1*
X4340Y6160D2*
X22382D1*
X24373D2*
X33386D1*
X34494D2*
X34765D1*
X35873D2*
X46765D1*
X53436D2*
X69632D1*
X4340Y5911D2*
X22198D1*
X24557D2*
X25452D1*
X26178D2*
X27421D1*
X28143D2*
X31359D1*
X32084D2*
X33386D1*
X34494D2*
X34843D1*
X35795D2*
X45398D1*
X52744D2*
X69448D1*
X4340Y5662D2*
X22089D1*
X24666D2*
X25284D1*
X26346D2*
X27253D1*
X28311D2*
X31191D1*
X32252D2*
X33386D1*
X34494D2*
X35245D1*
X35393D2*
X45308D1*
X52991D2*
X69339D1*
X4340Y5414D2*
X22034D1*
X24721D2*
X25269D1*
X26362D2*
X27234D1*
X28330D2*
X31175D1*
X32268D2*
X45355D1*
X53174D2*
X69284D1*
X4340Y5165D2*
X22026D1*
X24729D2*
X25382D1*
X26248D2*
X27347D1*
X28217D2*
X31288D1*
X32155D2*
X45644D1*
X53268D2*
X69276D1*
X4340Y4916D2*
X22066D1*
X24690D2*
X46159D1*
X53268D2*
X69316D1*
X4340Y4668D2*
X22159D1*
X24596D2*
X46112D1*
X53268D2*
X69409D1*
X4340Y4419D2*
X22319D1*
X24436D2*
X46183D1*
X53268D2*
X69569D1*
X66587Y20112D2*
X67680D1*
X67684Y19994D1*
X67785Y20067D1*
X67899Y20118D1*
X68020Y20145D1*
X68145Y20147D1*
X68268Y20123D1*
X68383Y20074D1*
X68485Y20004D1*
X68572Y19913D1*
X68637Y19807D1*
X68680Y19690D1*
X68699Y19567D1*
X68691Y19441D1*
X68658Y19320D1*
X68601Y19209D1*
X68523Y19112D1*
X68427Y19033D1*
X68316Y18975D1*
X68196Y18940D1*
X68072Y18931D1*
X67948Y18948D1*
X67830Y18989D1*
X67724Y19054D1*
X67680Y19090D1*
Y18894D1*
X66462D1*
Y20112D1*
X66587D1*
X67680Y11407D2*
X67662Y11284D1*
X67619Y11166D1*
X67554Y11060D1*
X67468Y10970D1*
X67365Y10899D1*
X67250Y10850D1*
X67128Y10826D1*
X67003Y10827D1*
X66881Y10854D1*
X66767Y10905D1*
X66666Y10978D1*
X66582Y11070D1*
X66518Y11177D1*
X66478Y11295D1*
X66462Y11419D1*
X66473Y11543D1*
X66508Y11663D1*
X66567Y11773D1*
X66647Y11869D1*
X66745Y11946D1*
X66856Y12002D1*
X66977Y12034D1*
X67101Y12041D1*
X67225Y12022D1*
X67342Y11978D1*
X67447Y11911D1*
X67537Y11825D1*
X67607Y11722D1*
X67655Y11606D1*
X67678Y11484D1*
X67680Y11407D1*
X33725Y22534D2*
X34661D1*
Y21473D1*
X33600D1*
Y21540D1*
X33499Y21496D1*
X33376Y21474D1*
X33251Y21481D1*
X33132Y21517D1*
X33024Y21580D1*
X32934Y21666D1*
X32867Y21771D1*
X32825Y21888D1*
X32813Y22012D1*
X32830Y22136D1*
X32875Y22252D1*
X32946Y22355D1*
X33039Y22438D1*
X33149Y22497D1*
X33269Y22529D1*
X33394Y22531D1*
X33516Y22505D1*
X33601Y22467D1*
X33600Y22534D1*
X33725D1*
X31891Y20629D2*
X31943D1*
Y19627D1*
X30942D1*
Y20629D1*
X31000D1*
X30966Y20683D1*
X30925Y20801D1*
X30912Y20925D1*
X30929Y21048D1*
X30974Y21164D1*
X31045Y21267D1*
X31139Y21350D1*
X31248Y21409D1*
X31369Y21441D1*
X31494Y21443D1*
X31616Y21417D1*
X31728Y21363D1*
X31824Y21284D1*
X31900Y21184D1*
X31950Y21070D1*
X31972Y20947D1*
X31968Y20841D1*
X31936Y20720D1*
X31889Y20629D1*
X25189Y11566D2*
X26066D1*
Y10564D1*
X26007D1*
X26046Y10502D1*
X26085Y10384D1*
X26095Y10278D1*
X26081Y10154D1*
X26038Y10037D1*
X25968Y9933D1*
X25877Y9849D1*
X25768Y9788D1*
X25648Y9754D1*
X25523Y9749D1*
X25401Y9774D1*
X25288Y9826D1*
X25190Y9903D1*
X25113Y10001D1*
X25061Y10115D1*
X25036Y10237D1*
X25042Y10361D1*
X25076Y10481D1*
X25120Y10565D1*
X25064Y10564D1*
Y11566D1*
X25189D1*
X33535Y6720D2*
X34470D1*
Y5660D1*
X33410D1*
Y6720D1*
X33535D1*
X35848Y6165D2*
X35827Y6042D1*
X35779Y5927D1*
X35705Y5827D1*
X35609Y5747D1*
X35497Y5691D1*
X35376Y5663D1*
X35251Y5664D1*
X35130Y5694D1*
X35020Y5752D1*
X34926Y5834D1*
X34853Y5935D1*
X34806Y6051D1*
X34788Y6174D1*
X34799Y6298D1*
X34839Y6417D1*
X34905Y6522D1*
X34994Y6610D1*
X35101Y6674D1*
X35220Y6711D1*
X35344Y6720D1*
X35467Y6699D1*
X35582Y6650D1*
X35682Y6576D1*
X35762Y6480D1*
X35818Y6368D1*
X35845Y6247D1*
X35848Y6165D1*
X26331Y5379D2*
X26288Y5262D1*
X26218Y5158D1*
X26127Y5074D1*
X26018Y5013D1*
X25898Y4979D1*
X25773Y4974D1*
X25651Y4998D1*
X25538Y5051D1*
X25440Y5128D1*
X25363Y5226D1*
X25311Y5339D1*
X25286Y5462D1*
X25292Y5586D1*
X25326Y5706D1*
X25387Y5815D1*
X25472Y5906D1*
X25575Y5976D1*
X25692Y6019D1*
X25816Y6033D1*
X25940Y6018D1*
X26057Y5975D1*
X26161Y5905D1*
X26245Y5813D1*
X26306Y5704D1*
X26339Y5584D1*
X26345Y5503D1*
X26331Y5379D1*
X32250Y5478D2*
X32230Y5355D1*
X32181Y5240D1*
X32107Y5140D1*
X32012Y5059D1*
X31900Y5004D1*
X31779Y4976D1*
X31654Y4977D1*
X31533Y5007D1*
X31422Y5064D1*
X31328Y5146D1*
X31256Y5248D1*
X31209Y5363D1*
X31191Y5487D1*
X31202Y5611D1*
X31241Y5729D1*
X31307Y5835D1*
X31396Y5922D1*
X31503Y5986D1*
X31622Y6024D1*
X31747Y6032D1*
X31870Y6012D1*
X31984Y5963D1*
X32085Y5888D1*
X32165Y5793D1*
X32220Y5681D1*
X32248Y5559D1*
X32250Y5478D1*
X32990Y9213D2*
Y8515D1*
X32025D1*
Y7718D1*
X32064Y7662D1*
X32112Y7547D1*
X32125Y7440D1*
X32107Y7317D1*
X32055Y7204D1*
X31973Y7110D1*
X31868Y7043D1*
X31748Y7009D1*
X31624Y7010D1*
X31505Y7047D1*
X31401Y7115D1*
X31321Y7211D1*
X31271Y7325D1*
X31255Y7449D1*
X31275Y7571D1*
X31330Y7684D1*
X31353Y7710D1*
X31355Y9413D1*
X31321Y9461D1*
X31271Y9575D1*
X31255Y9699D1*
X31275Y9821D1*
X31330Y9934D1*
X31413Y10026D1*
X31520Y10090D1*
X31640Y10122D1*
X31765Y10119D1*
X31883Y10080D1*
X31986Y10009D1*
X32003Y9988D1*
X32940Y9990D1*
X33065Y9962D1*
X33152Y9902D1*
X34492Y8563D1*
X34578Y8555D1*
X34697Y8517D1*
X34799Y8446D1*
X34877Y8349D1*
X34925Y8234D1*
X34938Y8127D1*
X34921Y8004D1*
X34869Y7890D1*
X34787Y7797D1*
X34681Y7730D1*
X34562Y7696D1*
X34437Y7697D1*
X34318Y7733D1*
X34214Y7802D1*
X34134Y7898D1*
X34084Y8012D1*
X34069Y8139D1*
X32990Y9216D1*
X37385Y8941D2*
X37344Y8824D1*
X37277Y8719D1*
X37188Y8631D1*
X37081Y8566D1*
X36963Y8527D1*
X36838Y8515D1*
X36715Y8532D1*
X36598Y8576D1*
X36494Y8645D1*
X36409Y8736D1*
X36346Y8844D1*
X36309Y8963D1*
X36300Y9087D1*
X36319Y9211D1*
X36366Y9326D1*
X36437Y9429D1*
X36530Y9512D1*
X36639Y9573D1*
X36758Y9608D1*
X36883Y9614D1*
X37006Y9592D1*
X37121Y9544D1*
X37221Y9470D1*
X37303Y9376D1*
X37362Y9266D1*
X37394Y9145D1*
X37400Y9065D1*
X37385Y8941D1*
X39225Y11439D2*
X39385D1*
X39255Y11534D1*
X39178Y11632D1*
X39126Y11745D1*
X39102Y11868D1*
X39107Y11992D1*
X39141Y12112D1*
X39202Y12221D1*
X39287Y12313D1*
X39390Y12382D1*
X39460Y12407D1*
X39353Y12457D1*
X39255Y12534D1*
X39178Y12632D1*
X39126Y12745D1*
X39102Y12868D1*
X39107Y12992D1*
X39141Y13112D1*
X39202Y13221D1*
X39287Y13313D1*
X39390Y13382D1*
X39454Y13409D1*
X39353Y13457D1*
X39255Y13534D1*
X39178Y13632D1*
X39157Y13678D1*
X38853Y13978D1*
X38785Y14086D1*
X38765Y14190D1*
Y15190D1*
X38793Y15315D1*
X38853Y15402D1*
X39041Y15590D1*
X39148Y15658D1*
X39077Y15620D1*
X39126Y15745D1*
X39102Y15868D1*
X39107Y15992D1*
X39141Y16112D1*
X39202Y16221D1*
X39287Y16313D1*
X39390Y16382D1*
X39508Y16425D1*
X39631Y16439D1*
X39755Y16424D1*
X39872Y16381D1*
X39976Y16311D1*
X40042Y16239D1*
X40162Y16194D1*
X40303Y16064D1*
X41582Y14785D1*
X41580Y14878D1*
X41613Y14997D1*
X41701Y15083D1*
X41815Y15113D1*
X44405D1*
X44384Y15261D1*
X44404Y15384D1*
X44459Y15496D1*
X44542Y15588D1*
X44649Y15653D1*
X44769Y15685D1*
X44820Y15683D1*
X44842Y15822D1*
X44896Y15934D1*
X44980Y16026D1*
X45086Y16091D1*
X45207Y16122D1*
X45331Y16119D1*
X45450Y16080D1*
X45552Y16009D1*
X45631Y15912D1*
X45678Y15797D1*
X45692Y15690D1*
X45674Y15567D1*
X45622Y15454D1*
X45558Y15380D1*
X45557Y11444D1*
X45631Y11348D1*
X45678Y11233D1*
X45692Y11126D1*
X45674Y11002D1*
X45622Y10889D1*
X45540Y10795D1*
X45435Y10729D1*
X45315Y10695D1*
X45249D1*
X45254Y10626D1*
X45236Y10502D1*
X45171Y10375D1*
X45237Y10235D1*
X45250Y10128D1*
X45232Y10004D1*
X45180Y9891D1*
X45098Y9797D1*
X44993Y9731D1*
X44873Y9697D1*
X44807D1*
X44803Y9565D1*
Y9319D1*
X44877Y9225D1*
X44924Y9110D1*
X44938Y9003D1*
X44920Y8879D1*
X44868Y8766D1*
X44786Y8672D1*
X44681Y8606D1*
X44561Y8572D1*
X44436Y8573D1*
X44317Y8609D1*
X44213Y8678D1*
X44133Y8773D1*
X44083Y8887D1*
X44068Y9011D1*
X44088Y9134D1*
X44142Y9246D1*
X44202Y9312D1*
X44203Y9815D1*
X44231Y9940D1*
X44291Y10027D1*
X44382Y10118D1*
X44400Y10259D1*
X44463Y10380D1*
X44400Y10510D1*
X44384Y10634D1*
X44404Y10757D1*
X44459Y10869D1*
X44519Y10935D1*
Y11458D1*
X44428Y11455D1*
X44438Y11378D1*
X44420Y11254D1*
X44368Y11141D1*
X44286Y11047D1*
X44181Y10981D1*
X44061Y10947D1*
X43936Y10948D1*
X43817Y10984D1*
X43713Y11053D1*
X43633Y11148D1*
X43583Y11262D1*
X43568Y11386D1*
X43580Y11459D1*
X43342Y11455D1*
X43299Y11441D1*
X43394Y11400D1*
X43494Y11326D1*
X43574Y11230D1*
X43630Y11118D1*
X43658Y10997D1*
Y10890D1*
X43632Y10768D1*
X43578Y10656D1*
X43499Y10559D1*
X43400Y10484D1*
X43286Y10433D1*
X43163Y10411D1*
X43039Y10418D1*
X42919Y10454D1*
X42811Y10516D1*
X42721Y10603D1*
X42654Y10707D1*
X42630Y10764D1*
X42603Y10699D1*
X42533Y10596D1*
X42442Y10511D1*
X42333Y10450D1*
X42213Y10416D1*
X42088Y10412D1*
X41966Y10436D1*
X41853Y10488D1*
X41755Y10566D1*
X41678Y10664D1*
X41660Y10703D1*
X41371Y10697D1*
X41300Y10644D1*
X41226Y10616D1*
X41034Y10609D1*
X40163D1*
X40161Y10378D1*
X39100D1*
Y11439D1*
X39225D1*
X39877D2*
X40161D1*
Y11208D1*
X41033Y11209D1*
X41111Y11267D1*
X41186Y11295D1*
X41378Y11303D1*
X41741D1*
X41890Y11413D1*
X41960Y11439D1*
X41878Y11455D1*
X41815D1*
X41696Y11488D1*
X41610Y11576D1*
X41580Y11690D1*
Y11913D1*
X41531Y11936D1*
X41390Y12066D1*
X41291Y12166D1*
X41222Y12273D1*
X41203Y12378D1*
X41202Y12879D1*
X40161Y13920D1*
X40146Y13785D1*
X40103Y13668D1*
X40033Y13564D1*
X39942Y13480D1*
X39833Y13419D1*
X39799Y13409D1*
X39894Y13369D1*
X39994Y13294D1*
X40074Y13199D1*
X40130Y13087D1*
X40158Y12965D1*
Y12859D1*
X40132Y12737D1*
X40078Y12624D1*
X39999Y12528D1*
X39900Y12452D1*
X39806Y12408D1*
X39872Y12381D1*
X39976Y12311D1*
X40060Y12219D1*
X40121Y12110D1*
X40154Y11990D1*
X40161Y11909D1*
X40146Y11785D1*
X40103Y11668D1*
X40033Y11564D1*
X39942Y11480D1*
X39870Y11440D1*
X22785Y22220D2*
X23720Y22217D1*
X23710Y22220D1*
X24720D1*
Y21160D1*
X22660D1*
Y22220D1*
X22785D1*
X25535Y20220D2*
X25695D1*
X25565Y20316D1*
X25488Y20414D1*
X25436Y20527D1*
X25411Y20649D1*
X25417Y20774D1*
X25451Y20894D1*
X25512Y21003D1*
X25597Y21094D1*
X25697Y21161D1*
X25410Y21160D1*
Y22220D1*
X26470D1*
Y21160D1*
X26185D1*
X26286Y21093D1*
X26370Y21001D1*
X26431Y20892D1*
X26464Y20772D1*
X26470Y20690D1*
X26456Y20566D1*
X26413Y20449D1*
X26343Y20346D1*
X26252Y20261D1*
X26180Y20221D1*
X26470Y20220D1*
Y19160D1*
X25410D1*
Y20220D1*
X25535D1*
X23685D2*
X24720D1*
Y19160D1*
X22660D1*
Y20220D1*
X23720Y20217D1*
X23685Y20220D1*
X28162Y21221D2*
X29098D1*
Y20160D1*
X28037D1*
Y20445D1*
X27970Y20346D1*
X27879Y20261D1*
X27770Y20201D1*
X27650Y20167D1*
X27525Y20162D1*
X27403Y20186D1*
X27290Y20239D1*
X27192Y20316D1*
X27115Y20414D1*
X27063Y20527D1*
X27039Y20650D1*
X27044Y20774D1*
X27078Y20894D1*
X27139Y21003D1*
X27224Y21094D1*
X27327Y21163D1*
X27445Y21206D1*
X27568Y21221D1*
X27692Y21206D1*
X27809Y21162D1*
X27913Y21093D1*
X27997Y21001D1*
X28037Y20930D1*
Y21221D1*
X28162D1*
X54410Y23720D2*
X55345D1*
Y23435D1*
X55387Y23503D1*
X55472Y23594D1*
X55575Y23663D1*
X55692Y23706D1*
X55816Y23720D1*
X55940Y23705D1*
X56057Y23662D1*
X56161Y23593D1*
X56245Y23501D1*
X56306Y23392D1*
X56339Y23272D1*
X56345Y23190D1*
X56331Y23066D1*
X56288Y22949D1*
X56218Y22846D1*
X56127Y22761D1*
X56018Y22700D1*
X55898Y22666D1*
X55773Y22662D1*
X55651Y22686D1*
X55538Y22738D1*
X55440Y22816D1*
X55363Y22914D1*
X55345Y22953D1*
Y22660D1*
X54285D1*
Y23720D1*
X54410D1*
X56660D2*
X57595D1*
Y23435D1*
X57637Y23503D1*
X57722Y23594D1*
X57825Y23663D1*
X57942Y23706D1*
X58066Y23720D1*
X58190Y23705D1*
X58307Y23662D1*
X58411Y23593D1*
X58495Y23501D1*
X58556Y23392D1*
X58589Y23272D1*
X58595Y23190D1*
X58581Y23066D1*
X58538Y22949D1*
X58468Y22846D1*
X58377Y22761D1*
X58268Y22700D1*
X58148Y22666D1*
X58023Y22662D1*
X57901Y22686D1*
X57788Y22738D1*
X57690Y22816D1*
X57613Y22914D1*
X57595Y22953D1*
Y22660D1*
X56535D1*
Y23720D1*
X56660D1*
X58910D2*
X59845D1*
Y23435D1*
X59887Y23503D1*
X59972Y23594D1*
X60075Y23663D1*
X60192Y23706D1*
X60316Y23720D1*
X60440Y23705D1*
X60557Y23662D1*
X60661Y23593D1*
X60745Y23501D1*
X60806Y23392D1*
X60839Y23272D1*
X60845Y23190D1*
X60831Y23066D1*
X60788Y22949D1*
X60718Y22846D1*
X60627Y22761D1*
X60518Y22700D1*
X60398Y22666D1*
X60273Y22662D1*
X60151Y22686D1*
X60038Y22738D1*
X59940Y22816D1*
X59863Y22914D1*
X59845Y22953D1*
Y22660D1*
X58785D1*
Y23720D1*
X58910D1*
X61160D2*
X62095D1*
Y23435D1*
X62137Y23503D1*
X62222Y23594D1*
X62325Y23663D1*
X62442Y23706D1*
X62566Y23720D1*
X62690Y23705D1*
X62807Y23662D1*
X62911Y23593D1*
X62995Y23501D1*
X63056Y23392D1*
X63089Y23272D1*
X63095Y23190D1*
X63081Y23066D1*
X63038Y22949D1*
X62968Y22846D1*
X62877Y22761D1*
X62768Y22700D1*
X62648Y22666D1*
X62523Y22662D1*
X62401Y22686D1*
X62288Y22738D1*
X62190Y22816D1*
X62113Y22914D1*
X62095Y22953D1*
Y22660D1*
X61035D1*
Y23720D1*
X61160D1*
X63410D2*
X64345D1*
Y23435D1*
X64387Y23503D1*
X64472Y23594D1*
X64575Y23663D1*
X64692Y23706D1*
X64816Y23720D1*
X64940Y23705D1*
X65057Y23662D1*
X65161Y23593D1*
X65245Y23501D1*
X65306Y23392D1*
X65339Y23272D1*
X65345Y23190D1*
X65331Y23066D1*
X65288Y22949D1*
X65218Y22846D1*
X65127Y22761D1*
X65018Y22700D1*
X64898Y22666D1*
X64773Y22662D1*
X64651Y22686D1*
X64538Y22738D1*
X64440Y22816D1*
X64363Y22914D1*
X64345Y22953D1*
Y22660D1*
X63285D1*
Y23720D1*
X63410D1*
X49910D2*
X50845D1*
Y23435D1*
X50887Y23503D1*
X50972Y23594D1*
X51075Y23663D1*
X51192Y23706D1*
X51316Y23720D1*
X51440Y23705D1*
X51557Y23662D1*
X51661Y23593D1*
X51745Y23501D1*
X51806Y23392D1*
X51839Y23272D1*
X51845Y23190D1*
X51831Y23066D1*
X51788Y22949D1*
X51718Y22846D1*
X51627Y22761D1*
X51518Y22700D1*
X51398Y22666D1*
X51273Y22662D1*
X51151Y22686D1*
X51038Y22738D1*
X50940Y22816D1*
X50863Y22914D1*
X50845Y22953D1*
Y22660D1*
X49785D1*
Y23720D1*
X49910D1*
X52160D2*
X53095D1*
X53097Y23439D1*
X53168Y23542D1*
X53261Y23625D1*
X53371Y23684D1*
X53492Y23715D1*
X53616Y23718D1*
X53738Y23691D1*
X53850Y23637D1*
X53947Y23558D1*
X54022Y23459D1*
X54072Y23345D1*
X54094Y23222D1*
X54090Y23115D1*
X54058Y22995D1*
X53999Y22885D1*
X53916Y22792D1*
X53813Y22721D1*
X53697Y22676D1*
X53573Y22660D1*
X53449Y22673D1*
X53331Y22714D1*
X53227Y22782D1*
X53141Y22872D1*
X53095Y22944D1*
Y22660D1*
X52035D1*
Y23720D1*
X52160D1*
X53173Y5244D2*
X53244D1*
Y4318D1*
X54190Y4315D1*
X69686D1*
X69576Y4440D1*
X69479Y4585D1*
X69401Y4742D1*
X69345Y4907D1*
X69310Y5079D1*
X69299Y5253D1*
X69311Y5428D1*
X69345Y5599D1*
X69402Y5765D1*
X69479Y5921D1*
X69577Y6066D1*
X69693Y6197D1*
X69825Y6312D1*
X69971Y6408D1*
X70129Y6484D1*
X70295Y6539D1*
X70467Y6571D1*
X70641Y6581D1*
X70816Y6568D1*
X70987Y6532D1*
X71152Y6474D1*
X71307Y6394D1*
X71451Y6295D1*
X71565Y6194D1*
X71563Y22058D1*
X71431Y21944D1*
X71285Y21848D1*
X71127Y21771D1*
X70961Y21716D1*
X70790Y21684D1*
X70615Y21674D1*
X70441Y21687D1*
X70269Y21723D1*
X70105Y21781D1*
X69949Y21860D1*
X69805Y21960D1*
X69675Y22077D1*
X69561Y22210D1*
X69467Y22357D1*
X69392Y22515D1*
X69338Y22681D1*
X69307Y22853D1*
X69299Y23028D1*
X69314Y23202D1*
X69352Y23373D1*
X69411Y23538D1*
X69492Y23693D1*
X69593Y23836D1*
X69711Y23964D1*
X69830Y24065D1*
X47057Y24060D1*
X47189Y23946D1*
X47304Y23815D1*
X47402Y23670D1*
X47480Y23513D1*
X47536Y23347D1*
X47570Y23176D1*
X47582Y23003D1*
X47570Y22828D1*
X47536Y22657D1*
X47479Y22491D1*
X47401Y22334D1*
X47304Y22189D1*
X47188Y22058D1*
X47056Y21944D1*
X46910Y21848D1*
X46752Y21771D1*
X46586Y21716D1*
X46415Y21684D1*
X46240Y21674D1*
X46066Y21687D1*
X45894Y21723D1*
X45730Y21781D1*
X45574Y21860D1*
X45430Y21960D1*
X45300Y22077D1*
X45186Y22210D1*
X45092Y22357D1*
X45017Y22515D1*
X44963Y22681D1*
X44932Y22853D1*
X44924Y23028D1*
X44939Y23202D1*
X44977Y23373D1*
X45036Y23538D1*
X45117Y23693D1*
X45218Y23836D1*
X45336Y23964D1*
X45455Y24065D1*
X30432Y24060D1*
X30564Y23946D1*
X30679Y23815D1*
X30777Y23670D1*
X30855Y23513D1*
X30911Y23347D1*
X30945Y23176D1*
X30957Y23003D1*
X30945Y22828D1*
X30911Y22657D1*
X30854Y22491D1*
X30776Y22334D1*
X30679Y22189D1*
X30563Y22058D1*
X30431Y21944D1*
X30285Y21848D1*
X30127Y21771D1*
X29961Y21716D1*
X29790Y21684D1*
X29615Y21674D1*
X29441Y21687D1*
X29269Y21723D1*
X29105Y21781D1*
X28949Y21860D1*
X28805Y21960D1*
X28675Y22077D1*
X28561Y22210D1*
X28467Y22357D1*
X28392Y22515D1*
X28338Y22681D1*
X28307Y22853D1*
X28299Y23028D1*
X28314Y23202D1*
X28352Y23373D1*
X28411Y23538D1*
X28492Y23693D1*
X28593Y23836D1*
X28711Y23964D1*
X28830Y24065D1*
X4315D1*
Y4315D1*
X22436D1*
X22326Y4440D1*
X22229Y4585D1*
X22151Y4742D1*
X22095Y4907D1*
X22060Y5079D1*
X22049Y5253D1*
X22061Y5428D1*
X22095Y5599D1*
X22152Y5765D1*
X22229Y5921D1*
X22327Y6066D1*
X22443Y6197D1*
X22575Y6312D1*
X22721Y6408D1*
X22879Y6484D1*
X23045Y6539D1*
X23217Y6571D1*
X23391Y6581D1*
X23566Y6568D1*
X23737Y6532D1*
X23902Y6474D1*
X24057Y6394D1*
X24201Y6295D1*
X24331Y6178D1*
X24445Y6045D1*
X24539Y5898D1*
X24614Y5740D1*
X24667Y5573D1*
X24698Y5401D1*
X24706Y5228D1*
X24691Y5053D1*
X24654Y4883D1*
X24594Y4718D1*
X24514Y4563D1*
X24413Y4420D1*
X24319Y4315D1*
X46280D1*
X46199Y4435D1*
X46154Y4552D1*
X46136Y4675D1*
X46147Y4799D1*
X46185Y4918D1*
X46249Y5025D1*
X46335Y5115D1*
X46371Y5142D1*
X45815Y5143D1*
X45692Y5159D1*
X45576Y5206D1*
X45476Y5281D1*
X45399Y5378D1*
X45349Y5493D1*
X45330Y5616D1*
X45343Y5740D1*
X45387Y5856D1*
X45460Y5958D1*
X45556Y6037D1*
X45669Y6090D1*
X45815Y6113D1*
X46819D1*
X46801Y6138D1*
X46772Y6252D1*
Y7502D1*
X46804Y7621D1*
X46893Y7707D1*
X47007Y7737D1*
X48401Y7740D1*
X48321Y7836D1*
X48271Y7950D1*
X48255Y8074D1*
X48275Y8196D1*
X48330Y8309D1*
X48390Y8375D1*
Y9311D1*
X48321Y9398D1*
X48271Y9512D1*
X48255Y9636D1*
X48275Y9759D1*
X48330Y9871D1*
X48413Y9963D1*
X48520Y10028D1*
X48640Y10060D1*
X48765Y10056D1*
X48883Y10017D1*
X48986Y9947D1*
X49064Y9850D1*
X49112Y9735D1*
X49125Y9628D1*
X49107Y9504D1*
X49055Y9391D1*
X48991Y9318D1*
X48990Y8382D1*
X49064Y8287D1*
X49112Y8172D1*
X49125Y8065D1*
X49107Y7942D1*
X49055Y7829D1*
X48976Y7738D1*
X49401Y7740D1*
X49321Y7836D1*
X49271Y7950D1*
X49255Y8074D1*
X49275Y8196D1*
X49330Y8309D1*
X49390Y8375D1*
Y8874D1*
X49321Y8961D1*
X49271Y9075D1*
X49255Y9199D1*
X49275Y9321D1*
X49330Y9434D1*
X49413Y9526D1*
X49520Y9590D1*
X49640Y9622D1*
X49765Y9619D1*
X49883Y9580D1*
X49986Y9509D1*
X50064Y9412D1*
X50112Y9297D1*
X50125Y9190D1*
X50107Y9067D1*
X50055Y8954D1*
X49991Y8880D1*
X49990Y8382D1*
X50064Y8287D1*
X50112Y8172D1*
X50125Y8065D1*
X50107Y7942D1*
X50055Y7829D1*
X49976Y7738D1*
X50401Y7740D1*
X50321Y7836D1*
X50271Y7950D1*
X50255Y8074D1*
X50275Y8196D1*
X50330Y8309D1*
X50390Y8375D1*
Y8499D1*
X50321Y8586D1*
X50271Y8700D1*
X50255Y8824D1*
X50275Y8946D1*
X50330Y9059D1*
X50413Y9151D1*
X50520Y9215D1*
X50640Y9247D1*
X50765Y9244D1*
X50883Y9205D1*
X50986Y9134D1*
X51064Y9037D1*
X51112Y8922D1*
X51125Y8815D1*
X51107Y8692D1*
X51055Y8579D1*
X50991Y8505D1*
X50990Y8382D1*
X51064Y8287D1*
X51112Y8172D1*
X51125Y8065D1*
X51107Y7942D1*
X51055Y7829D1*
X50976Y7738D1*
X53195Y7737D1*
X53314Y7704D1*
X53400Y7616D1*
X53430Y7502D1*
Y6252D1*
X53397Y6133D1*
X53309Y6046D1*
X53195Y6017D1*
X52605D1*
X52835Y5794D1*
X53033Y5596D1*
X53109Y5497D1*
X53158Y5382D1*
X53175Y5241D1*
X29806Y14941D2*
X29770Y14822D1*
X29710Y14712D1*
X29663Y14655D1*
X29826Y14563D1*
X29917Y14478D1*
X29989Y14376D1*
X30039Y14262D1*
X30067Y14140D1*
X30071Y14065D1*
X30059Y13941D1*
X30022Y13822D1*
X29963Y13712D1*
X29883Y13616D1*
X29785Y13538D1*
X29674Y13481D1*
X29554Y13446D1*
X29430Y13436D1*
X29306Y13451D1*
X29188Y13490D1*
X29079Y13552D1*
X28985Y13634D1*
X28909Y13733D1*
X28854Y13845D1*
X28822Y13965D1*
X28814Y14090D1*
X28831Y14214D1*
X28873Y14331D1*
X28937Y14439D1*
X28971Y14476D1*
X28827Y14552D1*
X28733Y14634D1*
X28656Y14733D1*
X28601Y14845D1*
X28569Y14965D1*
X28562Y15090D1*
X28579Y15214D1*
X28621Y15331D1*
X28684Y15439D1*
X28768Y15531D1*
X28868Y15605D1*
X28982Y15658D1*
X29103Y15688D1*
X29227Y15693D1*
X29351Y15673D1*
X29468Y15629D1*
X29574Y15563D1*
X29664Y15478D1*
X29737Y15376D1*
X29787Y15262D1*
X29814Y15140D1*
X29819Y15065D1*
X29806Y14941D1*
X26854D2*
X26817Y14822D1*
X26758Y14712D1*
X26678Y14616D1*
X26580Y14538D1*
X26469Y14481D1*
X26349Y14447D1*
X26225Y14437D1*
X26101Y14451D1*
X25983Y14490D1*
X25874Y14552D1*
X25780Y14634D1*
X25704Y14733D1*
X25649Y14845D1*
X25617Y14965D1*
X25609Y15090D1*
X25626Y15214D1*
X25668Y15331D1*
X25732Y15439D1*
X25771Y15482D1*
X25639Y15552D1*
X25545Y15634D1*
X25469Y15733D1*
X25414Y15845D1*
X25382Y15965D1*
X25374Y16090D1*
X25392Y16214D1*
X25433Y16331D1*
X25497Y16439D1*
X25581Y16531D1*
X25681Y16605D1*
X25794Y16658D1*
X25915Y16688D1*
X26040Y16693D1*
X26163Y16673D1*
X26280Y16629D1*
X26386Y16563D1*
X26477Y16478D1*
X26549Y16376D1*
X26600Y16262D1*
X26627Y16140D1*
X26631Y16065D1*
X26619Y15941D1*
X26582Y15822D1*
X26523Y15712D1*
X26470Y15649D1*
X26621Y15563D1*
X26712Y15478D1*
X26784Y15376D1*
X26834Y15262D1*
X26862Y15140D1*
X26866Y15065D1*
X26854Y14941D1*
X28298Y5378D2*
X28254Y5261D1*
X28185Y5157D1*
X28093Y5073D1*
X27985Y5012D1*
X27865Y4978D1*
X27740Y4973D1*
X27618Y4997D1*
X27504Y5050D1*
X27407Y5127D1*
X27329Y5225D1*
X27277Y5338D1*
X27253Y5461D1*
X27258Y5585D1*
X27292Y5705D1*
X27353Y5814D1*
X27438Y5905D1*
X27542Y5975D1*
X27659Y6018D1*
X27783Y6032D1*
X27907Y6017D1*
X28024Y5974D1*
X28127Y5904D1*
X28212Y5812D1*
X28272Y5703D1*
X28306Y5583D1*
X28312Y5502D1*
X28298Y5378D1*
X36834Y20692D2*
X36791Y20575D1*
X36721Y20471D1*
X36630Y20387D1*
X36521Y20326D1*
X36401Y20292D1*
X36276Y20287D1*
X36154Y20312D1*
X36041Y20364D1*
X35943Y20441D1*
X35866Y20539D1*
X35814Y20653D1*
X35789Y20775D1*
X35795Y20899D1*
X35829Y21019D1*
X35890Y21128D1*
X35974Y21220D1*
X36078Y21289D1*
X36195Y21332D1*
X36319Y21346D1*
X36443Y21331D1*
X36560Y21288D1*
X36664Y21218D1*
X36748Y21126D1*
X36809Y21017D1*
X36842Y20897D1*
X36848Y20816D1*
X36834Y20692D1*
X38271Y22067D2*
X38228Y21950D1*
X38159Y21846D1*
X38067Y21762D1*
X37958Y21701D1*
X37838Y21667D1*
X37714Y21662D1*
X37591Y21687D1*
X37478Y21739D1*
X37380Y21816D1*
X37303Y21914D1*
X37251Y22028D1*
X37227Y22150D1*
X37232Y22275D1*
X37266Y22395D1*
X37327Y22503D1*
X37412Y22595D1*
X37516Y22664D1*
X37633Y22707D1*
X37757Y22721D1*
X37881Y22706D1*
X37998Y22663D1*
X38101Y22593D1*
X38186Y22501D1*
X38246Y22393D1*
X38280Y22272D1*
X38286Y22191D1*
X38271Y22067D1*
X51237Y12570D2*
X52649Y13981D1*
X52760Y14043D1*
X52940Y14050D1*
X53007D1*
X53025Y14134D1*
X53080Y14246D1*
X53140Y14312D1*
Y15186D1*
X53071Y15273D1*
X53021Y15387D1*
X53005Y15511D1*
X53025Y15634D1*
X53080Y15746D1*
X53163Y15838D1*
X53270Y15903D1*
X53390Y15935D1*
X53515Y15931D1*
X53633Y15892D1*
X53720Y15833D1*
X53832Y15903D1*
X53953Y15935D1*
X54077Y15931D1*
X54196Y15892D1*
X54282Y15833D1*
X54395Y15903D1*
X54515Y15935D1*
X54640Y15931D1*
X54758Y15892D1*
X54845Y15833D1*
X54957Y15903D1*
X55078Y15935D1*
X55202Y15931D1*
X55321Y15892D1*
X55423Y15822D1*
X55502Y15725D1*
X55549Y15610D1*
X55563Y15503D1*
X55545Y15379D1*
X55493Y15266D1*
X55429Y15193D1*
X55428Y14319D1*
X55502Y14225D1*
X55549Y14110D1*
X55563Y14003D1*
X55545Y13879D1*
X55493Y13766D1*
X55411Y13672D1*
X55306Y13606D1*
X55186Y13572D1*
X55061Y13573D1*
X54942Y13609D1*
X54848Y13671D1*
X54835Y13628D1*
X55731Y12731D1*
X55793Y12624D1*
X55791Y12501D1*
X55731Y12399D1*
X53106Y9774D1*
X52999Y9713D1*
X52876Y9714D1*
X52774Y9774D1*
X51149Y11399D1*
X51088Y11510D1*
X51080Y11690D1*
Y12315D1*
X51115Y12437D1*
X51237Y12570D1*
X27871Y11482D2*
X28478Y12090D1*
X28586Y12158D1*
X28690Y12178D1*
X29819Y12181D1*
X29838Y12321D1*
X29892Y12434D1*
X29976Y12526D1*
X30082Y12590D1*
X30203Y12622D1*
X30327Y12619D1*
X30446Y12580D1*
X30548Y12509D1*
X30627Y12412D1*
X30674Y12297D1*
X30688Y12190D1*
X30670Y12067D1*
X30618Y11954D1*
X30536Y11860D1*
X30431Y11793D1*
X30311Y11759D1*
X30245Y11760D1*
X30152Y11666D1*
X30044Y11597D1*
X29940Y11578D1*
X28814Y11577D1*
X28424Y11188D1*
X28438Y11069D1*
X28420Y10946D1*
X28368Y10832D1*
X28286Y10739D1*
X28181Y10672D1*
X28061Y10638D1*
X27936Y10639D1*
X27817Y10675D1*
X27713Y10744D1*
X27633Y10840D1*
X27583Y10954D1*
X27568Y11077D1*
X27588Y11200D1*
X27642Y11312D1*
X27726Y11405D1*
X27832Y11469D1*
X27866Y11478D1*
X31353Y9422D2*
X31321Y9461D1*
X31271Y9575D1*
X31255Y9699D1*
X31275Y9821D1*
X31330Y9934D1*
X31413Y10026D1*
X31520Y10090D1*
X31640Y10122D1*
X31765Y10119D1*
X31883Y10080D1*
X31986Y10009D1*
X32003Y9988D1*
X52267Y18757D2*
Y18874D1*
X52197Y18961D1*
X52148Y19075D1*
X52132Y19199D1*
X52152Y19321D1*
X52207Y19434D1*
X52290Y19526D1*
X52397Y19590D1*
X52517Y19622D1*
X52642Y19619D1*
X52760Y19580D1*
X52863Y19509D1*
X52941Y19412D1*
X52989Y19297D1*
X53002Y19190D1*
X52984Y19067D1*
X52932Y18954D1*
X52868Y18880D1*
X52867Y18757D1*
X52941Y18662D1*
X52989Y18547D1*
X53002Y18440D1*
X52984Y18317D1*
X52932Y18204D1*
X52850Y18110D1*
X52745Y18043D1*
X52625Y18009D1*
X52501Y18010D1*
X52382Y18047D1*
X52278Y18115D1*
X52197Y18211D1*
X52148Y18325D1*
X52132Y18449D1*
X52152Y18571D1*
X52207Y18684D1*
X52267Y18750D1*
X67071Y12041D2*
D14*
Y10824D1*
X66463Y11432D2*
X67680D1*
X33343Y22533D2*
Y21474D1*
X32813Y22003D2*
X33343D1*
X31443Y21445D2*
Y20916D1*
X30913D2*
X31972D1*
X25565Y10278D2*
Y9748D1*
X25035Y10278D2*
X26095D1*
X35318Y6720D2*
Y5660D1*
X34788Y6190D2*
X35848D1*
X31721Y6032D2*
Y4973D1*
X31191Y5503D2*
X32250D1*
X39101Y12909D2*
X40160D1*
X43130Y10940D2*
Y10410D1*
Y10940D2*
X43660D1*
X24190Y22220D2*
Y21160D1*
Y21690D2*
X24720D1*
X24190Y20220D2*
Y19160D1*
Y19690D2*
X24720D1*
X53565Y23720D2*
Y22660D1*
Y23190D2*
X54095D1*
X46137Y4690D2*
X46690D1*
X29628Y23003D2*
Y21674D1*
X28300Y23003D2*
X30956D1*
X46253D2*
Y21674D1*
X44925Y23003D2*
X47581D1*
X70628D2*
Y21674D1*
X69300Y23003D2*
X70628D1*
X23378Y6581D2*
Y5253D1*
X22050D2*
X24706D1*
X70628Y6581D2*
Y5253D1*
X69300D2*
X70628D1*
X68090Y20149D2*
Y18932D1*
Y19540D2*
X68699D1*
X41965Y14504D2*
D20*
X44476D1*
X42135Y14255D2*
X44476D1*
X42385Y14007D2*
X44476D1*
X42635Y13758D2*
X44476D1*
X42881Y13509D2*
X44476D1*
X43576Y13261D2*
X44476D1*
X43682Y13012D2*
X44476D1*
X43655Y12763D2*
X44476D1*
X43471Y12514D2*
X44476D1*
X43573Y12266D2*
X44476D1*
X43678Y12017D2*
X44476D1*
X43660Y12915D2*
X43640Y12792D1*
X43591Y12677D1*
X43517Y12577D1*
X43421Y12497D1*
X43310Y12441D1*
X43372Y12412D1*
X43476Y12343D1*
X43560Y12251D1*
X43621Y12142D1*
X43654Y12022D1*
X43661Y11940D1*
X43645Y11813D1*
X44503Y11815D1*
Y14753D1*
X41940D1*
Y14428D1*
X42840Y13527D1*
X42908Y13419D1*
X42983Y13450D1*
X43106Y13470D1*
X43231Y13461D1*
X43350Y13423D1*
X43456Y13358D1*
X43545Y13271D1*
X43611Y13165D1*
X43650Y13046D1*
X43661Y12940D1*
X43660Y12915D1*
X43130Y13470D2*
D14*
Y12940D1*
X43660D1*
X52643Y13441D2*
D20*
X54487D1*
X52393Y13193D2*
X54737D1*
X52147Y12944D2*
X54984D1*
X51897Y12695D2*
X55234D1*
X51647Y12447D2*
X55245D1*
X51465Y12198D2*
X54995D1*
X51465Y11949D2*
X54749D1*
X51465Y11701D2*
X54499D1*
X51631Y11452D2*
X54249D1*
X51877Y11203D2*
X54003D1*
X52127Y10955D2*
X53753D1*
X52377Y10706D2*
X53503D1*
X52623Y10457D2*
X53257D1*
X52873Y10209D2*
X53010D1*
X53720Y13670D2*
X53618Y13606D1*
X53498Y13572D1*
X53374Y13573D1*
X53255Y13609D1*
X53138Y13693D1*
X52866Y13690D1*
X51438Y12262D1*
X51440Y11616D1*
X52940Y10117D1*
X55388Y12565D1*
X54281Y13673D1*
X54181Y13606D1*
X54061Y13572D1*
X53936Y13573D1*
X53817Y13609D1*
X53723Y13671D1*
X47157Y7128D2*
X53046D1*
X47157Y6879D2*
X53046D1*
X47157Y6631D2*
X53046D1*
X47157Y6382D2*
X53046D1*
X47132Y7252D2*
Y6377D1*
X53070D1*
Y7377D1*
X47132D1*
Y7252D1*
D24*
X67071Y19503D3*
D25*
Y11432D3*
D28*
X34130Y22003D3*
D29*
X33343D3*
D30*
X31443Y20128D3*
D29*
Y20916D3*
D30*
X25565Y11065D3*
D29*
Y10278D3*
D28*
X33940Y6190D3*
D29*
X35318D3*
X25815Y5503D3*
X31721D3*
D32*
X32440Y9065D3*
D33*
X36850D3*
D28*
X39630Y10909D3*
D29*
Y11909D3*
Y12909D3*
Y13909D3*
Y14909D3*
Y15909D3*
D28*
X42130Y12940D3*
D29*
X43130D3*
X42130Y11940D3*
X43130D3*
X42130Y10940D3*
X43130D3*
D28*
X23190Y21690D3*
X24190D3*
X25940Y19690D3*
D29*
Y20690D3*
D28*
Y21690D3*
X24190Y19690D3*
X23190D3*
X28567Y20691D3*
D29*
X27567D3*
D28*
X54815Y23190D3*
D29*
X55815D3*
D28*
X57065D3*
D29*
X58065D3*
D28*
X59315D3*
D29*
X60315D3*
D28*
X61565D3*
D29*
X62565D3*
D28*
X63815D3*
D29*
X64815D3*
D28*
X50315D3*
D29*
X51315D3*
D28*
X52565D3*
D29*
X53565D3*
D34*
X52690Y4690D3*
D35*
X51690D3*
X50690D3*
X49690D3*
X48690D3*
X47690D3*
X46690D3*
D37*
X29190Y15065D3*
X26237D3*
D38*
X29628Y23003D3*
X46253D3*
X70628D3*
X23378Y5253D3*
X70628D3*
D39*
X27782Y5502D3*
X36318Y20816D3*
X37756Y22191D3*
D37*
X26003Y16065D3*
X29442Y14065D3*
D40*
X68090Y19540D3*
M02*
