M48
INCH
T01C0.0191
T02C0.0315
T03C0.0354
T04C0.0394
T05C0.0433
T06C0.125
%
T01
X+047625Y+005625
X+047625Y+005000
X+049875Y+005000
X+049875Y+005625
X+052125Y+005625
X+052125Y+005000
X+054375Y+005000
X+054375Y+005625
X+056625Y+005625
X+056625Y+005000
X+052187Y-003563
X+051875Y-003875
X+047000Y-002750
X+046500Y-003250
X+046000Y-003750
X+045500Y-004250
X+045000Y-004750
X+044000Y-002750
X+044500Y-002250
X+045000Y-001750
X+045500Y-001188
X+046062Y-001188
X+046625Y-001188
X+047187Y-001188
X+047187Y+000312
X+046625Y+000312
X+046062Y+000312
X+045500Y+000312
X+044627Y+003250
X+044627Y+004000
X+043692Y+004625
X+037316Y+000500
X+036879Y+000063
X+036187Y-000625
X+035625Y-000625
X+035062Y-000625
X+034500Y-000625
X+036023Y-002325
X+036375Y-002000
X+036062Y-003250
X+036062Y-003813
X+036879Y-004564
X+036875Y-005063
X+037316Y-004064
X+035750Y-005000
X+035187Y-005000
X+036562Y-006187
X+039317Y-008313
X+039817Y-008313
X+040750Y-007125
X+041750Y-007125
X+042750Y-007125
X+042750Y-006375
X+041750Y-006000
X+040750Y-005563
X+040937Y-003625
X+040937Y-003063
X+044505Y-008313
X+045005Y-008313
X+037875Y-009563
X+026563Y-007063
X+023750Y-007750
X+023750Y-005500
X+022312Y-003000
X+020062Y-004121
X+018375Y-004938
X+025003Y+003625
X+025003Y+004000
X+025378Y+004000
X+025378Y+003625
T02
X+023502Y+004938
X+017625Y-004125
T03
X+026190Y+006813
X+025403Y+006813
X+023502Y+005725
X+020627Y+005500
X+019627Y+005500
X+018000Y+005500
X+018000Y+004500
X+016250Y+004500
X+015250Y+004500
X+015250Y+006500
X+016250Y+006500
X+018000Y+006500
X+028378Y+005626
X+029816Y+007001
X+031690Y+000719
X+031690Y-000281
X+031690Y-001281
X+031690Y-002281
X+031690Y-003281
X+031690Y-004281
X+034190Y-004250
X+034190Y-003250
X+034190Y-002250
X+035190Y-002250
X+035190Y-003250
X+035190Y-004250
X+027378Y-009000
X+026000Y-009000
X+023781Y-009688
X+019842Y-009689
X+017875Y-009688
X+017625Y-004912
X+042375Y+008000
X+043375Y+008000
X+044625Y+008000
X+045625Y+008000
X+046875Y+008000
X+047875Y+008000
X+049125Y+008000
X+050125Y+008000
X+051375Y+008000
X+052375Y+008000
X+053625Y+008000
X+054625Y+008000
X+055875Y+008000
X+056875Y+008000
T04
X+024500Y-006125
X+028909Y-006125
X+038750Y-010500
X+039750Y-010500
X+040750Y-010500
X+041750Y-010500
X+042750Y-010500
X+043750Y-010500
X+044750Y-010500
T05
X+059131Y+004313
X+060150Y+004350
X+059131Y-003758
X+021502Y-001125
X+021250Y-000125
X+018297Y-000125
X+018062Y+000875
T06
X+021688Y+007812
X+038313Y+007812
X+062688Y+007812
X+062688Y-009938
X+015438Y-009938
T00
M30
