G04 DipTrace 2.4.0.2*
%INTop.gbr*%
%MOIN*%
%ADD13C,0.05*%
%ADD14C,0.013*%
%ADD15C,0.02*%
%ADD16C,0.0118*%
%ADD17C,0.04*%
%ADD18C,0.0157*%
%ADD19C,0.008*%
%ADD20C,0.025*%
%ADD24R,0.0748X0.0748*%
%ADD25C,0.0748*%
%ADD26R,0.0591X0.0512*%
%ADD27R,0.0512X0.0591*%
%ADD28R,0.0591X0.0591*%
%ADD29C,0.0591*%
%ADD30R,0.0531X0.0531*%
%ADD31R,0.0551X0.0709*%
%ADD32R,0.063X0.063*%
%ADD33C,0.063*%
%ADD34R,0.0638X0.0638*%
%ADD35C,0.0638*%
%ADD36R,0.0787X0.0394*%
%ADD37C,0.0787*%
%ADD38C,0.2187*%
%ADD39C,0.0591*%
%ADD40C,0.0748*%
%ADD42R,0.0413X0.0256*%
%ADD43R,0.0591X0.1555*%
%ADD44R,0.4094X0.3819*%
%ADD45R,0.126X0.0709*%
%ADD46R,0.0787X0.0236*%
%ADD47R,0.0551X0.0157*%
%ADD48R,0.0551X0.0118*%
%FSLAX44Y44*%
G04*
G70*
G90*
G75*
G01*
%LNTop*%
%LPD*%
X32440Y9065D2*
D13*
X31065D1*
X33940Y6190D2*
X32440Y7690D1*
Y9065D1*
Y7315D1*
X31940Y6815D1*
X26315D1*
X25815Y6315D1*
Y5503D1*
X33940Y6190D2*
Y6065D1*
X35003Y5003D1*
X37565D1*
X38190Y5628D1*
X45815D1*
X35440Y19503D2*
D14*
Y19569D1*
X35006Y20003D1*
X34684D1*
X34676Y19995D1*
X64815Y23190D2*
D15*
Y23378D1*
X64315Y23878D1*
X62565D1*
X60315D1*
X58065D1*
X55895D1*
X51315D1*
Y23190D1*
X55815D2*
Y23798D1*
X55895Y23878D1*
X58065Y23190D2*
Y23878D1*
X60315Y23190D2*
Y23878D1*
X62565Y23190D2*
Y23878D1*
X50315Y21565D2*
Y22253D1*
X50503Y22440D1*
X50565D1*
X51315Y23190D1*
X36318Y22222D2*
X37756D1*
X43409D1*
X44253Y21378D1*
X48753D1*
X49378Y22003D1*
Y23315D1*
X49940Y23878D1*
X51315D1*
X46003Y12126D2*
D14*
X45442D1*
X45065Y12503D1*
X49703Y11626D2*
X50751D1*
X50753Y11628D1*
X57440Y12628D2*
X56628D1*
X56440Y12815D1*
X56315D1*
Y13815D2*
Y12815D1*
X50753Y11628D2*
X51190D1*
X51440Y11878D1*
Y13126D1*
X51439Y13127D1*
X58940Y8815D2*
Y12065D1*
X58378Y12628D1*
X57440D1*
X37756Y22191D2*
D15*
Y22222D1*
X34676Y19995D2*
D14*
X34326D1*
X34130Y20191D1*
Y22003D1*
X27315Y11065D2*
Y11317D1*
X27067Y11565D1*
Y14938D1*
X26940Y15065D1*
X26237D1*
X25565Y11065D2*
X27315D1*
X30426Y11069D2*
D16*
X30061D1*
D14*
X29690Y11440D1*
X27690D1*
X27315Y11065D1*
X26237Y15065D2*
D13*
X26817Y15645D1*
Y17878D1*
X29005Y20066D1*
X29261D1*
Y20128D1*
X29880D1*
X28567Y20691D2*
D17*
X28699D1*
X29261Y20128D1*
X29880D2*
X31443D1*
X32944Y20251D2*
D14*
Y20128D1*
D17*
X31443D1*
X32944Y19995D2*
D14*
Y20128D1*
X30426Y10478D2*
D16*
X30767D1*
D14*
X31152D1*
X31315Y10315D1*
X27315Y8817D2*
Y8690D1*
X28442D1*
X28817Y9065D1*
Y8190D2*
Y9065D1*
X25565Y10278D2*
Y9440D1*
X26190Y8815D1*
X27313D1*
X27315Y8817D1*
X28817Y8190D2*
Y7688D1*
X29065Y7440D1*
X30317D1*
X31315Y10315D2*
D17*
X32315D1*
X33255Y9375D1*
Y8125D1*
X35190Y6190D1*
X35318D1*
X46003Y11626D2*
D14*
X45194D1*
X45065Y11755D1*
X49703Y12126D2*
X50126D1*
X50376Y12376D1*
X50753D1*
X28694Y10281D2*
D16*
Y10157D1*
D14*
Y9188D1*
X28817Y9065D1*
X32693Y10173D2*
X31458D1*
X31315Y10315D1*
X62128Y11505D2*
D15*
X66999D1*
X67071Y11432D1*
X61141Y11628D2*
X62005D1*
X62128Y11505D1*
X61141Y11628D2*
D14*
X60128D1*
X59690Y11190D1*
Y8817D1*
X59688Y8815D1*
X43130Y10940D2*
X43253D1*
X43315Y10878D1*
X44253D1*
X45065Y11690D1*
Y11755D1*
X48878Y12128D2*
X49701D1*
X49703Y12126D1*
X48878Y11565D2*
Y12128D1*
X55565Y20815D2*
D17*
Y21265D1*
D13*
Y21563D1*
X55563Y21565D1*
X55565Y20190D2*
D17*
Y20815D1*
X57815D2*
Y21265D1*
D13*
Y21563D1*
X57813Y21565D1*
X57815Y20190D2*
D17*
Y20815D1*
X60065D2*
Y21265D1*
D13*
Y21563D1*
X60063Y21565D1*
X60065Y20190D2*
D17*
Y20815D1*
X62315D2*
Y21265D1*
D13*
Y21563D1*
X62313Y21565D1*
X62315Y20190D2*
D17*
Y20815D1*
X64565D2*
Y21265D1*
D13*
Y21563D1*
X64563Y21565D1*
X64565Y20190D2*
D17*
Y20815D1*
X51146Y19830D2*
D14*
X51618D1*
X51632Y19816D1*
X60128Y11628D2*
D3*
X59815Y11315D2*
X59690Y11190D1*
X29880Y20876D2*
D17*
X31403D1*
X31443Y20916D1*
X32944Y20507D2*
D18*
Y20690D1*
D17*
X32693Y20941D1*
X31468D1*
X31443Y20916D1*
X33343Y22003D2*
Y21591D1*
X32693Y20941D1*
X33343Y22003D2*
X32007D1*
X31943Y22068D1*
X67071Y11432D2*
D15*
X66972D1*
X68060Y12520D1*
Y19570D1*
X68090Y19540D1*
X42130Y12940D2*
D14*
Y13130D1*
X42628Y13628D1*
X46001D1*
X46003Y13626D1*
X49690Y7501D2*
Y8065D1*
Y9190D2*
X47631D1*
X47507Y9315D1*
Y12815D1*
X46694Y13627D1*
X46004D1*
X43130Y11940D2*
X43128D1*
X42628Y11440D1*
X41690D1*
X41378Y11753D1*
Y13253D1*
X42253Y14128D1*
X46001D1*
X46003Y14126D1*
X48690Y7501D2*
Y8065D1*
Y9628D2*
X48128D1*
X47819Y9936D1*
Y13002D1*
X46696Y14126D1*
X46003D1*
X51690Y4690D2*
Y6753D1*
X56315Y12067D2*
X55938D1*
X55815Y12190D1*
Y13940D1*
X55315Y14440D1*
X50690D1*
X50378Y14128D1*
Y13815D1*
X50188Y13626D1*
X49703D1*
X57440Y12128D2*
X56376D1*
X56315Y12067D1*
X61141Y14128D2*
X61690D1*
X61878Y13940D1*
Y13315D1*
X61690Y13128D1*
X61141D1*
X49703Y13126D2*
X49317D1*
X49065Y13378D1*
Y14378D1*
X49753Y15065D1*
X60190D1*
X61128Y14128D1*
X61141D1*
X50691Y13127D2*
X49704D1*
X49703Y13126D1*
X62128Y12253D2*
D15*
X65603D1*
X67071Y13721D1*
Y19503D1*
X61141Y12128D2*
X62003D1*
X62128Y12253D1*
X25940Y20690D2*
D17*
X27567D1*
Y20691D1*
X49703Y14126D2*
D14*
Y14453D1*
X50003Y14753D1*
X56505D1*
X60065D1*
X60503Y14315D1*
Y12753D1*
X60628Y12628D1*
X61141D1*
X56505Y14753D2*
X56315Y14563D1*
X57065Y23190D2*
Y21565D1*
Y18690D1*
X55065Y16690D1*
X54628D1*
X53440Y15503D1*
Y14003D2*
Y13253D1*
X51313Y11126D1*
X49703D1*
X59315Y23190D2*
Y21565D1*
Y18690D1*
X57003Y16378D1*
X54753D1*
X54003Y15628D1*
Y15503D1*
Y14003D2*
Y13378D1*
X51251Y10626D1*
X49703D1*
X61565Y23190D2*
Y21565D1*
Y18690D1*
X58815Y15940D1*
X54753D1*
X54565Y15753D1*
Y15503D1*
Y14003D2*
Y13378D1*
X51313Y10126D1*
X49703D1*
X63815Y23190D2*
Y21565D1*
Y18690D1*
X60628Y15503D1*
X55128D1*
Y14003D2*
Y13315D1*
X51438Y9626D1*
X49703D1*
X50315Y23190D2*
Y23128D1*
X49690Y22503D1*
Y21039D1*
X50039Y20690D1*
X50241Y19456D2*
Y20202D1*
X49896Y20547D1*
X50039Y20690D1*
X51378D2*
Y21251D1*
X51063Y21565D1*
X46003Y10626D2*
X44819D1*
Y15253D2*
X48940D1*
X49378Y15690D1*
X52503D1*
X53478Y16666D1*
Y18065D1*
X51146Y19082D2*
X51082D1*
X51003Y19003D1*
X51320D1*
X51510Y18813D1*
X53478D1*
X34676Y20251D2*
X36316D1*
X36318Y20253D1*
X36188Y19503D2*
X37193D1*
X37631Y19941D1*
Y21191D1*
X37381Y21441D1*
X35256D1*
X35005Y21191D1*
Y20628D1*
X34880Y20503D1*
X34680D1*
X34676Y20507D1*
X34688Y18753D2*
X35440D1*
X34688D2*
Y19727D1*
X34676Y19739D1*
X30426Y10872D2*
D16*
X30767D1*
D14*
X31124D1*
X31315Y11063D1*
X30426Y10675D2*
D19*
X34428D1*
X34630Y10877D1*
X29190Y15065D2*
D17*
X29315D1*
X31065Y13315D1*
X37248D1*
X35630Y14932D1*
X36850Y9065D2*
X37440Y9656D1*
Y13565D1*
X36073Y14932D1*
X35630D1*
X27315Y10317D2*
D14*
Y10253D1*
Y9565D1*
X28694Y10872D2*
D16*
X28372D1*
D14*
X27753Y10253D1*
X27315D1*
X29565Y9065D2*
X30317D1*
X28694Y10478D2*
D16*
X29035D1*
D14*
X29277D1*
X29565Y10190D1*
Y9065D1*
X28694Y11069D2*
D16*
X28353D1*
D14*
X28003D1*
X30253Y12190D2*
X31565D1*
X31752Y12377D1*
X32693D1*
D17*
X32943D1*
X33005Y12440D1*
X35631D1*
X36631Y11440D1*
Y10877D1*
X31065Y8190D2*
D19*
X30815D1*
X30690Y8315D1*
Y9565D1*
X30565Y9690D1*
X29940D1*
X29815Y9815D1*
Y10315D1*
X29440Y10690D1*
X28709D1*
X28694Y10675D1*
X30317Y8190D2*
D14*
X29565D1*
X30426Y10281D2*
Y10204D1*
D15*
X30690Y9940D1*
X30815D1*
X31065Y9690D1*
X31690D1*
Y7440D2*
X31065D1*
X34503Y8127D2*
D14*
X43627D1*
X44503Y9003D1*
X44815Y10128D2*
X46001D1*
X46003Y10126D1*
X52565Y23190D2*
Y21567D1*
X52567Y21565D1*
X46003Y11126D2*
X45257D1*
Y15690D2*
X48940D1*
X49253Y16003D1*
X52378D1*
X52567Y16192D1*
Y18440D1*
Y19190D2*
Y21565D1*
X23190Y21690D2*
D17*
Y21940D1*
X23815Y22565D1*
X25190D1*
X25940Y21815D1*
Y21690D1*
X23190Y19690D2*
Y19440D1*
X23815Y18815D1*
X25190D1*
X25940Y19565D1*
Y19690D1*
X49703Y12626D2*
D14*
X49130D1*
X48753Y13003D1*
Y14565D1*
X49565Y15378D1*
X52690D1*
X54815Y17503D1*
Y21565D1*
Y23190D2*
Y21565D1*
X50690Y4690D2*
Y6753D1*
X49690Y4690D2*
Y6753D1*
X48690Y4690D2*
Y6753D1*
X51690Y7501D2*
Y7815D1*
X51065Y8440D1*
X47381D1*
X46882Y8940D1*
Y12190D1*
X46444Y12627D1*
X46004D1*
X46003Y12626D1*
Y9626D2*
Y8690D1*
X46002Y8689D1*
X46003Y9626D2*
X42942D1*
X42130Y10437D1*
Y10940D1*
Y11940D2*
Y12068D1*
X42503Y12440D1*
X44128D1*
X44813Y13126D1*
X46003D1*
X50690Y7501D2*
Y8065D1*
Y8815D2*
X47506D1*
X47194Y9127D1*
Y12440D1*
X46508Y13126D1*
X46003D1*
D17*
X45815Y5628D3*
X49690Y8065D3*
Y9190D3*
X48690Y8065D3*
Y9628D3*
X53440Y15503D3*
Y14003D3*
X54003Y15503D3*
Y14003D3*
X54565Y15503D3*
Y14003D3*
X55128Y15503D3*
Y14003D3*
X44819Y10626D3*
Y15253D3*
X28003Y11069D3*
X30253Y12190D3*
X31690Y9690D3*
Y7440D3*
X34503Y8127D3*
X44503Y9003D3*
X44815Y10128D3*
X31690Y9690D3*
X45257Y11126D3*
Y15690D3*
X52567Y18440D3*
Y19190D3*
X50690Y8065D3*
Y8815D3*
X55565Y20815D3*
X57815D3*
X60065D3*
X62315D3*
X64565D3*
X55565Y20190D3*
X57815D3*
X60065D3*
X62315D3*
X64565D3*
X32943Y18816D3*
X33318D3*
X42440Y14565D3*
X43003D3*
X43565D3*
X44128D3*
X52940Y13440D3*
X43963Y12865D3*
X44315Y13190D3*
X52440Y12940D3*
X51940Y12440D3*
X54940D3*
X48878Y12128D3*
X44003Y11940D3*
X54440D3*
X48878Y11565D3*
X53940Y11440D3*
X44003Y11378D3*
X53440Y10940D3*
X52940Y10440D3*
X26315Y10253D3*
X43128Y10190D3*
X43690D3*
X47757Y6877D3*
X32943Y19191D3*
X52445Y6877D3*
X33318Y19191D3*
X47257Y6877D3*
X52945D3*
X51632Y19816D3*
X60128Y11628D3*
X59815Y11315D3*
X4340Y23816D2*
D20*
X28554D1*
X30701D2*
X45179D1*
X47326D2*
X69554D1*
X4340Y23568D2*
X28401D1*
X30854D2*
X45026D1*
X47479D2*
X49761D1*
X51713D2*
X52011D1*
X53963D2*
X54261D1*
X56213D2*
X56511D1*
X58463D2*
X58761D1*
X60713D2*
X61011D1*
X62963D2*
X63261D1*
X65213D2*
X69401D1*
X4340Y23319D2*
X28312D1*
X30944D2*
X44937D1*
X47569D2*
X49761D1*
X51854D2*
X52007D1*
X54104D2*
X54257D1*
X56354D2*
X56507D1*
X58604D2*
X58757D1*
X60854D2*
X61007D1*
X63104D2*
X63257D1*
X65354D2*
X69312D1*
X4340Y23070D2*
X28276D1*
X30979D2*
X31386D1*
X32498D2*
X44901D1*
X47604D2*
X49761D1*
X51858D2*
X52007D1*
X54108D2*
X54257D1*
X56358D2*
X56507D1*
X58608D2*
X58757D1*
X60858D2*
X61007D1*
X63108D2*
X63257D1*
X65358D2*
X69276D1*
X4340Y22822D2*
X23433D1*
X25573D2*
X28288D1*
X30967D2*
X31386D1*
X32498D2*
X44913D1*
X47592D2*
X49562D1*
X51721D2*
X52011D1*
X53971D2*
X54261D1*
X56221D2*
X56511D1*
X58471D2*
X58761D1*
X60721D2*
X61011D1*
X62971D2*
X63261D1*
X65221D2*
X69288D1*
X4340Y22573D2*
X23183D1*
X25823D2*
X28347D1*
X30909D2*
X31386D1*
X32498D2*
X35663D1*
X36971D2*
X37362D1*
X38147D2*
X44972D1*
X47534D2*
X49374D1*
X50209D2*
X52241D1*
X52889D2*
X54491D1*
X55139D2*
X56741D1*
X57389D2*
X58991D1*
X59639D2*
X61241D1*
X61889D2*
X63491D1*
X64139D2*
X69347D1*
X4340Y22324D2*
X22933D1*
X26073D2*
X28460D1*
X30795D2*
X31386D1*
X34686D2*
X35663D1*
X36971D2*
X37218D1*
X38295D2*
X45085D1*
X47420D2*
X49366D1*
X50014D2*
X52241D1*
X52889D2*
X54491D1*
X55139D2*
X56741D1*
X57389D2*
X58991D1*
X59639D2*
X61241D1*
X61889D2*
X63491D1*
X64139D2*
X69460D1*
X4340Y22076D2*
X22636D1*
X24744D2*
X25038D1*
X26494D2*
X28651D1*
X30604D2*
X31386D1*
X34686D2*
X35663D1*
X36971D2*
X37214D1*
X38299D2*
X45276D1*
X47229D2*
X49366D1*
X51580D2*
X52050D1*
X53830D2*
X54300D1*
X56080D2*
X56550D1*
X58330D2*
X58800D1*
X60580D2*
X61050D1*
X62830D2*
X63300D1*
X65080D2*
X69651D1*
X4340Y21827D2*
X22636D1*
X24744D2*
X25288D1*
X26494D2*
X28984D1*
X30272D2*
X31386D1*
X34686D2*
X35663D1*
X36971D2*
X37347D1*
X38166D2*
X45609D1*
X46897D2*
X49366D1*
X51580D2*
X52050D1*
X53830D2*
X54300D1*
X56080D2*
X56550D1*
X58330D2*
X58800D1*
X60580D2*
X61050D1*
X62830D2*
X63300D1*
X65080D2*
X69984D1*
X71272D2*
X71542D1*
X4340Y21578D2*
X22636D1*
X24744D2*
X25386D1*
X26494D2*
X31386D1*
X34686D2*
X34944D1*
X37694D2*
X49366D1*
X51580D2*
X52050D1*
X53830D2*
X54300D1*
X56080D2*
X56550D1*
X58330D2*
X58800D1*
X60580D2*
X61050D1*
X62830D2*
X63300D1*
X65080D2*
X71542D1*
X4340Y21330D2*
X22636D1*
X24744D2*
X25386D1*
X26494D2*
X29323D1*
X30436D2*
X31085D1*
X33717D2*
X34714D1*
X37920D2*
X49366D1*
X51694D2*
X52050D1*
X53830D2*
X54300D1*
X56080D2*
X56550D1*
X58330D2*
X58800D1*
X60580D2*
X61050D1*
X62830D2*
X63300D1*
X65080D2*
X71542D1*
X4340Y21081D2*
X25558D1*
X29123D2*
X29323D1*
X34405D2*
X34679D1*
X37955D2*
X49366D1*
X51912D2*
X52050D1*
X53830D2*
X54300D1*
X56080D2*
X56550D1*
X58330D2*
X58800D1*
X60580D2*
X61050D1*
X62830D2*
X63300D1*
X65080D2*
X71542D1*
X4340Y20832D2*
X25405D1*
X29198D2*
X29323D1*
X34448D2*
X34679D1*
X37955D2*
X49448D1*
X50576D2*
X50843D1*
X51912D2*
X52241D1*
X52893D2*
X54491D1*
X56026D2*
X56741D1*
X58276D2*
X58991D1*
X60526D2*
X61241D1*
X62776D2*
X63491D1*
X65026D2*
X71542D1*
X4340Y20584D2*
X25398D1*
X37955D2*
X49503D1*
X50576D2*
X50843D1*
X51912D2*
X52241D1*
X52893D2*
X54491D1*
X56026D2*
X56741D1*
X58276D2*
X58991D1*
X60526D2*
X61241D1*
X62776D2*
X63491D1*
X65026D2*
X71542D1*
X4340Y20335D2*
X25523D1*
X37955D2*
X49503D1*
X50576D2*
X50843D1*
X51912D2*
X52241D1*
X52893D2*
X54491D1*
X56026D2*
X56741D1*
X58276D2*
X58991D1*
X60526D2*
X61241D1*
X62776D2*
X63491D1*
X65026D2*
X71542D1*
X4340Y20086D2*
X22636D1*
X24744D2*
X25386D1*
X26494D2*
X28316D1*
X37955D2*
X49909D1*
X51998D2*
X52241D1*
X52893D2*
X54491D1*
X56014D2*
X56741D1*
X58264D2*
X58991D1*
X60514D2*
X61241D1*
X62764D2*
X63491D1*
X65014D2*
X66437D1*
X68385D2*
X71542D1*
X4340Y19837D2*
X22636D1*
X24744D2*
X25386D1*
X26494D2*
X28066D1*
X37936D2*
X49917D1*
X52092D2*
X52240D1*
X52893D2*
X54491D1*
X55139D2*
X55287D1*
X55846D2*
X56741D1*
X57389D2*
X57537D1*
X58096D2*
X58991D1*
X59639D2*
X59787D1*
X60346D2*
X61241D1*
X61889D2*
X62037D1*
X62596D2*
X63491D1*
X64139D2*
X64287D1*
X64846D2*
X66437D1*
X68647D2*
X71542D1*
X4340Y19589D2*
X22636D1*
X24744D2*
X25323D1*
X26494D2*
X27816D1*
X29373D2*
X31245D1*
X37729D2*
X49773D1*
X52030D2*
X52241D1*
X52893D2*
X54491D1*
X55139D2*
X56741D1*
X57389D2*
X58991D1*
X59639D2*
X61241D1*
X61889D2*
X63491D1*
X64139D2*
X66437D1*
X68721D2*
X71542D1*
X4340Y19340D2*
X22636D1*
X24744D2*
X25073D1*
X26494D2*
X27569D1*
X28991D2*
X31245D1*
X37479D2*
X49773D1*
X51612D2*
X52136D1*
X53002D2*
X54491D1*
X55139D2*
X56741D1*
X57389D2*
X58991D1*
X59639D2*
X61241D1*
X61889D2*
X63491D1*
X64139D2*
X66437D1*
X68690D2*
X71542D1*
X4340Y19091D2*
X22898D1*
X26108D2*
X27319D1*
X28741D2*
X31245D1*
X36705D2*
X50679D1*
X54034D2*
X54491D1*
X55139D2*
X56741D1*
X57389D2*
X58991D1*
X59639D2*
X61241D1*
X61889D2*
X63491D1*
X64139D2*
X66437D1*
X68526D2*
X71542D1*
X4340Y18843D2*
X23148D1*
X25858D2*
X27069D1*
X28494D2*
X31245D1*
X36705D2*
X50679D1*
X54034D2*
X54491D1*
X55139D2*
X56741D1*
X57389D2*
X58991D1*
X59639D2*
X61241D1*
X61889D2*
X63491D1*
X64139D2*
X66710D1*
X68420D2*
X71542D1*
X4340Y18594D2*
X23398D1*
X25608D2*
X26823D1*
X28244D2*
X31245D1*
X36705D2*
X51280D1*
X54034D2*
X54491D1*
X55139D2*
X56519D1*
X57373D2*
X58769D1*
X59623D2*
X61019D1*
X61873D2*
X63269D1*
X64123D2*
X66710D1*
X68420D2*
X71542D1*
X4340Y18345D2*
X26573D1*
X27994D2*
X31245D1*
X36705D2*
X52116D1*
X54034D2*
X54491D1*
X55139D2*
X56273D1*
X57170D2*
X58523D1*
X59420D2*
X60773D1*
X61670D2*
X63023D1*
X63920D2*
X66710D1*
X68420D2*
X71542D1*
X4340Y18097D2*
X26359D1*
X27748D2*
X31245D1*
X34393D2*
X52241D1*
X54034D2*
X54491D1*
X55139D2*
X56023D1*
X56920D2*
X58273D1*
X59170D2*
X60523D1*
X61420D2*
X62773D1*
X63670D2*
X66710D1*
X68420D2*
X71542D1*
X4340Y17848D2*
X26308D1*
X27498D2*
X31390D1*
X34244D2*
X52241D1*
X54034D2*
X54491D1*
X55139D2*
X55773D1*
X56670D2*
X58023D1*
X58920D2*
X60273D1*
X61170D2*
X62523D1*
X63420D2*
X66710D1*
X68420D2*
X71542D1*
X4340Y17599D2*
X24183D1*
X27326D2*
X28120D1*
X31264D2*
X52241D1*
X54034D2*
X54464D1*
X55139D2*
X55526D1*
X56424D2*
X57776D1*
X58674D2*
X60026D1*
X60924D2*
X62276D1*
X63174D2*
X66710D1*
X68420D2*
X71542D1*
X4340Y17351D2*
X24120D1*
X27389D2*
X28058D1*
X31326D2*
X52241D1*
X53803D2*
X54214D1*
X55100D2*
X55279D1*
X56174D2*
X57526D1*
X58424D2*
X59776D1*
X60674D2*
X62026D1*
X62924D2*
X66710D1*
X68420D2*
X71542D1*
X4340Y17102D2*
X24120D1*
X27389D2*
X28058D1*
X31326D2*
X52241D1*
X53803D2*
X53964D1*
X54862D2*
X55029D1*
X55924D2*
X57276D1*
X58174D2*
X59526D1*
X60424D2*
X61776D1*
X62674D2*
X66710D1*
X68420D2*
X71542D1*
X4340Y16853D2*
X24120D1*
X27389D2*
X28058D1*
X31326D2*
X33323D1*
X37936D2*
X52241D1*
X55678D2*
X57030D1*
X57928D2*
X59280D1*
X60178D2*
X61530D1*
X62428D2*
X66710D1*
X68420D2*
X71542D1*
X4340Y16605D2*
X24120D1*
X27389D2*
X28058D1*
X31326D2*
X33323D1*
X37936D2*
X52241D1*
X57678D2*
X59030D1*
X59928D2*
X61280D1*
X62178D2*
X66710D1*
X68420D2*
X71542D1*
X4340Y16356D2*
X24120D1*
X27389D2*
X28058D1*
X31326D2*
X33323D1*
X37936D2*
X39319D1*
X39940D2*
X52241D1*
X57428D2*
X58780D1*
X59678D2*
X61030D1*
X61928D2*
X66710D1*
X68420D2*
X71542D1*
X4340Y16107D2*
X24120D1*
X27389D2*
X28058D1*
X31326D2*
X33323D1*
X37936D2*
X39112D1*
X40147D2*
X45109D1*
X45405D2*
X48909D1*
X59432D2*
X60784D1*
X61682D2*
X66710D1*
X68420D2*
X71542D1*
X4340Y15858D2*
X24120D1*
X27389D2*
X28058D1*
X31326D2*
X33323D1*
X37936D2*
X39077D1*
X40182D2*
X44831D1*
X59182D2*
X60534D1*
X61432D2*
X66710D1*
X68420D2*
X71542D1*
X4340Y15610D2*
X24120D1*
X27389D2*
X28058D1*
X31326D2*
X33323D1*
X37936D2*
X39167D1*
X40092D2*
X44546D1*
X61182D2*
X66710D1*
X68420D2*
X71542D1*
X4340Y15361D2*
X24120D1*
X27389D2*
X28058D1*
X31326D2*
X33323D1*
X37936D2*
X39327D1*
X39932D2*
X44374D1*
X60936D2*
X66710D1*
X68420D2*
X71542D1*
X4340Y15112D2*
X24120D1*
X27389D2*
X28058D1*
X31326D2*
X33323D1*
X37936D2*
X39116D1*
X40143D2*
X44382D1*
X60592D2*
X66710D1*
X68420D2*
X71542D1*
X4340Y14864D2*
X24120D1*
X27393D2*
X28058D1*
X31326D2*
X33323D1*
X37936D2*
X39077D1*
X40182D2*
X44601D1*
X45037D2*
X48601D1*
X60842D2*
X66710D1*
X68420D2*
X71542D1*
X4340Y14615D2*
X24120D1*
X27393D2*
X28058D1*
X31326D2*
X33323D1*
X37936D2*
X39163D1*
X40096D2*
X48433D1*
X61088D2*
X66710D1*
X68420D2*
X71542D1*
X4340Y14366D2*
X24120D1*
X27393D2*
X28058D1*
X31326D2*
X33323D1*
X37936D2*
X39339D1*
X39924D2*
X42046D1*
X46901D2*
X48429D1*
X58092D2*
X60003D1*
X61897D2*
X66710D1*
X68420D2*
X71542D1*
X4340Y14118D2*
X24120D1*
X27393D2*
X28058D1*
X31326D2*
X33323D1*
X37936D2*
X39116D1*
X40143D2*
X41792D1*
X47155D2*
X48429D1*
X50819D2*
X52995D1*
X58092D2*
X60179D1*
X62143D2*
X66710D1*
X68420D2*
X71542D1*
X4340Y13869D2*
X24120D1*
X27393D2*
X28058D1*
X31326D2*
X33323D1*
X37936D2*
X39077D1*
X40186D2*
X41546D1*
X47401D2*
X48429D1*
X50701D2*
X53003D1*
X58092D2*
X60179D1*
X62201D2*
X66710D1*
X68420D2*
X71542D1*
X4340Y13620D2*
X24120D1*
X27393D2*
X28058D1*
X37936D2*
X39159D1*
X40100D2*
X41296D1*
X47651D2*
X48429D1*
X51955D2*
X53116D1*
X58092D2*
X60179D1*
X62201D2*
X66472D1*
X68420D2*
X71542D1*
X4340Y13372D2*
X24120D1*
X27393D2*
X28058D1*
X37936D2*
X39347D1*
X39912D2*
X41077D1*
X47901D2*
X48429D1*
X51955D2*
X53109D1*
X58092D2*
X60179D1*
X62201D2*
X66222D1*
X68420D2*
X71542D1*
X4340Y13123D2*
X24120D1*
X27393D2*
X28058D1*
X37936D2*
X39120D1*
X40139D2*
X41054D1*
X43655D2*
X44362D1*
X48119D2*
X48429D1*
X51955D2*
X52862D1*
X58092D2*
X60179D1*
X62131D2*
X65976D1*
X68420D2*
X71542D1*
X4340Y12874D2*
X24120D1*
X27393D2*
X28058D1*
X37936D2*
X39077D1*
X40186D2*
X41054D1*
X43682D2*
X44112D1*
X48143D2*
X48456D1*
X51955D2*
X52612D1*
X55135D2*
X55491D1*
X58092D2*
X60179D1*
X61877D2*
X65726D1*
X68420D2*
X71542D1*
X4340Y12626D2*
X24128D1*
X27393D2*
X28066D1*
X37901D2*
X39155D1*
X40104D2*
X41054D1*
X48143D2*
X48679D1*
X51955D2*
X52362D1*
X54889D2*
X55491D1*
X58092D2*
X60206D1*
X62682D2*
X65476D1*
X68420D2*
X71542D1*
X4340Y12377D2*
X26741D1*
X27393D2*
X29835D1*
X37901D2*
X39359D1*
X39905D2*
X41054D1*
X48143D2*
X48495D1*
X51307D2*
X52116D1*
X54639D2*
X55491D1*
X58092D2*
X60437D1*
X68389D2*
X71542D1*
X4340Y12128D2*
X26741D1*
X27393D2*
X29796D1*
X37901D2*
X39124D1*
X40139D2*
X41054D1*
X43651D2*
X44511D1*
X48143D2*
X48417D1*
X51307D2*
X51866D1*
X54389D2*
X55495D1*
X58092D2*
X60487D1*
X68166D2*
X71542D1*
X4340Y11879D2*
X26741D1*
X27393D2*
X29925D1*
X30580D2*
X31804D1*
X33584D2*
X34077D1*
X35186D2*
X35550D1*
X37901D2*
X39077D1*
X40186D2*
X41054D1*
X43682D2*
X44511D1*
X48143D2*
X48495D1*
X51307D2*
X51616D1*
X54143D2*
X55675D1*
X58092D2*
X59749D1*
X67916D2*
X71542D1*
X4340Y11631D2*
X26741D1*
X29948D2*
X34077D1*
X35186D2*
X35800D1*
X37901D2*
X39155D1*
X40108D2*
X41077D1*
X48143D2*
X48421D1*
X53893D2*
X55761D1*
X58092D2*
X59491D1*
X67670D2*
X71542D1*
X4340Y11382D2*
X25038D1*
X26092D2*
X26761D1*
X30198D2*
X30761D1*
X31869D2*
X34077D1*
X35186D2*
X36050D1*
X37901D2*
X39073D1*
X40186D2*
X41300D1*
X48143D2*
X48460D1*
X53643D2*
X56788D1*
X58092D2*
X59362D1*
X67701D2*
X71542D1*
X4340Y11133D2*
X25038D1*
X31869D2*
X34077D1*
X35186D2*
X36077D1*
X37901D2*
X39073D1*
X40186D2*
X41612D1*
X48143D2*
X49050D1*
X53397D2*
X56788D1*
X58092D2*
X59366D1*
X60237D2*
X60487D1*
X62682D2*
X66515D1*
X67627D2*
X71542D1*
X4340Y10885D2*
X25038D1*
X35186D2*
X36077D1*
X37901D2*
X39073D1*
X40186D2*
X41577D1*
X48143D2*
X49050D1*
X53147D2*
X56788D1*
X58092D2*
X59366D1*
X60014D2*
X60487D1*
X61795D2*
X66780D1*
X67362D2*
X71542D1*
X4340Y10636D2*
X24991D1*
X35186D2*
X36077D1*
X37901D2*
X39073D1*
X40186D2*
X41671D1*
X48143D2*
X49050D1*
X52897D2*
X56788D1*
X58092D2*
X59366D1*
X60014D2*
X60487D1*
X61795D2*
X71542D1*
X4340Y10387D2*
X24991D1*
X35186D2*
X36077D1*
X37901D2*
X39073D1*
X40186D2*
X41808D1*
X48143D2*
X49050D1*
X52651D2*
X56788D1*
X58092D2*
X59366D1*
X60014D2*
X60487D1*
X61795D2*
X71542D1*
X4340Y10139D2*
X24991D1*
X35186D2*
X36077D1*
X37901D2*
X41980D1*
X48143D2*
X49050D1*
X52401D2*
X56788D1*
X58092D2*
X59366D1*
X60014D2*
X60487D1*
X61795D2*
X71542D1*
X4340Y9890D2*
X24995D1*
X35186D2*
X36077D1*
X37901D2*
X42230D1*
X52151D2*
X56788D1*
X58092D2*
X59366D1*
X60014D2*
X60487D1*
X61795D2*
X71542D1*
X4340Y9641D2*
X24995D1*
X34389D2*
X36784D1*
X37901D2*
X42476D1*
X51905D2*
X56788D1*
X58092D2*
X59366D1*
X60014D2*
X60487D1*
X61795D2*
X71542D1*
X4340Y9393D2*
X24995D1*
X34389D2*
X36382D1*
X37811D2*
X42730D1*
X51651D2*
X56788D1*
X58092D2*
X59366D1*
X60014D2*
X60487D1*
X61795D2*
X71542D1*
X4340Y9144D2*
X24995D1*
X34389D2*
X36280D1*
X37569D2*
X44066D1*
X50147D2*
X50382D1*
X50998D2*
X58425D1*
X60205D2*
X71542D1*
X4340Y8895D2*
X24995D1*
X34389D2*
X36300D1*
X37397D2*
X43944D1*
X51143D2*
X58425D1*
X60205D2*
X71542D1*
X4340Y8647D2*
X24995D1*
X34389D2*
X36468D1*
X37233D2*
X43698D1*
X46518D2*
X46726D1*
X51307D2*
X58425D1*
X60205D2*
X71542D1*
X4340Y8398D2*
X24995D1*
X44346D2*
X44737D1*
X46518D2*
X46976D1*
X51557D2*
X58425D1*
X60205D2*
X71542D1*
X4340Y8149D2*
X25124D1*
X44100D2*
X47284D1*
X51807D2*
X71542D1*
X4340Y7900D2*
X25374D1*
X43850D2*
X48136D1*
X52244D2*
X71542D1*
X4340Y7652D2*
X25624D1*
X36264D2*
X48136D1*
X52244D2*
X71542D1*
X4340Y7403D2*
X25870D1*
X36264D2*
X48136D1*
X52244D2*
X71542D1*
X4340Y7154D2*
X25944D1*
X36264D2*
X48136D1*
X52244D2*
X71542D1*
X4340Y6906D2*
X25694D1*
X36264D2*
X48136D1*
X52244D2*
X71542D1*
X4340Y6657D2*
X25444D1*
X36264D2*
X48136D1*
X52244D2*
X71542D1*
X4340Y6408D2*
X22698D1*
X24057D2*
X25316D1*
X32229D2*
X32804D1*
X36264D2*
X48136D1*
X52244D2*
X69948D1*
X71307D2*
X71542D1*
X4340Y6160D2*
X22382D1*
X24373D2*
X25304D1*
X26369D2*
X33054D1*
X36264D2*
X48366D1*
X52014D2*
X69632D1*
X4340Y5911D2*
X22198D1*
X24557D2*
X25304D1*
X26326D2*
X27421D1*
X28143D2*
X31359D1*
X32084D2*
X33300D1*
X36264D2*
X37761D1*
X46233D2*
X48366D1*
X52014D2*
X69448D1*
X4340Y5662D2*
X22089D1*
X24666D2*
X25284D1*
X26346D2*
X27253D1*
X28311D2*
X31191D1*
X32252D2*
X33386D1*
X36264D2*
X37515D1*
X46323D2*
X48366D1*
X52014D2*
X69339D1*
X4340Y5414D2*
X22034D1*
X24721D2*
X25269D1*
X26362D2*
X27234D1*
X28330D2*
X31175D1*
X32268D2*
X33800D1*
X46276D2*
X48366D1*
X52014D2*
X69284D1*
X4340Y5165D2*
X22026D1*
X24729D2*
X25382D1*
X26248D2*
X27347D1*
X28217D2*
X31288D1*
X32155D2*
X34046D1*
X45987D2*
X46382D1*
X46998D2*
X47382D1*
X47998D2*
X48366D1*
X53268D2*
X69276D1*
X4340Y4916D2*
X22066D1*
X24690D2*
X34378D1*
X38190D2*
X46159D1*
X53268D2*
X69316D1*
X4340Y4668D2*
X22159D1*
X24596D2*
X34628D1*
X37940D2*
X46112D1*
X53268D2*
X69409D1*
X4340Y4419D2*
X22319D1*
X24436D2*
X46183D1*
X53268D2*
X69569D1*
X51283Y12119D2*
Y11519D1*
X53140Y13378D1*
Y13686D1*
X53071Y13773D1*
X53021Y13887D1*
X53005Y14011D1*
X53027Y14137D1*
X51565Y14140D1*
X50814D1*
X50678Y14003D1*
Y13815D1*
X50650Y13691D1*
X50700Y13657D1*
X51182Y13653D1*
X51198Y13657D1*
X51930D1*
Y12596D1*
X51282D1*
X51279Y11885D1*
X44535Y12012D2*
Y12423D1*
X44340Y12228D1*
X44232Y12160D1*
X44128Y12140D1*
X43624D1*
X43654Y12022D1*
X43661Y11940D1*
X43646Y11816D1*
X43603Y11699D1*
X43533Y11596D1*
X43442Y11511D1*
X43333Y11450D1*
X43299Y11441D1*
X43372Y11412D1*
X43476Y11343D1*
X43566Y11241D1*
X43583Y11262D1*
X43568Y11386D1*
X43588Y11509D1*
X43642Y11621D1*
X43726Y11713D1*
X43832Y11778D1*
X43953Y11810D1*
X44077Y11806D1*
X44196Y11767D1*
X44298Y11697D1*
X44377Y11600D1*
X44399Y11546D1*
X44518Y11663D1*
X44519Y11762D1*
X44535Y11889D1*
X44539Y12246D1*
X32236Y5379D2*
X32193Y5262D1*
X32124Y5158D1*
X32032Y5074D1*
X31923Y5013D1*
X31803Y4979D1*
X31679Y4974D1*
X31556Y4998D1*
X31443Y5051D1*
X31345Y5128D1*
X31268Y5226D1*
X31216Y5339D1*
X31192Y5462D1*
X31197Y5586D1*
X31231Y5706D1*
X31292Y5815D1*
X31377Y5906D1*
X31481Y5976D1*
X31598Y6019D1*
X31722Y6033D1*
X31846Y6018D1*
X31963Y5975D1*
X32066Y5905D1*
X32150Y5813D1*
X32211Y5704D1*
X32245Y5584D1*
X32251Y5503D1*
X32236Y5379D1*
X37391Y8992D2*
X37385Y8941D1*
X37344Y8824D1*
X37277Y8719D1*
X37188Y8631D1*
X37081Y8566D1*
X36963Y8527D1*
X36838Y8515D1*
X36715Y8532D1*
X36598Y8576D1*
X36494Y8645D1*
X36409Y8736D1*
X36346Y8844D1*
X36309Y8963D1*
X36300Y9087D1*
X36319Y9211D1*
X36366Y9326D1*
X36437Y9429D1*
X36530Y9512D1*
X36639Y9573D1*
X36778Y9609D1*
X37003Y9834D1*
X36911Y9865D1*
X36100D1*
Y11353D1*
X35453Y12002D1*
X33881Y12005D1*
X33556D1*
X33558Y11788D1*
X31828D1*
Y12026D1*
X31777Y11978D1*
X31669Y11910D1*
X31565Y11890D1*
X30569D1*
X30431Y11793D1*
X30311Y11759D1*
X30186Y11760D1*
X30067Y11797D1*
X29963Y11865D1*
X29883Y11961D1*
X29833Y12075D1*
X29818Y12199D1*
X29838Y12321D1*
X29892Y12434D1*
X29910Y12454D1*
X28317Y12455D1*
X28198Y12487D1*
X28112Y12576D1*
X28082Y12690D1*
Y17440D1*
X28115Y17560D1*
X28203Y17646D1*
X28317Y17675D1*
X31068D1*
X31187Y17643D1*
X31273Y17554D1*
X31303Y17440D1*
Y13749D1*
X33350Y13750D1*
X33348Y15788D1*
Y17077D1*
X37913D1*
Y12788D1*
X37878D1*
X37875Y10690D1*
Y9656D1*
X37857Y9532D1*
X37818Y9441D1*
X37748Y9348D1*
X37397Y8997D1*
X39225Y11439D2*
X39374Y11444D1*
X39273Y11517D1*
X39191Y11611D1*
X39134Y11722D1*
X39104Y11843D1*
X39103Y11968D1*
X39132Y12089D1*
X39188Y12201D1*
X39268Y12296D1*
X39368Y12370D1*
X39454Y12409D1*
X39353Y12457D1*
X39255Y12534D1*
X39178Y12632D1*
X39126Y12745D1*
X39102Y12868D1*
X39107Y12992D1*
X39141Y13112D1*
X39202Y13221D1*
X39287Y13313D1*
X39390Y13382D1*
X39460Y13407D1*
X39353Y13457D1*
X39255Y13534D1*
X39178Y13632D1*
X39126Y13745D1*
X39102Y13868D1*
X39107Y13992D1*
X39141Y14112D1*
X39202Y14221D1*
X39287Y14313D1*
X39390Y14382D1*
X39460Y14407D1*
X39353Y14457D1*
X39255Y14534D1*
X39178Y14632D1*
X39126Y14745D1*
X39102Y14868D1*
X39107Y14992D1*
X39141Y15112D1*
X39202Y15221D1*
X39287Y15313D1*
X39390Y15382D1*
X39460Y15407D1*
X39353Y15457D1*
X39255Y15534D1*
X39178Y15632D1*
X39126Y15745D1*
X39102Y15868D1*
X39107Y15992D1*
X39141Y16112D1*
X39202Y16221D1*
X39287Y16313D1*
X39390Y16382D1*
X39508Y16425D1*
X39631Y16439D1*
X39755Y16424D1*
X39872Y16381D1*
X39976Y16311D1*
X40060Y16219D1*
X40121Y16110D1*
X40154Y15990D1*
X40161Y15909D1*
X40146Y15785D1*
X40103Y15668D1*
X40033Y15564D1*
X39942Y15480D1*
X39833Y15419D1*
X39799Y15409D1*
X39872Y15381D1*
X39976Y15311D1*
X40060Y15219D1*
X40121Y15110D1*
X40154Y14990D1*
X40161Y14909D1*
X40146Y14785D1*
X40103Y14668D1*
X40033Y14564D1*
X39942Y14480D1*
X39833Y14419D1*
X39799Y14409D1*
X39872Y14381D1*
X39976Y14311D1*
X40060Y14219D1*
X40121Y14110D1*
X40154Y13990D1*
X40161Y13909D1*
X40146Y13785D1*
X40103Y13668D1*
X40033Y13564D1*
X39942Y13480D1*
X39833Y13419D1*
X39799Y13409D1*
X39872Y13381D1*
X39976Y13311D1*
X40060Y13219D1*
X40121Y13110D1*
X40154Y12990D1*
X40161Y12909D1*
X40146Y12785D1*
X40103Y12668D1*
X40033Y12564D1*
X39942Y12480D1*
X39833Y12419D1*
X39799Y12409D1*
X39894Y12369D1*
X39994Y12294D1*
X40074Y12199D1*
X40130Y12087D1*
X40158Y11965D1*
Y11859D1*
X40132Y11737D1*
X40078Y11624D1*
X39999Y11528D1*
X39900Y11452D1*
X39876Y11439D1*
X40161D1*
Y10378D1*
X39100D1*
Y11439D1*
X39225D1*
X43660Y12915D2*
X43640Y12792D1*
X43621Y12740D1*
X44004Y12741D1*
X44591Y13327D1*
X43494Y13326D1*
X43574Y13230D1*
X43630Y13118D1*
X43658Y12997D1*
X43660Y12915D1*
X35714Y22654D2*
X36947D1*
Y21790D1*
X35689D1*
Y22654D1*
X35714D1*
X28298Y5378D2*
X28254Y5261D1*
X28185Y5157D1*
X28093Y5073D1*
X27985Y5012D1*
X27865Y4978D1*
X27740Y4973D1*
X27618Y4997D1*
X27504Y5050D1*
X27407Y5127D1*
X27329Y5225D1*
X27277Y5338D1*
X27253Y5461D1*
X27258Y5585D1*
X27292Y5705D1*
X27353Y5814D1*
X27438Y5905D1*
X27542Y5975D1*
X27659Y6018D1*
X27783Y6032D1*
X27907Y6017D1*
X28024Y5974D1*
X28127Y5904D1*
X28212Y5812D1*
X28272Y5703D1*
X28306Y5583D1*
X28312Y5502D1*
X28298Y5378D1*
X37681Y21565D2*
X37843Y21403D1*
X37911Y21295D1*
X37931Y21191D1*
Y19941D1*
X37903Y19816D1*
X37843Y19729D1*
X37405Y19291D1*
X37297Y19222D1*
X37193Y19203D1*
X36679Y19202D1*
Y18222D1*
X34949Y18226D1*
X34679Y18222D1*
X34370D1*
X34365Y18061D1*
X34330Y17942D1*
X34239Y17857D1*
X34130Y17830D1*
X31505D1*
X31386Y17863D1*
X31300Y17951D1*
X31270Y18065D1*
X31268Y19627D1*
X30942D1*
Y19694D1*
X30407Y19693D1*
X30410Y19637D1*
X29484D1*
X29396Y19600D1*
X29269Y19581D1*
X29203D1*
X27934Y18309D1*
X27301Y17676D1*
X27302Y17601D1*
X27335Y17554D1*
X27365Y17440D1*
X27368Y11689D1*
X27442Y11614D1*
X27478Y11652D1*
X27586Y11721D1*
X27690Y11740D1*
X29690D1*
X29815Y11712D1*
X29902Y11652D1*
X30192Y11362D1*
X30787Y11363D1*
X30785Y11554D1*
X31845D1*
Y10949D1*
X34102Y10950D1*
X34100Y11890D1*
X35161D1*
Y9865D1*
X34368D1*
X34365Y8613D1*
X36006Y8612D1*
X36125Y8579D1*
X36215Y8482D1*
X36253Y8427D1*
X43503D1*
X44069Y8994D1*
X44088Y9134D1*
X44142Y9246D1*
X44213Y9324D1*
X42942Y9326D1*
X42818Y9354D1*
X42730Y9414D1*
X41918Y10225D1*
X41850Y10333D1*
X41830Y10437D1*
Y10504D1*
X41755Y10566D1*
X41678Y10664D1*
X41626Y10777D1*
X41602Y10899D1*
X41607Y11024D1*
X41643Y11147D1*
X41566Y11168D1*
X41478Y11228D1*
X41166Y11541D1*
X41097Y11648D1*
X41078Y11753D1*
Y13253D1*
X41106Y13377D1*
X41166Y13465D1*
X42041Y14340D1*
X42148Y14408D1*
X42253Y14428D1*
X45374D1*
Y14479D1*
X46631D1*
Y14428D1*
X46696Y14426D1*
X46821Y14398D1*
X46908Y14338D1*
X48031Y13215D1*
X48100Y13107D1*
X48119Y13002D1*
X48120Y10060D1*
X48253Y9928D1*
X48374D1*
X48413Y9963D1*
X48520Y10028D1*
X48640Y10060D1*
X48765Y10056D1*
X48883Y10017D1*
X48986Y9947D1*
X49064Y9850D1*
X49075Y9825D1*
X49079Y10479D1*
X49075Y10898D1*
X49079Y10979D1*
X49075Y11175D1*
X48936Y11134D1*
X48811Y11135D1*
X48692Y11172D1*
X48588Y11240D1*
X48508Y11336D1*
X48458Y11450D1*
X48443Y11574D1*
X48463Y11696D1*
X48517Y11809D1*
X48551Y11846D1*
X48508Y11898D1*
X48458Y12012D1*
X48443Y12136D1*
X48463Y12259D1*
X48517Y12371D1*
X48601Y12463D1*
X48707Y12528D1*
X48786Y12549D1*
X48541Y12791D1*
X48472Y12898D1*
X48453Y13003D1*
Y14565D1*
X48481Y14690D1*
X48541Y14777D1*
X48715Y14951D1*
X45132Y14953D1*
X45102Y14922D1*
X44997Y14856D1*
X44877Y14822D1*
X44753Y14823D1*
X44633Y14859D1*
X44530Y14928D1*
X44449Y15023D1*
X44400Y15137D1*
X44384Y15261D1*
X44404Y15384D1*
X44459Y15496D1*
X44542Y15588D1*
X44649Y15653D1*
X44769Y15685D1*
X44820Y15683D1*
X44842Y15822D1*
X44896Y15934D1*
X44980Y16026D1*
X45086Y16091D1*
X45207Y16122D1*
X45331Y16119D1*
X45450Y16080D1*
X45552Y16009D1*
X45569Y15988D1*
X47882Y15990D1*
X48816Y15991D1*
X49041Y16215D1*
X49148Y16283D1*
X49253Y16303D1*
X52254D1*
X52267Y16317D1*
Y18126D1*
X52197Y18211D1*
X52148Y18325D1*
X52132Y18449D1*
X52143Y18514D1*
X51510Y18513D1*
X51385Y18541D1*
X51297Y18601D1*
X51195Y18703D1*
X50940Y18710D1*
X50705Y18719D1*
Y19445D1*
X51404D1*
X51338Y19467D1*
X50705D1*
Y20193D1*
X50865D1*
X50867Y21034D1*
X50550Y21029D1*
Y20101D1*
X50538D1*
X50541Y19815D1*
X50683Y19819D1*
Y19093D1*
X49799D1*
Y19819D1*
X49944D1*
X49940Y20078D1*
X49915Y20103D1*
X49528Y20101D1*
Y20777D1*
X49478Y20827D1*
X49410Y20935D1*
X49390Y21039D1*
Y22503D1*
X49418Y22627D1*
X49478Y22715D1*
X49785Y23021D1*
Y23720D1*
X50845D1*
X50847Y23439D1*
X50918Y23542D1*
X51011Y23625D1*
X51121Y23684D1*
X51242Y23715D1*
X51366Y23718D1*
X51488Y23691D1*
X51600Y23637D1*
X51697Y23558D1*
X51772Y23459D1*
X51822Y23345D1*
X51844Y23222D1*
X51840Y23115D1*
X51808Y22995D1*
X51749Y22885D1*
X51666Y22792D1*
X51563Y22721D1*
X51447Y22676D1*
X51323Y22660D1*
X51199Y22673D1*
X51081Y22714D1*
X50977Y22782D1*
X50891Y22872D1*
X50845Y22944D1*
Y22660D1*
X50271D1*
X49990Y22378D1*
Y22092D1*
X50149Y22095D1*
X51554D1*
Y21498D1*
X51590Y21463D1*
X51658Y21355D1*
X51670Y21315D1*
X51742Y21279D1*
X51888D1*
Y20166D1*
X51928Y20135D1*
X52006Y20038D1*
X52054Y19923D1*
X52067Y19816D1*
X52049Y19692D1*
X51997Y19579D1*
X51915Y19485D1*
X51810Y19419D1*
X51690Y19385D1*
X51585Y19386D1*
X51588Y19160D1*
X51635Y19113D1*
X52138D1*
X52132Y19199D1*
X52152Y19321D1*
X52207Y19434D1*
X52267Y19500D1*
Y21038D1*
X52076Y21035D1*
Y22095D1*
X52268D1*
X52265Y22657D1*
X52035Y22660D1*
Y23720D1*
X53095D1*
Y23435D1*
X53137Y23503D1*
X53222Y23594D1*
X53325Y23663D1*
X53442Y23706D1*
X53566Y23720D1*
X53690Y23705D1*
X53807Y23662D1*
X53911Y23593D1*
X53995Y23501D1*
X54056Y23392D1*
X54089Y23272D1*
X54095Y23190D1*
X54081Y23066D1*
X54038Y22949D1*
X53968Y22846D1*
X53877Y22761D1*
X53768Y22700D1*
X53648Y22666D1*
X53523Y22662D1*
X53401Y22686D1*
X53288Y22738D1*
X53190Y22816D1*
X53113Y22914D1*
X53095Y22953D1*
Y22660D1*
X52865D1*
Y22093D1*
X53024Y22095D1*
X53806D1*
Y21035D1*
X52867D1*
Y19507D1*
X52941Y19412D1*
X52987Y19301D1*
X53948Y19304D1*
X54009D1*
X54005Y18322D1*
X54009Y18056D1*
Y17574D1*
X53778D1*
Y16889D1*
X54515Y17628D1*
Y21038D1*
X54324Y21035D1*
Y22095D1*
X54516D1*
X54515Y22663D1*
X54285Y22660D1*
Y23720D1*
X55345D1*
X55347Y23439D1*
X55418Y23542D1*
X55511Y23625D1*
X55621Y23684D1*
X55742Y23715D1*
X55866Y23718D1*
X55988Y23691D1*
X56100Y23637D1*
X56197Y23558D1*
X56272Y23459D1*
X56322Y23345D1*
X56344Y23222D1*
X56340Y23115D1*
X56308Y22995D1*
X56249Y22885D1*
X56166Y22792D1*
X56063Y22721D1*
X55947Y22676D1*
X55823Y22660D1*
X55699Y22673D1*
X55581Y22714D1*
X55477Y22782D1*
X55391Y22872D1*
X55345Y22944D1*
Y22660D1*
X55115D1*
Y22093D1*
X56054Y22095D1*
Y21035D1*
X56003D1*
X56000Y20815D1*
Y20190D1*
X55982Y20067D1*
X55930Y19954D1*
X55848Y19860D1*
X55743Y19793D1*
X55623Y19759D1*
X55499Y19760D1*
X55380Y19797D1*
X55276Y19865D1*
X55196Y19961D1*
X55146Y20075D1*
X55130Y20190D1*
Y21038D1*
X55115Y20940D1*
Y17503D1*
X55087Y17378D1*
X55027Y17291D1*
X54726Y16989D1*
X54941Y16991D1*
X56765Y18815D1*
Y21038D1*
X56574Y21035D1*
Y22095D1*
X56766D1*
X56765Y22663D1*
X56535Y22660D1*
Y23720D1*
X57595D1*
X57597Y23439D1*
X57668Y23542D1*
X57761Y23625D1*
X57871Y23684D1*
X57992Y23715D1*
X58116Y23718D1*
X58238Y23691D1*
X58350Y23637D1*
X58447Y23558D1*
X58522Y23459D1*
X58572Y23345D1*
X58594Y23222D1*
X58590Y23115D1*
X58558Y22995D1*
X58499Y22885D1*
X58416Y22792D1*
X58313Y22721D1*
X58197Y22676D1*
X58073Y22660D1*
X57949Y22673D1*
X57831Y22714D1*
X57727Y22782D1*
X57641Y22872D1*
X57596Y22944D1*
X57595Y22660D1*
X57365D1*
Y22093D1*
X58304Y22095D1*
Y21035D1*
X58253D1*
X58250Y20815D1*
Y20190D1*
X58232Y20067D1*
X58180Y19954D1*
X58098Y19860D1*
X57993Y19793D1*
X57873Y19759D1*
X57749Y19760D1*
X57630Y19797D1*
X57526Y19865D1*
X57446Y19961D1*
X57396Y20075D1*
X57380Y20190D1*
Y21038D1*
X57365Y20940D1*
Y18690D1*
X57337Y18566D1*
X57277Y18478D1*
X55479Y16680D1*
X56882Y16678D1*
X57586Y17385D1*
X59015Y18815D1*
Y21038D1*
X58824Y21035D1*
Y22095D1*
X59016D1*
X59015Y22663D1*
X58785Y22660D1*
Y23720D1*
X59845D1*
X59847Y23439D1*
X59918Y23542D1*
X60011Y23625D1*
X60121Y23684D1*
X60242Y23715D1*
X60366Y23718D1*
X60488Y23691D1*
X60600Y23637D1*
X60697Y23558D1*
X60772Y23459D1*
X60822Y23345D1*
X60844Y23222D1*
X60840Y23115D1*
X60808Y22995D1*
X60749Y22885D1*
X60666Y22792D1*
X60563Y22721D1*
X60447Y22676D1*
X60323Y22660D1*
X60199Y22673D1*
X60081Y22714D1*
X59977Y22782D1*
X59891Y22872D1*
X59845Y22944D1*
Y22660D1*
X59615D1*
Y22093D1*
X60554Y22095D1*
Y21035D1*
X60503D1*
X60500Y20815D1*
Y20190D1*
X60482Y20067D1*
X60430Y19954D1*
X60348Y19860D1*
X60243Y19793D1*
X60123Y19759D1*
X59999Y19760D1*
X59880Y19797D1*
X59776Y19865D1*
X59696Y19961D1*
X59646Y20075D1*
X59630Y20190D1*
Y21038D1*
X59615Y20940D1*
Y18690D1*
X59587Y18566D1*
X59527Y18478D1*
X57287Y16238D1*
X58691Y16241D1*
X61265Y18815D1*
Y21038D1*
X61074Y21035D1*
Y22095D1*
X61266D1*
X61265Y22663D1*
X61035Y22660D1*
Y23720D1*
X62095D1*
X62097Y23439D1*
X62168Y23542D1*
X62261Y23625D1*
X62371Y23684D1*
X62492Y23715D1*
X62616Y23718D1*
X62738Y23691D1*
X62850Y23637D1*
X62947Y23558D1*
X63022Y23459D1*
X63072Y23345D1*
X63094Y23222D1*
X63090Y23115D1*
X63058Y22995D1*
X62999Y22885D1*
X62916Y22792D1*
X62813Y22721D1*
X62697Y22676D1*
X62573Y22660D1*
X62449Y22673D1*
X62331Y22714D1*
X62227Y22782D1*
X62141Y22872D1*
X62095Y22944D1*
Y22660D1*
X61865D1*
Y22093D1*
X62804Y22095D1*
Y21035D1*
X62753D1*
X62750Y20815D1*
Y20190D1*
X62732Y20067D1*
X62680Y19954D1*
X62598Y19860D1*
X62493Y19793D1*
X62373Y19759D1*
X62249Y19760D1*
X62130Y19797D1*
X62026Y19865D1*
X61946Y19961D1*
X61896Y20075D1*
X61880Y20190D1*
Y21038D1*
X61865Y20940D1*
Y18690D1*
X61837Y18566D1*
X61777Y18478D1*
X59101Y15802D1*
X60504Y15803D1*
X63515Y18815D1*
Y21038D1*
X63324Y21035D1*
Y22095D1*
X63516D1*
X63515Y22663D1*
X63285Y22660D1*
Y23720D1*
X64345D1*
X64347Y23439D1*
X64418Y23542D1*
X64511Y23625D1*
X64621Y23684D1*
X64742Y23715D1*
X64866Y23718D1*
X64988Y23691D1*
X65100Y23637D1*
X65197Y23558D1*
X65272Y23459D1*
X65322Y23345D1*
X65344Y23222D1*
X65340Y23115D1*
X65308Y22995D1*
X65249Y22885D1*
X65166Y22792D1*
X65063Y22721D1*
X64947Y22676D1*
X64823Y22660D1*
X64699Y22673D1*
X64581Y22714D1*
X64477Y22782D1*
X64391Y22872D1*
X64345Y22944D1*
Y22660D1*
X64115D1*
Y22093D1*
X65054Y22095D1*
Y21035D1*
X65003D1*
X65000Y20815D1*
Y20190D1*
X64982Y20067D1*
X64930Y19954D1*
X64848Y19860D1*
X64743Y19793D1*
X64623Y19759D1*
X64499Y19760D1*
X64380Y19797D1*
X64276Y19865D1*
X64196Y19961D1*
X64146Y20075D1*
X64130Y20190D1*
Y21038D1*
X64115Y20940D1*
Y18690D1*
X64087Y18566D1*
X64027Y18478D1*
X60840Y15291D1*
X60732Y15222D1*
X60628Y15203D1*
X60475D1*
X61201Y14479D1*
X61770Y14481D1*
Y14414D1*
X61850Y14382D1*
X61991Y14251D1*
X62090Y14152D1*
X62158Y14044D1*
X62178Y13940D1*
Y13315D1*
X62150Y13191D1*
X62090Y13103D1*
X61902Y12916D1*
X61794Y12847D1*
X61766Y12775D1*
X61866Y12886D1*
X61773Y12744D1*
X62658D1*
Y12591D1*
X63503Y12588D1*
X65467D1*
X66739Y13862D1*
X66736Y16846D1*
X66739Y18894D1*
X66462D1*
Y20112D1*
X67680D1*
Y19991D1*
X67743Y20040D1*
X67852Y20101D1*
X67971Y20137D1*
X68095Y20149D1*
X68219Y20135D1*
X68338Y20097D1*
X68446Y20034D1*
X68539Y19951D1*
X68614Y19851D1*
X68666Y19738D1*
X68694Y19617D1*
X68699Y19540D1*
X68686Y19416D1*
X68649Y19297D1*
X68587Y19188D1*
X68505Y19094D1*
X68395Y19014D1*
Y12520D1*
X68372Y12398D1*
X68297Y12283D1*
X67647Y11630D1*
X67676Y11509D1*
X67680Y11432D1*
X67668Y11308D1*
X67630Y11189D1*
X67569Y11080D1*
X67486Y10987D1*
X67387Y10911D1*
X67274Y10858D1*
X67153Y10829D1*
X67028Y10825D1*
X66905Y10846D1*
X66789Y10893D1*
X66685Y10961D1*
X66597Y11050D1*
X66522Y11173D1*
X65999Y11170D1*
X62659D1*
X62658Y11014D1*
X61771D1*
X61770Y10275D1*
Y9775D1*
Y9275D1*
X60512D1*
X60516Y9981D1*
X60512Y10400D1*
X60516Y10481D1*
X60512Y10900D1*
X60516Y10981D1*
X60512Y11275D1*
Y11325D1*
X60411Y11297D1*
X60306Y11231D1*
X60234Y11210D1*
X60180Y11079D1*
X60098Y10985D1*
X59989Y10917D1*
X59990Y9343D1*
X60179Y9345D1*
Y8285D1*
X59197Y8289D1*
X59181Y8285D1*
X58449D1*
Y9345D1*
X59389D1*
X59391Y11194D1*
X59380Y11324D1*
X59400Y11446D1*
X59455Y11559D1*
X59538Y11651D1*
X59645Y11715D1*
X59709Y11732D1*
X59713Y11759D1*
X59767Y11871D1*
X59851Y11963D1*
X59957Y12028D1*
X60078Y12060D1*
X60202Y12056D1*
X60321Y12017D1*
X60423Y11947D1*
X60440Y11926D1*
X60514Y11928D1*
X60516Y11981D1*
X60512Y12349D1*
X60503Y12356D1*
X60512Y12275D1*
Y12349D1*
X60416Y12416D1*
X60291Y12541D1*
X60225Y12638D1*
X60203Y12753D1*
X60202Y14191D1*
X59940Y14453D1*
X58069D1*
X58065Y13775D1*
X58069Y13356D1*
X58065Y13275D1*
X58069Y12856D1*
X58065Y12775D1*
X58069Y12756D1*
X58065Y11775D1*
X58069Y11356D1*
X58065Y11275D1*
X58069Y10856D1*
X58065Y10775D1*
X58069Y10356D1*
X58065Y10275D1*
X58069Y9856D1*
X58065Y9775D1*
X58069Y9356D1*
Y9275D1*
X56811D1*
X56815Y9981D1*
X56811Y10400D1*
X56815Y10481D1*
X56811Y10900D1*
X56815Y10981D1*
X56811Y11400D1*
X56815Y11481D1*
X56811Y11575D1*
X55785Y11576D1*
Y11807D1*
X55644Y11937D1*
X55603Y11978D1*
X55539Y12074D1*
X55515Y12190D1*
Y13803D1*
X55429Y13693D1*
X55428Y13315D1*
X55400Y13191D1*
X55340Y13103D1*
X51650Y9414D1*
X51542Y9345D1*
X51438Y9326D1*
X50333D1*
X50332Y9273D1*
X50117D1*
X50125Y9190D1*
X50115Y9117D1*
X50377Y9115D1*
X50413Y9151D1*
X50520Y9215D1*
X50640Y9247D1*
X50765Y9244D1*
X50883Y9205D1*
X50986Y9134D1*
X51064Y9037D1*
X51112Y8922D1*
X51125Y8815D1*
X51113Y8734D1*
X51190Y8712D1*
X51277Y8652D1*
X51932Y7991D1*
X52220Y7992D1*
X52217Y7010D1*
X52220Y6744D1*
Y6262D1*
X51990D1*
Y5155D1*
X52049Y5112D1*
X52136Y5018D1*
Y5244D1*
X53244D1*
Y4318D1*
X54190Y4315D1*
X69686D1*
X69532Y4501D1*
X69411Y4719D1*
X69333Y4956D1*
X69300Y5203D1*
X69314Y5452D1*
X69375Y5695D1*
X69479Y5921D1*
X69625Y6124D1*
X69806Y6296D1*
X70015Y6432D1*
X70247Y6525D1*
X70491Y6574D1*
X70741Y6576D1*
X70987Y6532D1*
X71220Y6442D1*
X71432Y6310D1*
X71563Y6194D1*
X71565Y10815D1*
Y22061D1*
X71411Y21929D1*
X71196Y21801D1*
X70961Y21716D1*
X70715Y21677D1*
X70465Y21684D1*
X70222Y21737D1*
X69992Y21836D1*
X69785Y21975D1*
X69608Y22151D1*
X69467Y22357D1*
X69366Y22585D1*
X69310Y22829D1*
X69301Y23078D1*
X69339Y23325D1*
X69422Y23560D1*
X69547Y23776D1*
X69711Y23964D1*
X69834Y24067D1*
X65565Y24065D1*
X47057Y24060D1*
X47240Y23891D1*
X47389Y23691D1*
X47498Y23466D1*
X47563Y23225D1*
X47582Y23003D1*
X47558Y22754D1*
X47489Y22514D1*
X47375Y22292D1*
X47223Y22094D1*
X47036Y21929D1*
X46821Y21801D1*
X46586Y21716D1*
X46340Y21677D1*
X46090Y21684D1*
X45847Y21737D1*
X45617Y21836D1*
X45410Y21975D1*
X45233Y22151D1*
X45092Y22357D1*
X44991Y22585D1*
X44935Y22829D1*
X44926Y23078D1*
X44964Y23325D1*
X45047Y23560D1*
X45172Y23776D1*
X45336Y23964D1*
X45459Y24067D1*
X41190Y24065D1*
X30432Y24060D1*
X30615Y23891D1*
X30764Y23691D1*
X30873Y23466D1*
X30938Y23225D1*
X30957Y23003D1*
X30933Y22754D1*
X30864Y22514D1*
X30750Y22292D1*
X30598Y22094D1*
X30411Y21929D1*
X30196Y21801D1*
X29961Y21716D1*
X29715Y21677D1*
X29465Y21684D1*
X29222Y21737D1*
X28992Y21836D1*
X28785Y21975D1*
X28608Y22151D1*
X28467Y22357D1*
X28366Y22585D1*
X28310Y22829D1*
X28301Y23078D1*
X28339Y23325D1*
X28422Y23560D1*
X28547Y23776D1*
X28711Y23964D1*
X28834Y24067D1*
X24565Y24065D1*
X4315D1*
Y4315D1*
X22436D1*
X22282Y4501D1*
X22161Y4719D1*
X22083Y4956D1*
X22050Y5203D1*
X22064Y5452D1*
X22125Y5695D1*
X22229Y5921D1*
X22375Y6124D1*
X22556Y6296D1*
X22765Y6432D1*
X22997Y6525D1*
X23241Y6574D1*
X23491Y6576D1*
X23737Y6532D1*
X23970Y6442D1*
X24182Y6310D1*
X24365Y6141D1*
X24514Y5941D1*
X24623Y5716D1*
X24688Y5475D1*
X24707Y5253D1*
X24683Y5004D1*
X24614Y4764D1*
X24500Y4542D1*
X24348Y4344D1*
X24317Y4314D1*
X46280Y4315D1*
X46187Y4457D1*
X46148Y4576D1*
X46136Y4700D1*
X46153Y4824D1*
X46196Y4941D1*
X46265Y5045D1*
X46355Y5131D1*
X46462Y5195D1*
X46581Y5233D1*
X46705Y5244D1*
X46828Y5226D1*
X46945Y5182D1*
X47049Y5112D1*
X47134Y5022D1*
X47191Y4924D1*
X47234Y5005D1*
X47316Y5099D1*
X47417Y5172D1*
X47532Y5221D1*
X47655Y5243D1*
X47780Y5237D1*
X47900Y5203D1*
X48009Y5143D1*
X48102Y5060D1*
X48175Y4959D1*
X48190Y4929D1*
X48265Y5045D1*
X48355Y5131D1*
X48392Y5153D1*
X48390Y6264D1*
X48160Y6262D1*
X48164Y7244D1*
X48160Y7510D1*
Y7992D1*
X48265D1*
X48255Y8074D1*
X48266Y8139D1*
X47381Y8140D1*
X47257Y8168D1*
X47169Y8228D1*
X46670Y8727D1*
X46601Y8835D1*
X46582Y8940D1*
Y9272D1*
X46299Y9273D1*
X46303Y9216D1*
X46493Y9219D1*
Y8159D1*
X45511Y8163D1*
X45495Y8159D1*
X44763D1*
Y8653D1*
X44681Y8606D1*
X44561Y8572D1*
X44495D1*
X43839Y7915D1*
X43731Y7846D1*
X43627Y7827D1*
X36240D1*
X36241Y5490D1*
X37003Y5488D1*
X37366D1*
X37847Y5971D1*
X37946Y6047D1*
X38061Y6095D1*
X38190Y6113D1*
X45815D1*
X45939Y6097D1*
X46054Y6050D1*
X46154Y5975D1*
X46231Y5877D1*
X46281Y5763D1*
X46300Y5639D1*
X46287Y5516D1*
X46243Y5399D1*
X46170Y5297D1*
X46075Y5218D1*
X45962Y5165D1*
X45815Y5143D1*
X38389D1*
X37908Y4660D1*
X37809Y4584D1*
X37695Y4535D1*
X37565Y4518D1*
X35003D1*
X34879Y4534D1*
X34764Y4581D1*
X34660Y4660D1*
X34237Y5082D1*
X34185Y5090D1*
X34089Y5148D1*
X33578Y5659D1*
X33410Y5660D1*
Y5828D1*
X32523Y6715D1*
X32283Y6472D1*
X32184Y6396D1*
X32069Y6348D1*
X31940Y6330D1*
X26514D1*
X26302Y6116D1*
X26300Y5718D1*
X26339Y5584D1*
X26345Y5503D1*
X26331Y5379D1*
X26288Y5262D1*
X26218Y5158D1*
X26127Y5074D1*
X26018Y5013D1*
X25898Y4979D1*
X25773Y4974D1*
X25651Y4998D1*
X25538Y5051D1*
X25440Y5128D1*
X25363Y5226D1*
X25311Y5339D1*
X25286Y5462D1*
X25292Y5586D1*
X25331Y5717D1*
X25330Y6315D1*
X25346Y6439D1*
X25393Y6554D1*
X25472Y6658D1*
X25975Y7160D1*
X26059Y7227D1*
X25922Y7377D1*
X25088Y8211D1*
X25027Y8322D1*
X25019Y8502D1*
X25018Y10690D1*
X25056Y10817D1*
X25064Y11064D1*
Y11566D1*
X26066D1*
Y11367D1*
X26788Y11365D1*
X26785Y11466D1*
X26767Y11565D1*
Y12451D1*
X26380Y12455D1*
X24379D1*
X24260Y12487D1*
X24174Y12576D1*
X24144Y12690D1*
Y17440D1*
X24177Y17560D1*
X24265Y17646D1*
X24379Y17675D1*
X26329D1*
X26332Y17878D1*
X26348Y18002D1*
X26395Y18117D1*
X26474Y18221D1*
X28416Y20163D1*
X28037Y20160D1*
Y20445D1*
X27970Y20346D1*
X27879Y20261D1*
X27770Y20201D1*
X27650Y20167D1*
X27525Y20162D1*
X27403Y20186D1*
X27268Y20256D1*
X26243Y20255D1*
X26285Y20220D1*
X26470D1*
Y19160D1*
X26146D1*
X25498Y18508D1*
X25398Y18433D1*
X25305Y18396D1*
X25190Y18380D1*
X23815D1*
X23692Y18398D1*
X23600Y18437D1*
X23508Y18508D1*
X22880Y19136D1*
X22845Y19160D1*
X22660D1*
Y20220D1*
X23720Y20217D1*
X23660Y20220D1*
X24720D1*
Y19248D1*
X25007Y19250D1*
X25410Y19650D1*
Y20220D1*
X25695D1*
X25565Y20316D1*
X25488Y20414D1*
X25436Y20527D1*
X25411Y20649D1*
X25417Y20774D1*
X25451Y20894D1*
X25512Y21003D1*
X25597Y21094D1*
X25697Y21161D1*
X25410Y21160D1*
Y21734D1*
X25011Y22129D1*
X24718Y22130D1*
X24720Y21345D1*
Y21160D1*
X23660Y21164D1*
X23720Y21160D1*
X22660D1*
Y22220D1*
X22859D1*
X23508Y22873D1*
X23607Y22947D1*
X23700Y22985D1*
X23815Y23000D1*
X25190D1*
X25313Y22982D1*
X25405Y22943D1*
X25498Y22873D1*
X26152Y22218D1*
X26470Y22220D1*
Y21160D1*
X26185D1*
X26315Y21125D1*
X27264D1*
X27327Y21163D1*
X27445Y21206D1*
X27568Y21221D1*
X27692Y21206D1*
X27809Y21162D1*
X27913Y21093D1*
X27997Y21001D1*
X28037Y20930D1*
Y21221D1*
X29098D1*
Y20904D1*
X29352Y20653D1*
X29350Y21367D1*
X30410D1*
Y21309D1*
X31087Y21311D1*
X31203Y21389D1*
X31320Y21431D1*
X31444Y21446D1*
X31568Y21431D1*
X31701Y21377D1*
X32511Y21376D1*
X32703Y21566D1*
X31998Y21568D1*
X31848Y21577D1*
X31412D1*
X31416Y22559D1*
X31412Y22575D1*
Y23307D1*
X32473D1*
Y22439D1*
X33042Y22438D1*
X33103Y22476D1*
X33220Y22519D1*
X33344Y22534D1*
X33468Y22519D1*
X33601Y22464D1*
X33600Y22534D1*
X34661D1*
Y21473D1*
X33760Y21468D1*
X33721Y21376D1*
X33651Y21283D1*
X33543Y21176D1*
X34190Y21175D1*
X34309Y21143D1*
X34396Y21054D1*
X34425Y20935D1*
X34423Y20822D1*
X34709Y20820D1*
X34705Y21191D1*
X34733Y21315D1*
X34793Y21403D1*
X35043Y21653D1*
X35151Y21721D1*
X35256Y21741D1*
X37381D1*
X37505Y21713D1*
X37478Y21739D1*
X37380Y21816D1*
X37303Y21914D1*
X37251Y22028D1*
X37227Y22150D1*
X37232Y22275D1*
X37266Y22395D1*
X37327Y22503D1*
X37412Y22595D1*
X37516Y22664D1*
X37633Y22707D1*
X37757Y22721D1*
X37881Y22706D1*
X37998Y22663D1*
X38101Y22593D1*
X38186Y22501D1*
X38246Y22393D1*
X38280Y22272D1*
X38285Y22166D1*
X38265Y22043D1*
X38216Y21928D1*
X38142Y21828D1*
X38047Y21748D1*
X37935Y21692D1*
X37814Y21664D1*
X37689Y21665D1*
X37568Y21695D1*
X37500Y21726D1*
X50753Y11628D2*
D14*
X51282D1*
X44535Y12503D2*
X45065D1*
X58940Y9345D2*
Y8285D1*
X58450Y8815D2*
X58940D1*
X34130Y22533D2*
Y21474D1*
Y22003D2*
X34660D1*
X31943Y23306D2*
Y22816D1*
X31413D2*
X32472D1*
X39101Y11909D2*
X40160D1*
X43130Y12940D2*
X43660D1*
X55815Y23720D2*
Y22660D1*
Y23190D2*
X56345D1*
X58065Y23720D2*
Y22660D1*
Y23190D2*
X58595D1*
X60315Y23720D2*
Y22660D1*
Y23190D2*
X60845D1*
X62565Y23720D2*
Y22660D1*
Y23190D2*
X63095D1*
X64815Y23720D2*
Y22660D1*
Y23190D2*
X65345D1*
X51315Y23720D2*
Y22660D1*
Y23190D2*
X51845D1*
X47690Y5244D2*
Y4690D1*
X36318Y22653D2*
Y21790D1*
X35690Y22222D2*
X36946D1*
X37756Y22721D2*
Y21661D1*
X37226Y22191D2*
X38286D1*
X45254Y8689D2*
Y8159D1*
X44763Y8689D2*
X45254D1*
X51439Y13656D2*
Y12597D1*
Y13127D2*
X51930D1*
X50315Y22095D2*
Y21565D1*
X36188Y18753D2*
Y18223D1*
Y18753D2*
X36679D1*
X53315Y22095D2*
Y21035D1*
Y21565D2*
X53806D1*
X57440Y12628D2*
X58068D1*
X44518Y11130D2*
D20*
X44796D1*
X44244Y10882D2*
X44441D1*
X43588Y10633D2*
X44359D1*
X42631Y10384D2*
X44433D1*
X42881Y10136D2*
X44355D1*
X44842Y11264D2*
X44631D1*
X44275Y10913D1*
X44190Y10878D1*
X43655D1*
X43640Y10792D1*
X43591Y10677D1*
X43517Y10577D1*
X43421Y10497D1*
X43310Y10441D1*
X43188Y10413D1*
X43063Y10414D1*
X42942Y10444D1*
X42832Y10502D1*
X42738Y10584D1*
X42665Y10685D1*
X42630Y10764D1*
X42603Y10699D1*
X42533Y10596D1*
X42462Y10530D1*
X43067Y9926D1*
X44430D1*
X44396Y10012D1*
X44380Y10136D1*
X44400Y10259D1*
X44463Y10380D1*
X44400Y10510D1*
X44384Y10634D1*
X44404Y10757D1*
X44459Y10869D1*
X44542Y10961D1*
X44649Y11026D1*
X44769Y11058D1*
X44828Y11056D1*
X44822Y11134D1*
X44844Y11261D1*
X43130Y10940D2*
D14*
Y10410D1*
Y10940D2*
X43660D1*
X33481Y20566D2*
D20*
X33806D1*
X33481Y20318D2*
X33806D1*
X33481Y20069D2*
X33830D1*
X33481Y19820D2*
X34017D1*
X33481Y19572D2*
X34013D1*
X31655Y19323D2*
X34006D1*
X31655Y19074D2*
X33423D1*
X31655Y18826D2*
X33423D1*
X31655Y18577D2*
X33423D1*
X31655Y18328D2*
X33423D1*
X33474Y19283D2*
X34031D1*
X34043Y19853D1*
X33918Y19979D1*
X33850Y20086D1*
X33830Y20191D1*
Y20812D1*
X33452Y20815D1*
X33455Y20520D1*
X33451Y19937D1*
X33455Y19681D1*
Y19425D1*
X32433D1*
Y19562D1*
X31630Y19566D1*
Y18190D1*
X34008Y18193D1*
X34006Y18222D1*
X33449D1*
Y19283D1*
X33474D1*
X33940Y19282D2*
D14*
Y18223D1*
X33450Y18753D2*
X33940D1*
X32944Y20507D2*
X33454D1*
X32944Y19739D2*
Y19426D1*
Y19739D2*
X33454D1*
X26119Y10316D2*
D20*
X26761D1*
X26076Y10068D2*
X26761D1*
X28018D2*
X28159D1*
X25858Y9819D2*
X26761D1*
X27869D2*
X29241D1*
X25405Y9570D2*
X26761D1*
X27869D2*
X28300D1*
X25405Y9322D2*
X26761D1*
X27869D2*
X28300D1*
X25405Y9073D2*
X26761D1*
X27869D2*
X28300D1*
X25405Y8824D2*
X26761D1*
X27869D2*
X28300D1*
X25405Y8576D2*
X26761D1*
X27869D2*
X28300D1*
X25506Y8327D2*
X26761D1*
X27869D2*
X28300D1*
X25756Y8078D2*
X28300D1*
X26002Y7830D2*
X28300D1*
X26252Y7581D2*
X29542D1*
X26502Y7332D2*
X29542D1*
X26066Y10565D2*
X26007Y10564D1*
X26046Y10502D1*
X26085Y10384D1*
X26095Y10278D1*
X26081Y10154D1*
X26038Y10037D1*
X25968Y9933D1*
X25877Y9849D1*
X25768Y9788D1*
X25648Y9754D1*
X25523Y9749D1*
X25401Y9774D1*
X25378Y9782D1*
X25379Y8430D1*
X26493Y7315D1*
X29567Y7314D1*
Y7662D1*
X29074Y7660D1*
X28326D1*
Y9595D1*
X29266D1*
X29265Y10066D1*
X29205Y10126D1*
Y9987D1*
X28183D1*
Y10260D1*
X27965Y10041D1*
X27857Y9972D1*
X27845Y9933D1*
X27842Y9826D1*
X27845Y9556D1*
X27842Y9074D1*
X27845Y9058D1*
Y8326D1*
X26785D1*
X26789Y10056D1*
X26785Y10326D1*
Y10565D1*
X26069D1*
X25565Y10278D2*
D14*
Y9748D1*
Y10278D2*
X26095D1*
X27315Y8817D2*
Y8327D1*
X26785Y8817D2*
X27845D1*
X28817Y9595D2*
Y9065D1*
X28327D2*
X28817D1*
Y8190D2*
Y7660D1*
X28327Y8190D2*
X28817D1*
X28694Y10281D2*
Y9988D1*
X28184Y10281D2*
X28694D1*
X24529Y17067D2*
D20*
X26981D1*
X24529Y16818D2*
X26981D1*
X24529Y16569D2*
X26981D1*
X24529Y16321D2*
X26981D1*
X24529Y16072D2*
X26981D1*
X24529Y15823D2*
X26981D1*
X24529Y15575D2*
X26981D1*
X24529Y15326D2*
X26981D1*
X24529Y15077D2*
X26981D1*
X24529Y14829D2*
X26981D1*
X24529Y14580D2*
X26981D1*
X24529Y14331D2*
X26981D1*
X24529Y14082D2*
X26981D1*
X24529Y13834D2*
X26981D1*
X24529Y13585D2*
X26981D1*
X24529Y13336D2*
X26981D1*
X24529Y13088D2*
X26981D1*
X24529Y12839D2*
X26981D1*
X26880Y17315D2*
X24504D1*
Y12815D1*
X27005D1*
Y17315D1*
X26880D1*
X28467Y17067D2*
X30919D1*
X28467Y16818D2*
X30919D1*
X28467Y16569D2*
X30919D1*
X28467Y16321D2*
X30919D1*
X28467Y16072D2*
X30919D1*
X28467Y15823D2*
X30919D1*
X28467Y15575D2*
X30919D1*
X28467Y15326D2*
X30919D1*
X28467Y15077D2*
X30919D1*
X28467Y14829D2*
X30919D1*
X28467Y14580D2*
X30919D1*
X28467Y14331D2*
X30919D1*
X28467Y14082D2*
X30919D1*
X28467Y13834D2*
X30919D1*
X28467Y13585D2*
X30919D1*
X28467Y13336D2*
X30919D1*
X28467Y13088D2*
X30919D1*
X28467Y12839D2*
X30919D1*
X30818Y17315D2*
X28442D1*
Y12815D1*
X30943D1*
Y17315D1*
X30818D1*
X35468Y20817D2*
X37170D1*
X35468Y20568D2*
X37170D1*
X35468Y20320D2*
X37170D1*
X35443Y20941D2*
Y20128D1*
X37193D1*
Y21066D1*
X35443D1*
Y20941D1*
X35468Y22567D2*
X37170D1*
X35468Y22319D2*
X37170D1*
X35468Y22070D2*
X37170D1*
X35443Y22691D2*
Y21878D1*
X37193D1*
Y22816D1*
X35443D1*
Y22691D1*
X31057Y10196D2*
X33980D1*
X32065Y9948D2*
X33980D1*
X32151Y9699D2*
X33980D1*
X33014Y9450D2*
X33980D1*
X33014Y9202D2*
X33980D1*
X33014Y8953D2*
X33980D1*
X33014Y8704D2*
X33980D1*
X32952Y8456D2*
X33980D1*
X32952Y8207D2*
X34050D1*
X32952Y7958D2*
X34078D1*
X33132Y7710D2*
X34355D1*
X34651D2*
X35855D1*
X33382Y7461D2*
X35855D1*
X33628Y7212D2*
X35855D1*
X33878Y6964D2*
X35855D1*
X34495Y6715D2*
X35855D1*
X34495Y6466D2*
X35855D1*
X34499Y6217D2*
X35855D1*
X34749Y5969D2*
X35855D1*
X34995Y5720D2*
X35855D1*
X34093Y6720D2*
X34470D1*
Y6224D1*
X35203Y5488D1*
X35882D1*
X35881Y7826D1*
X34818Y7827D1*
X34787Y7797D1*
X34681Y7730D1*
X34562Y7696D1*
X34437Y7697D1*
X34318Y7733D1*
X34214Y7802D1*
X34134Y7898D1*
X34084Y8012D1*
X34068Y8135D1*
X34090Y8262D1*
X34078Y8263D1*
X34007Y8359D1*
X34005Y10396D1*
X33303Y10400D1*
X30940D1*
X30933Y10381D1*
X30937Y10251D1*
X31043Y10186D1*
X31204Y10025D1*
X31413Y10026D1*
X31520Y10090D1*
X31640Y10122D1*
X31765Y10119D1*
X31883Y10080D1*
X31986Y10009D1*
X32064Y9912D1*
X32112Y9797D1*
X32125Y9690D1*
X32115Y9617D1*
X32990Y9615D1*
Y8515D1*
X32924D1*
X32925Y7889D1*
X34095Y6721D1*
X31411Y10023D2*
X31520Y10090D1*
X31640Y10122D1*
X31765Y10119D1*
X31883Y10080D1*
X31986Y10009D1*
X32064Y9912D1*
X32112Y9797D1*
X32125Y9690D1*
X32115Y9617D1*
D24*
X67071Y19503D3*
D25*
Y11432D3*
D26*
X50753Y11628D3*
Y12376D3*
X45065Y12503D3*
Y11755D3*
D27*
X58940Y8815D3*
X59688D3*
D26*
X62128Y12253D3*
Y11505D3*
D28*
X34130Y22003D3*
D29*
X33343D3*
D26*
X31943Y22816D3*
Y22068D3*
D30*
X31443Y20128D3*
D29*
Y20916D3*
D26*
X29880Y20128D3*
Y20876D3*
D30*
X25565Y11065D3*
D29*
Y10278D3*
D26*
X31315Y11063D3*
Y10315D3*
D28*
X33940Y6190D3*
D29*
X35318D3*
X25815Y5503D3*
X31721D3*
D27*
X31065Y8190D3*
X30317D3*
D31*
X51378Y20690D3*
X50039D3*
D32*
X32440Y9065D3*
D33*
X36850D3*
D28*
X39630Y10909D3*
D29*
Y11909D3*
Y12909D3*
Y13909D3*
Y14909D3*
Y15909D3*
D28*
X42130Y12940D3*
D29*
X43130D3*
X42130Y11940D3*
X43130D3*
X42130Y10940D3*
X43130D3*
D28*
X23190Y21690D3*
X24190D3*
X25940Y19690D3*
D29*
Y20690D3*
D28*
Y21690D3*
X24190Y19690D3*
X23190D3*
X28567Y20691D3*
D29*
X27567D3*
D28*
X54815Y23190D3*
D29*
X55815D3*
D28*
X57065D3*
D29*
X58065D3*
D28*
X59315D3*
D29*
X60315D3*
D28*
X61565D3*
D29*
X62565D3*
D28*
X63815D3*
D29*
X64815D3*
D28*
X50315D3*
D29*
X51315D3*
D28*
X52565D3*
D29*
X53565D3*
D34*
X52690Y4690D3*
D35*
X51690D3*
X50690D3*
X49690D3*
X48690D3*
X47690D3*
X46690D3*
D36*
X36318Y20253D3*
Y22222D3*
D37*
X29190Y15065D3*
X26237D3*
D38*
X29628Y23003D3*
X46253D3*
X70628D3*
X23378Y5253D3*
X70628D3*
D39*
X27782Y5502D3*
X36318Y20816D3*
X37756Y22191D3*
D37*
X26003Y16065D3*
X29442Y14065D3*
D40*
X68090Y19540D3*
D42*
X51146Y19082D3*
Y19830D3*
X50241Y19456D3*
D43*
X34630Y10877D3*
X36631D3*
D44*
X35630Y14932D3*
D27*
X46002Y8689D3*
X45254D3*
X57065Y21565D3*
X57813D3*
X59315D3*
X60063D3*
X61565D3*
X62313D3*
X63815D3*
X64563D3*
X54815D3*
X55563D3*
D26*
X56315Y13815D3*
Y14563D3*
D27*
X51439Y13127D3*
X50691D3*
D26*
X56315Y12815D3*
Y12067D3*
D27*
X50315Y21565D3*
X51063D3*
D26*
X53478Y18065D3*
Y18813D3*
D27*
X36188Y18753D3*
X35440D3*
Y19503D3*
X36188D3*
X34688Y18753D3*
X33940D3*
D26*
X27315Y11065D3*
Y10317D3*
D27*
X31065Y9065D3*
X30317D3*
D26*
X27315Y9565D3*
Y8817D3*
D27*
X29565Y9065D3*
X28817D3*
X29565Y8190D3*
X28817D3*
D45*
X32693Y12377D3*
Y10173D3*
D27*
X31065Y7440D3*
X30317D3*
X53315Y21565D3*
X52567D3*
D26*
X51690Y6753D3*
Y7501D3*
X50690Y6753D3*
Y7501D3*
X49690Y6753D3*
Y7501D3*
X48690Y6753D3*
Y7501D3*
D46*
X46003Y14126D3*
Y13626D3*
Y13126D3*
Y12626D3*
Y12126D3*
Y11626D3*
Y11126D3*
Y10626D3*
Y10126D3*
Y9626D3*
X49703D3*
Y10126D3*
Y10626D3*
Y11126D3*
Y11626D3*
Y12126D3*
Y12626D3*
Y13126D3*
Y13626D3*
Y14126D3*
X57440Y14128D3*
Y13628D3*
Y13128D3*
Y12628D3*
Y12128D3*
Y11628D3*
Y11128D3*
Y10628D3*
Y10128D3*
Y9628D3*
X61141D3*
Y10128D3*
Y10628D3*
Y11128D3*
Y11628D3*
Y12128D3*
Y12628D3*
Y13128D3*
Y13628D3*
Y14128D3*
D47*
X32944Y20507D3*
Y20251D3*
Y19995D3*
Y19739D3*
X34676D3*
Y19995D3*
Y20251D3*
Y20507D3*
D48*
X28694Y11069D3*
Y10872D3*
Y10675D3*
Y10478D3*
Y10281D3*
X30426D3*
Y10478D3*
Y10675D3*
Y10872D3*
Y11069D3*
M02*
