G04 DipTrace 2.4.0.2*
%INTopPaste.gbr*%
%MOIN*%
%ADD58R,0.0471X0.0038*%
%ADD60R,0.0471X0.0077*%
%ADD62R,0.0707X0.0156*%
%ADD64R,0.118X0.0628*%
%ADD66R,0.4014X0.3739*%
%ADD68R,0.051X0.1475*%
%ADD70R,0.0333X0.0176*%
%ADD80R,0.0707X0.0313*%
%ADD90R,0.0471X0.0628*%
%ADD98R,0.0431X0.051*%
%ADD100R,0.051X0.0431*%
%FSLAX44Y44*%
G04*
G70*
G90*
G75*
G01*
%LNTopPaste*%
%LPD*%
D100*
X50753Y11628D3*
Y12376D3*
X45065Y12503D3*
Y11755D3*
D98*
X58940Y8815D3*
X59688D3*
D100*
X62128Y12253D3*
Y11505D3*
X31943Y22816D3*
Y22068D3*
X29880Y20128D3*
Y20876D3*
X31315Y11063D3*
Y10315D3*
D98*
X31065Y8190D3*
X30317D3*
D90*
X51378Y20690D3*
X50039D3*
D80*
X36318Y20253D3*
Y22222D3*
D70*
X51146Y19082D3*
Y19830D3*
X50241Y19456D3*
D68*
X34630Y10877D3*
X36631D3*
D66*
X35630Y14932D3*
D98*
X46002Y8689D3*
X45254D3*
X57065Y21565D3*
X57813D3*
X59315D3*
X60063D3*
X61565D3*
X62313D3*
X63815D3*
X64563D3*
X54815D3*
X55563D3*
D100*
X56315Y13815D3*
Y14563D3*
D98*
X51439Y13127D3*
X50691D3*
D100*
X56315Y12815D3*
Y12067D3*
D98*
X50315Y21565D3*
X51063D3*
D100*
X53478Y18065D3*
Y18813D3*
D98*
X36188Y18753D3*
X35440D3*
Y19503D3*
X36188D3*
X34688Y18753D3*
X33940D3*
D100*
X27315Y11065D3*
Y10317D3*
D98*
X31065Y9065D3*
X30317D3*
D100*
X27315Y9565D3*
Y8817D3*
D98*
X29565Y9065D3*
X28817D3*
X29565Y8190D3*
X28817D3*
D64*
X32693Y12377D3*
Y10173D3*
D98*
X31065Y7440D3*
X30317D3*
X53315Y21565D3*
X52567D3*
D100*
X51690Y6753D3*
Y7501D3*
X50690Y6753D3*
Y7501D3*
X49690Y6753D3*
Y7501D3*
X48690Y6753D3*
Y7501D3*
D62*
X46003Y14126D3*
Y13626D3*
Y13126D3*
Y12626D3*
Y12126D3*
Y11626D3*
Y11126D3*
Y10626D3*
Y10126D3*
Y9626D3*
X49703D3*
Y10126D3*
Y10626D3*
Y11126D3*
Y11626D3*
Y12126D3*
Y12626D3*
Y13126D3*
Y13626D3*
Y14126D3*
X57440Y14128D3*
Y13628D3*
Y13128D3*
Y12628D3*
Y12128D3*
Y11628D3*
Y11128D3*
Y10628D3*
Y10128D3*
Y9628D3*
X61141D3*
Y10128D3*
Y10628D3*
Y11128D3*
Y11628D3*
Y12128D3*
Y12628D3*
Y13128D3*
Y13628D3*
Y14128D3*
D60*
X32944Y20507D3*
Y20251D3*
Y19995D3*
Y19739D3*
X34676D3*
Y19995D3*
Y20251D3*
Y20507D3*
D58*
X28694Y11069D3*
Y10872D3*
Y10675D3*
Y10478D3*
Y10281D3*
X30426D3*
Y10478D3*
Y10675D3*
Y10872D3*
Y11069D3*
M02*
