G04 DipTrace 2.4.0.2*
%INTopSilk.gbr*%
%MOIN*%
%ADD10C,0.0098*%
%ADD12C,0.003*%
%ADD21C,0.015*%
%ADD23C,0.0236*%
%ADD41C,0.0154*%
%ADD105C,0.0046*%
%ADD106C,0.0139*%
%ADD107C,0.0124*%
%ADD108C,0.0093*%
%ADD109C,0.0062*%
%FSLAX44Y44*%
G04*
G70*
G90*
G75*
G01*
%LNTopSilk*%
%LPD*%
D23*
X67070Y20116D3*
X67603Y19464D2*
D10*
G02X67622Y11471I-552J-3998D01*
G01*
X66514D2*
G02X66494Y19464I552J3998D01*
G01*
X51008Y11214D2*
X50497D1*
X44809Y12916D2*
X45321D1*
X58527Y8559D2*
Y9071D1*
X61872Y12666D2*
X62383D1*
X32752Y22003D2*
G02X32752Y22003I984J0D01*
G01*
X34997Y22121D2*
Y21885D1*
X35115Y22003D2*
X34878D1*
X31687Y23230D2*
X32198D1*
X31443Y21506D2*
G02X31443Y21506I0J-984D01*
G01*
X31561Y19262D2*
X31325D1*
X31443Y19144D2*
Y19380D1*
X30136Y19715D2*
X29624D1*
X25565Y9687D2*
G02X25565Y9687I0J984D01*
G01*
X25447Y11931D2*
X25683D1*
X25565Y12049D2*
Y11813D1*
X31059Y11477D2*
X31571D1*
X36204Y6190D2*
G02X36204Y6190I-1575J0D01*
G01*
X33369Y6072D2*
Y6308D1*
X33251Y6190D2*
X33487D1*
X25323Y6684D2*
X32213D1*
Y4322D1*
X25323D1*
Y6684D1*
X31479Y8446D2*
Y7934D1*
X50945Y20355D2*
X50472D1*
X50945Y21025D2*
X50472D1*
D23*
X51909Y20690D3*
X33739Y9538D2*
D10*
X35550D1*
Y8593D1*
X33739D1*
Y9538D1*
X34054D2*
Y8593D1*
X40130Y10409D2*
Y16409D1*
X39130Y10409D2*
Y16409D1*
X40130Y10409D2*
X39130D1*
X40130Y16409D2*
X39130D1*
X41630Y12357D2*
Y10440D1*
Y13440D2*
Y10440D1*
X43630Y13440D2*
Y10440D1*
X41630Y13440D2*
X43630D1*
X41630Y10440D2*
X43630D1*
X24690Y21190D2*
Y22190D1*
X22690Y21190D2*
X24690D1*
X22690D2*
Y22190D1*
X24690D1*
X26440Y19190D2*
X25440D1*
Y22190D1*
X26440D2*
X25440D1*
X26440Y19190D2*
Y22190D1*
X22690Y20190D2*
Y19190D1*
X24690Y20190D2*
X22690D1*
X24690D2*
Y19190D1*
X22690D1*
X27067Y21191D2*
Y20191D1*
X29067Y21191D2*
X27067D1*
X29067D2*
Y20191D1*
X27067D1*
X56315Y22690D2*
Y23690D1*
X54315Y22690D2*
X56315D1*
X54315D2*
Y23690D1*
X56315D1*
X58565Y22690D2*
Y23690D1*
X56565Y22690D2*
X58565D1*
X56565D2*
Y23690D1*
X58565D1*
X60815Y22690D2*
Y23690D1*
X58815Y22690D2*
X60815D1*
X58815D2*
Y23690D1*
X60815D1*
X63065Y22690D2*
Y23690D1*
X61065Y22690D2*
X63065D1*
X61065D2*
Y23690D1*
X63065D1*
X65315Y22690D2*
Y23690D1*
X63315Y22690D2*
X65315D1*
X63315D2*
Y23690D1*
X65315D1*
X51815Y22690D2*
Y23690D1*
X49815Y22690D2*
X51815D1*
X49815D2*
Y23690D1*
X51815D1*
X54065Y22690D2*
Y23690D1*
X52065Y22690D2*
X54065D1*
X52065D2*
Y23690D1*
X54065D1*
X53289Y4198D2*
X46092D1*
Y5182D1*
X53289D1*
Y4198D1*
X35485Y20175D2*
X35256D1*
Y22237D1*
X35818D1*
X36818D2*
X37318D1*
X37381D2*
Y20175D1*
X37215D2*
X37381D1*
X24190Y17628D2*
D21*
X31253D1*
Y12503D1*
X24190D1*
Y17628D1*
D41*
X51293Y20072D3*
X50792Y18865D2*
D10*
Y20046D1*
X50595D1*
Y18865D1*
X50792D1*
X33623Y11822D2*
X37638D1*
X33623D2*
Y12846D1*
X37638Y11822D2*
Y12846D1*
D41*
X34144Y10240D3*
X33284Y11904D2*
D10*
Y10646D1*
X32102Y11904D2*
Y10646D1*
X46573Y14395D2*
Y9356D1*
X49093Y14395D2*
Y9356D1*
X46573D2*
X49093D1*
X46573Y14395D2*
X47518D1*
X48148D2*
X49093D1*
X47518D2*
G03X48148Y14395I315J1D01*
G01*
X58011Y14397D2*
Y9358D1*
X60531Y14397D2*
Y9358D1*
X58011D2*
X60531D1*
X58011Y14397D2*
X58956D1*
X59586D2*
X60531D1*
X58956D2*
G03X59586Y14397I315J1D01*
G01*
X33377Y20713D2*
Y19532D1*
X34243Y20713D2*
Y19532D1*
X33377D2*
X34243D1*
X33377Y20713D2*
X33653D1*
X33968D2*
X34243D1*
X33653D2*
G03X33968Y20713I158J0D01*
G01*
X29127Y11266D2*
Y10085D1*
X29993D2*
Y11266D1*
Y10085D2*
X29127D1*
Y11266D2*
X29403D1*
X29718D2*
X29993D1*
X29403D2*
G03X29718Y11266I158J0D01*
G01*
X4940Y23190D2*
D21*
X21940D1*
Y5190D1*
X4940D1*
Y23190D1*
X27130Y6377D2*
Y6127D1*
Y5377D2*
Y5127D1*
Y5627D2*
Y5877D1*
Y4877D2*
Y4627D1*
G36*
X38659Y10534D2*
X38971Y10846D1*
X38659Y11159D1*
D1*
Y10534D1*
G37*
G36*
X41828Y13930D2*
X42140Y13618D1*
X42453Y13930D1*
D1*
X41828D1*
G37*
G36*
X53787Y5033D2*
X53474Y4720D1*
X53787Y4408D1*
D1*
Y5033D1*
G37*
X22490Y20710D2*
D21*
X22970D1*
X22730Y20950D2*
Y20470D1*
X24680Y20950D2*
Y20470D1*
X66830Y18700D2*
X67310D1*
X67070Y18940D2*
Y18460D1*
X67820Y18700D2*
X68300D1*
X16038Y16159D2*
D12*
X16427D1*
X15920Y16129D2*
X16523D1*
X15814Y16099D2*
X16605D1*
X15721Y16070D2*
X16670D1*
X15640Y16040D2*
X16170D1*
X16343D2*
X16720D1*
X15568Y16010D2*
X16049D1*
X16473D2*
X16758D1*
X15504Y15980D2*
X15948D1*
X16572D2*
X16789D1*
X15446Y15950D2*
X15861D1*
X16646D2*
X16816D1*
X15392Y15920D2*
X15784D1*
X16702D2*
X16841D1*
X15341Y15890D2*
X15716D1*
X16745D2*
X16862D1*
X15290Y15860D2*
X15652D1*
X16780D2*
X16881D1*
X15240Y15830D2*
X15591D1*
X16809D2*
X16897D1*
X15190Y15800D2*
X15535D1*
X16832D2*
X16911D1*
X15141Y15770D2*
X15485D1*
X16850D2*
X16922D1*
X12926Y15740D2*
X13225D1*
X15095D2*
X15439D1*
X15529D2*
X15768D1*
X16867D2*
X16929D1*
X12791Y15710D2*
X13304D1*
X15053D2*
X15940D1*
X16882D2*
X16933D1*
X12673Y15681D2*
X13385D1*
X15011D2*
X16103D1*
X16894D2*
X16934D1*
X12574Y15651D2*
X13469D1*
X14972D2*
X16253D1*
X16905D2*
X16935D1*
X12489Y15621D2*
X14123D1*
X14936D2*
X16384D1*
X12412Y15591D2*
X14263D1*
X14903D2*
X16496D1*
X12341Y15561D2*
X12722D1*
X13153D2*
X14382D1*
X14872D2*
X16593D1*
X12278Y15531D2*
X12645D1*
X13100D2*
X14479D1*
X14841D2*
X16679D1*
X12222Y15501D2*
X12576D1*
X13034D2*
X14558D1*
X14810D2*
X16758D1*
X12170Y15471D2*
X12515D1*
X12962D2*
X14631D1*
X14775D2*
X16830D1*
X12118Y15441D2*
X12462D1*
X12889D2*
X14705D1*
X14735D2*
X16894D1*
X12069Y15411D2*
X12414D1*
X12819D2*
X13277D1*
X13489D2*
X13732D1*
X13864D2*
X15914D1*
X16594D2*
X16948D1*
X12023Y15381D2*
X12370D1*
X12752D2*
X13144D1*
X13541D2*
X13759D1*
X14060D2*
X15793D1*
X16716D2*
X16992D1*
X11981Y15351D2*
X12329D1*
X12689D2*
X13036D1*
X13588D2*
X13781D1*
X14221D2*
X15678D1*
X16815D2*
X17027D1*
X11944Y15322D2*
X12288D1*
X12628D2*
X12950D1*
X13630D2*
X13804D1*
X14346D2*
X15577D1*
X16885D2*
X17043D1*
X11910Y15292D2*
X12249D1*
X12568D2*
X12877D1*
X13668D2*
X13829D1*
X14434D2*
X15488D1*
X16935D2*
X17047D1*
X11875Y15262D2*
X12213D1*
X12512D2*
X12815D1*
X13701D2*
X13860D1*
X14499D2*
X15408D1*
X16427D2*
X16606D1*
X16952D2*
X17038D1*
X11837Y15232D2*
X12180D1*
X12460D2*
X12761D1*
X13733D2*
X13896D1*
X14530D2*
X15334D1*
X16382D2*
X16569D1*
X16965D2*
X17025D1*
X11799Y15202D2*
X12149D1*
X12412D2*
X12712D1*
X13763D2*
X13933D1*
X14505D2*
X15267D1*
X16335D2*
X16520D1*
X11764Y15172D2*
X12118D1*
X12366D2*
X12664D1*
X13793D2*
X13969D1*
X14480D2*
X15208D1*
X16291D2*
X16467D1*
X11731Y15142D2*
X12088D1*
X12320D2*
X12616D1*
X13823D2*
X14006D1*
X14455D2*
X15156D1*
X16249D2*
X16417D1*
X11700Y15112D2*
X12058D1*
X12275D2*
X12567D1*
X13853D2*
X14044D1*
X14433D2*
X15114D1*
X16207D2*
X16376D1*
X16516D2*
D3*
X11669Y15082D2*
X12027D1*
X12230D2*
X12522D1*
X13882D2*
X14082D1*
X14412D2*
X15082D1*
X16163D2*
X16341D1*
X16504D2*
X16546D1*
X11638Y15052D2*
X11994D1*
X12185D2*
X12479D1*
X13908D2*
X14119D1*
X14387D2*
X15070D1*
X16119D2*
X16308D1*
X16496D2*
X16560D1*
X11604Y15022D2*
X11961D1*
X12141D2*
X12438D1*
X13931D2*
X14158D1*
X14359D2*
X15095D1*
X16075D2*
X16277D1*
X16501D2*
X16570D1*
X11567Y14992D2*
X11931D1*
X12099D2*
X12397D1*
X13952D2*
X14206D1*
X14325D2*
X15127D1*
X16030D2*
X16247D1*
X16506D2*
X16578D1*
X11530Y14962D2*
X11903D1*
X12059D2*
X12358D1*
X12686D2*
X13075D1*
X13973D2*
X14266D1*
X14286D2*
X14876D1*
X14960D2*
X15163D1*
X15985D2*
X16217D1*
X16507D2*
X16587D1*
X11494Y14933D2*
X11876D1*
X12018D2*
X12317D1*
X12574D2*
X13149D1*
X13993D2*
X14828D1*
X14990D2*
X15201D1*
X15940D2*
X16187D1*
X16502D2*
X16594D1*
X11462Y14903D2*
X11847D1*
X11979D2*
X12279D1*
X12471D2*
X13216D1*
X14014D2*
X14784D1*
X15020D2*
X15240D1*
X15895D2*
X16157D1*
X16496D2*
X16596D1*
X11432Y14873D2*
X11818D1*
X11944D2*
X12244D1*
X12383D2*
X13275D1*
X14037D2*
X14742D1*
X15050D2*
X15280D1*
X15850D2*
X16126D1*
X16490D2*
X16592D1*
X11405Y14843D2*
X11789D1*
X11911D2*
X12216D1*
X12303D2*
X12759D1*
X13027D2*
X13326D1*
X14060D2*
X14702D1*
X15080D2*
X15319D1*
X15805D2*
X16092D1*
X16483D2*
X16585D1*
X10771Y14813D2*
X10801D1*
X11160D2*
D3*
X11382D2*
X11759D1*
X11879D2*
X12195D1*
X12226D2*
X12612D1*
X13134D2*
X13371D1*
X14081D2*
X14666D1*
X15110D2*
X15360D1*
X15757D2*
X16055D1*
X16474D2*
X16579D1*
X10729Y14783D2*
X10786D1*
X11135D2*
X11160D1*
X11361D2*
X11729D1*
X11849D2*
X12493D1*
X13212D2*
X13413D1*
X14102D2*
X14631D1*
X15140D2*
X15403D1*
X15704D2*
X16018D1*
X16461D2*
X16572D1*
X10694Y14753D2*
X10769D1*
X11113D2*
X11160D1*
X11340D2*
X11699D1*
X11818D2*
X12405D1*
X13266D2*
X13453D1*
X14123D2*
X14686D1*
X15170D2*
X15457D1*
X15641D2*
X15981D1*
X16443D2*
X16560D1*
X10668Y14723D2*
X10752D1*
X11090D2*
X11159D1*
X11318D2*
X11669D1*
X11784D2*
X12343D1*
X13307D2*
X13489D1*
X14093D2*
X14764D1*
X15201D2*
X15531D1*
X15561D2*
X15944D1*
X16420D2*
X16543D1*
X10648Y14693D2*
X10735D1*
X11063D2*
X11155D1*
X11290D2*
X11639D1*
X11746D2*
X12301D1*
X12357D2*
X13075D1*
X13342D2*
X13522D1*
X14063D2*
X14882D1*
X15236D2*
X15899D1*
X16393D2*
X16525D1*
X10631Y14663D2*
X10720D1*
X11027D2*
X11147D1*
X11255D2*
X11609D1*
X11707D2*
X13159D1*
X13374D2*
X13553D1*
X14033D2*
X15054D1*
X15276D2*
X15844D1*
X16359D2*
X16505D1*
X10616Y14633D2*
X10705D1*
X10979D2*
X11136D1*
X11219D2*
X11579D1*
X11662D2*
X13237D1*
X13404D2*
X13584D1*
X14003D2*
X15279D1*
X15319D2*
X15779D1*
X16318D2*
X16480D1*
X10605Y14603D2*
X10693D1*
X10924D2*
X11123D1*
X11183D2*
X11549D1*
X11609D2*
X13308D1*
X13433D2*
X13614D1*
X13972D2*
X15708D1*
X16269D2*
X16449D1*
X10597Y14573D2*
X10683D1*
X10869D2*
X11111D1*
X11143D2*
X13377D1*
X13458D2*
X13644D1*
X13938D2*
X14357D1*
X14457D2*
X15828D1*
X16214D2*
X16412D1*
X10589Y14544D2*
X10674D1*
X10818D2*
X13449D1*
X13478D2*
X13676D1*
X13898D2*
X14319D1*
X14557D2*
X16370D1*
X10581Y14514D2*
X10670D1*
X10768D2*
X13715D1*
X13852D2*
X14277D1*
X14661D2*
X14841D1*
X15140D2*
X15319D1*
X15500D2*
X16322D1*
X10572Y14484D2*
X10687D1*
X10713D2*
X13766D1*
X13796D2*
X14234D1*
X15568D2*
X16262D1*
X10567Y14454D2*
X14188D1*
X15649D2*
X16184D1*
X10564Y14424D2*
X14141D1*
X15748D2*
X16087D1*
X10563Y14394D2*
X14092D1*
X15858D2*
X15978D1*
X17653D2*
X17923D1*
X10561Y14364D2*
X12997D1*
X13195D2*
X14042D1*
X17537D2*
X17977D1*
X10557Y14334D2*
X12898D1*
X13225D2*
X13992D1*
X17435D2*
X18017D1*
X10539Y14304D2*
X12806D1*
X13255D2*
X13938D1*
X17347D2*
X18033D1*
X10513Y14274D2*
X12866D1*
X13285D2*
X13883D1*
X17258D2*
X17930D1*
X10485Y14244D2*
X13903D1*
X17138D2*
X17828D1*
X10462Y14214D2*
X13923D1*
X16217D2*
X16815D1*
X16964D2*
X17741D1*
X10453Y14185D2*
X13943D1*
X14392D2*
X14811D1*
X16048D2*
X17670D1*
X10458Y14155D2*
X13966D1*
X14278D2*
X14914D1*
X15906D2*
X17613D1*
X10463Y14125D2*
X13996D1*
X14174D2*
X15011D1*
X15789D2*
X17567D1*
X10468Y14095D2*
X13488D1*
X13584D2*
X14040D1*
X14074D2*
X15101D1*
X15688D2*
X17532D1*
X10470Y14065D2*
X13446D1*
X13614D2*
X15184D1*
X15594D2*
X17504D1*
X10471Y14035D2*
X13396D1*
X13645D2*
X15268D1*
X15501D2*
X17575D1*
X10471Y14005D2*
X13340D1*
X13677D2*
X14555D1*
X15043D2*
X15364D1*
X15399D2*
X17649D1*
X9724Y13975D2*
X9784D1*
X10467D2*
X13276D1*
X13709D2*
X14409D1*
X15114D2*
X17725D1*
X9704Y13945D2*
X9804D1*
X10460D2*
X11700D1*
X11790D2*
X13198D1*
X13734D2*
X14295D1*
X15167D2*
X16367D1*
X16456D2*
X17804D1*
X9683Y13915D2*
X9825D1*
X10452D2*
X11704D1*
X11824D2*
X13094D1*
X13753D2*
X14215D1*
X15203D2*
X16193D1*
X16367D2*
X17295D1*
X17472D2*
X17886D1*
X9659Y13885D2*
X9849D1*
X10447D2*
X11712D1*
X11861D2*
X12950D1*
X13713D2*
X14153D1*
X15230D2*
X16030D1*
X16321D2*
X17269D1*
X17586D2*
X17976D1*
X9633Y13855D2*
X9875D1*
X10443D2*
X11725D1*
X11897D2*
X12757D1*
X13669D2*
X14172D1*
X15181D2*
X15888D1*
X16269D2*
X17247D1*
X17691D2*
X18084D1*
X18341D2*
X18371D1*
X9609Y13825D2*
X9900D1*
X10173D2*
X10263D1*
X10438D2*
X11742D1*
X11928D2*
X12537D1*
X13623D2*
X14193D1*
X15134D2*
X15778D1*
X16214D2*
X17224D1*
X17790D2*
X18209D1*
X18254D2*
X18367D1*
X9586Y13796D2*
X9923D1*
X10122D2*
X10264D1*
X10430D2*
X11765D1*
X11954D2*
X12592D1*
X13577D2*
X13829D1*
X13914D2*
X14217D1*
X15088D2*
X15705D1*
X16156D2*
X17200D1*
X17894D2*
X18352D1*
X9566Y13766D2*
X9950D1*
X10067D2*
X10268D1*
X10423D2*
X11790D1*
X11978D2*
X12644D1*
X13532D2*
X13781D1*
X13948D2*
X14244D1*
X15043D2*
X15649D1*
X16097D2*
X17172D1*
X18009D2*
X18319D1*
X9545Y13736D2*
X9984D1*
X10003D2*
X10277D1*
X10417D2*
X11816D1*
X12003D2*
X12696D1*
X13487D2*
X13737D1*
X13985D2*
X14273D1*
X14998D2*
X15692D1*
X16037D2*
X17144D1*
X18132D2*
X18282D1*
X9525Y13706D2*
X10294D1*
X10416D2*
X11842D1*
X12029D2*
X12751D1*
X13441D2*
X13695D1*
X14023D2*
X14304D1*
X14953D2*
X15414D1*
X15469D2*
X15732D1*
X15976D2*
X17114D1*
X9505Y13676D2*
X10317D1*
X10418D2*
X11871D1*
X12054D2*
X12807D1*
X13393D2*
X13654D1*
X14058D2*
X14338D1*
X14908D2*
X15333D1*
X15499D2*
X15771D1*
X15912D2*
X17085D1*
X9485Y13646D2*
X10342D1*
X10425D2*
X11903D1*
X12076D2*
X12862D1*
X13343D2*
X13614D1*
X14091D2*
X14380D1*
X14863D2*
X15255D1*
X15529D2*
X15813D1*
X15842D2*
X17056D1*
X9466Y13616D2*
X10362D1*
X10432D2*
X11664D1*
X11724D2*
X11936D1*
X12098D2*
X12920D1*
X13288D2*
X13574D1*
X14122D2*
X14430D1*
X14818D2*
X15178D1*
X15559D2*
X17030D1*
X9450Y13586D2*
X10373D1*
X10437D2*
X11656D1*
X11747D2*
X11967D1*
X12122D2*
X12302D1*
X12356D2*
X12995D1*
X13214D2*
X13536D1*
X14152D2*
X14488D1*
X14772D2*
X15104D1*
X15589D2*
X17007D1*
X9437Y13556D2*
X10379D1*
X10440D2*
X11644D1*
X11769D2*
X11999D1*
X12145D2*
X12311D1*
X12412D2*
X13100D1*
X13110D2*
X13504D1*
X14182D2*
X14555D1*
X14722D2*
X15033D1*
X15619D2*
X16985D1*
X9426Y13526D2*
X10381D1*
X10441D2*
X11631D1*
X11792D2*
X12033D1*
X12166D2*
X12323D1*
X12465D2*
X13479D1*
X14211D2*
X14634D1*
X14664D2*
X14966D1*
X15649D2*
X16960D1*
X9414Y13496D2*
X10382D1*
X10442D2*
X11615D1*
X11816D2*
X12070D1*
X12187D2*
X12340D1*
X12517D2*
X13455D1*
X14237D2*
X14903D1*
X15583D2*
X16932D1*
X9401Y13466D2*
X10382D1*
X10442D2*
X11597D1*
X11837D2*
X12108D1*
X12208D2*
X12358D1*
X12572D2*
X13430D1*
X14260D2*
X14841D1*
X15511D2*
X16899D1*
X9388Y13436D2*
X10382D1*
X10442D2*
X11573D1*
X11860D2*
X12144D1*
X12226D2*
X12377D1*
X12629D2*
X13403D1*
X14282D2*
X14930D1*
X15432D2*
X16863D1*
X9376Y13407D2*
X10382D1*
X10442D2*
X11547D1*
X11888D2*
X12181D1*
X12243D2*
X12397D1*
X12687D2*
X13375D1*
X14307D2*
X16824D1*
X9366Y13377D2*
X10382D1*
X10442D2*
X11518D1*
X11923D2*
X12223D1*
X12256D2*
X12419D1*
X12746D2*
X13447D1*
X14334D2*
X16785D1*
X9355Y13347D2*
X10382D1*
X10444D2*
X11489D1*
X11961D2*
X12443D1*
X12627D2*
X13526D1*
X14362D2*
X16744D1*
X9346Y13317D2*
X10381D1*
X10447D2*
X11459D1*
X12003D2*
X12473D1*
X12485D2*
X13616D1*
X14286D2*
X16702D1*
X9339Y13287D2*
X10376D1*
X10465D2*
X11430D1*
X12059D2*
X13717D1*
X14206D2*
X16658D1*
X9332Y13257D2*
X10366D1*
X10492D2*
X11489D1*
X12138D2*
X16612D1*
X9324Y13227D2*
X10340D1*
X10524D2*
X11538D1*
X12232D2*
X12866D1*
X13102D2*
X14360D1*
X14458D2*
X14571D1*
X14632D2*
X16564D1*
X9316Y13197D2*
X10306D1*
X10552D2*
X11579D1*
X12315D2*
X12537D1*
X13225D2*
X14260D1*
X14470D2*
X14601D1*
X14666D2*
X16512D1*
X9309Y13167D2*
X10267D1*
X10572D2*
X11545D1*
X12373D2*
X12552D1*
X13372D2*
X14135D1*
X14490D2*
X14631D1*
X14705D2*
X16460D1*
X9302Y13137D2*
X10225D1*
X10585D2*
X11517D1*
X12413D2*
X12569D1*
X13557D2*
X13975D1*
X14514D2*
X14660D1*
X14747D2*
X16412D1*
X16995D2*
D3*
X9294Y13107D2*
X10186D1*
X10596D2*
X11497D1*
X12442D2*
X12586D1*
X13764D2*
X13793D1*
X14538D2*
X14686D1*
X14794D2*
X15948D1*
X16038D2*
X16367D1*
X16965D2*
X16995D1*
X9286Y13077D2*
X10152D1*
X10626D2*
X11404D1*
X11490D2*
X11479D1*
X12464D2*
X12603D1*
X14560D2*
X14709D1*
X14847D2*
X16414D1*
X16933D2*
X16994D1*
X9279Y13048D2*
X10122D1*
X10706D2*
X10741D1*
X10836D2*
X11441D1*
X12482D2*
X12619D1*
X14582D2*
X14731D1*
X14906D2*
X16473D1*
X16890D2*
X16989D1*
X9273Y13018D2*
X10088D1*
X10323D2*
X10382D1*
X10760D2*
X11474D1*
X12500D2*
X12634D1*
X14606D2*
X14756D1*
X14974D2*
X16126D1*
X16223D2*
X16561D1*
X16816D2*
X16977D1*
X9264Y12988D2*
X10052D1*
X10194D2*
X10399D1*
X10669D2*
X11502D1*
X12518D2*
X12650D1*
X14632D2*
X14783D1*
X15057D2*
X16002D1*
X16266D2*
X16690D1*
X16695D2*
X16957D1*
X9256Y12958D2*
X10021D1*
X10065D2*
X10417D1*
X10576D2*
X11528D1*
X12538D2*
X12668D1*
X14657D2*
X14810D1*
X15155D2*
X15872D1*
X16318D2*
X16929D1*
X9249Y12928D2*
X10442D1*
X10481D2*
X11556D1*
X12557D2*
X12687D1*
X14679D2*
X14836D1*
X15260D2*
X15738D1*
X16382D2*
X16892D1*
X9243Y12898D2*
X11596D1*
X12577D2*
X12705D1*
X14700D2*
X14861D1*
X16460D2*
X16843D1*
X9234Y12868D2*
X11655D1*
X12597D2*
X12722D1*
X13674D2*
X14541D1*
X14721D2*
X14895D1*
X16546D2*
X16786D1*
X9226Y12838D2*
X11732D1*
X12615D2*
X12738D1*
X13521D2*
X14948D1*
X9219Y12808D2*
X11809D1*
X12633D2*
X12754D1*
X13379D2*
X15026D1*
X9213Y12778D2*
X11870D1*
X12649D2*
X12770D1*
X13252D2*
X15120D1*
X9204Y12748D2*
X11911D1*
X12668D2*
X12791D1*
X13134D2*
X13986D1*
X14550D2*
X15216D1*
X9196Y12718D2*
X11942D1*
X12687D2*
X12824D1*
X13019D2*
X13808D1*
X14708D2*
X15308D1*
X9189Y12688D2*
X11971D1*
X12706D2*
X12870D1*
X12900D2*
X13654D1*
X14825D2*
X15393D1*
X9183Y12659D2*
X12000D1*
X12726D2*
X13522D1*
X14908D2*
X15471D1*
X9174Y12629D2*
X12030D1*
X12746D2*
X13402D1*
X14967D2*
X15540D1*
X9166Y12599D2*
X12064D1*
X12178D2*
X12238D1*
X12652D2*
X13289D1*
X15015D2*
X15176D1*
X15260D2*
X15600D1*
X9159Y12569D2*
X12104D1*
X12134D2*
X12303D1*
X12543D2*
X13185D1*
X15058D2*
X15218D1*
X15319D2*
X15655D1*
X9152Y12539D2*
X12385D1*
X12412D2*
X13097D1*
X15100D2*
X15269D1*
X15379D2*
X15707D1*
X16456D2*
X16516D1*
X9138Y12509D2*
X13031D1*
X15140D2*
X15332D1*
X15437D2*
X15758D1*
X16383D2*
X16499D1*
X9119Y12479D2*
X12978D1*
X15181D2*
X15411D1*
X15487D2*
X15814D1*
X16289D2*
X16473D1*
X9097Y12449D2*
X12980D1*
X15224D2*
X15509D1*
X15527D2*
X15887D1*
X16159D2*
X16435D1*
X9077Y12419D2*
X12753D1*
X12902D2*
X12996D1*
X15268D2*
X15984D1*
X15989D2*
X16387D1*
X9055Y12389D2*
X10307D1*
X10378D2*
X10527D1*
X10615D2*
X12682D1*
X12913D2*
X13015D1*
X15316D2*
X16331D1*
X9031Y12359D2*
X10215D1*
X10369D2*
X10519D1*
X10633D2*
X12623D1*
X12929D2*
X13035D1*
X15378D2*
X16268D1*
X9005Y12329D2*
X10102D1*
X10358D2*
X10507D1*
X10632D2*
X12594D1*
X12947D2*
X13056D1*
X15469D2*
X16203D1*
X8980Y12299D2*
X9966D1*
X10344D2*
X10494D1*
X10629D2*
X12588D1*
X12967D2*
X13080D1*
X15591D2*
X16147D1*
X8958Y12270D2*
X9060D1*
X9156D2*
X9820D1*
X10330D2*
X10479D1*
X10625D2*
X12596D1*
X12991D2*
X13107D1*
X15721D2*
X16097D1*
X8936Y12240D2*
X9048D1*
X9156D2*
X9679D1*
X10315D2*
X10466D1*
X10623D2*
X12607D1*
X13018D2*
X13136D1*
X15831D2*
X16117D1*
X8913Y12210D2*
X9028D1*
X9156D2*
X9545D1*
X10300D2*
X10454D1*
X10622D2*
X12621D1*
X13046D2*
X13167D1*
X15912D2*
X16138D1*
X8889Y12180D2*
X9004D1*
X10285D2*
X10443D1*
X10622D2*
X12639D1*
X13076D2*
X13200D1*
X15978D2*
X16162D1*
X8868Y12150D2*
X8980D1*
X10270D2*
X10433D1*
X10622D2*
X12663D1*
X13105D2*
X13238D1*
X15828D2*
X16576D1*
X8847Y12120D2*
X8958D1*
X10255D2*
X10423D1*
X10622D2*
X12690D1*
X13135D2*
X13280D1*
X15665D2*
X16715D1*
X8827Y12090D2*
X8937D1*
X10240D2*
X10418D1*
X10622D2*
X12725D1*
X13165D2*
X13324D1*
X15504D2*
X16827D1*
X8807Y12060D2*
X8916D1*
X10226D2*
X10415D1*
X10622D2*
X12769D1*
X13195D2*
X13374D1*
X15352D2*
X16914D1*
X8787Y12030D2*
X8897D1*
X10214D2*
X10413D1*
X10622D2*
X11968D1*
X12088D2*
X12829D1*
X13226D2*
X13432D1*
X15210D2*
X16987D1*
X8766Y12000D2*
X8877D1*
X10204D2*
X10413D1*
X10622D2*
X11911D1*
X12119D2*
X12916D1*
X13261D2*
X13501D1*
X15075D2*
X15695D1*
X16157D2*
X17050D1*
X8747Y11970D2*
X8856D1*
X10193D2*
X10414D1*
X10622D2*
X11861D1*
X12154D2*
X13059D1*
X13301D2*
X13582D1*
X14948D2*
X15548D1*
X16008D2*
X16246D1*
X16389D2*
X17107D1*
X8727Y11940D2*
X8837D1*
X10184D2*
X10419D1*
X10622D2*
X11824D1*
X12195D2*
X13272D1*
X13345D2*
X13672D1*
X14826D2*
X15417D1*
X16029D2*
X16241D1*
X16522D2*
X17156D1*
X8707Y11910D2*
X8817D1*
X10179D2*
X10431D1*
X10622D2*
X11800D1*
X12241D2*
X13768D1*
X14701D2*
X15298D1*
X16060D2*
X16231D1*
X16639D2*
X17196D1*
X8688Y11881D2*
X8796D1*
X10180D2*
X10452D1*
X10622D2*
X11783D1*
X12289D2*
X13871D1*
X14561D2*
X15189D1*
X16097D2*
X16217D1*
X16743D2*
X17231D1*
X8671Y11851D2*
X8777D1*
X10187D2*
X10483D1*
X10621D2*
X11770D1*
X12339D2*
X13980D1*
X14405D2*
X15087D1*
X16836D2*
X17263D1*
X8654Y11821D2*
X8757D1*
X10198D2*
X10528D1*
X10616D2*
X11759D1*
X12391D2*
X14989D1*
X16920D2*
X17294D1*
X8636Y11791D2*
X8737D1*
X10213D2*
X10586D1*
X10606D2*
X11906D1*
X12444D2*
X14889D1*
X16998D2*
X17324D1*
X8617Y11761D2*
X8718D1*
X10233D2*
X12032D1*
X12494D2*
X14790D1*
X17071D2*
X17354D1*
X8602Y11731D2*
X8701D1*
X10265D2*
X12138D1*
X12540D2*
X14691D1*
X17138D2*
X17384D1*
X8589Y11701D2*
X8685D1*
X10315D2*
X12231D1*
X12580D2*
X14733D1*
X17201D2*
X17414D1*
X8577Y11671D2*
X8670D1*
X10384D2*
X12309D1*
X12616D2*
X14763D1*
X17258D2*
X17443D1*
X8564Y11641D2*
X8655D1*
X10463D2*
X12367D1*
X12656D2*
X14774D1*
X17310D2*
X17469D1*
X8550Y11611D2*
X8640D1*
X10533D2*
X12410D1*
X12706D2*
X14782D1*
X17358D2*
X17492D1*
X8539Y11581D2*
X8625D1*
X10587D2*
X12429D1*
X12758D2*
X14792D1*
X17400D2*
X17514D1*
X8528Y11551D2*
X8611D1*
X10083D2*
X10323D1*
X10608D2*
X11645D1*
X11756D2*
X12443D1*
X12807D2*
X14799D1*
X17438D2*
X17537D1*
X8516Y11522D2*
X8599D1*
X10028D2*
X10364D1*
X10616D2*
X11626D1*
X11836D2*
X12456D1*
X12851D2*
X14803D1*
X17470D2*
X17559D1*
X8503Y11492D2*
X8588D1*
X9976D2*
X10395D1*
X10619D2*
X11612D1*
X11901D2*
X12467D1*
X12890D2*
X14796D1*
X17498D2*
X17576D1*
X8490Y11462D2*
X8576D1*
X9925D2*
X10404D1*
X10621D2*
X11600D1*
X11950D2*
X12477D1*
X12928D2*
X14784D1*
X17521D2*
X17585D1*
X8479Y11432D2*
X8563D1*
X9875D2*
X10181D1*
X10353D2*
X10409D1*
X10621D2*
X11590D1*
X11986D2*
X12487D1*
X12967D2*
X14769D1*
X17542D2*
X17590D1*
X8468Y11402D2*
X8549D1*
X9829D2*
X10083D1*
X10323D2*
X10410D1*
X10620D2*
X11580D1*
X12013D2*
X12496D1*
X13005D2*
X14752D1*
X17564D2*
X17593D1*
X8458Y11372D2*
X8535D1*
X9786D2*
X10004D1*
X10293D2*
X10406D1*
X10615D2*
X11568D1*
X12037D2*
X12503D1*
X13042D2*
X14736D1*
X8449Y11342D2*
X8521D1*
X9745D2*
X9940D1*
X10262D2*
X10394D1*
X10603D2*
X11555D1*
X12063D2*
X12510D1*
X13078D2*
X14756D1*
X14811D2*
D3*
X8443Y11312D2*
X8510D1*
X9706D2*
X9887D1*
X10228D2*
X10374D1*
X10584D2*
X11542D1*
X12091D2*
X12518D1*
X13117D2*
X14811D1*
X8439Y11282D2*
X8503D1*
X9671D2*
X9840D1*
X10189D2*
X10349D1*
X10560D2*
X11531D1*
X12125D2*
X12526D1*
X13155D2*
X14805D1*
X8433Y11252D2*
X8499D1*
X9642D2*
X9797D1*
X10147D2*
X10321D1*
X10537D2*
X11520D1*
X12165D2*
X12532D1*
X13191D2*
X14795D1*
X8426Y11222D2*
X8493D1*
X9618D2*
X9760D1*
X10100D2*
X10291D1*
X10519D2*
X11510D1*
X12211D2*
X12535D1*
X13228D2*
X14769D1*
X8418Y11192D2*
X8486D1*
X9595D2*
X9727D1*
X10047D2*
X10256D1*
X10505D2*
X11500D1*
X12259D2*
X12536D1*
X13266D2*
X14737D1*
X8413Y11162D2*
X8479D1*
X9571D2*
X9696D1*
X9991D2*
X10214D1*
X10492D2*
X11493D1*
X12306D2*
X12536D1*
X13305D2*
X14706D1*
X8410Y11133D2*
X8477D1*
X9548D2*
X9670D1*
X9932D2*
X10165D1*
X10477D2*
X11486D1*
X12351D2*
X12533D1*
X13345D2*
X14680D1*
X8410Y11103D2*
X8482D1*
X9527D2*
X9647D1*
X9872D2*
X10111D1*
X10460D2*
X11474D1*
X12208D2*
X12327D1*
X12387D2*
X12525D1*
X13385D2*
X14671D1*
X8413Y11073D2*
X8488D1*
X9509D2*
X9624D1*
X9805D2*
X10057D1*
X10441D2*
X11460D1*
X12095D2*
X12417D1*
X12477D2*
X12490D1*
X13425D2*
X14665D1*
X8420Y11043D2*
X8494D1*
X9491D2*
X9600D1*
X9724D2*
X10005D1*
X10423D2*
X11490D1*
X11998D2*
X12446D1*
X13464D2*
X14447D1*
X14541D2*
X14661D1*
X8428Y11013D2*
X8500D1*
X9472D2*
X9575D1*
X9625D2*
X9952D1*
X10406D2*
X11519D1*
X11916D2*
X12472D1*
X13505D2*
X14470D1*
X8434Y10983D2*
X8519D1*
X9413D2*
X9894D1*
X10389D2*
X11549D1*
X11848D2*
X12495D1*
X13549D2*
X14492D1*
X8442Y10953D2*
X8587D1*
X9297D2*
X9827D1*
X10371D2*
X11581D1*
X11791D2*
X12516D1*
X13597D2*
X13941D1*
X14045D2*
X14515D1*
X8455Y10923D2*
X8707D1*
X9100D2*
X9752D1*
X10352D2*
X11615D1*
X11739D2*
X12537D1*
X13650D2*
X13935D1*
X14130D2*
X14537D1*
X8477Y10893D2*
X8887D1*
X8830D2*
X9672D1*
X10333D2*
X11655D1*
X11689D2*
X12166D1*
X12344D2*
X12555D1*
X13706D2*
X13912D1*
X14222D2*
X14554D1*
X8506Y10863D2*
X9596D1*
X10317D2*
X12054D1*
X12404D2*
X12571D1*
X13764D2*
X13883D1*
X14303D2*
X14563D1*
X8575Y10833D2*
X9537D1*
X10300D2*
X11969D1*
X12449D2*
X12583D1*
X14365D2*
X14568D1*
X8675Y10803D2*
X9233D1*
X9395D2*
X9493D1*
X10281D2*
X11907D1*
X12463D2*
X12591D1*
X14410D2*
X14569D1*
X8797Y10773D2*
X8976D1*
X9395D2*
X9474D1*
X10262D2*
X11860D1*
X12470D2*
X12594D1*
X14447D2*
X14565D1*
X9395Y10744D2*
X9464D1*
X10244D2*
X11819D1*
X12470D2*
X12596D1*
X14480D2*
X14555D1*
X9395Y10714D2*
X9460D1*
X10227D2*
X11907D1*
X11968D2*
X12118D1*
X12463D2*
X12596D1*
X14512D2*
X14541D1*
X9395Y10684D2*
X9461D1*
X10211D2*
X12135D1*
X12451D2*
X12595D1*
X9396Y10654D2*
X9469D1*
X10196D2*
X12161D1*
X12433D2*
X12590D1*
X9400Y10624D2*
X9481D1*
X10181D2*
X12197D1*
X12238D2*
D3*
X12408D2*
X12579D1*
X9407Y10594D2*
X9501D1*
X10165D2*
X12267D1*
X12373D2*
X12563D1*
X9416Y10564D2*
X9533D1*
X10149D2*
X12296D1*
X12324D2*
X12545D1*
X9426Y10534D2*
X9584D1*
X10131D2*
X12525D1*
X9443Y10504D2*
X9650D1*
X10108D2*
X12501D1*
X9469Y10474D2*
X12473D1*
X9515Y10444D2*
X12441D1*
X9594Y10414D2*
X12405D1*
X9712Y10385D2*
X12367D1*
X9846Y10355D2*
X12332D1*
X9955Y10325D2*
X12297D1*
X10035Y10295D2*
X12406D1*
X10065Y10265D2*
X12512D1*
X10076Y10235D2*
X12617D1*
X10077Y10205D2*
X12717D1*
X10066Y10175D2*
X12810D1*
X10040Y10145D2*
X12447D1*
X12511D2*
X12895D1*
X10007Y10115D2*
X12447D1*
X12607D2*
X12975D1*
X9969Y10085D2*
X12447D1*
X12701D2*
X13050D1*
X9932Y10055D2*
X12447D1*
X12788D2*
X13122D1*
X9900Y10025D2*
X12446D1*
X12869D2*
X13189D1*
X9885Y9996D2*
X12441D1*
X12946D2*
X13252D1*
X9882Y9966D2*
X12431D1*
X13022D2*
X13315D1*
X9893Y9936D2*
X12417D1*
X13096D2*
X13378D1*
X9912Y9906D2*
X12442D1*
X13166D2*
X13441D1*
X9934Y9876D2*
X12464D1*
X13230D2*
X13502D1*
X9919Y9846D2*
X12482D1*
X13289D2*
X13558D1*
X9906Y9816D2*
X12498D1*
X13347D2*
X13612D1*
X9894Y9786D2*
X12513D1*
X13406D2*
X13663D1*
X9880Y9756D2*
X12525D1*
X13465D2*
X13714D1*
X9867Y9726D2*
X12536D1*
X13524D2*
X13768D1*
X9855Y9696D2*
X12546D1*
X13583D2*
X13824D1*
X9845Y9666D2*
X12034D1*
X12093D2*
X12556D1*
X13639D2*
X13879D1*
X9834Y9636D2*
X12045D1*
X12164D2*
X12562D1*
X13691D2*
X13931D1*
X9826Y9607D2*
X12061D1*
X12238D2*
X12567D1*
X13743D2*
X13982D1*
X9821Y9577D2*
X12078D1*
X13793D2*
X14033D1*
X9865Y9547D2*
X12094D1*
X13843D2*
X14081D1*
X9926Y9517D2*
X12111D1*
X13894D2*
X14128D1*
X9984Y9487D2*
X12129D1*
X13947D2*
X14174D1*
X10025Y9457D2*
X12148D1*
X14000D2*
X14220D1*
X10052Y9427D2*
X12167D1*
X14050D2*
X14265D1*
X10073Y9397D2*
X12184D1*
X14098D2*
X14308D1*
X10090Y9367D2*
X12200D1*
X14144D2*
X14351D1*
X10105Y9337D2*
X12215D1*
X14189D2*
X14391D1*
X10120Y9307D2*
X12230D1*
X14231D2*
X14432D1*
X10135Y9277D2*
X12245D1*
X14271D2*
X14472D1*
X10149Y9248D2*
X12260D1*
X14312D2*
X14511D1*
X10161Y9218D2*
X12275D1*
X14352D2*
X14553D1*
X10168Y9188D2*
X12290D1*
X14392D2*
X14595D1*
X10175Y9158D2*
X11157D1*
X11215D2*
X12305D1*
X14432D2*
X14638D1*
X10184Y9128D2*
X11125D1*
X11237D2*
X12320D1*
X14472D2*
X14679D1*
X10194Y9098D2*
X11096D1*
X11255D2*
X12335D1*
X14511D2*
X14716D1*
X10203Y9068D2*
X11084D1*
X11273D2*
X12350D1*
X14552D2*
X14753D1*
X10213Y9038D2*
X11088D1*
X11291D2*
X12364D1*
X14592D2*
X14792D1*
X10223Y9008D2*
X11097D1*
X11311D2*
X12376D1*
X14631D2*
X14830D1*
X10233Y8978D2*
X11109D1*
X11330D2*
X12386D1*
X14671D2*
X14867D1*
X10243Y8948D2*
X11119D1*
X11352D2*
X12398D1*
X14711D2*
X14903D1*
X10251Y8918D2*
X11125D1*
X11380D2*
X12411D1*
X14751D2*
X14942D1*
X10255Y8888D2*
X11128D1*
X11414D2*
X12425D1*
X14791D2*
X14981D1*
X10249Y8859D2*
X11130D1*
X11452D2*
X12440D1*
X14831D2*
X15020D1*
X10242Y8829D2*
X11130D1*
X11490D2*
D3*
X11585D2*
X12455D1*
X14870D2*
X15060D1*
X10237Y8799D2*
X11041D1*
X11597D2*
X12469D1*
X14911D2*
X15099D1*
X10235Y8769D2*
X11041D1*
X11616D2*
X12484D1*
X14951D2*
X15136D1*
X10234Y8739D2*
X11041D1*
X11638D2*
X12499D1*
X14990D2*
X15173D1*
X10233Y8709D2*
X11041D1*
X11658D2*
X12513D1*
X15030D2*
X15211D1*
X10233Y8679D2*
X11041D1*
X11680D2*
X12525D1*
X15070D2*
X15250D1*
X10233Y8649D2*
X11041D1*
X11703D2*
X12536D1*
X15110D2*
X15289D1*
X10233Y8619D2*
X11041D1*
X11726D2*
X12548D1*
X15150D2*
X15330D1*
X10233Y8589D2*
X11041D1*
X11747D2*
X12561D1*
X15190D2*
X15369D1*
X10233Y8559D2*
X11041D1*
X11768D2*
X12575D1*
X15229D2*
X15409D1*
X10233Y8529D2*
X11041D1*
X11789D2*
X12589D1*
X15270D2*
X15450D1*
X10233Y8499D2*
X11041D1*
X11809D2*
X12603D1*
X15310D2*
X15493D1*
X10234Y8470D2*
X11041D1*
X11828D2*
X12615D1*
X15349D2*
X15537D1*
X10238Y8440D2*
X11041D1*
X11849D2*
X12626D1*
X15390D2*
X15581D1*
X10245Y8410D2*
X11041D1*
X11869D2*
X12637D1*
X15433D2*
X15626D1*
X10253Y8380D2*
X11041D1*
X11889D2*
X12650D1*
X15477D2*
X15672D1*
X10258Y8350D2*
X11041D1*
X11914D2*
X12663D1*
X15522D2*
X15720D1*
X10261Y8320D2*
X11041D1*
X11939D2*
X12675D1*
X15566D2*
X15769D1*
X10263Y8290D2*
X11041D1*
X11964D2*
X12686D1*
X15611D2*
X15818D1*
X10268Y8260D2*
X11041D1*
X11986D2*
X12697D1*
X15656D2*
X15869D1*
X10276Y8230D2*
X11041D1*
X12008D2*
X12710D1*
X15702D2*
X15923D1*
X10288Y8200D2*
X11041D1*
X12033D2*
X12724D1*
X15751D2*
X15980D1*
X10301Y8170D2*
X11041D1*
X12059D2*
X12740D1*
X15803D2*
X16038D1*
X10317Y8140D2*
X11040D1*
X12084D2*
X12758D1*
X15856D2*
X16098D1*
X10335Y8110D2*
X11036D1*
X12106D2*
X12777D1*
X15907D2*
X16159D1*
X10358Y8081D2*
X11029D1*
X12128D2*
X12795D1*
X15958D2*
X16222D1*
X10385Y8051D2*
X11021D1*
X12153D2*
X12812D1*
X16013D2*
X16290D1*
X10413Y8021D2*
X11017D1*
X12179D2*
X12829D1*
X16071D2*
X16363D1*
X10443Y7991D2*
X11018D1*
X12203D2*
X12848D1*
X16133D2*
X16440D1*
X10471Y7961D2*
X11024D1*
X12226D2*
X12872D1*
X16201D2*
X16524D1*
X10496Y7931D2*
X11032D1*
X12248D2*
X12898D1*
X16273D2*
X16615D1*
X10514Y7901D2*
X11041D1*
X12272D2*
X12926D1*
X16350D2*
X16715D1*
X10524Y7871D2*
X11051D1*
X12299D2*
X12951D1*
X16433D2*
X16825D1*
X10529Y7841D2*
X11060D1*
X12327D2*
X12974D1*
X16520D2*
X16944D1*
X10531Y7811D2*
X11064D1*
X12353D2*
X12996D1*
X16612D2*
X17070D1*
X10532Y7781D2*
X11063D1*
X12375D2*
X13020D1*
X16711D2*
X17202D1*
X10533Y7751D2*
X11058D1*
X12397D2*
X13047D1*
X16817D2*
X17345D1*
X10537Y7722D2*
X11050D1*
X12422D2*
X13075D1*
X16932D2*
X17512D1*
X10545Y7692D2*
X11045D1*
X12449D2*
X13101D1*
X17058D2*
X17704D1*
X10557Y7662D2*
X11043D1*
X12478D2*
X13123D1*
X17197D2*
X17895D1*
X10571Y7632D2*
X11042D1*
X12507D2*
X13144D1*
X17361D2*
X18055D1*
X10586Y7602D2*
X11041D1*
X12536D2*
X13165D1*
X17557D2*
X18192D1*
X10603Y7572D2*
X11041D1*
X12562D2*
X13185D1*
X17773D2*
X18132D1*
X10623Y7542D2*
X11040D1*
X12583D2*
X13205D1*
X10642Y7512D2*
X11036D1*
X12602D2*
X13225D1*
X10663Y7482D2*
X11029D1*
X12618D2*
X13244D1*
X10688Y7452D2*
X11021D1*
X12634D2*
X13261D1*
X10720Y7422D2*
X11014D1*
X12650D2*
X13277D1*
X10760Y7392D2*
X11008D1*
X12668D2*
X13292D1*
X10804Y7362D2*
X10999D1*
X12687D2*
X13307D1*
X10848Y7333D2*
X10990D1*
X12705D2*
X13322D1*
X10891Y7303D2*
X10981D1*
X12722D2*
X13337D1*
X12738Y7273D2*
X13352D1*
X12753Y7243D2*
X13368D1*
X12769Y7213D2*
X13386D1*
X12784Y7183D2*
X13404D1*
X12800Y7153D2*
X13420D1*
X12817Y7123D2*
X13432D1*
X12837Y7093D2*
X13445D1*
X12855Y7063D2*
X13458D1*
X12872Y7033D2*
X13472D1*
X12889Y7003D2*
X13487D1*
X12907Y6973D2*
X13502D1*
X12927Y6944D2*
X13517D1*
X12946Y6914D2*
X13532D1*
X12967Y6884D2*
X13546D1*
X12990Y6854D2*
X13560D1*
X13013Y6824D2*
X13573D1*
X13034Y6794D2*
X13583D1*
X13055Y6764D2*
X13595D1*
X13075Y6734D2*
X13608D1*
X13095Y6704D2*
X13621D1*
X13115Y6674D2*
X13633D1*
X13135Y6644D2*
X13643D1*
X13155Y6614D2*
X13654D1*
X13175Y6585D2*
X13664D1*
X13195Y6555D2*
X13674D1*
X13215Y6525D2*
X13684D1*
X13235Y6495D2*
X13694D1*
X13255Y6465D2*
X13704D1*
X13275Y6435D2*
X13715D1*
X13295Y6405D2*
X13728D1*
X13315Y6375D2*
X13741D1*
X13334Y6345D2*
X13752D1*
X13351Y6315D2*
X13763D1*
X13367Y6285D2*
X13773D1*
X13386Y6255D2*
X13784D1*
X13405Y6225D2*
X13793D1*
X13424Y6196D2*
X13805D1*
X13440Y6166D2*
X13817D1*
X13456Y6136D2*
X13830D1*
X13472Y6106D2*
X13843D1*
X13487Y6076D2*
X13857D1*
X13502Y6046D2*
X13878D1*
X13517Y6016D2*
X13925D1*
X13532Y5986D2*
X13975D1*
X13547Y5956D2*
X14019D1*
X13562Y5926D2*
X14057D1*
X13576Y5896D2*
X14090D1*
X13590Y5866D2*
X14121D1*
X13601Y5836D2*
X14147D1*
X13608Y5807D2*
X14169D1*
X13611Y5777D2*
X14186D1*
X13612Y5747D2*
X14199D1*
X13609Y5717D2*
X14207D1*
X13602Y5687D2*
X14215D1*
X13594Y5657D2*
X14223D1*
X13589Y5627D2*
X14232D1*
X13586Y5597D2*
X14237D1*
X13586Y5567D2*
X14240D1*
X13589Y5537D2*
X14242D1*
X13596Y5507D2*
X14243D1*
X13604Y5477D2*
X14247D1*
X13609Y5448D2*
X14254D1*
X13613Y5418D2*
X14262D1*
X13618Y5388D2*
X14267D1*
X13626Y5358D2*
X14270D1*
X13635Y5328D2*
X14271D1*
X13644Y5298D2*
X14272D1*
X13654Y5268D2*
X14273D1*
X13663Y5238D2*
X14278D1*
X13669Y5208D2*
X14288D1*
X13674Y5178D2*
X14302D1*
X16038Y16159D2*
X15920Y16129D1*
X15814Y16099D1*
X15721Y16070D1*
X15640Y16040D1*
X15568Y16010D1*
X15504Y15980D1*
X15446Y15950D1*
X15392Y15920D1*
X15341Y15890D1*
X15290Y15860D1*
X15240Y15830D1*
X15190Y15800D1*
X15141Y15770D1*
X15095Y15740D1*
X15053Y15710D1*
X15011Y15681D1*
X14972Y15651D1*
X14936Y15621D1*
X14903Y15591D1*
X14872Y15561D1*
X14841Y15531D1*
X14810Y15501D1*
X14775Y15471D1*
X14735Y15441D1*
X14691Y15411D1*
X16427Y16159D2*
X16523Y16129D1*
X16605Y16099D1*
X16670Y16070D1*
X16720Y16040D1*
X16758Y16010D1*
X16789Y15980D1*
X16816Y15950D1*
X16841Y15920D1*
X16862Y15890D1*
X16881Y15860D1*
X16897Y15830D1*
X16911Y15800D1*
X16922Y15770D1*
X16929Y15740D1*
X16933Y15710D1*
X16934Y15681D1*
X16935Y15651D1*
X16307Y16070D2*
X16170Y16040D1*
X16049Y16010D1*
X15948Y15980D1*
X15861Y15950D1*
X15784Y15920D1*
X15716Y15890D1*
X15652Y15860D1*
X15591Y15830D1*
X15535Y15800D1*
X15485Y15770D1*
X15439Y15740D1*
X15469Y15710D1*
X16187Y16070D2*
X16343Y16040D1*
X16473Y16010D1*
X16572Y15980D1*
X16646Y15950D1*
X16702Y15920D1*
X16745Y15890D1*
X16780Y15860D1*
X16809Y15830D1*
X16832Y15800D1*
X16850Y15770D1*
X16867Y15740D1*
X16882Y15710D1*
X16894Y15681D1*
X16905Y15651D1*
X12926Y15740D2*
X12791Y15710D1*
X12673Y15681D1*
X12574Y15651D1*
X12489Y15621D1*
X12412Y15591D1*
X12341Y15561D1*
X12278Y15531D1*
X12222Y15501D1*
X12170Y15471D1*
X12118Y15441D1*
X12069Y15411D1*
X12023Y15381D1*
X11981Y15351D1*
X11944Y15322D1*
X11910Y15292D1*
X11875Y15262D1*
X11837Y15232D1*
X11799Y15202D1*
X11764Y15172D1*
X11731Y15142D1*
X11700Y15112D1*
X11669Y15082D1*
X11638Y15052D1*
X11604Y15022D1*
X11567Y14992D1*
X11530Y14962D1*
X11494Y14933D1*
X11462Y14903D1*
X11432Y14873D1*
X11405Y14843D1*
X11382Y14813D1*
X11361Y14783D1*
X11340Y14753D1*
X11318Y14723D1*
X11290Y14693D1*
X11255Y14663D1*
X11219Y14633D1*
X11183Y14603D1*
X11143Y14573D1*
X11101Y14544D1*
X13225Y15740D2*
X13304Y15710D1*
X13385Y15681D1*
X13469Y15651D1*
X13554Y15621D1*
X15529Y15740D2*
X15499Y15710D1*
X15768Y15740D2*
X15940Y15710D1*
X16103Y15681D1*
X16253Y15651D1*
X16384Y15621D1*
X16496Y15591D1*
X16593Y15561D1*
X16679Y15531D1*
X16758Y15501D1*
X16830Y15471D1*
X16894Y15441D1*
X16948Y15411D1*
X16992Y15381D1*
X17027Y15351D1*
X17043Y15322D1*
X17047Y15292D1*
X17038Y15262D1*
X17025Y15232D1*
X14123Y15621D2*
X14263Y15591D1*
X14382Y15561D1*
X14479Y15531D1*
X14558Y15501D1*
X14631Y15471D1*
X14705Y15441D1*
X14781Y15411D1*
X12806Y15591D2*
X12722Y15561D1*
X12645Y15531D1*
X12576Y15501D1*
X12515Y15471D1*
X12462Y15441D1*
X12414Y15411D1*
X12370Y15381D1*
X12329Y15351D1*
X12288Y15322D1*
X12249Y15292D1*
X12213Y15262D1*
X12180Y15232D1*
X12149Y15202D1*
X12118Y15172D1*
X12088Y15142D1*
X12058Y15112D1*
X12027Y15082D1*
X11994Y15052D1*
X11961Y15022D1*
X11931Y14992D1*
X11903Y14962D1*
X11876Y14933D1*
X11847Y14903D1*
X11818Y14873D1*
X11789Y14843D1*
X11759Y14813D1*
X11729Y14783D1*
X11699Y14753D1*
X11669Y14723D1*
X11639Y14693D1*
X11609Y14663D1*
X11579Y14633D1*
X11549Y14603D1*
X11579Y14573D1*
X13195Y15591D2*
X13153Y15561D1*
X13100Y15531D1*
X13034Y15501D1*
X12962Y15471D1*
X12889Y15441D1*
X12819Y15411D1*
X12752Y15381D1*
X12689Y15351D1*
X12628Y15322D1*
X12568Y15292D1*
X12512Y15262D1*
X12460Y15232D1*
X12412Y15202D1*
X12366Y15172D1*
X12320Y15142D1*
X12275Y15112D1*
X12230Y15082D1*
X12185Y15052D1*
X12141Y15022D1*
X12099Y14992D1*
X12059Y14962D1*
X12018Y14933D1*
X11979Y14903D1*
X11944Y14873D1*
X11911Y14843D1*
X11879Y14813D1*
X11849Y14783D1*
X11818Y14753D1*
X11784Y14723D1*
X11746Y14693D1*
X11707Y14663D1*
X11662Y14633D1*
X11609Y14603D1*
X11549Y14573D1*
X13434Y15441D2*
X13277Y15411D1*
X13144Y15381D1*
X13036Y15351D1*
X12950Y15322D1*
X12877Y15292D1*
X12815Y15262D1*
X12761Y15232D1*
X12712Y15202D1*
X12664Y15172D1*
X12616Y15142D1*
X12567Y15112D1*
X12522Y15082D1*
X12479Y15052D1*
X12438Y15022D1*
X12397Y14992D1*
X12358Y14962D1*
X12317Y14933D1*
X12279Y14903D1*
X12244Y14873D1*
X12216Y14843D1*
X12195Y14813D1*
X12178Y14783D1*
X13434Y15441D2*
X13489Y15411D1*
X13541Y15381D1*
X13588Y15351D1*
X13630Y15322D1*
X13668Y15292D1*
X13701Y15262D1*
X13733Y15232D1*
X13763Y15202D1*
X13793Y15172D1*
X13823Y15142D1*
X13853Y15112D1*
X13882Y15082D1*
X13908Y15052D1*
X13931Y15022D1*
X13952Y14992D1*
X13973Y14962D1*
X13993Y14933D1*
X14014Y14903D1*
X14037Y14873D1*
X14060Y14843D1*
X14081Y14813D1*
X14102Y14783D1*
X14123Y14753D1*
X14093Y14723D1*
X14063Y14693D1*
X14033Y14663D1*
X14003Y14633D1*
X13972Y14603D1*
X13938Y14573D1*
X13898Y14544D1*
X13852Y14514D1*
X13796Y14484D1*
X13734Y14454D1*
X13704Y15441D2*
X13732Y15411D1*
X13759Y15381D1*
X13781Y15351D1*
X13804Y15322D1*
X13829Y15292D1*
X13860Y15262D1*
X13896Y15232D1*
X13933Y15202D1*
X13969Y15172D1*
X14006Y15142D1*
X14044Y15112D1*
X14082Y15082D1*
X14119Y15052D1*
X14158Y15022D1*
X14206Y14992D1*
X14266Y14962D1*
X14332Y14933D1*
X13644Y15441D2*
X13864Y15411D1*
X14060Y15381D1*
X14221Y15351D1*
X14346Y15322D1*
X14434Y15292D1*
X14499Y15262D1*
X14530Y15232D1*
X14505Y15202D1*
X14480Y15172D1*
X14455Y15142D1*
X14433Y15112D1*
X14412Y15082D1*
X14387Y15052D1*
X14359Y15022D1*
X14325Y14992D1*
X14286Y14962D1*
X14242Y14933D1*
X16038Y15441D2*
X15914Y15411D1*
X15793Y15381D1*
X15678Y15351D1*
X15577Y15322D1*
X15488Y15292D1*
X15408Y15262D1*
X15334Y15232D1*
X15267Y15202D1*
X15208Y15172D1*
X15156Y15142D1*
X15114Y15112D1*
X15082Y15082D1*
X15070Y15052D1*
X15095Y15022D1*
X15127Y14992D1*
X15163Y14962D1*
X15201Y14933D1*
X15240Y14903D1*
X15280Y14873D1*
X15319Y14843D1*
X15360Y14813D1*
X15403Y14783D1*
X15457Y14753D1*
X15531Y14723D1*
X15619Y14693D1*
X16456Y15441D2*
X16594Y15411D1*
X16716Y15381D1*
X16815Y15351D1*
X16885Y15322D1*
X16935Y15292D1*
X16952Y15262D1*
X16965Y15232D1*
X16427Y15262D2*
X16382Y15232D1*
X16335Y15202D1*
X16291Y15172D1*
X16249Y15142D1*
X16207Y15112D1*
X16163Y15082D1*
X16119Y15052D1*
X16075Y15022D1*
X16030Y14992D1*
X15985Y14962D1*
X15940Y14933D1*
X15895Y14903D1*
X15850Y14873D1*
X15805Y14843D1*
X15757Y14813D1*
X15704Y14783D1*
X15641Y14753D1*
X15561Y14723D1*
X15469Y14693D1*
X16606Y15262D2*
X16569Y15232D1*
X16520Y15202D1*
X16467Y15172D1*
X16417Y15142D1*
X16376Y15112D1*
X16341Y15082D1*
X16308Y15052D1*
X16277Y15022D1*
X16247Y14992D1*
X16217Y14962D1*
X16187Y14933D1*
X16157Y14903D1*
X16126Y14873D1*
X16092Y14843D1*
X16055Y14813D1*
X16018Y14783D1*
X15981Y14753D1*
X15944Y14723D1*
X15899Y14693D1*
X15844Y14663D1*
X15779Y14633D1*
X15708Y14603D1*
X15828Y14573D1*
X15948Y14544D1*
X16516Y15112D2*
X16504Y15082D1*
X16496Y15052D1*
X16501Y15022D1*
X16506Y14992D1*
X16507Y14962D1*
X16502Y14933D1*
X16496Y14903D1*
X16490Y14873D1*
X16483Y14843D1*
X16474Y14813D1*
X16461Y14783D1*
X16443Y14753D1*
X16420Y14723D1*
X16393Y14693D1*
X16359Y14663D1*
X16318Y14633D1*
X16269Y14603D1*
X16214Y14573D1*
X16157Y14544D1*
X16546Y15082D2*
X16560Y15052D1*
X16570Y15022D1*
X16578Y14992D1*
X16587Y14962D1*
X16594Y14933D1*
X16596Y14903D1*
X16592Y14873D1*
X16585Y14843D1*
X16579Y14813D1*
X16572Y14783D1*
X16560Y14753D1*
X16543Y14723D1*
X16525Y14693D1*
X16505Y14663D1*
X16480Y14633D1*
X16449Y14603D1*
X16412Y14573D1*
X16370Y14544D1*
X16322Y14514D1*
X16262Y14484D1*
X16184Y14454D1*
X16087Y14424D1*
X15978Y14394D1*
X12686Y14962D2*
X12574Y14933D1*
X12471Y14903D1*
X12383Y14873D1*
X12303Y14843D1*
X12226Y14813D1*
X12148Y14783D1*
X13075Y14962D2*
X13149Y14933D1*
X13216Y14903D1*
X13275Y14873D1*
X13326Y14843D1*
X13371Y14813D1*
X13413Y14783D1*
X13453Y14753D1*
X13489Y14723D1*
X13522Y14693D1*
X13553Y14663D1*
X13584Y14633D1*
X13614Y14603D1*
X13644Y14573D1*
X13676Y14544D1*
X13715Y14514D1*
X13766Y14484D1*
X13823Y14454D1*
X14930Y14992D2*
X14876Y14962D1*
X14828Y14933D1*
X14784Y14903D1*
X14742Y14873D1*
X14702Y14843D1*
X14666Y14813D1*
X14631Y14783D1*
X14686Y14753D1*
X14764Y14723D1*
X14882Y14693D1*
X15054Y14663D1*
X15279Y14633D1*
X15529Y14603D1*
X14930Y14992D2*
X14960Y14962D1*
X14990Y14933D1*
X15020Y14903D1*
X15050Y14873D1*
X15080Y14843D1*
X15110Y14813D1*
X15140Y14783D1*
X15170Y14753D1*
X15201Y14723D1*
X15236Y14693D1*
X15276Y14663D1*
X15319Y14633D1*
X15290Y14603D1*
X12926Y14873D2*
X12759Y14843D1*
X12612Y14813D1*
X12493Y14783D1*
X12405Y14753D1*
X12343Y14723D1*
X12301Y14693D1*
X12267Y14663D1*
X12896Y14873D2*
X13027Y14843D1*
X13134Y14813D1*
X13212Y14783D1*
X13266Y14753D1*
X13307Y14723D1*
X13342Y14693D1*
X13374Y14663D1*
X13404Y14633D1*
X13433Y14603D1*
X13458Y14573D1*
X13478Y14544D1*
X13494Y14514D1*
X10771Y14813D2*
X10729Y14783D1*
X10694Y14753D1*
X10668Y14723D1*
X10648Y14693D1*
X10631Y14663D1*
X10616Y14633D1*
X10605Y14603D1*
X10597Y14573D1*
X10589Y14544D1*
X10581Y14514D1*
X10572Y14484D1*
X10567Y14454D1*
X10564Y14424D1*
X10563Y14394D1*
X10561Y14364D1*
X10557Y14334D1*
X10539Y14304D1*
X10513Y14274D1*
X10485Y14244D1*
X10462Y14214D1*
X10453Y14185D1*
X10458Y14155D1*
X10463Y14125D1*
X10468Y14095D1*
X10470Y14065D1*
X10471Y14035D1*
Y14005D1*
X10467Y13975D1*
X10460Y13945D1*
X10452Y13915D1*
X10447Y13885D1*
X10443Y13855D1*
X10438Y13825D1*
X10430Y13796D1*
X10423Y13766D1*
X10417Y13736D1*
X10416Y13706D1*
X10418Y13676D1*
X10425Y13646D1*
X10432Y13616D1*
X10437Y13586D1*
X10440Y13556D1*
X10441Y13526D1*
X10442Y13496D1*
Y13466D1*
Y13436D1*
Y13407D1*
Y13377D1*
X10444Y13347D1*
X10447Y13317D1*
X10465Y13287D1*
X10492Y13257D1*
X10524Y13227D1*
X10552Y13197D1*
X10572Y13167D1*
X10585Y13137D1*
X10596Y13107D1*
X10626Y13077D1*
X10706Y13048D1*
X10801Y13018D1*
Y14813D2*
X10786Y14783D1*
X10769Y14753D1*
X10752Y14723D1*
X10735Y14693D1*
X10720Y14663D1*
X10705Y14633D1*
X10693Y14603D1*
X10683Y14573D1*
X10674Y14544D1*
X10670Y14514D1*
X10687Y14484D1*
X10712Y14454D1*
X11160Y14813D2*
X11135Y14783D1*
X11113Y14753D1*
X11090Y14723D1*
X11063Y14693D1*
X11027Y14663D1*
X10979Y14633D1*
X10924Y14603D1*
X10869Y14573D1*
X10818Y14544D1*
X10768Y14514D1*
X10713Y14484D1*
X10652Y14454D1*
X11160Y14783D2*
Y14753D1*
X11159Y14723D1*
X11155Y14693D1*
X11147Y14663D1*
X11136Y14633D1*
X11123Y14603D1*
X11111Y14573D1*
X11101Y14544D1*
X12357Y14693D2*
X12327Y14663D1*
X13075Y14693D2*
X13159Y14663D1*
X13237Y14633D1*
X13308Y14603D1*
X13377Y14573D1*
X13449Y14544D1*
X13524Y14514D1*
X14392Y14603D2*
X14357Y14573D1*
X14319Y14544D1*
X14277Y14514D1*
X14234Y14484D1*
X14188Y14454D1*
X14141Y14424D1*
X14092Y14394D1*
X14042Y14364D1*
X13992Y14334D1*
X13938Y14304D1*
X13883Y14274D1*
X13903Y14244D1*
X13923Y14214D1*
X13943Y14185D1*
X13966Y14155D1*
X13996Y14125D1*
X14040Y14095D1*
X14093Y14065D1*
X14362Y14603D2*
X14457Y14573D1*
X14557Y14544D1*
X14661Y14514D1*
X14871Y14544D2*
X14841Y14514D1*
X15110Y14544D2*
X15140Y14514D1*
X15349Y14544D2*
X15319Y14514D1*
X15439Y14544D2*
X15500Y14514D1*
X15568Y14484D1*
X15649Y14454D1*
X15748Y14424D1*
X15858Y14394D1*
X17653D2*
X17537Y14364D1*
X17435Y14334D1*
X17347Y14304D1*
X17258Y14274D1*
X17138Y14244D1*
X16964Y14214D1*
X16756Y14185D1*
X17923Y14394D2*
X17977Y14364D1*
X18017Y14334D1*
X18033Y14304D1*
X17930Y14274D1*
X17828Y14244D1*
X17741Y14214D1*
X17670Y14185D1*
X17613Y14155D1*
X17567Y14125D1*
X17532Y14095D1*
X17504Y14065D1*
X17575Y14035D1*
X17649Y14005D1*
X17725Y13975D1*
X17804Y13945D1*
X17886Y13915D1*
X17976Y13885D1*
X18084Y13855D1*
X18209Y13825D1*
X18341Y13796D1*
X13105Y14394D2*
X12997Y14364D1*
X12898Y14334D1*
X12806Y14304D1*
X12866Y14274D1*
X12926Y14244D1*
X13165Y14394D2*
X13195Y14364D1*
X13225Y14334D1*
X13255Y14304D1*
X13285Y14274D1*
X13315Y14244D1*
X16217Y14214D2*
X16048Y14185D1*
X15906Y14155D1*
X15789Y14125D1*
X15688Y14095D1*
X15594Y14065D1*
X15501Y14035D1*
X15399Y14005D1*
X15290Y13975D1*
X16815Y14214D2*
X16845Y14185D1*
X14392D2*
X14278Y14155D1*
X14174Y14125D1*
X14074Y14095D1*
X13973Y14065D1*
X14811Y14185D2*
X14914Y14155D1*
X15011Y14125D1*
X15101Y14095D1*
X15184Y14065D1*
X15268Y14035D1*
X15364Y14005D1*
X15469Y13975D1*
X13524Y14125D2*
X13488Y14095D1*
X13446Y14065D1*
X13396Y14035D1*
X13340Y14005D1*
X13276Y13975D1*
X13198Y13945D1*
X13094Y13915D1*
X12950Y13885D1*
X12757Y13855D1*
X12537Y13825D1*
X12592Y13796D1*
X12644Y13766D1*
X12696Y13736D1*
X12751Y13706D1*
X12807Y13676D1*
X12862Y13646D1*
X12920Y13616D1*
X12995Y13586D1*
X13100Y13556D1*
X13225Y13526D1*
X13554Y14125D2*
X13584Y14095D1*
X13614Y14065D1*
X13645Y14035D1*
X13677Y14005D1*
X13709Y13975D1*
X13734Y13945D1*
X13753Y13915D1*
X13713Y13885D1*
X13669Y13855D1*
X13623Y13825D1*
X13577Y13796D1*
X13532Y13766D1*
X13487Y13736D1*
X13441Y13706D1*
X13393Y13676D1*
X13343Y13646D1*
X13288Y13616D1*
X13214Y13586D1*
X13110Y13556D1*
X12986Y13526D1*
X14721Y14035D2*
X14555Y14005D1*
X14409Y13975D1*
X14295Y13945D1*
X14215Y13915D1*
X14153Y13885D1*
X14172Y13855D1*
X14193Y13825D1*
X14217Y13796D1*
X14244Y13766D1*
X14273Y13736D1*
X14304Y13706D1*
X14338Y13676D1*
X14380Y13646D1*
X14430Y13616D1*
X14488Y13586D1*
X14555Y13556D1*
X14634Y13526D1*
X14721Y13496D1*
X14960Y14035D2*
X15043Y14005D1*
X15114Y13975D1*
X15167Y13945D1*
X15203Y13915D1*
X15230Y13885D1*
X15181Y13855D1*
X15134Y13825D1*
X15088Y13796D1*
X15043Y13766D1*
X14998Y13736D1*
X14953Y13706D1*
X14908Y13676D1*
X14863Y13646D1*
X14818Y13616D1*
X14772Y13586D1*
X14722Y13556D1*
X14664Y13526D1*
X14601Y13496D1*
X9724Y13975D2*
X9704Y13945D1*
X9683Y13915D1*
X9659Y13885D1*
X9633Y13855D1*
X9609Y13825D1*
X9586Y13796D1*
X9566Y13766D1*
X9545Y13736D1*
X9525Y13706D1*
X9505Y13676D1*
X9485Y13646D1*
X9466Y13616D1*
X9450Y13586D1*
X9437Y13556D1*
X9426Y13526D1*
X9414Y13496D1*
X9401Y13466D1*
X9388Y13436D1*
X9376Y13407D1*
X9366Y13377D1*
X9355Y13347D1*
X9346Y13317D1*
X9339Y13287D1*
X9332Y13257D1*
X9324Y13227D1*
X9316Y13197D1*
X9309Y13167D1*
X9302Y13137D1*
X9294Y13107D1*
X9286Y13077D1*
X9279Y13048D1*
X9273Y13018D1*
X9264Y12988D1*
X9256Y12958D1*
X9249Y12928D1*
X9243Y12898D1*
X9234Y12868D1*
X9226Y12838D1*
X9219Y12808D1*
X9213Y12778D1*
X9204Y12748D1*
X9196Y12718D1*
X9189Y12688D1*
X9183Y12659D1*
X9174Y12629D1*
X9166Y12599D1*
X9159Y12569D1*
X9152Y12539D1*
X9138Y12509D1*
X9119Y12479D1*
X9097Y12449D1*
X9077Y12419D1*
X9055Y12389D1*
X9031Y12359D1*
X9005Y12329D1*
X8980Y12299D1*
X8958Y12270D1*
X8936Y12240D1*
X8913Y12210D1*
X8889Y12180D1*
X8868Y12150D1*
X8847Y12120D1*
X8827Y12090D1*
X8807Y12060D1*
X8787Y12030D1*
X8766Y12000D1*
X8747Y11970D1*
X8727Y11940D1*
X8707Y11910D1*
X8688Y11881D1*
X8671Y11851D1*
X8654Y11821D1*
X8636Y11791D1*
X8617Y11761D1*
X8602Y11731D1*
X8589Y11701D1*
X8577Y11671D1*
X8564Y11641D1*
X8550Y11611D1*
X8539Y11581D1*
X8528Y11551D1*
X8516Y11522D1*
X8503Y11492D1*
X8490Y11462D1*
X8479Y11432D1*
X8468Y11402D1*
X8458Y11372D1*
X8449Y11342D1*
X8443Y11312D1*
X8439Y11282D1*
X8433Y11252D1*
X8426Y11222D1*
X8418Y11192D1*
X8413Y11162D1*
X8410Y11133D1*
Y11103D1*
X8413Y11073D1*
X8420Y11043D1*
X8428Y11013D1*
X8434Y10983D1*
X8442Y10953D1*
X8455Y10923D1*
X8477Y10893D1*
X8506Y10863D1*
X8575Y10833D1*
X8675Y10803D1*
X8797Y10773D1*
X9784Y13975D2*
X9804Y13945D1*
X9825Y13915D1*
X9849Y13885D1*
X9875Y13855D1*
X9900Y13825D1*
X9923Y13796D1*
X9950Y13766D1*
X9984Y13736D1*
X10023Y13706D1*
X11699Y13975D2*
X11700Y13945D1*
X11704Y13915D1*
X11712Y13885D1*
X11725Y13855D1*
X11742Y13825D1*
X11765Y13796D1*
X11790Y13766D1*
X11816Y13736D1*
X11842Y13706D1*
X11871Y13676D1*
X11903Y13646D1*
X11936Y13616D1*
X11967Y13586D1*
X11999Y13556D1*
X12033Y13526D1*
X12070Y13496D1*
X12108Y13466D1*
X12144Y13436D1*
X12181Y13407D1*
X12223Y13377D1*
X12267Y13347D1*
X11759Y13975D2*
X11790Y13945D1*
X11824Y13915D1*
X11861Y13885D1*
X11897Y13855D1*
X11928Y13825D1*
X11954Y13796D1*
X11978Y13766D1*
X12003Y13736D1*
X12029Y13706D1*
X12054Y13676D1*
X12076Y13646D1*
X12098Y13616D1*
X12122Y13586D1*
X12145Y13556D1*
X12166Y13526D1*
X12187Y13496D1*
X12208Y13466D1*
X12226Y13436D1*
X12243Y13407D1*
X12256Y13377D1*
X12267Y13347D1*
X16397Y13975D2*
X16367Y13945D1*
X16397Y13915D1*
X16427Y13975D2*
X16456Y13945D1*
X16427Y13915D1*
X16367Y13945D2*
X16193Y13915D1*
X16030Y13885D1*
X15888Y13855D1*
X15778Y13825D1*
X15705Y13796D1*
X15649Y13766D1*
X15692Y13736D1*
X15732Y13706D1*
X15771Y13676D1*
X15813Y13646D1*
X15858Y13616D1*
X16367Y13915D2*
X16321Y13885D1*
X16269Y13855D1*
X16214Y13825D1*
X16156Y13796D1*
X16097Y13766D1*
X16037Y13736D1*
X15976Y13706D1*
X15912Y13676D1*
X15842Y13646D1*
X15768Y13616D1*
X17324Y13945D2*
X17295Y13915D1*
X17269Y13885D1*
X17247Y13855D1*
X17224Y13825D1*
X17200Y13796D1*
X17172Y13766D1*
X17144Y13736D1*
X17114Y13706D1*
X17085Y13676D1*
X17056Y13646D1*
X17030Y13616D1*
X17007Y13586D1*
X16985Y13556D1*
X16960Y13526D1*
X16932Y13496D1*
X16899Y13466D1*
X16863Y13436D1*
X16824Y13407D1*
X16785Y13377D1*
X16744Y13347D1*
X16702Y13317D1*
X16658Y13287D1*
X16612Y13257D1*
X16564Y13227D1*
X16512Y13197D1*
X16460Y13167D1*
X16412Y13137D1*
X16367Y13107D1*
X16414Y13077D1*
X16473Y13048D1*
X16561Y13018D1*
X16690Y12988D1*
X16845Y12958D1*
X17354Y13945D2*
X17472Y13915D1*
X17586Y13885D1*
X17691Y13855D1*
X17790Y13825D1*
X17894Y13796D1*
X18009Y13766D1*
X18132Y13736D1*
X18341Y13855D2*
X18254Y13825D1*
X18162Y13796D1*
X18371Y13855D2*
X18367Y13825D1*
X18352Y13796D1*
X18319Y13766D1*
X18282Y13736D1*
X10173Y13825D2*
X10122Y13796D1*
X10067Y13766D1*
X10003Y13736D1*
X9934Y13706D1*
X10263Y13825D2*
X10264Y13796D1*
X10268Y13766D1*
X10277Y13736D1*
X10294Y13706D1*
X10317Y13676D1*
X10342Y13646D1*
X10362Y13616D1*
X10373Y13586D1*
X10379Y13556D1*
X10381Y13526D1*
X10382Y13496D1*
Y13466D1*
Y13436D1*
Y13407D1*
Y13377D1*
Y13347D1*
X10381Y13317D1*
X10376Y13287D1*
X10366Y13257D1*
X10340Y13227D1*
X10306Y13197D1*
X10267Y13167D1*
X10225Y13137D1*
X10186Y13107D1*
X10152Y13077D1*
X10122Y13048D1*
X10088Y13018D1*
X10052Y12988D1*
X10021Y12958D1*
X9993Y12928D1*
X13883Y13825D2*
X13829Y13796D1*
X13781Y13766D1*
X13737Y13736D1*
X13695Y13706D1*
X13654Y13676D1*
X13614Y13646D1*
X13574Y13616D1*
X13536Y13586D1*
X13504Y13556D1*
X13479Y13526D1*
X13455Y13496D1*
X13430Y13466D1*
X13403Y13436D1*
X13375Y13407D1*
X13447Y13377D1*
X13526Y13347D1*
X13616Y13317D1*
X13717Y13287D1*
X13823Y13257D1*
X13883Y13825D2*
X13914Y13796D1*
X13948Y13766D1*
X13985Y13736D1*
X14023Y13706D1*
X14058Y13676D1*
X14091Y13646D1*
X14122Y13616D1*
X14152Y13586D1*
X14182Y13556D1*
X14211Y13526D1*
X14237Y13496D1*
X14260Y13466D1*
X14282Y13436D1*
X14307Y13407D1*
X14334Y13377D1*
X14362Y13347D1*
X14286Y13317D1*
X14206Y13287D1*
X14123Y13257D1*
X15499Y13736D2*
X15414Y13706D1*
X15333Y13676D1*
X15255Y13646D1*
X15178Y13616D1*
X15104Y13586D1*
X15033Y13556D1*
X14966Y13526D1*
X14903Y13496D1*
X14841Y13466D1*
X14930Y13436D1*
X15020Y13407D1*
X15439Y13736D2*
X15469Y13706D1*
X15499Y13676D1*
X15529Y13646D1*
X15559Y13616D1*
X15589Y13586D1*
X15619Y13556D1*
X15649Y13526D1*
X15583Y13496D1*
X15511Y13466D1*
X15432Y13436D1*
X15349Y13407D1*
X11669Y13646D2*
X11664Y13616D1*
X11656Y13586D1*
X11644Y13556D1*
X11631Y13526D1*
X11615Y13496D1*
X11597Y13466D1*
X11573Y13436D1*
X11547Y13407D1*
X11518Y13377D1*
X11489Y13347D1*
X11459Y13317D1*
X11430Y13287D1*
X11489Y13257D1*
X11538Y13227D1*
X11579Y13197D1*
X11545Y13167D1*
X11517Y13137D1*
X11497Y13107D1*
X11479Y13077D1*
X11460Y13048D1*
X11699Y13646D2*
X11724Y13616D1*
X11747Y13586D1*
X11769Y13556D1*
X11792Y13526D1*
X11816Y13496D1*
X11837Y13466D1*
X11860Y13436D1*
X11888Y13407D1*
X11923Y13377D1*
X11961Y13347D1*
X12003Y13317D1*
X12059Y13287D1*
X12138Y13257D1*
X12232Y13227D1*
X12315Y13197D1*
X12373Y13167D1*
X12413Y13137D1*
X12442Y13107D1*
X12464Y13077D1*
X12482Y13048D1*
X12500Y13018D1*
X12518Y12988D1*
X12538Y12958D1*
X12557Y12928D1*
X12577Y12898D1*
X12597Y12868D1*
X12615Y12838D1*
X12633Y12808D1*
X12649Y12778D1*
X12668Y12748D1*
X12687Y12718D1*
X12706Y12688D1*
X12726Y12659D1*
X12746Y12629D1*
X12652Y12599D1*
X12543Y12569D1*
X12412Y12539D1*
X12267Y12509D1*
X12297Y13616D2*
X12302Y13586D1*
X12311Y13556D1*
X12323Y13526D1*
X12340Y13496D1*
X12358Y13466D1*
X12377Y13436D1*
X12397Y13407D1*
X12419Y13377D1*
X12443Y13347D1*
X12473Y13317D1*
X12507Y13287D1*
X12297Y13616D2*
X12356Y13586D1*
X12412Y13556D1*
X12465Y13526D1*
X12517Y13496D1*
X12572Y13466D1*
X12629Y13436D1*
X12687Y13407D1*
X12746Y13377D1*
X12627Y13347D1*
X12485Y13317D1*
X12327Y13287D1*
X13195Y13257D2*
X12866Y13227D1*
X12537Y13197D1*
X12552Y13167D1*
X12569Y13137D1*
X12586Y13107D1*
X12603Y13077D1*
X12619Y13048D1*
X12634Y13018D1*
X12650Y12988D1*
X12668Y12958D1*
X12687Y12928D1*
X12705Y12898D1*
X12722Y12868D1*
X12738Y12838D1*
X12754Y12808D1*
X12770Y12778D1*
X12791Y12748D1*
X12824Y12718D1*
X12870Y12688D1*
X12926Y12659D1*
X12986Y13257D2*
X13102Y13227D1*
X13225Y13197D1*
X13372Y13167D1*
X13557Y13137D1*
X13764Y13107D1*
X14452Y13257D2*
X14360Y13227D1*
X14260Y13197D1*
X14135Y13167D1*
X13975Y13137D1*
X13793Y13107D1*
X14452Y13257D2*
X14458Y13227D1*
X14470Y13197D1*
X14490Y13167D1*
X14514Y13137D1*
X14538Y13107D1*
X14560Y13077D1*
X14582Y13048D1*
X14606Y13018D1*
X14632Y12988D1*
X14657Y12958D1*
X14679Y12928D1*
X14700Y12898D1*
X14721Y12868D1*
X14601Y12838D1*
X14541Y13257D2*
X14571Y13227D1*
X14601Y13197D1*
X14631Y13167D1*
X14660Y13137D1*
X14686Y13107D1*
X14709Y13077D1*
X14731Y13048D1*
X14756Y13018D1*
X14783Y12988D1*
X14810Y12958D1*
X14836Y12928D1*
X14861Y12898D1*
X14895Y12868D1*
X14948Y12838D1*
X15026Y12808D1*
X15120Y12778D1*
X15216Y12748D1*
X15308Y12718D1*
X15393Y12688D1*
X15471Y12659D1*
X15540Y12629D1*
X15600Y12599D1*
X15655Y12569D1*
X15707Y12539D1*
X15758Y12509D1*
X15814Y12479D1*
X15887Y12449D1*
X15984Y12419D1*
X16097Y12389D1*
X14601Y13257D2*
X14632Y13227D1*
X14666Y13197D1*
X14705Y13167D1*
X14747Y13137D1*
X14794Y13107D1*
X14847Y13077D1*
X14906Y13048D1*
X14974Y13018D1*
X15057Y12988D1*
X15155Y12958D1*
X15260Y12928D1*
X16995Y13137D2*
X16965Y13107D1*
X16933Y13077D1*
X16890Y13048D1*
X16816Y13018D1*
X16695Y12988D1*
X16546Y12958D1*
X15978Y13137D2*
X15948Y13107D1*
X15978Y13077D1*
X16008Y13137D2*
X16038Y13107D1*
X16008Y13077D1*
X16995Y13107D2*
X16994Y13077D1*
X16989Y13048D1*
X16977Y13018D1*
X16957Y12988D1*
X16929Y12958D1*
X16892Y12928D1*
X16843Y12898D1*
X16786Y12868D1*
X11370Y13107D2*
X11404Y13077D1*
X11441Y13048D1*
X11474Y13018D1*
X11502Y12988D1*
X11528Y12958D1*
X11556Y12928D1*
X11596Y12898D1*
X11655Y12868D1*
X11732Y12838D1*
X11809Y12808D1*
X11870Y12778D1*
X11911Y12748D1*
X11942Y12718D1*
X11971Y12688D1*
X12000Y12659D1*
X12030Y12629D1*
X12064Y12599D1*
X12104Y12569D1*
X12148Y12539D1*
X10771Y13077D2*
X10741Y13048D1*
X10891Y13077D2*
X10836Y13048D1*
X10760Y13018D1*
X10669Y12988D1*
X10576Y12958D1*
X10481Y12928D1*
X10382Y12898D1*
X10323Y13018D2*
X10194Y12988D1*
X10065Y12958D1*
X9934Y12928D1*
X10382Y13018D2*
X10399Y12988D1*
X10417Y12958D1*
X10442Y12928D1*
X10472Y12898D1*
X16247Y13048D2*
X16126Y13018D1*
X16002Y12988D1*
X15872Y12958D1*
X15738Y12928D1*
X16187Y13048D2*
X16223Y13018D1*
X16266Y12988D1*
X16318Y12958D1*
X16382Y12928D1*
X16460Y12898D1*
X16546Y12868D1*
X13674D2*
X13521Y12838D1*
X13379Y12808D1*
X13252Y12778D1*
X13134Y12748D1*
X13019Y12718D1*
X12900Y12688D1*
X12776Y12659D1*
X14541Y12868D2*
X14571Y12838D1*
X14182Y12778D2*
X13986Y12748D1*
X13808Y12718D1*
X13654Y12688D1*
X13522Y12659D1*
X13402Y12629D1*
X13289Y12599D1*
X13185Y12569D1*
X13097Y12539D1*
X13031Y12509D1*
X12978Y12479D1*
X12980Y12449D1*
X12996Y12419D1*
X13015Y12389D1*
X13035Y12359D1*
X13056Y12329D1*
X13080Y12299D1*
X13107Y12270D1*
X13136Y12240D1*
X13167Y12210D1*
X13200Y12180D1*
X13238Y12150D1*
X13280Y12120D1*
X13324Y12090D1*
X13374Y12060D1*
X13432Y12030D1*
X13501Y12000D1*
X13582Y11970D1*
X13672Y11940D1*
X13768Y11910D1*
X13871Y11881D1*
X13980Y11851D1*
X14093Y11821D1*
X14362Y12778D2*
X14550Y12748D1*
X14708Y12718D1*
X14825Y12688D1*
X14908Y12659D1*
X14967Y12629D1*
X15015Y12599D1*
X15058Y12569D1*
X15100Y12539D1*
X15140Y12509D1*
X15181Y12479D1*
X15224Y12449D1*
X15268Y12419D1*
X15316Y12389D1*
X15378Y12359D1*
X15469Y12329D1*
X15591Y12299D1*
X15721Y12270D1*
X15831Y12240D1*
X15912Y12210D1*
X15978Y12180D1*
X15828Y12150D1*
X15665Y12120D1*
X15504Y12090D1*
X15352Y12060D1*
X15210Y12030D1*
X15075Y12000D1*
X14948Y11970D1*
X14826Y11940D1*
X14701Y11910D1*
X14561Y11881D1*
X14405Y11851D1*
X14242Y11821D1*
X12178Y12599D2*
X12134Y12569D1*
X12088Y12539D1*
X12238Y12599D2*
X12303Y12569D1*
X12385Y12539D1*
X12477Y12509D1*
X15140Y12629D2*
X15176Y12599D1*
X15218Y12569D1*
X15269Y12539D1*
X15332Y12509D1*
X15411Y12479D1*
X15509Y12449D1*
X15619Y12419D1*
X15200Y12629D2*
X15260Y12599D1*
X15319Y12569D1*
X15379Y12539D1*
X15437Y12509D1*
X15487Y12479D1*
X15527Y12449D1*
X15559Y12419D1*
X16456Y12539D2*
X16383Y12509D1*
X16289Y12479D1*
X16159Y12449D1*
X15989Y12419D1*
X15798Y12389D1*
X16516Y12539D2*
X16499Y12509D1*
X16473Y12479D1*
X16435Y12449D1*
X16387Y12419D1*
X16331Y12389D1*
X16268Y12359D1*
X16203Y12329D1*
X16147Y12299D1*
X16097Y12270D1*
X16117Y12240D1*
X16138Y12210D1*
X16162Y12180D1*
X16187Y12150D1*
X12836Y12449D2*
X12753Y12419D1*
X12682Y12389D1*
X12623Y12359D1*
X12594Y12329D1*
X12588Y12299D1*
X12596Y12270D1*
X12607Y12240D1*
X12621Y12210D1*
X12639Y12180D1*
X12663Y12150D1*
X12690Y12120D1*
X12725Y12090D1*
X12769Y12060D1*
X12829Y12030D1*
X12916Y12000D1*
X13059Y11970D1*
X13272Y11940D1*
X13524Y11910D1*
X12896Y12449D2*
X12902Y12419D1*
X12913Y12389D1*
X12929Y12359D1*
X12947Y12329D1*
X12967Y12299D1*
X12991Y12270D1*
X13018Y12240D1*
X13046Y12210D1*
X13076Y12180D1*
X13105Y12150D1*
X13135Y12120D1*
X13165Y12090D1*
X13195Y12060D1*
X13226Y12030D1*
X13261Y12000D1*
X13301Y11970D1*
X13345Y11940D1*
X13225Y11910D1*
X10382Y12419D2*
X10307Y12389D1*
X10215Y12359D1*
X10102Y12329D1*
X9966Y12299D1*
X9820Y12270D1*
X9679Y12240D1*
X9545Y12210D1*
X10382Y12419D2*
X10378Y12389D1*
X10369Y12359D1*
X10358Y12329D1*
X10344Y12299D1*
X10330Y12270D1*
X10315Y12240D1*
X10300Y12210D1*
X10285Y12180D1*
X10270Y12150D1*
X10255Y12120D1*
X10240Y12090D1*
X10226Y12060D1*
X10214Y12030D1*
X10204Y12000D1*
X10193Y11970D1*
X10184Y11940D1*
X10179Y11910D1*
X10180Y11881D1*
X10187Y11851D1*
X10198Y11821D1*
X10213Y11791D1*
X10233Y11761D1*
X10265Y11731D1*
X10315Y11701D1*
X10384Y11671D1*
X10463Y11641D1*
X10533Y11611D1*
X10587Y11581D1*
X10608Y11551D1*
X10616Y11522D1*
X10619Y11492D1*
X10621Y11462D1*
Y11432D1*
X10620Y11402D1*
X10615Y11372D1*
X10603Y11342D1*
X10584Y11312D1*
X10560Y11282D1*
X10537Y11252D1*
X10519Y11222D1*
X10505Y11192D1*
X10492Y11162D1*
X10477Y11133D1*
X10460Y11103D1*
X10441Y11073D1*
X10423Y11043D1*
X10406Y11013D1*
X10389Y10983D1*
X10371Y10953D1*
X10352Y10923D1*
X10333Y10893D1*
X10317Y10863D1*
X10300Y10833D1*
X10281Y10803D1*
X10262Y10773D1*
X10244Y10744D1*
X10227Y10714D1*
X10211Y10684D1*
X10196Y10654D1*
X10181Y10624D1*
X10165Y10594D1*
X10149Y10564D1*
X10131Y10534D1*
X10108Y10504D1*
X10083Y10474D1*
X10532Y12419D2*
X10527Y12389D1*
X10519Y12359D1*
X10507Y12329D1*
X10494Y12299D1*
X10479Y12270D1*
X10466Y12240D1*
X10454Y12210D1*
X10443Y12180D1*
X10433Y12150D1*
X10423Y12120D1*
X10418Y12090D1*
X10415Y12060D1*
X10413Y12030D1*
Y12000D1*
X10414Y11970D1*
X10419Y11940D1*
X10431Y11910D1*
X10452Y11881D1*
X10483Y11851D1*
X10528Y11821D1*
X10586Y11791D1*
X10652Y11761D1*
X10592Y12419D2*
X10615Y12389D1*
X10633Y12359D1*
X10632Y12329D1*
X10629Y12299D1*
X10625Y12270D1*
X10623Y12240D1*
X10622Y12210D1*
Y12180D1*
Y12150D1*
Y12120D1*
Y12090D1*
Y12060D1*
Y12030D1*
Y12000D1*
Y11970D1*
Y11940D1*
Y11910D1*
Y11881D1*
X10621Y11851D1*
X10616Y11821D1*
X10606Y11791D1*
X10592Y11761D1*
X9066Y12299D2*
X9060Y12270D1*
X9048Y12240D1*
X9028Y12210D1*
X9004Y12180D1*
X8980Y12150D1*
X8958Y12120D1*
X8937Y12090D1*
X8916Y12060D1*
X8897Y12030D1*
X8877Y12000D1*
X8856Y11970D1*
X8837Y11940D1*
X8817Y11910D1*
X8796Y11881D1*
X8777Y11851D1*
X8757Y11821D1*
X8737Y11791D1*
X8718Y11761D1*
X8701Y11731D1*
X8685Y11701D1*
X8670Y11671D1*
X8655Y11641D1*
X8640Y11611D1*
X8625Y11581D1*
X8611Y11551D1*
X8599Y11522D1*
X8588Y11492D1*
X8576Y11462D1*
X8563Y11432D1*
X8549Y11402D1*
X8535Y11372D1*
X8521Y11342D1*
X8510Y11312D1*
X8503Y11282D1*
X8499Y11252D1*
X8493Y11222D1*
X8486Y11192D1*
X8479Y11162D1*
X8477Y11133D1*
X8482Y11103D1*
X8488Y11073D1*
X8494Y11043D1*
X8500Y11013D1*
X8519Y10983D1*
X8587Y10953D1*
X8707Y10923D1*
X8887Y10893D1*
X9096Y10863D1*
X9156Y12299D2*
Y12270D1*
Y12240D1*
Y12210D1*
X16576Y12150D2*
X16715Y12120D1*
X16827Y12090D1*
X16914Y12060D1*
X16987Y12030D1*
X17050Y12000D1*
X17107Y11970D1*
X17156Y11940D1*
X17196Y11910D1*
X17231Y11881D1*
X17263Y11851D1*
X17294Y11821D1*
X17324Y11791D1*
X17354Y11761D1*
X17384Y11731D1*
X17414Y11701D1*
X17443Y11671D1*
X17469Y11641D1*
X17492Y11611D1*
X17514Y11581D1*
X17537Y11551D1*
X17559Y11522D1*
X17576Y11492D1*
X17585Y11462D1*
X17590Y11432D1*
X17593Y11402D1*
X12028Y12060D2*
X11968Y12030D1*
X11911Y12000D1*
X11861Y11970D1*
X11824Y11940D1*
X11800Y11910D1*
X11783Y11881D1*
X11770Y11851D1*
X11759Y11821D1*
X11906Y11791D1*
X12032Y11761D1*
X12138Y11731D1*
X12231Y11701D1*
X12309Y11671D1*
X12367Y11641D1*
X12410Y11611D1*
X12429Y11581D1*
X12443Y11551D1*
X12456Y11522D1*
X12467Y11492D1*
X12477Y11462D1*
X12487Y11432D1*
X12496Y11402D1*
X12503Y11372D1*
X12510Y11342D1*
X12518Y11312D1*
X12526Y11282D1*
X12532Y11252D1*
X12535Y11222D1*
X12536Y11192D1*
Y11162D1*
X12533Y11133D1*
X12525Y11103D1*
X12490Y11073D1*
X12447Y11043D1*
X12472Y11013D1*
X12495Y10983D1*
X12516Y10953D1*
X12537Y10923D1*
X12555Y10893D1*
X12571Y10863D1*
X12583Y10833D1*
X12591Y10803D1*
X12594Y10773D1*
X12596Y10744D1*
Y10714D1*
X12595Y10684D1*
X12590Y10654D1*
X12579Y10624D1*
X12563Y10594D1*
X12545Y10564D1*
X12525Y10534D1*
X12501Y10504D1*
X12473Y10474D1*
X12441Y10444D1*
X12405Y10414D1*
X12367Y10385D1*
X12332Y10355D1*
X12297Y10325D1*
X12406Y10295D1*
X12512Y10265D1*
X12617Y10235D1*
X12717Y10205D1*
X12810Y10175D1*
X12895Y10145D1*
X12975Y10115D1*
X13050Y10085D1*
X13122Y10055D1*
X13189Y10025D1*
X13252Y9996D1*
X13315Y9966D1*
X13378Y9936D1*
X13441Y9906D1*
X13502Y9876D1*
X13558Y9846D1*
X13612Y9816D1*
X13663Y9786D1*
X13714Y9756D1*
X13768Y9726D1*
X13824Y9696D1*
X13879Y9666D1*
X13931Y9636D1*
X13982Y9607D1*
X14033Y9577D1*
X14081Y9547D1*
X14128Y9517D1*
X14174Y9487D1*
X14220Y9457D1*
X14265Y9427D1*
X14308Y9397D1*
X14351Y9367D1*
X14391Y9337D1*
X14432Y9307D1*
X14472Y9277D1*
X14511Y9248D1*
X14553Y9218D1*
X14595Y9188D1*
X14638Y9158D1*
X14679Y9128D1*
X14716Y9098D1*
X14753Y9068D1*
X14792Y9038D1*
X14830Y9008D1*
X14867Y8978D1*
X14903Y8948D1*
X14942Y8918D1*
X14981Y8888D1*
X15020Y8859D1*
X15060Y8829D1*
X15099Y8799D1*
X15136Y8769D1*
X15173Y8739D1*
X15211Y8709D1*
X15250Y8679D1*
X15289Y8649D1*
X15330Y8619D1*
X15369Y8589D1*
X15409Y8559D1*
X15450Y8529D1*
X15493Y8499D1*
X15537Y8470D1*
X15581Y8440D1*
X15626Y8410D1*
X15672Y8380D1*
X15720Y8350D1*
X15769Y8320D1*
X15818Y8290D1*
X15869Y8260D1*
X15923Y8230D1*
X15980Y8200D1*
X16038Y8170D1*
X16098Y8140D1*
X16159Y8110D1*
X16222Y8081D1*
X16290Y8051D1*
X16363Y8021D1*
X16440Y7991D1*
X16524Y7961D1*
X16615Y7931D1*
X16715Y7901D1*
X16825Y7871D1*
X16944Y7841D1*
X17070Y7811D1*
X17202Y7781D1*
X17345Y7751D1*
X17512Y7722D1*
X17704Y7692D1*
X17895Y7662D1*
X18055Y7632D1*
X18192Y7602D1*
X18132Y7572D1*
X12058Y12060D2*
X12088Y12030D1*
X12119Y12000D1*
X12154Y11970D1*
X12195Y11940D1*
X12241Y11910D1*
X12289Y11881D1*
X12339Y11851D1*
X12391Y11821D1*
X12444Y11791D1*
X12494Y11761D1*
X12540Y11731D1*
X12580Y11701D1*
X12616Y11671D1*
X12656Y11641D1*
X12706Y11611D1*
X12758Y11581D1*
X12807Y11551D1*
X12851Y11522D1*
X12890Y11492D1*
X12928Y11462D1*
X12967Y11432D1*
X13005Y11402D1*
X13042Y11372D1*
X13078Y11342D1*
X13117Y11312D1*
X13155Y11282D1*
X13191Y11252D1*
X13228Y11222D1*
X13266Y11192D1*
X13305Y11162D1*
X13345Y11133D1*
X13385Y11103D1*
X13425Y11073D1*
X13464Y11043D1*
X13505Y11013D1*
X13549Y10983D1*
X13597Y10953D1*
X13650Y10923D1*
X13706Y10893D1*
X13764Y10863D1*
X15858Y12030D2*
X15695Y12000D1*
X15548Y11970D1*
X15417Y11940D1*
X15298Y11910D1*
X15189Y11881D1*
X15087Y11851D1*
X14989Y11821D1*
X14889Y11791D1*
X14790Y11761D1*
X14691Y11731D1*
X14733Y11701D1*
X14763Y11671D1*
X14774Y11641D1*
X14782Y11611D1*
X14792Y11581D1*
X14799Y11551D1*
X14803Y11522D1*
X14796Y11492D1*
X14784Y11462D1*
X14769Y11432D1*
X14752Y11402D1*
X14736Y11372D1*
X14756Y11342D1*
X14781Y11312D1*
X16307Y12030D2*
X16157Y12000D1*
X16008Y11970D1*
X16029Y11940D1*
X16060Y11910D1*
X16097Y11881D1*
X16247Y12000D2*
X16246Y11970D1*
X16241Y11940D1*
X16231Y11910D1*
X16217Y11881D1*
X16247Y12000D2*
X16389Y11970D1*
X16522Y11940D1*
X16639Y11910D1*
X16743Y11881D1*
X16836Y11851D1*
X16920Y11821D1*
X16998Y11791D1*
X17071Y11761D1*
X17138Y11731D1*
X17201Y11701D1*
X17258Y11671D1*
X17310Y11641D1*
X17358Y11611D1*
X17400Y11581D1*
X17438Y11551D1*
X17470Y11522D1*
X17498Y11492D1*
X17521Y11462D1*
X17542Y11432D1*
X17564Y11402D1*
X10083Y11551D2*
X10028Y11522D1*
X9976Y11492D1*
X9925Y11462D1*
X9875Y11432D1*
X9829Y11402D1*
X9786Y11372D1*
X9745Y11342D1*
X9706Y11312D1*
X9671Y11282D1*
X9642Y11252D1*
X9618Y11222D1*
X9595Y11192D1*
X9571Y11162D1*
X9548Y11133D1*
X9527Y11103D1*
X9509Y11073D1*
X9491Y11043D1*
X9472Y11013D1*
X9413Y10983D1*
X9297Y10953D1*
X9100Y10923D1*
X8830Y10893D1*
X8527Y10863D1*
X10323Y11551D2*
X10364Y11522D1*
X10395Y11492D1*
X10404Y11462D1*
X10409Y11432D1*
X10410Y11402D1*
X10406Y11372D1*
X10394Y11342D1*
X10374Y11312D1*
X10349Y11282D1*
X10321Y11252D1*
X10291Y11222D1*
X10256Y11192D1*
X10214Y11162D1*
X10165Y11133D1*
X10111Y11103D1*
X10057Y11073D1*
X10005Y11043D1*
X9952Y11013D1*
X9894Y10983D1*
X9827Y10953D1*
X9752Y10923D1*
X9672Y10893D1*
X9596Y10863D1*
X9537Y10833D1*
X9493Y10803D1*
X9474Y10773D1*
X9464Y10744D1*
X9460Y10714D1*
X9461Y10684D1*
X9469Y10654D1*
X9481Y10624D1*
X9501Y10594D1*
X9533Y10564D1*
X9584Y10534D1*
X9650Y10504D1*
X9724Y10474D1*
X11669Y11581D2*
X11645Y11551D1*
X11626Y11522D1*
X11612Y11492D1*
X11600Y11462D1*
X11590Y11432D1*
X11580Y11402D1*
X11568Y11372D1*
X11555Y11342D1*
X11542Y11312D1*
X11531Y11282D1*
X11520Y11252D1*
X11510Y11222D1*
X11500Y11192D1*
X11493Y11162D1*
X11486Y11133D1*
X11474Y11103D1*
X11460Y11073D1*
X11490Y11043D1*
X11519Y11013D1*
X11549Y10983D1*
X11581Y10953D1*
X11615Y10923D1*
X11655Y10893D1*
X11699Y10863D1*
X11669Y11581D2*
X11756Y11551D1*
X11836Y11522D1*
X11901Y11492D1*
X11950Y11462D1*
X11986Y11432D1*
X12013Y11402D1*
X12037Y11372D1*
X12063Y11342D1*
X12091Y11312D1*
X12125Y11282D1*
X12165Y11252D1*
X12211Y11222D1*
X12259Y11192D1*
X12306Y11162D1*
X12351Y11133D1*
X12387Y11103D1*
X12417Y11073D1*
X10293Y11462D2*
X10181Y11432D1*
X10083Y11402D1*
X10004Y11372D1*
X9940Y11342D1*
X9887Y11312D1*
X9840Y11282D1*
X9797Y11252D1*
X9760Y11222D1*
X9727Y11192D1*
X9696Y11162D1*
X9670Y11133D1*
X9647Y11103D1*
X9624Y11073D1*
X9600Y11043D1*
X9575Y11013D1*
X9604Y10983D1*
X10382Y11462D2*
X10353Y11432D1*
X10323Y11402D1*
X10293Y11372D1*
X10262Y11342D1*
X10228Y11312D1*
X10189Y11282D1*
X10147Y11252D1*
X10100Y11222D1*
X10047Y11192D1*
X9991Y11162D1*
X9932Y11133D1*
X9872Y11103D1*
X9805Y11073D1*
X9724Y11043D1*
X9625Y11013D1*
X9515Y10983D1*
X14811Y11342D2*
X14781Y11312D1*
X14811D2*
X14805Y11282D1*
X14795Y11252D1*
X14769Y11222D1*
X14737Y11192D1*
X14706Y11162D1*
X14680Y11133D1*
X14671Y11103D1*
X14665Y11073D1*
X14661Y11043D1*
X12208Y11103D2*
X12095Y11073D1*
X11998Y11043D1*
X11916Y11013D1*
X11848Y10983D1*
X11791Y10953D1*
X11739Y10923D1*
X11689Y10893D1*
X11639Y10863D1*
X12327Y11103D2*
X12357Y11073D1*
X12417D2*
X12446Y11043D1*
X12472Y11013D1*
X12495Y10983D1*
X12516Y10953D1*
X12537Y10923D1*
X12555Y10893D1*
X12571Y10863D1*
X12583Y10833D1*
X12591Y10803D1*
X12594Y10773D1*
X12596Y10744D1*
Y10714D1*
X12595Y10684D1*
X12590Y10654D1*
X12579Y10624D1*
X12563Y10594D1*
X12545Y10564D1*
X12525Y10534D1*
X12501Y10504D1*
X12473Y10474D1*
X12441Y10444D1*
X12405Y10414D1*
X12367Y10385D1*
X12332Y10355D1*
X12297Y10325D1*
X12406Y10295D1*
X12512Y10265D1*
X12617Y10235D1*
X12717Y10205D1*
X12810Y10175D1*
X12895Y10145D1*
X12975Y10115D1*
X13050Y10085D1*
X13122Y10055D1*
X13189Y10025D1*
X13252Y9996D1*
X13315Y9966D1*
X13378Y9936D1*
X13441Y9906D1*
X13502Y9876D1*
X13558Y9846D1*
X13612Y9816D1*
X13663Y9786D1*
X13714Y9756D1*
X13768Y9726D1*
X13824Y9696D1*
X13879Y9666D1*
X13931Y9636D1*
X13982Y9607D1*
X14033Y9577D1*
X14081Y9547D1*
X14128Y9517D1*
X14174Y9487D1*
X14220Y9457D1*
X14265Y9427D1*
X14308Y9397D1*
X14351Y9367D1*
X14391Y9337D1*
X14432Y9307D1*
X14472Y9277D1*
X14511Y9248D1*
X14553Y9218D1*
X14595Y9188D1*
X14638Y9158D1*
X14679Y9128D1*
X14716Y9098D1*
X14753Y9068D1*
X14792Y9038D1*
X14830Y9008D1*
X14867Y8978D1*
X14903Y8948D1*
X14942Y8918D1*
X14981Y8888D1*
X15020Y8859D1*
X15060Y8829D1*
X15099Y8799D1*
X15136Y8769D1*
X15173Y8739D1*
X15211Y8709D1*
X15250Y8679D1*
X15289Y8649D1*
X15330Y8619D1*
X15369Y8589D1*
X15409Y8559D1*
X15450Y8529D1*
X15493Y8499D1*
X15537Y8470D1*
X15581Y8440D1*
X15626Y8410D1*
X15672Y8380D1*
X15720Y8350D1*
X15769Y8320D1*
X15818Y8290D1*
X15869Y8260D1*
X15923Y8230D1*
X15980Y8200D1*
X16038Y8170D1*
X16098Y8140D1*
X16159Y8110D1*
X16222Y8081D1*
X16290Y8051D1*
X16363Y8021D1*
X16440Y7991D1*
X16524Y7961D1*
X16615Y7931D1*
X16715Y7901D1*
X16825Y7871D1*
X16944Y7841D1*
X17070Y7811D1*
X17202Y7781D1*
X17345Y7751D1*
X17512Y7722D1*
X17704Y7692D1*
X17895Y7662D1*
X18055Y7632D1*
X18192Y7602D1*
X18132Y7572D1*
X12447Y11103D2*
X12477Y11073D1*
X14422D2*
X14447Y11043D1*
X14470Y11013D1*
X14492Y10983D1*
X14515Y10953D1*
X14537Y10923D1*
X14554Y10893D1*
X14563Y10863D1*
X14568Y10833D1*
X14569Y10803D1*
X14565Y10773D1*
X14555Y10744D1*
X14541Y10714D1*
X14512Y11073D2*
X14541Y11043D1*
X13943Y10983D2*
X13941Y10953D1*
X13935Y10923D1*
X13912Y10893D1*
X13883Y10863D1*
X13973Y10983D2*
X14045Y10953D1*
X14130Y10923D1*
X14222Y10893D1*
X14303Y10863D1*
X14365Y10833D1*
X14410Y10803D1*
X14447Y10773D1*
X14480Y10744D1*
X14512Y10714D1*
X12297Y10923D2*
X12166Y10893D1*
X12054Y10863D1*
X11969Y10833D1*
X11907Y10803D1*
X11860Y10773D1*
X11819Y10744D1*
X11907Y10714D1*
X11998Y10684D1*
X12267Y10923D2*
X12344Y10893D1*
X12404Y10863D1*
X12449Y10833D1*
X12463Y10803D1*
X12470Y10773D1*
Y10744D1*
X12463Y10714D1*
X12451Y10684D1*
X12433Y10654D1*
X12408Y10624D1*
X12373Y10594D1*
X12324Y10564D1*
X12267Y10534D1*
X9485Y10833D2*
X9233Y10803D1*
X8976Y10773D1*
X9395Y10833D2*
Y10803D1*
Y10773D1*
Y10744D1*
Y10714D1*
Y10684D1*
X9396Y10654D1*
X9400Y10624D1*
X9407Y10594D1*
X9416Y10564D1*
X9426Y10534D1*
X9443Y10504D1*
X9469Y10474D1*
X9515Y10444D1*
X9594Y10414D1*
X9712Y10385D1*
X9846Y10355D1*
X9955Y10325D1*
X10035Y10295D1*
X10065Y10265D1*
X10076Y10235D1*
X10077Y10205D1*
X10066Y10175D1*
X10040Y10145D1*
X10007Y10115D1*
X9969Y10085D1*
X9932Y10055D1*
X9900Y10025D1*
X9885Y9996D1*
X9882Y9966D1*
X9893Y9936D1*
X9912Y9906D1*
X9934Y9876D1*
X9919Y9846D1*
X9906Y9816D1*
X9894Y9786D1*
X9880Y9756D1*
X9867Y9726D1*
X9855Y9696D1*
X9845Y9666D1*
X9834Y9636D1*
X9826Y9607D1*
X9821Y9577D1*
X9865Y9547D1*
X9926Y9517D1*
X9984Y9487D1*
X10025Y9457D1*
X10052Y9427D1*
X10073Y9397D1*
X10090Y9367D1*
X10105Y9337D1*
X10120Y9307D1*
X10135Y9277D1*
X10149Y9248D1*
X10161Y9218D1*
X10168Y9188D1*
X10175Y9158D1*
X10184Y9128D1*
X10194Y9098D1*
X10203Y9068D1*
X10213Y9038D1*
X10223Y9008D1*
X10233Y8978D1*
X10243Y8948D1*
X10251Y8918D1*
X10255Y8888D1*
X10249Y8859D1*
X10242Y8829D1*
X10237Y8799D1*
X10235Y8769D1*
X10234Y8739D1*
X10233Y8709D1*
Y8679D1*
Y8649D1*
Y8619D1*
Y8589D1*
Y8559D1*
Y8529D1*
Y8499D1*
X10234Y8470D1*
X10238Y8440D1*
X10245Y8410D1*
X10253Y8380D1*
X10258Y8350D1*
X10261Y8320D1*
X10263Y8290D1*
X10268Y8260D1*
X10276Y8230D1*
X10288Y8200D1*
X10301Y8170D1*
X10317Y8140D1*
X10335Y8110D1*
X10358Y8081D1*
X10385Y8051D1*
X10413Y8021D1*
X10443Y7991D1*
X10471Y7961D1*
X10496Y7931D1*
X10514Y7901D1*
X10524Y7871D1*
X10529Y7841D1*
X10531Y7811D1*
X10532Y7781D1*
X10533Y7751D1*
X10537Y7722D1*
X10545Y7692D1*
X10557Y7662D1*
X10571Y7632D1*
X10586Y7602D1*
X10603Y7572D1*
X10623Y7542D1*
X10642Y7512D1*
X10663Y7482D1*
X10688Y7452D1*
X10720Y7422D1*
X10760Y7392D1*
X10804Y7362D1*
X10848Y7333D1*
X10891Y7303D1*
X11968Y10714D2*
X11938Y10684D1*
X12118Y10714D2*
X12135Y10684D1*
X12161Y10654D1*
X12197Y10624D1*
X12238Y10594D1*
Y10624D2*
X12208Y10594D1*
X12267D2*
X12296Y10564D1*
X12327Y10534D1*
X12447Y10175D2*
Y10145D1*
Y10115D1*
Y10085D1*
Y10055D1*
X12446Y10025D1*
X12441Y9996D1*
X12431Y9966D1*
X12417Y9936D1*
X12442Y9906D1*
X12464Y9876D1*
X12482Y9846D1*
X12498Y9816D1*
X12513Y9786D1*
X12525Y9756D1*
X12536Y9726D1*
X12546Y9696D1*
X12556Y9666D1*
X12562Y9636D1*
X12567Y9607D1*
X12417Y10175D2*
X12511Y10145D1*
X12607Y10115D1*
X12701Y10085D1*
X12788Y10055D1*
X12869Y10025D1*
X12946Y9996D1*
X13022Y9966D1*
X13096Y9936D1*
X13166Y9906D1*
X13230Y9876D1*
X13289Y9846D1*
X13347Y9816D1*
X13406Y9786D1*
X13465Y9756D1*
X13524Y9726D1*
X13583Y9696D1*
X13639Y9666D1*
X13691Y9636D1*
X13743Y9607D1*
X13793Y9577D1*
X13843Y9547D1*
X13894Y9517D1*
X13947Y9487D1*
X14000Y9457D1*
X14050Y9427D1*
X14098Y9397D1*
X14144Y9367D1*
X14189Y9337D1*
X14231Y9307D1*
X14271Y9277D1*
X14312Y9248D1*
X14352Y9218D1*
X14392Y9188D1*
X14432Y9158D1*
X14472Y9128D1*
X14511Y9098D1*
X14552Y9068D1*
X14592Y9038D1*
X14631Y9008D1*
X14671Y8978D1*
X14711Y8948D1*
X14751Y8918D1*
X14791Y8888D1*
X14831Y8859D1*
X14870Y8829D1*
X14911Y8799D1*
X14951Y8769D1*
X14990Y8739D1*
X15030Y8709D1*
X15070Y8679D1*
X15110Y8649D1*
X15150Y8619D1*
X15190Y8589D1*
X15229Y8559D1*
X15270Y8529D1*
X15310Y8499D1*
X15349Y8470D1*
X15390Y8440D1*
X15433Y8410D1*
X15477Y8380D1*
X15522Y8350D1*
X15566Y8320D1*
X15611Y8290D1*
X15656Y8260D1*
X15702Y8230D1*
X15751Y8200D1*
X15803Y8170D1*
X15856Y8140D1*
X15907Y8110D1*
X15958Y8081D1*
X16013Y8051D1*
X16071Y8021D1*
X16133Y7991D1*
X16201Y7961D1*
X16273Y7931D1*
X16350Y7901D1*
X16433Y7871D1*
X16520Y7841D1*
X16612Y7811D1*
X16711Y7781D1*
X16817Y7751D1*
X16932Y7722D1*
X17058Y7692D1*
X17197Y7662D1*
X17361Y7632D1*
X17557Y7602D1*
X17773Y7572D1*
X12028Y9696D2*
X12034Y9666D1*
X12045Y9636D1*
X12061Y9607D1*
X12078Y9577D1*
X12094Y9547D1*
X12111Y9517D1*
X12129Y9487D1*
X12148Y9457D1*
X12167Y9427D1*
X12184Y9397D1*
X12200Y9367D1*
X12215Y9337D1*
X12230Y9307D1*
X12245Y9277D1*
X12260Y9248D1*
X12275Y9218D1*
X12290Y9188D1*
X12305Y9158D1*
X12320Y9128D1*
X12335Y9098D1*
X12350Y9068D1*
X12364Y9038D1*
X12376Y9008D1*
X12386Y8978D1*
X12398Y8948D1*
X12411Y8918D1*
X12425Y8888D1*
X12440Y8859D1*
X12455Y8829D1*
X12469Y8799D1*
X12484Y8769D1*
X12499Y8739D1*
X12513Y8709D1*
X12525Y8679D1*
X12536Y8649D1*
X12548Y8619D1*
X12561Y8589D1*
X12575Y8559D1*
X12589Y8529D1*
X12603Y8499D1*
X12615Y8470D1*
X12626Y8440D1*
X12637Y8410D1*
X12650Y8380D1*
X12663Y8350D1*
X12675Y8320D1*
X12686Y8290D1*
X12697Y8260D1*
X12710Y8230D1*
X12724Y8200D1*
X12740Y8170D1*
X12758Y8140D1*
X12777Y8110D1*
X12795Y8081D1*
X12812Y8051D1*
X12829Y8021D1*
X12848Y7991D1*
X12872Y7961D1*
X12898Y7931D1*
X12926Y7901D1*
X12951Y7871D1*
X12974Y7841D1*
X12996Y7811D1*
X13020Y7781D1*
X13047Y7751D1*
X13075Y7722D1*
X13101Y7692D1*
X13123Y7662D1*
X13144Y7632D1*
X13165Y7602D1*
X13185Y7572D1*
X13205Y7542D1*
X13225Y7512D1*
X13244Y7482D1*
X13261Y7452D1*
X13277Y7422D1*
X13292Y7392D1*
X13307Y7362D1*
X13322Y7333D1*
X13337Y7303D1*
X13352Y7273D1*
X13368Y7243D1*
X13386Y7213D1*
X13404Y7183D1*
X13420Y7153D1*
X13432Y7123D1*
X13445Y7093D1*
X13458Y7063D1*
X13472Y7033D1*
X13487Y7003D1*
X13502Y6973D1*
X13517Y6944D1*
X13532Y6914D1*
X13546Y6884D1*
X13560Y6854D1*
X13573Y6824D1*
X13583Y6794D1*
X13595Y6764D1*
X13608Y6734D1*
X13621Y6704D1*
X13633Y6674D1*
X13643Y6644D1*
X13654Y6614D1*
X13664Y6585D1*
X13674Y6555D1*
X13684Y6525D1*
X13694Y6495D1*
X13704Y6465D1*
X13715Y6435D1*
X13728Y6405D1*
X13741Y6375D1*
X13752Y6345D1*
X13763Y6315D1*
X13773Y6285D1*
X13784Y6255D1*
X13793Y6225D1*
X13805Y6196D1*
X13817Y6166D1*
X13830Y6136D1*
X13843Y6106D1*
X13857Y6076D1*
X13878Y6046D1*
X13925Y6016D1*
X13975Y5986D1*
X14019Y5956D1*
X14057Y5926D1*
X14090Y5896D1*
X14121Y5866D1*
X14147Y5836D1*
X14169Y5807D1*
X14186Y5777D1*
X14199Y5747D1*
X14207Y5717D1*
X14215Y5687D1*
X14223Y5657D1*
X14232Y5627D1*
X14237Y5597D1*
X14240Y5567D1*
X14242Y5537D1*
X14243Y5507D1*
X14247Y5477D1*
X14254Y5448D1*
X14262Y5418D1*
X14267Y5388D1*
X14270Y5358D1*
X14271Y5328D1*
X14272Y5298D1*
X14273Y5268D1*
X14278Y5238D1*
X14288Y5208D1*
X14302Y5178D1*
X12028Y9696D2*
X12093Y9666D1*
X12164Y9636D1*
X12238Y9607D1*
X11190Y9188D2*
X11157Y9158D1*
X11125Y9128D1*
X11096Y9098D1*
X11084Y9068D1*
X11088Y9038D1*
X11097Y9008D1*
X11109Y8978D1*
X11119Y8948D1*
X11125Y8918D1*
X11128Y8888D1*
X11130Y8859D1*
Y8829D1*
Y8799D1*
X11041D1*
Y8769D1*
Y8739D1*
Y8709D1*
Y8679D1*
Y8649D1*
Y8619D1*
Y8589D1*
Y8559D1*
Y8529D1*
Y8499D1*
Y8470D1*
Y8440D1*
Y8410D1*
Y8380D1*
Y8350D1*
Y8320D1*
Y8290D1*
Y8260D1*
Y8230D1*
Y8200D1*
Y8170D1*
X11040Y8140D1*
X11036Y8110D1*
X11029Y8081D1*
X11021Y8051D1*
X11017Y8021D1*
X11018Y7991D1*
X11024Y7961D1*
X11032Y7931D1*
X11041Y7901D1*
X11051Y7871D1*
X11060Y7841D1*
X11064Y7811D1*
X11063Y7781D1*
X11058Y7751D1*
X11050Y7722D1*
X11045Y7692D1*
X11043Y7662D1*
X11042Y7632D1*
X11041Y7602D1*
Y7572D1*
X11040Y7542D1*
X11036Y7512D1*
X11029Y7482D1*
X11021Y7452D1*
X11014Y7422D1*
X11008Y7392D1*
X10999Y7362D1*
X10990Y7333D1*
X10981Y7303D1*
X11190Y9188D2*
X11215Y9158D1*
X11237Y9128D1*
X11255Y9098D1*
X11273Y9068D1*
X11291Y9038D1*
X11311Y9008D1*
X11330Y8978D1*
X11352Y8948D1*
X11380Y8918D1*
X11414Y8888D1*
X11452Y8859D1*
X11490Y8829D1*
X11579Y8859D2*
X11585Y8829D1*
X11597Y8799D1*
X11616Y8769D1*
X11638Y8739D1*
X11658Y8709D1*
X11680Y8679D1*
X11703Y8649D1*
X11726Y8619D1*
X11747Y8589D1*
X11768Y8559D1*
X11789Y8529D1*
X11809Y8499D1*
X11828Y8470D1*
X11849Y8440D1*
X11869Y8410D1*
X11889Y8380D1*
X11914Y8350D1*
X11939Y8320D1*
X11964Y8290D1*
X11986Y8260D1*
X12008Y8230D1*
X12033Y8200D1*
X12059Y8170D1*
X12084Y8140D1*
X12106Y8110D1*
X12128Y8081D1*
X12153Y8051D1*
X12179Y8021D1*
X12203Y7991D1*
X12226Y7961D1*
X12248Y7931D1*
X12272Y7901D1*
X12299Y7871D1*
X12327Y7841D1*
X12353Y7811D1*
X12375Y7781D1*
X12397Y7751D1*
X12422Y7722D1*
X12449Y7692D1*
X12478Y7662D1*
X12507Y7632D1*
X12536Y7602D1*
X12562Y7572D1*
X12583Y7542D1*
X12602Y7512D1*
X12618Y7482D1*
X12634Y7452D1*
X12650Y7422D1*
X12668Y7392D1*
X12687Y7362D1*
X12705Y7333D1*
X12722Y7303D1*
X12738Y7273D1*
X12753Y7243D1*
X12769Y7213D1*
X12784Y7183D1*
X12800Y7153D1*
X12817Y7123D1*
X12837Y7093D1*
X12855Y7063D1*
X12872Y7033D1*
X12889Y7003D1*
X12907Y6973D1*
X12927Y6944D1*
X12946Y6914D1*
X12967Y6884D1*
X12990Y6854D1*
X13013Y6824D1*
X13034Y6794D1*
X13055Y6764D1*
X13075Y6734D1*
X13095Y6704D1*
X13115Y6674D1*
X13135Y6644D1*
X13155Y6614D1*
X13175Y6585D1*
X13195Y6555D1*
X13215Y6525D1*
X13235Y6495D1*
X13255Y6465D1*
X13275Y6435D1*
X13295Y6405D1*
X13315Y6375D1*
X13334Y6345D1*
X13351Y6315D1*
X13367Y6285D1*
X13386Y6255D1*
X13405Y6225D1*
X13424Y6196D1*
X13440Y6166D1*
X13456Y6136D1*
X13472Y6106D1*
X13487Y6076D1*
X13502Y6046D1*
X13517Y6016D1*
X13532Y5986D1*
X13547Y5956D1*
X13562Y5926D1*
X13576Y5896D1*
X13590Y5866D1*
X13601Y5836D1*
X13608Y5807D1*
X13611Y5777D1*
X13612Y5747D1*
X13609Y5717D1*
X13602Y5687D1*
X13594Y5657D1*
X13589Y5627D1*
X13586Y5597D1*
Y5567D1*
X13589Y5537D1*
X13596Y5507D1*
X13604Y5477D1*
X13609Y5448D1*
X13613Y5418D1*
X13618Y5388D1*
X13626Y5358D1*
X13635Y5328D1*
X13644Y5298D1*
X13654Y5268D1*
X13663Y5238D1*
X13669Y5208D1*
X13674Y5178D1*
X66875Y20673D2*
D105*
Y20372D1*
X67005D1*
X67048Y20386D1*
X67062Y20401D1*
X67076Y20429D1*
Y20472D1*
X67062Y20501D1*
X67048Y20515D1*
X67005Y20530D1*
X67048Y20544D1*
X67062Y20559D1*
X67076Y20587D1*
Y20616D1*
X67062Y20644D1*
X67048Y20659D1*
X67005Y20673D1*
X66875D1*
Y20530D2*
X67005D1*
X67169Y20616D2*
X67198Y20630D1*
X67241Y20673D1*
Y20372D1*
X51215Y12011D2*
X51186Y11996D1*
X51157Y11968D1*
X51143Y11939D1*
Y11882D1*
X51157Y11853D1*
X51186Y11824D1*
X51215Y11810D1*
X51258Y11795D1*
X51330D1*
X51373Y11810D1*
X51401Y11824D1*
X51430Y11853D1*
X51445Y11882D1*
Y11939D1*
X51430Y11968D1*
X51401Y11996D1*
X51373Y12011D1*
X51201Y12103D2*
X51186Y12132D1*
X51143Y12175D1*
X51445D1*
X44402Y12168D2*
X44374Y12154D1*
X44345Y12125D1*
X44331Y12097D1*
Y12039D1*
X44345Y12010D1*
X44374Y11982D1*
X44402Y11967D1*
X44445Y11953D1*
X44517D1*
X44560Y11967D1*
X44589Y11982D1*
X44617Y12010D1*
X44632Y12039D1*
Y12097D1*
X44617Y12125D1*
X44589Y12154D1*
X44560Y12168D1*
X44403Y12276D2*
X44388D1*
X44359Y12290D1*
X44345Y12304D1*
X44331Y12333D1*
Y12390D1*
X44345Y12419D1*
X44359Y12433D1*
X44388Y12448D1*
X44417D1*
X44446Y12433D1*
X44488Y12405D1*
X44632Y12261D1*
Y12462D1*
X58059Y8946D2*
X58045Y8975D1*
X58016Y9004D1*
X57987Y9018D1*
X57930D1*
X57901Y9004D1*
X57872Y8975D1*
X57858Y8946D1*
X57844Y8903D1*
Y8831D1*
X57858Y8789D1*
X57872Y8760D1*
X57901Y8731D1*
X57930Y8717D1*
X57987D1*
X58016Y8731D1*
X58045Y8760D1*
X58059Y8789D1*
X58180Y9018D2*
X58338D1*
X58252Y8903D1*
X58295D1*
X58324Y8889D1*
X58338Y8875D1*
X58352Y8831D1*
Y8803D1*
X58338Y8760D1*
X58309Y8731D1*
X58266Y8717D1*
X58223D1*
X58180Y8731D1*
X58166Y8746D1*
X58151Y8774D1*
X62090Y13099D2*
X62061Y13084D1*
X62032Y13056D1*
X62018Y13027D1*
Y12970D1*
X62032Y12941D1*
X62061Y12912D1*
X62090Y12898D1*
X62133Y12883D1*
X62205D1*
X62248Y12898D1*
X62276Y12912D1*
X62305Y12941D1*
X62319Y12970D1*
Y13027D1*
X62305Y13056D1*
X62276Y13084D1*
X62248Y13099D1*
X62319Y13335D2*
X62018D1*
X62219Y13191D1*
Y13407D1*
X33894Y23355D2*
X33880Y23384D1*
X33851Y23413D1*
X33823Y23427D1*
X33765D1*
X33737Y23413D1*
X33708Y23384D1*
X33693Y23355D1*
X33679Y23312D1*
Y23240D1*
X33693Y23197D1*
X33708Y23169D1*
X33737Y23140D1*
X33765Y23125D1*
X33823D1*
X33851Y23140D1*
X33880Y23169D1*
X33894Y23197D1*
X34159Y23427D2*
X34016D1*
X34002Y23298D1*
X34016Y23312D1*
X34059Y23326D1*
X34102D1*
X34145Y23312D1*
X34174Y23283D1*
X34188Y23240D1*
Y23212D1*
X34174Y23169D1*
X34145Y23140D1*
X34102Y23125D1*
X34059D1*
X34016Y23140D1*
X34002Y23154D1*
X33987Y23183D1*
X31342Y22426D2*
X31314Y22412D1*
X31285Y22383D1*
X31271Y22355D1*
Y22297D1*
X31285Y22269D1*
X31314Y22240D1*
X31342Y22225D1*
X31385Y22211D1*
X31457D1*
X31500Y22225D1*
X31529Y22240D1*
X31557Y22269D1*
X31572Y22297D1*
Y22355D1*
X31557Y22383D1*
X31529Y22412D1*
X31500Y22426D1*
X31314Y22691D2*
X31285Y22677D1*
X31271Y22634D1*
Y22605D1*
X31285Y22562D1*
X31328Y22533D1*
X31400Y22519D1*
X31472D1*
X31529Y22533D1*
X31558Y22562D1*
X31572Y22605D1*
Y22620D1*
X31558Y22662D1*
X31529Y22691D1*
X31486Y22705D1*
X31472D1*
X31428Y22691D1*
X31400Y22662D1*
X31386Y22620D1*
Y22605D1*
X31400Y22562D1*
X31428Y22533D1*
X31472Y22519D1*
X31403Y21874D2*
X31389Y21902D1*
X31360Y21931D1*
X31332Y21945D1*
X31274D1*
X31246Y21931D1*
X31217Y21902D1*
X31202Y21874D1*
X31188Y21831D1*
Y21759D1*
X31202Y21716D1*
X31217Y21687D1*
X31246Y21659D1*
X31274Y21644D1*
X31332D1*
X31360Y21659D1*
X31389Y21687D1*
X31403Y21716D1*
X31553Y21644D2*
X31697Y21945D1*
X31496D1*
X29858Y21541D2*
X29844Y21570D1*
X29815Y21598D1*
X29786Y21613D1*
X29729D1*
X29700Y21598D1*
X29672Y21570D1*
X29657Y21541D1*
X29643Y21498D1*
Y21426D1*
X29657Y21383D1*
X29672Y21354D1*
X29700Y21326D1*
X29729Y21311D1*
X29786D1*
X29815Y21326D1*
X29844Y21354D1*
X29858Y21383D1*
X30022Y21612D2*
X29980Y21598D1*
X29965Y21570D1*
Y21541D1*
X29980Y21512D1*
X30008Y21498D1*
X30065Y21483D1*
X30109Y21469D1*
X30137Y21440D1*
X30151Y21412D1*
Y21369D1*
X30137Y21340D1*
X30123Y21325D1*
X30080Y21311D1*
X30022D1*
X29980Y21325D1*
X29965Y21340D1*
X29951Y21369D1*
Y21412D1*
X29965Y21440D1*
X29994Y21469D1*
X30037Y21483D1*
X30094Y21498D1*
X30123Y21512D1*
X30137Y21541D1*
Y21570D1*
X30123Y21598D1*
X30080Y21612D1*
X30022D1*
X24596Y11792D2*
X24581Y11821D1*
X24552Y11849D1*
X24524Y11864D1*
X24467D1*
X24438Y11849D1*
X24409Y11821D1*
X24395Y11792D1*
X24380Y11749D1*
Y11677D1*
X24395Y11634D1*
X24409Y11605D1*
X24438Y11577D1*
X24467Y11562D1*
X24524D1*
X24552Y11577D1*
X24581Y11605D1*
X24596Y11634D1*
X24875Y11763D2*
X24860Y11720D1*
X24832Y11691D1*
X24789Y11677D1*
X24774D1*
X24731Y11691D1*
X24703Y11720D1*
X24688Y11763D1*
Y11777D1*
X24703Y11821D1*
X24731Y11849D1*
X24774Y11863D1*
X24789D1*
X24832Y11849D1*
X24860Y11821D1*
X24875Y11763D1*
Y11691D1*
X24860Y11620D1*
X24832Y11577D1*
X24789Y11562D1*
X24760D1*
X24717Y11577D1*
X24703Y11605D1*
X31211Y11886D2*
X31197Y11914D1*
X31168Y11943D1*
X31139Y11957D1*
X31082D1*
X31053Y11943D1*
X31025Y11914D1*
X31010Y11886D1*
X30996Y11843D1*
Y11771D1*
X31010Y11728D1*
X31025Y11699D1*
X31053Y11671D1*
X31082Y11656D1*
X31139D1*
X31168Y11671D1*
X31197Y11699D1*
X31211Y11728D1*
X31304Y11900D2*
X31332Y11914D1*
X31375Y11957D1*
Y11656D1*
X31554Y11957D2*
X31511Y11943D1*
X31482Y11900D1*
X31468Y11828D1*
Y11785D1*
X31482Y11713D1*
X31511Y11670D1*
X31554Y11656D1*
X31583D1*
X31626Y11670D1*
X31654Y11713D1*
X31669Y11785D1*
Y11828D1*
X31654Y11900D1*
X31626Y11943D1*
X31583Y11957D1*
X31554D1*
X31654Y11900D2*
X31482Y11713D1*
X36885Y6195D2*
X36870Y6224D1*
X36842Y6253D1*
X36813Y6267D1*
X36756D1*
X36727Y6253D1*
X36698Y6224D1*
X36684Y6195D1*
X36669Y6152D1*
Y6080D1*
X36684Y6037D1*
X36698Y6008D1*
X36727Y5980D1*
X36756Y5965D1*
X36813D1*
X36842Y5980D1*
X36870Y6008D1*
X36885Y6037D1*
X36977Y6209D2*
X37006Y6224D1*
X37049Y6266D1*
Y5965D1*
X37142Y6209D2*
X37171Y6224D1*
X37214Y6266D1*
Y5965D1*
X24963Y5437D2*
X24934Y5423D1*
X24905Y5394D1*
X24891Y5366D1*
Y5308D1*
X24905Y5279D1*
X24934Y5251D1*
X24963Y5236D1*
X25006Y5222D1*
X25078D1*
X25121Y5236D1*
X25149Y5251D1*
X25178Y5279D1*
X25193Y5308D1*
Y5366D1*
X25178Y5394D1*
X25149Y5423D1*
X25121Y5437D1*
X24949Y5530D2*
X24934Y5559D1*
X24891Y5602D1*
X25193D1*
X24963Y5709D2*
X24949D1*
X24920Y5723D1*
X24906Y5738D1*
X24891Y5766D1*
Y5824D1*
X24906Y5852D1*
X24920Y5867D1*
X24949Y5881D1*
X24977D1*
X25006Y5867D1*
X25049Y5838D1*
X25193Y5694D1*
Y5895D1*
X31836Y8291D2*
X31822Y8319D1*
X31793Y8348D1*
X31764Y8362D1*
X31707D1*
X31678Y8348D1*
X31650Y8319D1*
X31635Y8291D1*
X31621Y8248D1*
Y8176D1*
X31635Y8133D1*
X31650Y8104D1*
X31678Y8075D1*
X31707Y8061D1*
X31764D1*
X31793Y8075D1*
X31822Y8104D1*
X31836Y8133D1*
X31929Y8305D2*
X31957Y8319D1*
X32001Y8362D1*
Y8061D1*
X32122Y8362D2*
X32280D1*
X32194Y8247D1*
X32237D1*
X32265Y8233D1*
X32280Y8219D1*
X32294Y8176D1*
Y8147D1*
X32280Y8104D1*
X32251Y8075D1*
X32208Y8061D1*
X32165D1*
X32122Y8075D1*
X32108Y8090D1*
X32093Y8118D1*
X49331Y20487D2*
X49632D1*
Y20587D1*
X49618Y20630D1*
X49589Y20659D1*
X49560Y20673D1*
X49518Y20688D1*
X49446D1*
X49403Y20673D1*
X49374Y20659D1*
X49345Y20630D1*
X49331Y20587D1*
Y20487D1*
X49389Y20780D2*
X49374Y20809D1*
X49331Y20852D1*
X49632D1*
X34335Y10040D2*
Y9738D1*
X34435D1*
X34479Y9753D1*
X34507Y9781D1*
X34522Y9810D1*
X34536Y9853D1*
Y9925D1*
X34522Y9968D1*
X34507Y9997D1*
X34479Y10025D1*
X34435Y10040D1*
X34335D1*
X34643Y9968D2*
Y9982D1*
X34657Y10011D1*
X34672Y10025D1*
X34700Y10039D1*
X34758D1*
X34786Y10025D1*
X34801Y10011D1*
X34815Y9982D1*
Y9953D1*
X34801Y9925D1*
X34772Y9882D1*
X34629Y9738D1*
X34829D1*
X39620Y16848D2*
Y16619D1*
X39606Y16575D1*
X39591Y16561D1*
X39562Y16547D1*
X39534D1*
X39505Y16561D1*
X39491Y16575D1*
X39476Y16619D1*
Y16647D1*
X39712Y16790D2*
X39741Y16805D1*
X39784Y16848D1*
Y16547D1*
X38786Y12746D2*
Y12876D1*
X38772Y12919D1*
X38757Y12933D1*
X38729Y12947D1*
X38686D1*
X38657Y12933D1*
X38643Y12919D1*
X38628Y12876D1*
Y12746D1*
X38930D1*
X38628Y13040D2*
X38930D1*
X38700Y13348D2*
X38671Y13334D1*
X38643Y13305D1*
X38628Y13276D1*
Y13219D1*
X38643Y13190D1*
X38671Y13162D1*
X38700Y13147D1*
X38743Y13133D1*
X38815D1*
X38858Y13147D1*
X38887Y13162D1*
X38915Y13190D1*
X38930Y13219D1*
Y13276D1*
X38915Y13305D1*
X38887Y13334D1*
X38858Y13348D1*
X38628Y13441D2*
X38930D1*
X38628Y13641D2*
X38829Y13441D1*
X38757Y13512D2*
X38930Y13641D1*
X38628Y13734D2*
X38930D1*
X38628Y13927D2*
X38930D1*
X38628Y13827D2*
Y14028D1*
X38700Y14135D2*
X38686D1*
X38657Y14149D1*
X38643Y14163D1*
X38629Y14192D1*
Y14250D1*
X38643Y14278D1*
X38657Y14292D1*
X38686Y14307D1*
X38715D1*
X38743Y14292D1*
X38786Y14264D1*
X38930Y14120D1*
Y14321D1*
X43081Y13870D2*
Y13640D1*
X43067Y13597D1*
X43053Y13583D1*
X43024Y13568D1*
X42995D1*
X42967Y13583D1*
X42952Y13597D1*
X42938Y13640D1*
Y13669D1*
X43189Y13798D2*
Y13812D1*
X43203Y13841D1*
X43217Y13855D1*
X43246Y13870D1*
X43303D1*
X43332Y13855D1*
X43346Y13841D1*
X43361Y13812D1*
Y13784D1*
X43346Y13755D1*
X43318Y13712D1*
X43174Y13568D1*
X43375D1*
X41492Y11095D2*
X41191Y10980D1*
X41492Y10865D1*
X41392Y10908D2*
Y11052D1*
X41191Y11188D2*
X41492Y11302D1*
X41191Y11417D1*
X41335Y11510D2*
Y11639D1*
X41320Y11682D1*
X41306Y11697D1*
X41277Y11711D1*
X41248D1*
X41220Y11697D1*
X41205Y11682D1*
X41191Y11639D1*
Y11510D1*
X41492D1*
X41335Y11610D2*
X41492Y11711D1*
X41191Y11803D2*
X41492D1*
X41234Y12097D2*
X41205Y12069D1*
X41191Y12025D1*
Y11968D1*
X41205Y11925D1*
X41234Y11896D1*
X41263D1*
X41291Y11911D1*
X41306Y11925D1*
X41320Y11953D1*
X41349Y12040D1*
X41363Y12069D1*
X41378Y12083D1*
X41406Y12097D1*
X41449D1*
X41478Y12069D1*
X41492Y12025D1*
Y11968D1*
X41478Y11925D1*
X41449Y11896D1*
X41349Y12190D2*
Y12319D1*
X41335Y12362D1*
X41320Y12376D1*
X41291Y12391D1*
X41248D1*
X41220Y12376D1*
X41205Y12362D1*
X41191Y12319D1*
Y12190D1*
X41492D1*
X23615Y22629D2*
Y22400D1*
X23601Y22357D1*
X23586Y22343D1*
X23558Y22328D1*
X23529D1*
X23500Y22343D1*
X23486Y22357D1*
X23472Y22400D1*
Y22429D1*
X23737Y22629D2*
X23894D1*
X23808Y22514D1*
X23851D1*
X23880Y22500D1*
X23894Y22486D1*
X23909Y22443D1*
Y22414D1*
X23894Y22371D1*
X23866Y22342D1*
X23823Y22328D1*
X23779D1*
X23737Y22342D1*
X23722Y22357D1*
X23708Y22385D1*
X25858Y22629D2*
Y22400D1*
X25844Y22357D1*
X25829Y22343D1*
X25801Y22328D1*
X25772D1*
X25743Y22343D1*
X25729Y22357D1*
X25714Y22400D1*
Y22429D1*
X26094Y22328D2*
Y22629D1*
X25951Y22429D1*
X26166D1*
X25119Y19183D2*
Y19312D1*
X25104Y19355D1*
X25090Y19370D1*
X25061Y19384D1*
X25018D1*
X24990Y19370D1*
X24975Y19355D1*
X24961Y19312D1*
Y19183D1*
X25262D1*
X25061Y19548D2*
X25076Y19520D1*
X25104Y19491D1*
X25148Y19476D1*
X25176D1*
X25219Y19491D1*
X25248Y19520D1*
X25262Y19548D1*
Y19591D1*
X25248Y19620D1*
X25219Y19649D1*
X25176Y19663D1*
X25148D1*
X25104Y19649D1*
X25076Y19620D1*
X25061Y19591D1*
Y19548D1*
Y19756D2*
X25262Y19813D1*
X25061Y19871D1*
X25262Y19928D1*
X25061Y19985D1*
X25148Y20078D2*
Y20250D1*
X25119D1*
X25090Y20236D1*
X25076Y20221D1*
X25061Y20193D1*
Y20150D1*
X25076Y20121D1*
X25104Y20092D1*
X25148Y20078D1*
X25176D1*
X25219Y20092D1*
X25248Y20121D1*
X25262Y20150D1*
Y20193D1*
X25248Y20221D1*
X25219Y20250D1*
X25061Y20343D2*
X25262D1*
X25148D2*
X25104Y20357D1*
X25076Y20386D1*
X25061Y20415D1*
Y20458D1*
X25004Y21043D2*
X24975Y21014D1*
X24961Y20971D1*
Y20914D1*
X24975Y20871D1*
X25004Y20842D1*
X25032D1*
X25061Y20857D1*
X25076Y20871D1*
X25090Y20899D1*
X25119Y20986D1*
X25133Y21014D1*
X25148Y21029D1*
X25176Y21043D1*
X25219D1*
X25248Y21014D1*
X25262Y20971D1*
Y20914D1*
X25248Y20871D1*
X25219Y20842D1*
X25148Y21136D2*
Y21308D1*
X25119D1*
X25090Y21293D1*
X25076Y21279D1*
X25061Y21250D1*
Y21207D1*
X25076Y21179D1*
X25104Y21150D1*
X25148Y21136D1*
X25176D1*
X25219Y21150D1*
X25248Y21179D1*
X25262Y21207D1*
Y21250D1*
X25248Y21279D1*
X25219Y21308D1*
X24961Y21400D2*
X25262D1*
X25148Y21493D2*
Y21665D1*
X25119D1*
X25090Y21651D1*
X25076Y21637D1*
X25061Y21608D1*
Y21565D1*
X25076Y21536D1*
X25104Y21507D1*
X25148Y21493D1*
X25176D1*
X25219Y21507D1*
X25248Y21536D1*
X25262Y21565D1*
Y21608D1*
X25248Y21637D1*
X25219Y21665D1*
X25104Y21930D2*
X25076Y21901D1*
X25061Y21872D1*
Y21830D1*
X25076Y21801D1*
X25104Y21772D1*
X25148Y21758D1*
X25176D1*
X25219Y21772D1*
X25248Y21801D1*
X25262Y21830D1*
Y21872D1*
X25248Y21901D1*
X25219Y21930D1*
X24961Y22066D2*
X25205D1*
X25248Y22080D1*
X25262Y22109D1*
Y22137D1*
X25061Y22023D2*
Y22123D1*
X23615Y20629D2*
Y20400D1*
X23601Y20357D1*
X23586Y20343D1*
X23558Y20328D1*
X23529D1*
X23500Y20343D1*
X23486Y20357D1*
X23472Y20400D1*
Y20429D1*
X23880Y20629D2*
X23737D1*
X23722Y20500D1*
X23737Y20514D1*
X23780Y20529D1*
X23823D1*
X23866Y20514D1*
X23894Y20486D1*
X23909Y20443D1*
Y20414D1*
X23894Y20371D1*
X23866Y20342D1*
X23823Y20328D1*
X23780D1*
X23737Y20342D1*
X23722Y20357D1*
X23708Y20385D1*
X28000Y21630D2*
Y21400D1*
X27985Y21357D1*
X27971Y21343D1*
X27942Y21328D1*
X27913D1*
X27885Y21343D1*
X27871Y21357D1*
X27856Y21400D1*
Y21429D1*
X28264Y21587D2*
X28250Y21615D1*
X28207Y21630D1*
X28178D1*
X28135Y21615D1*
X28107Y21572D1*
X28092Y21501D1*
Y21429D1*
X28107Y21372D1*
X28135Y21343D1*
X28178Y21328D1*
X28193D1*
X28236Y21343D1*
X28264Y21372D1*
X28279Y21415D1*
Y21429D1*
X28264Y21472D1*
X28236Y21501D1*
X28193Y21515D1*
X28178D1*
X28135Y21501D1*
X28107Y21472D1*
X28092Y21429D1*
X27335Y20090D2*
X27306Y20076D1*
X27277Y20047D1*
X27263Y20018D1*
X27249Y19975D1*
Y19903D1*
X27263Y19860D1*
X27277Y19832D1*
X27306Y19803D1*
X27335Y19788D1*
X27392D1*
X27421Y19803D1*
X27450Y19832D1*
X27464Y19860D1*
X27478Y19903D1*
Y19975D1*
X27464Y20018D1*
X27450Y20047D1*
X27421Y20076D1*
X27392Y20090D1*
X27335D1*
X27772D2*
Y19788D1*
X27571Y20090D1*
Y19788D1*
X27864D2*
X28065Y20090D1*
X28244D2*
X28215Y20076D1*
X28187Y20047D1*
X28172Y20018D1*
X28158Y19975D1*
Y19903D1*
X28172Y19860D1*
X28187Y19832D1*
X28215Y19803D1*
X28244Y19788D1*
X28301D1*
X28330Y19803D1*
X28359Y19832D1*
X28373Y19860D1*
X28387Y19903D1*
Y19975D1*
X28373Y20018D1*
X28359Y20047D1*
X28330Y20076D1*
X28301Y20090D1*
X28244D1*
X28667D2*
X28480D1*
Y19788D1*
Y19946D2*
X28595D1*
X28946Y20090D2*
X28759D1*
Y19788D1*
Y19946D2*
X28874D1*
X55240Y24129D2*
Y23900D1*
X55226Y23857D1*
X55211Y23843D1*
X55183Y23828D1*
X55154D1*
X55125Y23843D1*
X55111Y23857D1*
X55097Y23900D1*
Y23929D1*
X55390Y23828D2*
X55534Y24129D1*
X55333D1*
X55143Y22545D2*
X55115Y22574D1*
X55072Y22588D1*
X55014D1*
X54971Y22574D1*
X54942Y22545D1*
Y22517D1*
X54957Y22488D1*
X54971Y22474D1*
X55000Y22459D1*
X55086Y22431D1*
X55115Y22416D1*
X55129Y22402D1*
X55143Y22373D1*
Y22330D1*
X55115Y22302D1*
X55072Y22287D1*
X55014D1*
X54971Y22302D1*
X54942Y22330D1*
X55236Y22588D2*
X55308Y22287D1*
X55380Y22588D1*
X55451Y22287D1*
X55523Y22588D1*
X55616Y22531D2*
X55645Y22545D1*
X55688Y22588D1*
Y22287D1*
X57490Y24129D2*
Y23900D1*
X57476Y23857D1*
X57461Y23843D1*
X57433Y23828D1*
X57404D1*
X57376Y23843D1*
X57361Y23857D1*
X57347Y23900D1*
Y23929D1*
X57655Y24129D2*
X57612Y24115D1*
X57597Y24086D1*
Y24058D1*
X57612Y24029D1*
X57640Y24014D1*
X57698Y24000D1*
X57741Y23986D1*
X57769Y23957D1*
X57784Y23929D1*
Y23885D1*
X57769Y23857D1*
X57755Y23842D1*
X57712Y23828D1*
X57655D1*
X57612Y23842D1*
X57597Y23857D1*
X57583Y23885D1*
Y23929D1*
X57597Y23957D1*
X57626Y23986D1*
X57669Y24000D1*
X57726Y24014D1*
X57755Y24029D1*
X57769Y24058D1*
Y24086D1*
X57755Y24115D1*
X57712Y24129D1*
X57655D1*
X57329Y22545D2*
X57300Y22574D1*
X57257Y22588D1*
X57200D1*
X57157Y22574D1*
X57128Y22545D1*
Y22517D1*
X57143Y22488D1*
X57157Y22474D1*
X57185Y22459D1*
X57272Y22431D1*
X57300Y22416D1*
X57315Y22402D1*
X57329Y22373D1*
Y22330D1*
X57300Y22302D1*
X57257Y22287D1*
X57200D1*
X57157Y22302D1*
X57128Y22330D1*
X57422Y22588D2*
X57494Y22287D1*
X57565Y22588D1*
X57637Y22287D1*
X57709Y22588D1*
X57816Y22516D2*
Y22531D1*
X57830Y22560D1*
X57845Y22574D1*
X57873Y22588D1*
X57931D1*
X57959Y22574D1*
X57974Y22560D1*
X57988Y22531D1*
Y22502D1*
X57974Y22473D1*
X57945Y22431D1*
X57801Y22287D1*
X58002D1*
X59747Y24129D2*
Y23900D1*
X59733Y23857D1*
X59718Y23843D1*
X59690Y23828D1*
X59661D1*
X59633Y23843D1*
X59618Y23857D1*
X59604Y23900D1*
Y23929D1*
X60027Y24029D2*
X60012Y23986D1*
X59984Y23957D1*
X59940Y23943D1*
X59926D1*
X59883Y23957D1*
X59855Y23986D1*
X59840Y24029D1*
Y24043D1*
X59855Y24086D1*
X59883Y24115D1*
X59926Y24129D1*
X59940D1*
X59984Y24115D1*
X60012Y24086D1*
X60027Y24029D1*
Y23957D1*
X60012Y23885D1*
X59984Y23842D1*
X59940Y23828D1*
X59912D1*
X59869Y23842D1*
X59855Y23871D1*
X59579Y22545D2*
X59550Y22574D1*
X59507Y22588D1*
X59450D1*
X59407Y22574D1*
X59378Y22545D1*
Y22517D1*
X59393Y22488D1*
X59407Y22474D1*
X59435Y22459D1*
X59522Y22431D1*
X59550Y22416D1*
X59565Y22402D1*
X59579Y22373D1*
Y22330D1*
X59550Y22302D1*
X59507Y22287D1*
X59450D1*
X59407Y22302D1*
X59378Y22330D1*
X59672Y22588D2*
X59744Y22287D1*
X59815Y22588D1*
X59887Y22287D1*
X59959Y22588D1*
X60080D2*
X60238D1*
X60152Y22473D1*
X60195D1*
X60223Y22459D1*
X60238Y22445D1*
X60252Y22402D1*
Y22373D1*
X60238Y22330D1*
X60209Y22301D1*
X60166Y22287D1*
X60123D1*
X60080Y22301D1*
X60066Y22316D1*
X60051Y22344D1*
X61908Y24129D2*
Y23900D1*
X61894Y23857D1*
X61879Y23843D1*
X61850Y23828D1*
X61822D1*
X61793Y23843D1*
X61779Y23857D1*
X61764Y23900D1*
Y23929D1*
X62000Y24072D2*
X62029Y24086D1*
X62072Y24129D1*
Y23828D1*
X62251Y24129D2*
X62208Y24115D1*
X62179Y24072D1*
X62165Y24000D1*
Y23957D1*
X62179Y23885D1*
X62208Y23842D1*
X62251Y23828D1*
X62280D1*
X62323Y23842D1*
X62351Y23885D1*
X62366Y23957D1*
Y24000D1*
X62351Y24072D1*
X62323Y24115D1*
X62280Y24129D1*
X62251D1*
X62351Y24072D2*
X62179Y23885D1*
X61822Y22545D2*
X61793Y22574D1*
X61750Y22588D1*
X61693D1*
X61650Y22574D1*
X61621Y22545D1*
Y22517D1*
X61635Y22488D1*
X61650Y22474D1*
X61678Y22459D1*
X61764Y22431D1*
X61793Y22416D1*
X61808Y22402D1*
X61822Y22373D1*
Y22330D1*
X61793Y22302D1*
X61750Y22287D1*
X61693D1*
X61650Y22302D1*
X61621Y22330D1*
X61914Y22588D2*
X61986Y22287D1*
X62058Y22588D1*
X62130Y22287D1*
X62202Y22588D1*
X62438Y22287D2*
Y22588D1*
X62294Y22387D1*
X62509D1*
X64222Y24129D2*
Y23900D1*
X64208Y23857D1*
X64194Y23843D1*
X64165Y23828D1*
X64136D1*
X64108Y23843D1*
X64093Y23857D1*
X64079Y23900D1*
Y23929D1*
X64315Y24072D2*
X64344Y24086D1*
X64387Y24129D1*
Y23828D1*
X64480Y24072D2*
X64508Y24086D1*
X64552Y24129D1*
Y23828D1*
X64079Y22545D2*
X64050Y22574D1*
X64007Y22588D1*
X63950D1*
X63907Y22574D1*
X63878Y22545D1*
Y22517D1*
X63893Y22488D1*
X63907Y22474D1*
X63935Y22459D1*
X64022Y22431D1*
X64050Y22416D1*
X64065Y22402D1*
X64079Y22373D1*
Y22330D1*
X64050Y22302D1*
X64007Y22287D1*
X63950D1*
X63907Y22302D1*
X63878Y22330D1*
X64172Y22588D2*
X64244Y22287D1*
X64315Y22588D1*
X64387Y22287D1*
X64459Y22588D1*
X64723D2*
X64580D1*
X64566Y22459D1*
X64580Y22473D1*
X64623Y22488D1*
X64666D1*
X64709Y22473D1*
X64738Y22445D1*
X64752Y22402D1*
Y22373D1*
X64738Y22330D1*
X64709Y22301D1*
X64666Y22287D1*
X64623D1*
X64580Y22301D1*
X64566Y22316D1*
X64551Y22344D1*
X50658Y24129D2*
Y23900D1*
X50644Y23857D1*
X50629Y23843D1*
X50600Y23828D1*
X50572D1*
X50543Y23843D1*
X50529Y23857D1*
X50514Y23900D1*
Y23929D1*
X50750Y24072D2*
X50779Y24086D1*
X50822Y24129D1*
Y23828D1*
X50930Y24058D2*
Y24072D1*
X50944Y24101D1*
X50958Y24115D1*
X50987Y24129D1*
X51044D1*
X51073Y24115D1*
X51087Y24101D1*
X51102Y24072D1*
Y24043D1*
X51087Y24014D1*
X51059Y23972D1*
X50915Y23828D1*
X51116D1*
X50035Y22545D2*
X50006Y22574D1*
X49963Y22588D1*
X49906D1*
X49863Y22574D1*
X49834Y22545D1*
Y22517D1*
X49849Y22488D1*
X49863Y22474D1*
X49891Y22459D1*
X49978Y22431D1*
X50006Y22416D1*
X50021Y22402D1*
X50035Y22373D1*
Y22330D1*
X50006Y22302D1*
X49963Y22287D1*
X49906D1*
X49863Y22302D1*
X49834Y22330D1*
X50128Y22431D2*
X50257D1*
X50300Y22445D1*
X50314Y22459D1*
X50329Y22488D1*
Y22531D1*
X50314Y22560D1*
X50300Y22574D1*
X50257Y22588D1*
X50128D1*
Y22287D1*
X50608Y22588D2*
X50421D1*
Y22287D1*
X50608D1*
X50421Y22445D2*
X50536D1*
X50930Y22287D2*
X50815Y22588D1*
X50700Y22287D1*
X50743Y22387D2*
X50887D1*
X51023Y22588D2*
Y22287D1*
X51224Y22588D2*
X51023Y22387D1*
X51094Y22459D2*
X51224Y22287D1*
X51503Y22588D2*
X51316D1*
Y22287D1*
X51503D1*
X51316Y22445D2*
X51431D1*
X51595D2*
X51724D1*
X51767Y22459D1*
X51782Y22474D1*
X51796Y22502D1*
Y22531D1*
X51782Y22560D1*
X51767Y22574D1*
X51724Y22588D1*
X51595D1*
Y22287D1*
X51696Y22445D2*
X51796Y22287D1*
X52908Y24129D2*
Y23900D1*
X52894Y23857D1*
X52879Y23843D1*
X52850Y23828D1*
X52822D1*
X52793Y23843D1*
X52779Y23857D1*
X52764Y23900D1*
Y23929D1*
X53000Y24072D2*
X53029Y24086D1*
X53072Y24129D1*
Y23828D1*
X53194Y24129D2*
X53351D1*
X53266Y24014D1*
X53309D1*
X53337Y24000D1*
X53351Y23986D1*
X53366Y23943D1*
Y23914D1*
X53351Y23871D1*
X53323Y23842D1*
X53280Y23828D1*
X53237D1*
X53194Y23842D1*
X53180Y23857D1*
X53165Y23885D1*
X52686Y22588D2*
Y22287D1*
X52858D1*
X52950Y22588D2*
Y22287D1*
X53051D1*
X53094Y22302D1*
X53123Y22330D1*
X53137Y22359D1*
X53151Y22402D1*
Y22474D1*
X53137Y22517D1*
X53123Y22545D1*
X53094Y22574D1*
X53051Y22588D1*
X52950D1*
X53244Y22445D2*
X53373D1*
X53416Y22459D1*
X53431Y22474D1*
X53445Y22502D1*
Y22531D1*
X53431Y22560D1*
X53416Y22574D1*
X53373Y22588D1*
X53244D1*
Y22287D1*
X53344Y22445D2*
X53445Y22287D1*
X45625Y4518D2*
X45855D1*
X45898Y4504D1*
X45912Y4489D1*
X45927Y4460D1*
Y4432D1*
X45912Y4403D1*
X45898Y4389D1*
X45855Y4374D1*
X45826D1*
X45683Y4610D2*
X45669Y4639D1*
X45626Y4682D1*
X45927D1*
Y4919D2*
X45626D1*
X45826Y4775D1*
Y4990D1*
X36150Y22858D2*
Y22556D1*
X36322D1*
X36415Y22800D2*
X36443Y22815D1*
X36486Y22858D1*
Y22556D1*
X27489Y18067D2*
Y17766D1*
X27661D1*
X27768Y17995D2*
Y18009D1*
X27782Y18038D1*
X27796Y18052D1*
X27825Y18067D1*
X27883D1*
X27911Y18052D1*
X27925Y18038D1*
X27940Y18009D1*
Y17981D1*
X27925Y17952D1*
X27897Y17909D1*
X27753Y17766D1*
X27954D1*
X49665Y19608D2*
X49679Y19579D1*
X49707Y19551D1*
X49736Y19536D1*
X49779Y19522D1*
X49851D1*
X49894Y19536D1*
X49923Y19551D1*
X49952Y19579D1*
X49966Y19608D1*
Y19665D1*
X49952Y19694D1*
X49923Y19723D1*
X49894Y19737D1*
X49851Y19752D1*
X49779D1*
X49736Y19737D1*
X49707Y19723D1*
X49679Y19694D1*
X49665Y19665D1*
Y19608D1*
X49908Y19651D2*
X49995Y19737D1*
X49722Y19844D2*
X49708Y19873D1*
X49665Y19916D1*
X49966D1*
X35455Y17281D2*
X35426Y17267D1*
X35398Y17238D1*
X35383Y17209D1*
X35369Y17166D1*
Y17095D1*
X35383Y17052D1*
X35398Y17023D1*
X35426Y16994D1*
X35455Y16980D1*
X35512D1*
X35541Y16994D1*
X35570Y17023D1*
X35584Y17052D1*
X35599Y17095D1*
Y17166D1*
X35584Y17209D1*
X35570Y17238D1*
X35541Y17267D1*
X35512Y17281D1*
X35455D1*
X35498Y17037D2*
X35584Y16951D1*
X35706Y17209D2*
Y17223D1*
X35720Y17252D1*
X35734Y17267D1*
X35763Y17281D1*
X35821D1*
X35849Y17267D1*
X35863Y17252D1*
X35878Y17223D1*
Y17195D1*
X35863Y17166D1*
X35835Y17123D1*
X35691Y16980D1*
X35892D1*
X45445Y9280D2*
X45574D1*
X45617Y9295D1*
X45632Y9309D1*
X45646Y9338D1*
Y9366D1*
X45632Y9395D1*
X45617Y9410D1*
X45574Y9424D1*
X45445D1*
Y9122D1*
X45545Y9280D2*
X45646Y9122D1*
X45738Y9366D2*
X45767Y9381D1*
X45810Y9423D1*
Y9122D1*
X56456Y21363D2*
Y21492D1*
X56441Y21535D1*
X56427Y21550D1*
X56398Y21564D1*
X56370D1*
X56341Y21550D1*
X56327Y21535D1*
X56312Y21492D1*
Y21363D1*
X56614D1*
X56456Y21464D2*
X56614Y21564D1*
X56384Y21671D2*
X56370D1*
X56341Y21686D1*
X56327Y21700D1*
X56313Y21729D1*
Y21786D1*
X56327Y21815D1*
X56341Y21829D1*
X56370Y21843D1*
X56398D1*
X56427Y21829D1*
X56470Y21800D1*
X56614Y21657D1*
Y21858D1*
X58768Y21363D2*
Y21492D1*
X58754Y21535D1*
X58740Y21550D1*
X58711Y21564D1*
X58682D1*
X58654Y21550D1*
X58639Y21535D1*
X58625Y21492D1*
Y21363D1*
X58926D1*
X58768Y21464D2*
X58926Y21564D1*
X58625Y21686D2*
Y21843D1*
X58740Y21757D1*
Y21800D1*
X58754Y21829D1*
X58768Y21843D1*
X58811Y21858D1*
X58840D1*
X58883Y21843D1*
X58912Y21815D1*
X58926Y21771D1*
Y21728D1*
X58912Y21686D1*
X58897Y21671D1*
X58869Y21657D1*
X60956Y21356D2*
Y21485D1*
X60941Y21528D1*
X60927Y21543D1*
X60898Y21557D1*
X60870D1*
X60841Y21543D1*
X60827Y21528D1*
X60812Y21485D1*
Y21356D1*
X61114D1*
X60956Y21456D2*
X61114Y21557D1*
Y21793D2*
X60813D1*
X61013Y21650D1*
Y21865D1*
X63206Y21363D2*
Y21492D1*
X63191Y21535D1*
X63177Y21550D1*
X63148Y21564D1*
X63120D1*
X63091Y21550D1*
X63077Y21535D1*
X63062Y21492D1*
Y21363D1*
X63364D1*
X63206Y21464D2*
X63364Y21564D1*
X63063Y21829D2*
Y21686D1*
X63192Y21671D1*
X63177Y21686D1*
X63163Y21729D1*
Y21771D1*
X63177Y21815D1*
X63206Y21843D1*
X63249Y21858D1*
X63277D1*
X63321Y21843D1*
X63349Y21815D1*
X63364Y21771D1*
Y21729D1*
X63349Y21686D1*
X63335Y21671D1*
X63306Y21657D1*
X54206Y21370D2*
Y21499D1*
X54191Y21543D1*
X54177Y21557D1*
X54148Y21571D1*
X54120D1*
X54091Y21557D1*
X54077Y21543D1*
X54062Y21499D1*
Y21370D1*
X54364D1*
X54206Y21471D2*
X54364Y21571D1*
X54105Y21836D2*
X54077Y21822D1*
X54063Y21779D1*
Y21750D1*
X54077Y21707D1*
X54120Y21678D1*
X54192Y21664D1*
X54263D1*
X54321Y21678D1*
X54349Y21707D1*
X54364Y21750D1*
Y21765D1*
X54349Y21807D1*
X54321Y21836D1*
X54277Y21850D1*
X54263D1*
X54220Y21836D1*
X54192Y21807D1*
X54177Y21765D1*
Y21750D1*
X54192Y21707D1*
X54220Y21678D1*
X54263Y21664D1*
X55724Y13817D2*
Y13946D1*
X55709Y13989D1*
X55695Y14004D1*
X55667Y14018D1*
X55638D1*
X55609Y14004D1*
X55595Y13989D1*
X55580Y13946D1*
Y13817D1*
X55882D1*
X55724Y13917D2*
X55882Y14018D1*
Y14168D2*
X55581Y14312D1*
Y14111D1*
X50881Y13718D2*
X51010D1*
X51053Y13732D1*
X51067Y13747D1*
X51082Y13775D1*
Y13804D1*
X51067Y13833D1*
X51053Y13847D1*
X51010Y13861D1*
X50881D1*
Y13560D1*
X50981Y13718D2*
X51082Y13560D1*
X51246Y13861D2*
X51203Y13847D1*
X51189Y13818D1*
Y13789D1*
X51203Y13761D1*
X51232Y13746D1*
X51289Y13732D1*
X51332Y13718D1*
X51361Y13689D1*
X51375Y13660D1*
Y13617D1*
X51361Y13589D1*
X51346Y13574D1*
X51303Y13560D1*
X51246D1*
X51203Y13574D1*
X51189Y13589D1*
X51174Y13617D1*
Y13660D1*
X51189Y13689D1*
X51217Y13718D1*
X51260Y13732D1*
X51318Y13746D1*
X51346Y13761D1*
X51361Y13789D1*
Y13818D1*
X51346Y13847D1*
X51303Y13861D1*
X51246D1*
X55724Y12264D2*
Y12393D1*
X55709Y12436D1*
X55695Y12450D1*
X55667Y12465D1*
X55638D1*
X55609Y12450D1*
X55595Y12436D1*
X55580Y12393D1*
Y12264D1*
X55882D1*
X55724Y12364D2*
X55882Y12465D1*
X55681Y12744D2*
X55724Y12729D1*
X55753Y12701D1*
X55767Y12658D1*
Y12643D1*
X55753Y12600D1*
X55724Y12572D1*
X55681Y12557D1*
X55667D1*
X55624Y12572D1*
X55595Y12600D1*
X55581Y12643D1*
Y12658D1*
X55595Y12701D1*
X55624Y12729D1*
X55681Y12744D1*
X55753D1*
X55825Y12729D1*
X55868Y12701D1*
X55882Y12658D1*
Y12629D1*
X55868Y12586D1*
X55839Y12572D1*
X49768Y21281D2*
Y21410D1*
X49754Y21453D1*
X49740Y21468D1*
X49711Y21482D1*
X49682D1*
X49654Y21468D1*
X49639Y21453D1*
X49625Y21410D1*
Y21281D1*
X49926D1*
X49768Y21381D2*
X49926Y21482D1*
X49682Y21574D2*
X49668Y21603D1*
X49625Y21646D1*
X49926D1*
X49625Y21825D2*
X49639Y21782D1*
X49682Y21753D1*
X49754Y21739D1*
X49797D1*
X49869Y21753D1*
X49912Y21782D1*
X49926Y21825D1*
Y21854D1*
X49912Y21897D1*
X49869Y21925D1*
X49797Y21940D1*
X49754D1*
X49682Y21925D1*
X49639Y21897D1*
X49625Y21854D1*
Y21825D1*
X49682Y21925D2*
X49869Y21753D1*
X52887Y18174D2*
Y18303D1*
X52873Y18346D1*
X52858Y18361D1*
X52830Y18375D1*
X52801D1*
X52773Y18361D1*
X52758Y18346D1*
X52744Y18303D1*
Y18174D1*
X53045D1*
X52887Y18275D2*
X53045Y18375D1*
X52801Y18468D2*
X52787Y18497D1*
X52744Y18540D1*
X53045D1*
X52801Y18632D2*
X52787Y18661D1*
X52744Y18704D1*
X53045D1*
X35485Y18219D2*
X35614D1*
X35657Y18233D1*
X35671Y18247D1*
X35686Y18276D1*
Y18305D1*
X35671Y18333D1*
X35657Y18348D1*
X35614Y18362D1*
X35485D1*
Y18061D1*
X35585Y18219D2*
X35686Y18061D1*
X35778Y18305D2*
X35807Y18319D1*
X35850Y18362D1*
Y18061D1*
X35958Y18290D2*
Y18305D1*
X35972Y18333D1*
X35986Y18348D1*
X36015Y18362D1*
X36072D1*
X36101Y18348D1*
X36115Y18333D1*
X36130Y18305D1*
Y18276D1*
X36115Y18247D1*
X36087Y18204D1*
X35943Y18061D1*
X36144D1*
X36610Y19531D2*
X36739D1*
X36782Y19546D1*
X36796Y19560D1*
X36811Y19589D1*
Y19617D1*
X36796Y19646D1*
X36782Y19661D1*
X36739Y19675D1*
X36610D1*
Y19373D1*
X36710Y19531D2*
X36811Y19373D1*
X36903Y19617D2*
X36932Y19632D1*
X36975Y19674D1*
Y19373D1*
X37097Y19674D2*
X37254D1*
X37168Y19560D1*
X37211D1*
X37240Y19545D1*
X37254Y19531D1*
X37269Y19488D1*
Y19460D1*
X37254Y19416D1*
X37226Y19388D1*
X37183Y19373D1*
X37139D1*
X37097Y19388D1*
X37082Y19402D1*
X37068Y19431D1*
X33977Y18219D2*
X34106D1*
X34149Y18233D1*
X34164Y18247D1*
X34178Y18276D1*
Y18305D1*
X34164Y18333D1*
X34149Y18348D1*
X34106Y18362D1*
X33977D1*
Y18061D1*
X34078Y18219D2*
X34178Y18061D1*
X34271Y18305D2*
X34300Y18319D1*
X34343Y18362D1*
Y18061D1*
X34579D2*
Y18362D1*
X34436Y18161D1*
X34651D1*
X27003Y11612D2*
X27132D1*
X27175Y11626D1*
X27190Y11641D1*
X27204Y11669D1*
Y11698D1*
X27190Y11727D1*
X27175Y11741D1*
X27132Y11755D1*
X27003D1*
Y11454D1*
X27103Y11612D2*
X27204Y11454D1*
X27296Y11698D2*
X27325Y11712D1*
X27368Y11755D1*
Y11454D1*
X27633Y11755D2*
X27490D1*
X27476Y11626D1*
X27490Y11640D1*
X27533Y11655D1*
X27576D1*
X27619Y11640D1*
X27648Y11612D1*
X27662Y11569D1*
Y11540D1*
X27648Y11497D1*
X27619Y11468D1*
X27576Y11454D1*
X27533D1*
X27490Y11468D1*
X27476Y11483D1*
X27461Y11511D1*
X30306Y9594D2*
X30435D1*
X30478Y9608D1*
X30493Y9623D1*
X30507Y9651D1*
Y9680D1*
X30493Y9708D1*
X30478Y9723D1*
X30435Y9737D1*
X30306D1*
Y9436D1*
X30407Y9594D2*
X30507Y9436D1*
X30600Y9680D2*
X30629Y9694D1*
X30672Y9737D1*
Y9436D1*
X30937Y9694D2*
X30922Y9723D1*
X30879Y9737D1*
X30851D1*
X30808Y9723D1*
X30779Y9680D1*
X30765Y9608D1*
Y9536D1*
X30779Y9479D1*
X30808Y9450D1*
X30851Y9436D1*
X30865D1*
X30908Y9450D1*
X30937Y9479D1*
X30951Y9522D1*
Y9536D1*
X30937Y9579D1*
X30908Y9608D1*
X30865Y9622D1*
X30851D1*
X30808Y9608D1*
X30779Y9579D1*
X30765Y9536D1*
X26724Y8924D2*
Y9053D1*
X26710Y9096D1*
X26695Y9111D1*
X26667Y9125D1*
X26638D1*
X26610Y9111D1*
X26595Y9096D1*
X26581Y9053D1*
Y8924D1*
X26882D1*
X26724Y9025D2*
X26882Y9125D1*
X26638Y9218D2*
X26624Y9247D1*
X26581Y9290D1*
X26882D1*
Y9440D2*
X26581Y9583D1*
Y9382D1*
X28924Y9594D2*
X29053D1*
X29096Y9608D1*
X29111Y9623D1*
X29125Y9651D1*
Y9680D1*
X29111Y9708D1*
X29096Y9723D1*
X29053Y9737D1*
X28924D1*
Y9436D1*
X29025Y9594D2*
X29125Y9436D1*
X29218Y9680D2*
X29247Y9694D1*
X29290Y9737D1*
Y9436D1*
X29454Y9737D2*
X29411Y9723D1*
X29397Y9694D1*
Y9665D1*
X29411Y9637D1*
X29440Y9622D1*
X29497Y9608D1*
X29540Y9594D1*
X29569Y9565D1*
X29583Y9536D1*
Y9493D1*
X29569Y9465D1*
X29555Y9450D1*
X29511Y9436D1*
X29454D1*
X29411Y9450D1*
X29397Y9465D1*
X29382Y9493D1*
Y9536D1*
X29397Y9565D1*
X29426Y9594D1*
X29468Y9608D1*
X29526Y9622D1*
X29555Y9637D1*
X29569Y9665D1*
Y9694D1*
X29555Y9723D1*
X29511Y9737D1*
X29454D1*
X27744Y8219D2*
X27873D1*
X27916Y8233D1*
X27930Y8248D1*
X27945Y8276D1*
Y8305D1*
X27930Y8333D1*
X27916Y8348D1*
X27873Y8362D1*
X27744D1*
Y8061D1*
X27844Y8219D2*
X27945Y8061D1*
X28037Y8305D2*
X28066Y8319D1*
X28109Y8362D1*
Y8061D1*
X28389Y8262D2*
X28374Y8219D1*
X28346Y8190D1*
X28302Y8176D1*
X28288D1*
X28245Y8190D1*
X28217Y8219D1*
X28202Y8262D1*
Y8276D1*
X28217Y8319D1*
X28245Y8348D1*
X28288Y8362D1*
X28302D1*
X28346Y8348D1*
X28374Y8319D1*
X28389Y8262D1*
Y8190D1*
X28374Y8118D1*
X28346Y8075D1*
X28302Y8061D1*
X28274D1*
X28231Y8075D1*
X28217Y8104D1*
X32892Y10944D2*
Y11073D1*
X32878Y11116D1*
X32863Y11130D1*
X32835Y11145D1*
X32806D1*
X32777Y11130D1*
X32763Y11116D1*
X32749Y11073D1*
Y10944D1*
X33050D1*
X32892Y11044D2*
X33050Y11145D1*
X32821Y11252D2*
X32806D1*
X32777Y11266D1*
X32763Y11280D1*
X32749Y11309D1*
Y11367D1*
X32763Y11395D1*
X32777Y11409D1*
X32806Y11424D1*
X32835D1*
X32864Y11409D1*
X32906Y11381D1*
X33050Y11237D1*
Y11438D1*
X32749Y11617D2*
X32763Y11574D1*
X32806Y11545D1*
X32878Y11531D1*
X32921D1*
X32993Y11545D1*
X33036Y11574D1*
X33050Y11617D1*
Y11646D1*
X33036Y11689D1*
X32993Y11717D1*
X32921Y11732D1*
X32878D1*
X32806Y11717D1*
X32763Y11689D1*
X32749Y11646D1*
Y11617D1*
X32806Y11717D2*
X32993Y11545D1*
X29299Y7469D2*
X29428D1*
X29471Y7483D1*
X29486Y7498D1*
X29500Y7526D1*
Y7555D1*
X29486Y7583D1*
X29471Y7598D1*
X29428Y7612D1*
X29299D1*
Y7311D1*
X29400Y7469D2*
X29500Y7311D1*
X29607Y7540D2*
Y7555D1*
X29622Y7583D1*
X29636Y7598D1*
X29665Y7612D1*
X29722D1*
X29751Y7598D1*
X29765Y7583D1*
X29780Y7555D1*
Y7526D1*
X29765Y7497D1*
X29736Y7454D1*
X29593Y7311D1*
X29794D1*
X29886Y7555D2*
X29915Y7569D1*
X29958Y7612D1*
Y7311D1*
X52020Y21154D2*
Y21283D1*
X52006Y21326D1*
X51991Y21341D1*
X51963Y21355D1*
X51934D1*
X51906Y21341D1*
X51891Y21326D1*
X51877Y21283D1*
Y21154D1*
X52178D1*
X52020Y21254D2*
X52178Y21355D1*
X51949Y21462D2*
X51934D1*
X51906Y21476D1*
X51891Y21491D1*
X51877Y21519D1*
Y21577D1*
X51891Y21605D1*
X51906Y21620D1*
X51934Y21634D1*
X51963D1*
X51992Y21620D1*
X52035Y21591D1*
X52178Y21447D1*
Y21648D1*
X51949Y21756D2*
X51934D1*
X51906Y21770D1*
X51891Y21784D1*
X51877Y21813D1*
Y21870D1*
X51891Y21899D1*
X51906Y21913D1*
X51934Y21928D1*
X51963D1*
X51992Y21913D1*
X52035Y21885D1*
X52178Y21741D1*
Y21942D1*
X51162Y6795D2*
Y6924D1*
X51147Y6967D1*
X51133Y6982D1*
X51104Y6996D1*
X51075D1*
X51047Y6982D1*
X51032Y6967D1*
X51018Y6924D1*
Y6795D1*
X51319D1*
X51162Y6896D2*
X51319Y6996D1*
X51090Y7103D2*
X51076D1*
X51047Y7118D1*
X51033Y7132D1*
X51018Y7161D1*
Y7218D1*
X51033Y7247D1*
X51047Y7261D1*
X51076Y7275D1*
X51104D1*
X51133Y7261D1*
X51176Y7232D1*
X51319Y7089D1*
Y7290D1*
X51018Y7411D2*
Y7569D1*
X51133Y7483D1*
Y7526D1*
X51147Y7554D1*
X51162Y7569D1*
X51205Y7583D1*
X51233D1*
X51276Y7569D1*
X51305Y7540D1*
X51319Y7497D1*
Y7454D1*
X51305Y7411D1*
X51291Y7397D1*
X51262Y7382D1*
X50162Y6788D2*
Y6917D1*
X50147Y6960D1*
X50133Y6975D1*
X50104Y6989D1*
X50075D1*
X50047Y6975D1*
X50032Y6960D1*
X50018Y6917D1*
Y6788D1*
X50319D1*
X50162Y6888D2*
X50319Y6989D1*
X50090Y7096D2*
X50076D1*
X50047Y7110D1*
X50033Y7125D1*
X50018Y7154D1*
Y7211D1*
X50033Y7239D1*
X50047Y7254D1*
X50076Y7268D1*
X50104D1*
X50133Y7254D1*
X50176Y7225D1*
X50319Y7082D1*
Y7283D1*
Y7519D2*
X50018D1*
X50219Y7375D1*
Y7590D1*
X49162Y6795D2*
Y6924D1*
X49147Y6967D1*
X49133Y6982D1*
X49104Y6996D1*
X49075D1*
X49047Y6982D1*
X49032Y6967D1*
X49018Y6924D1*
Y6795D1*
X49319D1*
X49162Y6896D2*
X49319Y6996D1*
X49090Y7103D2*
X49076D1*
X49047Y7118D1*
X49033Y7132D1*
X49018Y7161D1*
Y7218D1*
X49033Y7247D1*
X49047Y7261D1*
X49076Y7275D1*
X49104D1*
X49133Y7261D1*
X49176Y7232D1*
X49319Y7089D1*
Y7290D1*
X49018Y7554D2*
Y7411D1*
X49147Y7397D1*
X49133Y7411D1*
X49119Y7454D1*
Y7497D1*
X49133Y7540D1*
X49162Y7569D1*
X49205Y7583D1*
X49233D1*
X49276Y7569D1*
X49305Y7540D1*
X49319Y7497D1*
Y7454D1*
X49305Y7411D1*
X49291Y7397D1*
X49262Y7382D1*
X48162Y6802D2*
Y6931D1*
X48147Y6975D1*
X48133Y6989D1*
X48104Y7003D1*
X48075D1*
X48047Y6989D1*
X48032Y6975D1*
X48018Y6931D1*
Y6802D1*
X48319D1*
X48162Y6903D2*
X48319Y7003D1*
X48090Y7111D2*
X48076D1*
X48047Y7125D1*
X48033Y7139D1*
X48018Y7168D1*
Y7225D1*
X48033Y7254D1*
X48047Y7268D1*
X48076Y7283D1*
X48104D1*
X48133Y7268D1*
X48176Y7240D1*
X48319Y7096D1*
Y7297D1*
X48061Y7562D2*
X48033Y7547D1*
X48018Y7504D1*
Y7476D1*
X48033Y7433D1*
X48076Y7404D1*
X48147Y7390D1*
X48219D1*
X48276Y7404D1*
X48305Y7433D1*
X48319Y7476D1*
Y7490D1*
X48305Y7533D1*
X48276Y7562D1*
X48233Y7576D1*
X48219D1*
X48176Y7562D1*
X48147Y7533D1*
X48133Y7490D1*
Y7476D1*
X48147Y7433D1*
X48176Y7404D1*
X48219Y7390D1*
X47670Y14834D2*
Y14619D1*
X47685Y14576D1*
X47713Y14548D1*
X47756Y14533D1*
X47785D1*
X47828Y14548D1*
X47857Y14576D1*
X47871Y14619D1*
Y14834D1*
X47964Y14777D2*
X47993Y14791D1*
X48036Y14834D1*
Y14533D1*
X46862Y8953D2*
X46747Y9254D1*
X46632Y8953D1*
X46675Y9054D2*
X46819D1*
X47055Y9254D2*
Y8953D1*
X46955Y9254D2*
X47156D1*
X47291D2*
Y9010D1*
X47306Y8968D1*
X47335Y8953D1*
X47363D1*
X47248Y9154D2*
X47349D1*
X47456Y9254D2*
X47470Y9240D1*
X47485Y9254D1*
X47470Y9269D1*
X47456Y9254D1*
X47470Y9154D2*
Y8953D1*
X47577Y9154D2*
Y8953D1*
Y9097D2*
X47620Y9140D1*
X47649Y9154D1*
X47692D1*
X47721Y9140D1*
X47735Y9097D1*
Y8953D1*
X47842Y9154D2*
X47928Y8953D1*
X47900Y8896D1*
X47871Y8867D1*
X47842Y8853D1*
X47828D1*
X48014Y9154D2*
X47928Y8953D1*
X48179Y9254D2*
X48136Y9240D1*
X48121Y9211D1*
Y9183D1*
X48136Y9154D1*
X48164Y9139D1*
X48222Y9125D1*
X48265Y9111D1*
X48293Y9082D1*
X48308Y9054D1*
Y9010D1*
X48293Y8982D1*
X48279Y8967D1*
X48236Y8953D1*
X48179D1*
X48136Y8967D1*
X48121Y8982D1*
X48107Y9010D1*
Y9054D1*
X48121Y9082D1*
X48150Y9111D1*
X48193Y9125D1*
X48250Y9139D1*
X48279Y9154D1*
X48293Y9183D1*
Y9211D1*
X48279Y9240D1*
X48236Y9254D1*
X48179D1*
X48572Y9211D2*
X48558Y9240D1*
X48515Y9254D1*
X48487D1*
X48443Y9240D1*
X48415Y9197D1*
X48400Y9125D1*
Y9054D1*
X48415Y8996D1*
X48443Y8967D1*
X48487Y8953D1*
X48501D1*
X48544Y8967D1*
X48572Y8996D1*
X48587Y9039D1*
Y9054D1*
X48572Y9097D1*
X48544Y9125D1*
X48501Y9139D1*
X48487D1*
X48443Y9125D1*
X48415Y9097D1*
X48400Y9054D1*
X48679Y9197D2*
X48708Y9211D1*
X48751Y9254D1*
Y8953D1*
X49074D2*
X48959Y9254D1*
X48844Y8953D1*
X48887Y9054D2*
X49031D1*
X59044Y14899D2*
Y14684D1*
X59058Y14641D1*
X59087Y14612D1*
X59130Y14598D1*
X59158D1*
X59201Y14612D1*
X59230Y14641D1*
X59245Y14684D1*
Y14899D1*
X59352Y14827D2*
Y14841D1*
X59366Y14870D1*
X59380Y14885D1*
X59409Y14899D1*
X59467D1*
X59495Y14885D1*
X59509Y14870D1*
X59524Y14841D1*
Y14813D1*
X59509Y14784D1*
X59481Y14741D1*
X59337Y14598D1*
X59538D1*
X60146Y9136D2*
Y8835D1*
X60247D1*
X60290Y8850D1*
X60319Y8878D1*
X60333Y8907D1*
X60347Y8950D1*
Y9022D1*
X60333Y9065D1*
X60319Y9093D1*
X60290Y9122D1*
X60247Y9136D1*
X60146D1*
X60641Y9093D2*
X60612Y9122D1*
X60569Y9136D1*
X60512D1*
X60469Y9122D1*
X60440Y9093D1*
Y9065D1*
X60454Y9036D1*
X60469Y9022D1*
X60497Y9007D1*
X60583Y8979D1*
X60612Y8964D1*
X60626Y8950D1*
X60641Y8921D1*
Y8878D1*
X60612Y8850D1*
X60569Y8835D1*
X60512D1*
X60469Y8850D1*
X60440Y8878D1*
X60762Y9136D2*
X60920D1*
X60834Y9021D1*
X60877D1*
X60905Y9007D1*
X60920Y8993D1*
X60934Y8950D1*
Y8921D1*
X60920Y8878D1*
X60891Y8849D1*
X60848Y8835D1*
X60805D1*
X60762Y8849D1*
X60748Y8864D1*
X60733Y8892D1*
X61041Y9064D2*
Y9079D1*
X61056Y9108D1*
X61070Y9122D1*
X61099Y9136D1*
X61156D1*
X61185Y9122D1*
X61199Y9108D1*
X61214Y9079D1*
Y9050D1*
X61199Y9021D1*
X61170Y8979D1*
X61027Y8835D1*
X61228D1*
X61349Y9136D2*
X61507D1*
X61421Y9021D1*
X61464D1*
X61493Y9007D1*
X61507Y8993D1*
X61521Y8950D1*
Y8921D1*
X61507Y8878D1*
X61478Y8849D1*
X61435Y8835D1*
X61392D1*
X61349Y8849D1*
X61335Y8864D1*
X61320Y8892D1*
X61629Y9064D2*
Y9079D1*
X61643Y9108D1*
X61657Y9122D1*
X61686Y9136D1*
X61743D1*
X61772Y9122D1*
X61786Y9108D1*
X61801Y9079D1*
Y9050D1*
X61786Y9021D1*
X61758Y8979D1*
X61614Y8835D1*
X61815D1*
X32563Y21028D2*
Y20812D1*
X32577Y20769D1*
X32606Y20741D1*
X32649Y20726D1*
X32678D1*
X32721Y20741D1*
X32750Y20769D1*
X32764Y20812D1*
Y21028D1*
X32885Y21027D2*
X33043D1*
X32957Y20913D1*
X33000D1*
X33029Y20898D1*
X33043Y20884D1*
X33057Y20841D1*
Y20812D1*
X33043Y20769D1*
X33014Y20740D1*
X32971Y20726D1*
X32928D1*
X32885Y20740D1*
X32871Y20755D1*
X32856Y20784D1*
X29306Y11705D2*
Y11490D1*
X29320Y11447D1*
X29349Y11418D1*
X29392Y11404D1*
X29420D1*
X29464Y11418D1*
X29492Y11447D1*
X29507Y11490D1*
Y11705D1*
X29743Y11404D2*
Y11705D1*
X29599Y11504D1*
X29815D1*
X8475Y22353D2*
D106*
X7916D1*
Y21449D1*
X8475D1*
X7916Y21922D2*
X8260D1*
X8753Y22353D2*
Y21449D1*
X9906Y21880D2*
X10294D1*
X10422Y21922D1*
X10466Y21966D1*
X10508Y22052D1*
Y22181D1*
X10466Y22267D1*
X10422Y22310D1*
X10294Y22353D1*
X9906D1*
Y21449D1*
X11260Y21922D2*
X11217Y22009D1*
X11088Y22052D1*
X10958D1*
X10829Y22009D1*
X10786Y21922D1*
X10829Y21837D1*
X10916Y21793D1*
X11131Y21750D1*
X11217Y21707D1*
X11260Y21621D1*
Y21578D1*
X11217Y21493D1*
X11088Y21449D1*
X10958D1*
X10829Y21493D1*
X10786Y21578D1*
X11582Y22052D2*
X11839Y21449D1*
X11754Y21277D1*
X11667Y21190D1*
X11582Y21147D1*
X11538D1*
X12098Y22052D2*
X11839Y21449D1*
X13896Y22138D2*
X13854Y22224D1*
X13767Y22310D1*
X13681Y22353D1*
X13509D1*
X13423Y22310D1*
X13337Y22224D1*
X13293Y22138D1*
X13251Y22009D1*
Y21793D1*
X13293Y21665D1*
X13337Y21578D1*
X13423Y21493D1*
X13509Y21449D1*
X13681D1*
X13767Y21493D1*
X13854Y21578D1*
X13896Y21665D1*
X14389Y22052D2*
X14304Y22009D1*
X14217Y21922D1*
X14174Y21793D1*
Y21707D1*
X14217Y21578D1*
X14304Y21493D1*
X14389Y21449D1*
X14518D1*
X14605Y21493D1*
X14691Y21578D1*
X14734Y21707D1*
Y21793D1*
X14691Y21922D1*
X14605Y22009D1*
X14518Y22052D1*
X14389D1*
X15012D2*
Y21449D1*
Y21880D2*
X15142Y22009D1*
X15228Y22052D1*
X15356D1*
X15443Y22009D1*
X15486Y21880D1*
Y21449D1*
X16280Y22009D2*
Y21320D1*
X16237Y21191D1*
X16194Y21147D1*
X16108Y21105D1*
X15979D1*
X15893Y21147D1*
X16280Y21880D2*
X16194Y21965D1*
X16108Y22009D1*
X15979D1*
X15893Y21965D1*
X15806Y21880D1*
X15764Y21750D1*
Y21664D1*
X15806Y21535D1*
X15893Y21449D1*
X15979Y21406D1*
X16108D1*
X16194Y21449D1*
X16280Y21535D1*
X16558Y22052D2*
Y21449D1*
Y21793D2*
X16602Y21922D1*
X16687Y22009D1*
X16774Y22052D1*
X16903D1*
X17396D2*
X17310Y22009D1*
X17224Y21922D1*
X17181Y21793D1*
Y21707D1*
X17224Y21578D1*
X17310Y21493D1*
X17396Y21449D1*
X17525D1*
X17612Y21493D1*
X17697Y21578D1*
X17741Y21707D1*
Y21793D1*
X17697Y21922D1*
X17612Y22009D1*
X17525Y22052D1*
X17396D1*
X18234D2*
X18148Y22009D1*
X18062Y21922D1*
X18019Y21793D1*
Y21707D1*
X18062Y21578D1*
X18148Y21493D1*
X18234Y21449D1*
X18363D1*
X18450Y21493D1*
X18535Y21578D1*
X18579Y21707D1*
Y21793D1*
X18535Y21922D1*
X18450Y22009D1*
X18363Y22052D1*
X18234D1*
X38991Y20571D2*
Y19970D1*
Y19755D2*
X38947Y19711D1*
X38991Y19668D1*
X39034Y19711D1*
X38991Y19755D1*
X39355Y20571D2*
Y19970D1*
Y19755D2*
X39312Y19711D1*
X39355Y19668D1*
X39398Y19711D1*
X39355Y19755D1*
X40551Y20572D2*
X40767Y19668D1*
X40982Y20572D1*
X41197Y19668D1*
X41412Y20572D1*
X42380Y19668D2*
X42035Y20572D1*
X41690Y19668D1*
X41820Y19970D2*
X42250D1*
X42658Y20142D2*
X43045D1*
X43174Y20185D1*
X43218Y20228D1*
X43261Y20314D1*
Y20400D1*
X43218Y20486D1*
X43174Y20530D1*
X43045Y20572D1*
X42658D1*
Y19668D1*
X42959Y20142D2*
X43261Y19668D1*
X44141Y20572D2*
Y19668D1*
X43539Y20572D1*
Y19668D1*
X44419Y20572D2*
Y19668D1*
X45300Y20572D2*
Y19668D1*
X44697Y20572D1*
Y19668D1*
X46224Y20358D2*
X46181Y20443D1*
X46094Y20530D1*
X46009Y20572D1*
X45837D1*
X45750Y20530D1*
X45665Y20443D1*
X45621Y20358D1*
X45578Y20228D1*
Y20012D1*
X45621Y19884D1*
X45665Y19797D1*
X45750Y19712D1*
X45837Y19668D1*
X46009D1*
X46094Y19712D1*
X46181Y19797D1*
X46224Y19884D1*
Y20012D1*
X46009D1*
X47420Y20571D2*
Y19970D1*
Y19755D2*
X47376Y19711D1*
X47420Y19668D1*
X47463Y19711D1*
X47420Y19755D1*
X47785Y20571D2*
Y19970D1*
Y19755D2*
X47741Y19711D1*
X47785Y19668D1*
X47827Y19711D1*
X47785Y19755D1*
X37478Y18652D2*
D107*
Y18117D1*
Y17926D2*
X37439Y17887D1*
X37478Y17849D1*
X37516Y17887D1*
X37478Y17926D1*
X37802Y18652D2*
Y18117D1*
Y17926D2*
X37763Y17887D1*
X37802Y17849D1*
X37840Y17887D1*
X37802Y17926D1*
X38865Y18653D2*
Y17849D1*
X39401Y18653D2*
Y17849D1*
X38865Y18270D2*
X39401D1*
X39648Y18653D2*
Y17849D1*
X40469Y18462D2*
X40431Y18538D1*
X40354Y18615D1*
X40278Y18653D1*
X40125D1*
X40048Y18615D1*
X39972Y18538D1*
X39933Y18462D1*
X39895Y18347D1*
Y18155D1*
X39933Y18041D1*
X39972Y17964D1*
X40048Y17888D1*
X40125Y17849D1*
X40278D1*
X40354Y17888D1*
X40431Y17964D1*
X40469Y18041D1*
Y18155D1*
X40278D1*
X40716Y18653D2*
Y17849D1*
X41252Y18653D2*
Y17849D1*
X40716Y18270D2*
X41252D1*
X42276Y18653D2*
X42582Y17849D1*
X42888Y18653D1*
X43365D2*
X43288Y18615D1*
X43212Y18538D1*
X43173Y18462D1*
X43135Y18347D1*
Y18155D1*
X43173Y18041D1*
X43212Y17964D1*
X43288Y17888D1*
X43365Y17849D1*
X43518D1*
X43594Y17888D1*
X43671Y17964D1*
X43709Y18041D1*
X43747Y18155D1*
Y18347D1*
X43709Y18462D1*
X43671Y18538D1*
X43594Y18615D1*
X43518Y18653D1*
X43365D1*
X43994D2*
Y17849D1*
X44453D1*
X44968Y18653D2*
Y17849D1*
X44700Y18653D2*
X45236D1*
X46096Y17849D2*
X45789Y18653D1*
X45483Y17849D1*
X45598Y18117D2*
X45981D1*
X46917Y18462D2*
X46879Y18538D1*
X46802Y18615D1*
X46726Y18653D1*
X46573D1*
X46496Y18615D1*
X46420Y18538D1*
X46381Y18462D1*
X46343Y18347D1*
Y18155D1*
X46381Y18041D1*
X46420Y17964D1*
X46496Y17888D1*
X46573Y17849D1*
X46726D1*
X46802Y17888D1*
X46879Y17964D1*
X46917Y18041D1*
Y18155D1*
X46726D1*
X47661Y18653D2*
X47164D1*
Y17849D1*
X47661D1*
X47164Y18270D2*
X47470D1*
X48725Y18652D2*
Y18117D1*
Y17926D2*
X48686Y17887D1*
X48725Y17849D1*
X48763Y17887D1*
X48725Y17926D1*
X49049Y18652D2*
Y18117D1*
Y17926D2*
X49010Y17887D1*
X49049Y17849D1*
X49087Y17887D1*
X49049Y17926D1*
X41128Y16855D2*
D108*
X41185Y16884D1*
X41272Y16970D1*
Y16368D1*
X41572D2*
X41859Y16970D1*
X41457D1*
X42216D2*
X42130Y16941D1*
X42073Y16855D1*
X42044Y16712D1*
Y16626D1*
X42073Y16482D1*
X42130Y16396D1*
X42216Y16368D1*
X42274D1*
X42360Y16396D1*
X42417Y16482D1*
X42446Y16626D1*
Y16712D1*
X42417Y16855D1*
X42360Y16941D1*
X42274Y16970D1*
X42216D1*
X42417Y16855D2*
X42073Y16482D1*
X42631Y16970D2*
X42861Y16368D1*
X43090Y16970D1*
X44174Y16827D2*
X44088D1*
X44031Y16798D1*
X44002Y16769D1*
X43973Y16712D1*
Y16597D1*
X44002Y16569D1*
X44060D1*
X44174Y16597D1*
X44203Y16540D1*
X44231D1*
X44289Y16597D1*
X44318Y16740D1*
X44289Y16827D1*
X44261Y16884D1*
X44203Y16941D1*
X44146Y16970D1*
X44031D1*
X43973Y16941D1*
X43916Y16884D1*
X43887Y16827D1*
X43859Y16740D1*
Y16597D1*
X43887Y16511D1*
X43916Y16454D1*
X43973Y16396D1*
X44031Y16368D1*
X44146D1*
X44203Y16396D1*
X44261Y16454D1*
X44174Y16855D2*
Y16597D1*
X45115Y16827D2*
Y16855D1*
X45144Y16913D1*
X45172Y16941D1*
X45230Y16970D1*
X45345D1*
X45402Y16941D1*
X45430Y16913D1*
X45460Y16855D1*
Y16798D1*
X45430Y16740D1*
X45373Y16655D1*
X45086Y16368D1*
X45488D1*
X45702Y16425D2*
X45673Y16396D1*
X45702Y16368D1*
X45731Y16396D1*
X45702Y16425D1*
X46260Y16970D2*
X45974D1*
X45945Y16712D1*
X45974Y16740D1*
X46060Y16769D1*
X46146D1*
X46232Y16740D1*
X46290Y16683D1*
X46318Y16597D1*
Y16540D1*
X46290Y16454D1*
X46232Y16396D1*
X46146Y16368D1*
X46060D1*
X45974Y16396D1*
X45945Y16425D1*
X45916Y16482D1*
X46503Y16769D2*
Y16368D1*
Y16655D2*
X46590Y16741D1*
X46647Y16769D1*
X46733D1*
X46791Y16741D1*
X46819Y16655D1*
Y16368D1*
Y16655D2*
X46905Y16741D1*
X46963Y16769D1*
X47049D1*
X47106Y16741D1*
X47136Y16655D1*
Y16368D1*
X47780D2*
X47550Y16970D1*
X47321Y16368D1*
X47407Y16569D2*
X47694D1*
X37881Y7845D2*
Y7243D1*
X38082D1*
X38168Y7272D1*
X38226Y7329D1*
X38255Y7386D1*
X38283Y7472D1*
Y7616D1*
X38255Y7702D1*
X38226Y7759D1*
X38168Y7817D1*
X38082Y7845D1*
X37881D1*
X38468Y7472D2*
X38813D1*
Y7530D1*
X38784Y7587D1*
X38756Y7616D1*
X38698Y7644D1*
X38612D1*
X38555Y7616D1*
X38497Y7558D1*
X38468Y7472D1*
Y7415D1*
X38497Y7329D1*
X38555Y7272D1*
X38612Y7243D1*
X38698D1*
X38756Y7272D1*
X38813Y7329D1*
X39314Y7558D2*
X39285Y7616D1*
X39199Y7644D1*
X39113D1*
X39026Y7616D1*
X38998Y7558D1*
X39026Y7501D1*
X39084Y7472D1*
X39227Y7443D1*
X39285Y7415D1*
X39314Y7357D1*
Y7329D1*
X39285Y7272D1*
X39199Y7243D1*
X39113D1*
X39026Y7272D1*
X38998Y7329D1*
X39499Y7845D2*
X39527Y7817D1*
X39557Y7845D1*
X39527Y7875D1*
X39499Y7845D1*
X39527Y7644D2*
Y7243D1*
X40086Y7616D2*
Y7156D1*
X40058Y7071D1*
X40029Y7042D1*
X39971Y7013D1*
X39885D1*
X39828Y7042D1*
X40086Y7530D2*
X40029Y7587D1*
X39971Y7616D1*
X39885D1*
X39828Y7587D1*
X39770Y7530D1*
X39742Y7443D1*
Y7386D1*
X39770Y7300D1*
X39828Y7243D1*
X39885Y7214D1*
X39971D1*
X40029Y7243D1*
X40086Y7300D1*
X40271Y7644D2*
Y7243D1*
Y7530D2*
X40358Y7616D1*
X40415Y7644D1*
X40501D1*
X40559Y7616D1*
X40587Y7530D1*
Y7243D1*
X40772Y7472D2*
X41117D1*
Y7530D1*
X41088Y7587D1*
X41060Y7616D1*
X41002Y7644D1*
X40916D1*
X40859Y7616D1*
X40801Y7558D1*
X40772Y7472D1*
Y7415D1*
X40801Y7329D1*
X40859Y7272D1*
X40916Y7243D1*
X41002D1*
X41060Y7272D1*
X41117Y7329D1*
X41646Y7845D2*
Y7243D1*
Y7558D2*
X41589Y7616D1*
X41531Y7644D1*
X41445D1*
X41388Y7616D1*
X41330Y7558D1*
X41302Y7472D1*
Y7415D1*
X41330Y7329D1*
X41388Y7272D1*
X41445Y7243D1*
X41531D1*
X41589Y7272D1*
X41646Y7329D1*
X42415Y7845D2*
Y7243D1*
Y7558D2*
X42472Y7616D1*
X42529Y7644D1*
X42615D1*
X42673Y7616D1*
X42730Y7558D1*
X42759Y7472D1*
Y7415D1*
X42730Y7329D1*
X42673Y7272D1*
X42615Y7243D1*
X42529D1*
X42472Y7272D1*
X42415Y7329D1*
X42973Y7644D2*
X43145Y7243D1*
X43088Y7128D1*
X43030Y7070D1*
X42973Y7042D1*
X42944D1*
X43317Y7644D2*
X43145Y7243D1*
X40444Y6457D2*
X40558Y6055D1*
X40673Y6457D1*
X40788Y6055D1*
X40903Y6457D1*
X41432D2*
Y6055D1*
Y6371D2*
X41375Y6428D1*
X41317Y6457D1*
X41232D1*
X41174Y6428D1*
X41117Y6371D1*
X41088Y6284D1*
Y6227D1*
X41117Y6141D1*
X41174Y6084D1*
X41232Y6055D1*
X41317D1*
X41375Y6084D1*
X41432Y6141D1*
X41617Y6658D2*
X41646Y6629D1*
X41675Y6658D1*
X41646Y6687D1*
X41617Y6658D1*
X41646Y6457D2*
Y6055D1*
X42205Y6371D2*
X42148Y6428D1*
X42090Y6457D1*
X42004D1*
X41947Y6428D1*
X41890Y6371D1*
X41860Y6284D1*
Y6227D1*
X41890Y6141D1*
X41947Y6084D1*
X42004Y6055D1*
X42090D1*
X42148Y6084D1*
X42205Y6141D1*
X42534Y6457D2*
X42477Y6428D1*
X42419Y6371D1*
X42391Y6284D1*
Y6227D1*
X42419Y6141D1*
X42477Y6084D1*
X42534Y6055D1*
X42620D1*
X42678Y6084D1*
X42735Y6141D1*
X42764Y6227D1*
Y6284D1*
X42735Y6371D1*
X42678Y6428D1*
X42620Y6457D1*
X42534D1*
X43093D2*
X43035Y6428D1*
X42978Y6371D1*
X42949Y6284D1*
Y6227D1*
X42978Y6141D1*
X43035Y6084D1*
X43093Y6055D1*
X43179D1*
X43236Y6084D1*
X43293Y6141D1*
X43323Y6227D1*
Y6284D1*
X43293Y6371D1*
X43236Y6428D1*
X43179Y6457D1*
X43093D1*
X43508Y6658D2*
Y6055D1*
X43722Y6514D2*
Y6542D1*
X43751Y6600D1*
X43779Y6629D1*
X43837Y6657D1*
X43952D1*
X44009Y6629D1*
X44037Y6600D1*
X44067Y6542D1*
Y6485D1*
X44037Y6428D1*
X43980Y6342D1*
X43693Y6055D1*
X44095D1*
X44453Y6657D2*
X44367Y6629D1*
X44309Y6542D1*
X44280Y6399D1*
Y6313D1*
X44309Y6170D1*
X44367Y6084D1*
X44453Y6055D1*
X44510D1*
X44596Y6084D1*
X44653Y6170D1*
X44682Y6313D1*
Y6399D1*
X44653Y6542D1*
X44596Y6629D1*
X44510Y6657D1*
X44453D1*
X44653Y6542D2*
X44309Y6170D1*
X55523Y5589D2*
D107*
Y4785D1*
X55791D1*
X55906Y4824D1*
X55983Y4900D1*
X56021Y4977D1*
X56059Y5091D1*
Y5283D1*
X56021Y5398D1*
X55983Y5474D1*
X55906Y5551D1*
X55791Y5589D1*
X55523D1*
X56306D2*
Y4785D1*
X56553Y5589D2*
X56859Y4785D1*
X57165Y5589D1*
X57909D2*
X57412D1*
Y4785D1*
X57909D1*
X57412Y5206D2*
X57718D1*
X58156D2*
X58500D1*
X58615Y5245D1*
X58654Y5283D1*
X58692Y5359D1*
Y5436D1*
X58654Y5512D1*
X58615Y5551D1*
X58500Y5589D1*
X58156D1*
Y4785D1*
X58424Y5206D2*
X58692Y4785D1*
X59513Y5398D2*
X59475Y5474D1*
X59398Y5551D1*
X59322Y5589D1*
X59169D1*
X59092Y5551D1*
X59016Y5474D1*
X58977Y5398D1*
X58939Y5283D1*
Y5091D1*
X58977Y4977D1*
X59016Y4900D1*
X59092Y4824D1*
X59169Y4785D1*
X59322D1*
X59398Y4824D1*
X59475Y4900D1*
X59513Y4977D1*
Y5091D1*
X59322D1*
X60257Y5589D2*
X59760D1*
Y4785D1*
X60257D1*
X59760Y5206D2*
X60066D1*
X61040Y5589D2*
Y4785D1*
X60504Y5589D1*
Y4785D1*
X61861Y5398D2*
X61823Y5474D1*
X61746Y5551D1*
X61670Y5589D1*
X61517D1*
X61440Y5551D1*
X61364Y5474D1*
X61325Y5398D1*
X61287Y5283D1*
Y5091D1*
X61325Y4977D1*
X61364Y4900D1*
X61440Y4824D1*
X61517Y4785D1*
X61670D1*
X61746Y4824D1*
X61823Y4900D1*
X61861Y4977D1*
X62605Y5589D2*
X62108D1*
Y4785D1*
X62605D1*
X62108Y5206D2*
X62414D1*
X64241Y4785D2*
Y5589D1*
X63935Y4785D1*
X63629Y5589D1*
Y4785D1*
X64985Y5589D2*
X64488D1*
Y4785D1*
X64985D1*
X64488Y5206D2*
X64794D1*
X65500Y5589D2*
Y4785D1*
X65232Y5589D2*
X65768D1*
X66512D2*
X66015D1*
Y4785D1*
X66512D1*
X66015Y5206D2*
X66321D1*
X66759D2*
X67103D1*
X67218Y5245D1*
X67257Y5283D1*
X67295Y5359D1*
Y5436D1*
X67257Y5512D1*
X67218Y5551D1*
X67103Y5589D1*
X66759D1*
Y4785D1*
X67027Y5206D2*
X67295Y4785D1*
X46580Y5679D2*
D109*
X46542Y5660D1*
X46504Y5622D1*
X46485Y5584D1*
Y5507D1*
X46504Y5469D1*
X46542Y5431D1*
X46580Y5411D1*
X46638Y5392D1*
X46734D1*
X46791Y5411D1*
X46829Y5431D1*
X46867Y5469D1*
X46887Y5507D1*
Y5584D1*
X46867Y5622D1*
X46829Y5660D1*
X46791Y5679D1*
X46734D1*
Y5584D1*
X46485Y6071D2*
X46887D1*
X46485Y5803D1*
X46887D1*
X46485Y6194D2*
X46887D1*
Y6328D1*
X46867Y6386D1*
X46829Y6424D1*
X46791Y6443D1*
X46734Y6462D1*
X46638D1*
X46580Y6443D1*
X46542Y6424D1*
X46504Y6386D1*
X46485Y6328D1*
Y6194D1*
X47541Y5566D2*
X47885D1*
X47713Y5394D2*
Y5738D1*
X47512Y6091D2*
Y5900D1*
X47684Y5881D1*
X47665Y5900D1*
X47646Y5958D1*
Y6015D1*
X47665Y6072D1*
X47703Y6111D1*
X47761Y6130D1*
X47799D1*
X47856Y6111D1*
X47895Y6072D1*
X47914Y6015D1*
Y5958D1*
X47895Y5900D1*
X47875Y5881D1*
X47837Y5862D1*
X47512Y6253D2*
X47914Y6406D1*
X47512Y6559D1*
X49507Y5394D2*
X49909D1*
Y5567D1*
X49889Y5624D1*
X49870Y5643D1*
X49832Y5662D1*
X49775D1*
X49736Y5643D1*
X49717Y5624D1*
X49698Y5567D1*
X49679Y5624D1*
X49660Y5643D1*
X49622Y5662D1*
X49583D1*
X49545Y5643D1*
X49526Y5624D1*
X49507Y5567D1*
Y5394D1*
X49698D2*
Y5567D1*
X49507Y5786D2*
X49909D1*
Y6015D1*
X49402Y5394D2*
Y6139D1*
X48493Y5394D2*
X48895D1*
Y5624D1*
X48493Y5996D2*
Y5747D1*
X48895D1*
Y5996D1*
X48684Y5747D2*
Y5900D1*
X48388Y5394D2*
Y6119D1*
X50580Y5679D2*
X50542Y5660D1*
X50503Y5622D1*
X50484Y5584D1*
Y5507D1*
X50503Y5469D1*
X50542Y5431D1*
X50580Y5411D1*
X50637Y5392D1*
X50733D1*
X50790Y5411D1*
X50829Y5431D1*
X50867Y5469D1*
X50886Y5507D1*
Y5584D1*
X50867Y5622D1*
X50829Y5660D1*
X50790Y5679D1*
X50484Y5803D2*
X50886D1*
Y6032D1*
X50484Y6156D2*
X50886D1*
X50484Y6424D2*
X50752Y6156D1*
X50656Y6251D2*
X50886Y6424D1*
X51496Y5390D2*
X51898D1*
Y5524D1*
X51879Y5582D1*
X51841Y5620D1*
X51802Y5639D1*
X51745Y5658D1*
X51649D1*
X51592Y5639D1*
X51554Y5620D1*
X51515Y5582D1*
X51496Y5524D1*
Y5390D1*
Y5782D2*
X51898D1*
X51496Y6173D2*
X51898D1*
X51496Y5905D1*
X51898D1*
X52526Y5563D2*
X52871D1*
X52699Y5391D2*
Y5735D1*
X52497Y5859D2*
X52899D1*
X52497Y6127D2*
X52899D1*
X52689Y5859D2*
Y6127D1*
X52497Y6250D2*
X52899Y6403D1*
X52497Y6556D1*
X70559Y6838D2*
D108*
Y7096D1*
X70530Y7183D1*
X70502Y7212D1*
X70444Y7240D1*
X70387D1*
X70330Y7212D1*
X70301Y7183D1*
X70272Y7096D1*
Y6838D1*
X70875D1*
X70559Y7039D2*
X70875Y7240D1*
X70272Y7798D2*
Y7426D1*
X70875D1*
Y7798D1*
X70559Y7426D2*
Y7655D1*
X70272Y7984D2*
X70875Y8213D1*
X70272Y8443D1*
X70387Y9211D2*
X70358Y9269D1*
X70273Y9355D1*
X70875D1*
X70817Y9569D2*
X70846Y9540D1*
X70875Y9569D1*
X70846Y9598D1*
X70817Y9569D1*
X70416Y9812D2*
X70387D1*
X70330Y9841D1*
X70301Y9869D1*
X70273Y9927D1*
Y10042D1*
X70301Y10099D1*
X70330Y10127D1*
X70387Y10157D1*
X70444D1*
X70502Y10127D1*
X70588Y10070D1*
X70875Y9783D1*
Y10185D1*
X58497Y6912D2*
D107*
X58421Y6989D1*
X58306Y7027D1*
X58153D1*
X58038Y6989D1*
X57961Y6912D1*
Y6836D1*
X58000Y6759D1*
X58038Y6721D1*
X58114Y6683D1*
X58344Y6606D1*
X58421Y6568D1*
X58459Y6529D1*
X58497Y6453D1*
Y6338D1*
X58421Y6262D1*
X58306Y6223D1*
X58153D1*
X58038Y6262D1*
X57961Y6338D1*
X58859Y7027D2*
Y6376D1*
X58897Y6262D1*
X58974Y6223D1*
X59050D1*
X58744Y6759D2*
X59012D1*
X59297Y6529D2*
X59756D1*
Y6606D1*
X59718Y6683D1*
X59680Y6721D1*
X59603Y6759D1*
X59488D1*
X59412Y6721D1*
X59335Y6644D1*
X59297Y6529D1*
Y6453D1*
X59335Y6338D1*
X59412Y6262D1*
X59488Y6223D1*
X59603D1*
X59680Y6262D1*
X59756Y6338D1*
X60003Y7027D2*
X60041Y6989D1*
X60080Y7027D1*
X60041Y7066D1*
X60003Y7027D1*
X60041Y6759D2*
Y6223D1*
X60327Y6759D2*
Y6223D1*
Y6606D2*
X60442Y6721D1*
X60519Y6759D1*
X60633D1*
X60710Y6721D1*
X60748Y6606D1*
Y6223D1*
X61416Y6644D2*
X61378Y6721D1*
X61263Y6759D1*
X61148D1*
X61033Y6721D1*
X60995Y6644D1*
X61033Y6568D1*
X61110Y6529D1*
X61301Y6491D1*
X61378Y6453D1*
X61416Y6376D1*
Y6338D1*
X61378Y6262D1*
X61263Y6223D1*
X61148D1*
X61033Y6262D1*
X60995Y6338D1*
X61702Y6759D2*
X61663Y6720D1*
X61702Y6682D1*
X61740Y6720D1*
X61702Y6759D1*
X61740Y6261D2*
X61702Y6223D1*
X61663Y6261D1*
X61702Y6300D1*
X61740Y6261D1*
Y6185D1*
X61702Y6108D1*
X61663Y6070D1*
X62561Y6836D2*
X62523Y6912D1*
X62446Y6989D1*
X62370Y7027D1*
X62217D1*
X62140Y6989D1*
X62064Y6912D1*
X62025Y6836D1*
X61987Y6721D1*
Y6529D1*
X62025Y6415D1*
X62064Y6338D1*
X62140Y6262D1*
X62217Y6223D1*
X62370D1*
X62446Y6262D1*
X62523Y6338D1*
X62561Y6415D1*
Y6529D1*
X62370D1*
X63267Y6759D2*
Y6223D1*
Y6644D2*
X63190Y6721D1*
X63114Y6759D1*
X62999D1*
X62923Y6721D1*
X62846Y6644D1*
X62808Y6529D1*
Y6453D1*
X62846Y6338D1*
X62923Y6262D1*
X62999Y6223D1*
X63114D1*
X63190Y6262D1*
X63267Y6338D1*
X63629Y7027D2*
Y6376D1*
X63667Y6262D1*
X63743Y6223D1*
X63820D1*
X63514Y6759D2*
X63781D1*
X64067Y6529D2*
X64525D1*
Y6606D1*
X64487Y6683D1*
X64449Y6721D1*
X64373Y6759D1*
X64258D1*
X64182Y6721D1*
X64105Y6644D1*
X64067Y6529D1*
Y6453D1*
X64105Y6338D1*
X64182Y6262D1*
X64258Y6223D1*
X64373D1*
X64449Y6262D1*
X64525Y6338D1*
X5981Y20343D2*
D108*
Y19740D1*
X5780Y20343D2*
X6182D1*
X6367D2*
Y19740D1*
Y20027D2*
X6454Y20113D1*
X6511Y20142D1*
X6597D1*
X6655Y20113D1*
X6683Y20027D1*
Y19740D1*
X6868Y20343D2*
X6897Y20314D1*
X6926Y20343D1*
X6897Y20372D1*
X6868Y20343D1*
X6897Y20142D2*
Y19740D1*
X7427Y20056D2*
X7398Y20113D1*
X7312Y20142D1*
X7226D1*
X7140Y20113D1*
X7111Y20056D1*
X7140Y19999D1*
X7198Y19970D1*
X7341Y19941D1*
X7398Y19913D1*
X7427Y19855D1*
Y19826D1*
X7398Y19769D1*
X7312Y19740D1*
X7226D1*
X7140Y19769D1*
X7111Y19826D1*
X8195Y20343D2*
X8224Y20314D1*
X8253Y20343D1*
X8224Y20372D1*
X8195Y20343D1*
X8224Y20142D2*
Y19740D1*
X8754Y20056D2*
X8726Y20113D1*
X8639Y20142D1*
X8553D1*
X8467Y20113D1*
X8438Y20056D1*
X8467Y19999D1*
X8525Y19970D1*
X8668Y19941D1*
X8726Y19913D1*
X8754Y19855D1*
Y19826D1*
X8726Y19769D1*
X8639Y19740D1*
X8553D1*
X8467Y19769D1*
X8438Y19826D1*
X9609Y20343D2*
Y19855D1*
X9637Y19769D1*
X9695Y19740D1*
X9752D1*
X9523Y20142D2*
X9724D1*
X9937Y20343D2*
Y19740D1*
Y20027D2*
X10024Y20113D1*
X10081Y20142D1*
X10168D1*
X10225Y20113D1*
X10253Y20027D1*
Y19740D1*
X10438Y19970D2*
X10783D1*
Y20027D1*
X10754Y20085D1*
X10726Y20113D1*
X10668Y20142D1*
X10582D1*
X10525Y20113D1*
X10467Y20056D1*
X10438Y19970D1*
Y19913D1*
X10467Y19826D1*
X10525Y19769D1*
X10582Y19740D1*
X10668D1*
X10726Y19769D1*
X10783Y19826D1*
X11896Y20056D2*
X11838Y20113D1*
X11781Y20142D1*
X11695D1*
X11637Y20113D1*
X11580Y20056D1*
X11551Y19970D1*
Y19913D1*
X11580Y19826D1*
X11637Y19769D1*
X11695Y19740D1*
X11781D1*
X11838Y19769D1*
X11896Y19826D1*
X12081Y20343D2*
Y19740D1*
Y20027D2*
X12167Y20113D1*
X12225Y20142D1*
X12311D1*
X12368Y20113D1*
X12397Y20027D1*
Y19740D1*
X12725Y20142D2*
X12668Y20113D1*
X12611Y20056D1*
X12582Y19970D1*
Y19913D1*
X12611Y19826D1*
X12668Y19769D1*
X12725Y19740D1*
X12812D1*
X12869Y19769D1*
X12926Y19826D1*
X12956Y19913D1*
Y19970D1*
X12926Y20056D1*
X12869Y20113D1*
X12812Y20142D1*
X12725D1*
X13141Y20343D2*
X13169Y20314D1*
X13199Y20343D1*
X13169Y20372D1*
X13141Y20343D1*
X13169Y20142D2*
Y19740D1*
X13729Y20056D2*
X13671Y20113D1*
X13613Y20142D1*
X13528D1*
X13470Y20113D1*
X13413Y20056D1*
X13384Y19970D1*
Y19913D1*
X13413Y19826D1*
X13470Y19769D1*
X13528Y19740D1*
X13613D1*
X13671Y19769D1*
X13729Y19826D1*
X13914Y19970D2*
X14258D1*
Y20027D1*
X14230Y20085D1*
X14201Y20113D1*
X14143Y20142D1*
X14057D1*
X14000Y20113D1*
X13942Y20056D1*
X13914Y19970D1*
Y19913D1*
X13942Y19826D1*
X14000Y19769D1*
X14057Y19740D1*
X14143D1*
X14201Y19769D1*
X14258Y19826D1*
X15170Y20142D2*
X15113Y20113D1*
X15055Y20056D1*
X15027Y19970D1*
Y19913D1*
X15055Y19826D1*
X15113Y19769D1*
X15170Y19740D1*
X15256D1*
X15314Y19769D1*
X15371Y19826D1*
X15400Y19913D1*
Y19970D1*
X15371Y20056D1*
X15314Y20113D1*
X15256Y20142D1*
X15170D1*
X15815Y20343D2*
X15758D1*
X15700Y20314D1*
X15672Y20228D1*
Y19740D1*
X15585Y20142D2*
X15786D1*
X16985Y20257D2*
X16928Y20314D1*
X16842Y20343D1*
X16727D1*
X16641Y20314D1*
X16583Y20257D1*
Y20200D1*
X16612Y20142D1*
X16641Y20113D1*
X16698Y20085D1*
X16870Y20027D1*
X16928Y19999D1*
X16957Y19970D1*
X16985Y19913D1*
Y19826D1*
X16928Y19769D1*
X16842Y19740D1*
X16727D1*
X16641Y19769D1*
X16583Y19826D1*
X17257Y20343D2*
Y19855D1*
X17285Y19769D1*
X17343Y19740D1*
X17400D1*
X17171Y20142D2*
X17371D1*
X17585Y19970D2*
X17929D1*
Y20027D1*
X17901Y20085D1*
X17872Y20113D1*
X17815Y20142D1*
X17729D1*
X17671Y20113D1*
X17614Y20056D1*
X17585Y19970D1*
Y19913D1*
X17614Y19826D1*
X17671Y19769D1*
X17729Y19740D1*
X17815D1*
X17872Y19769D1*
X17929Y19826D1*
X18115Y20343D2*
X18143Y20314D1*
X18172Y20343D1*
X18143Y20372D1*
X18115Y20343D1*
X18143Y20142D2*
Y19740D1*
X18358Y20142D2*
Y19740D1*
Y20027D2*
X18444Y20113D1*
X18502Y20142D1*
X18587D1*
X18645Y20113D1*
X18673Y20027D1*
Y19740D1*
X19174Y20056D2*
X19146Y20113D1*
X19060Y20142D1*
X18973D1*
X18887Y20113D1*
X18859Y20056D1*
X18887Y19999D1*
X18945Y19970D1*
X19088Y19941D1*
X19146Y19913D1*
X19174Y19855D1*
Y19826D1*
X19146Y19769D1*
X19060Y19740D1*
X18973D1*
X18887Y19769D1*
X18859Y19826D1*
X19389Y20142D2*
X19360Y20113D1*
X19389Y20084D1*
X19417Y20113D1*
X19389Y20142D1*
X19417Y19769D2*
X19389Y19740D1*
X19360Y19769D1*
X19389Y19798D1*
X19417Y19769D1*
Y19712D1*
X19389Y19654D1*
X19360Y19625D1*
X20033Y20200D2*
X20005Y20257D1*
X19947Y20314D1*
X19890Y20343D1*
X19775D1*
X19717Y20314D1*
X19660Y20257D1*
X19631Y20200D1*
X19603Y20113D1*
Y19970D1*
X19631Y19884D1*
X19660Y19826D1*
X19717Y19769D1*
X19775Y19740D1*
X19890D1*
X19947Y19769D1*
X20005Y19826D1*
X20033Y19884D1*
Y19970D1*
X19890D1*
X20563Y20142D2*
Y19740D1*
Y20056D2*
X20506Y20113D1*
X20448Y20142D1*
X20362D1*
X20305Y20113D1*
X20248Y20056D1*
X20218Y19970D1*
Y19913D1*
X20248Y19826D1*
X20305Y19769D1*
X20362Y19740D1*
X20448D1*
X20506Y19769D1*
X20563Y19826D1*
X20834Y20343D2*
Y19855D1*
X20863Y19769D1*
X20920Y19740D1*
X20977D1*
X20748Y20142D2*
X20949D1*
X21163Y19970D2*
X21507D1*
Y20027D1*
X21478Y20085D1*
X21450Y20113D1*
X21392Y20142D1*
X21306D1*
X21249Y20113D1*
X21191Y20056D1*
X21163Y19970D1*
Y19913D1*
X21191Y19826D1*
X21249Y19769D1*
X21306Y19740D1*
X21392D1*
X21450Y19769D1*
X21507Y19826D1*
X27546Y13992D2*
X27517Y14050D1*
X27431Y14136D1*
X28034D1*
X27431Y14494D2*
X27460Y14408D1*
X27546Y14350D1*
X27689Y14321D1*
X27776D1*
X27919Y14350D1*
X28005Y14408D1*
X28034Y14494D1*
Y14551D1*
X28005Y14637D1*
X27919Y14694D1*
X27776Y14723D1*
X27689D1*
X27546Y14694D1*
X27460Y14637D1*
X27431Y14551D1*
Y14494D1*
X27546Y14694D2*
X27919Y14350D1*
X27431Y15081D2*
X27460Y14995D1*
X27546Y14937D1*
X27689Y14909D1*
X27776D1*
X27919Y14937D1*
X28005Y14995D1*
X28034Y15081D1*
Y15138D1*
X28005Y15224D1*
X27919Y15281D1*
X27776Y15310D1*
X27689D1*
X27546Y15281D1*
X27460Y15224D1*
X27431Y15138D1*
Y15081D1*
X27546Y15281D2*
X27919Y14937D1*
X27632Y15496D2*
X27919D1*
X28004Y15524D1*
X28034Y15582D1*
Y15668D1*
X28004Y15725D1*
X27919Y15811D1*
X27632D2*
X28034D1*
X27431Y15997D2*
X28034D1*
X27431Y16399D2*
X28034D1*
X27718Y15997D2*
Y16399D1*
X35569Y21755D2*
D109*
Y21774D1*
X35588Y21812D1*
X35607Y21831D1*
X35646Y21850D1*
X35722D1*
X35760Y21831D1*
X35779Y21812D1*
X35799Y21774D1*
Y21736D1*
X35779Y21697D1*
X35741Y21640D1*
X35550Y21449D1*
X35818D1*
X35960Y21487D2*
X35941Y21468D1*
X35960Y21449D1*
X35980Y21468D1*
X35960Y21487D1*
X36123Y21755D2*
Y21774D1*
X36142Y21812D1*
X36161Y21831D1*
X36199Y21850D1*
X36276D1*
X36314Y21831D1*
X36333Y21812D1*
X36352Y21774D1*
Y21736D1*
X36333Y21697D1*
X36295Y21640D1*
X36103Y21449D1*
X36371D1*
X36495Y21717D2*
Y21525D1*
X36514Y21468D1*
X36552Y21449D1*
X36610D1*
X36648Y21468D1*
X36705Y21525D1*
Y21717D2*
Y21449D1*
X36829Y21851D2*
Y21449D1*
X37097Y21851D2*
Y21449D1*
X36829Y21659D2*
X37097D1*
M02*
