G04 DipTrace 2.4.0.2*
%INBottomSilk.gbr*%
%MOIN*%
%ADD10C,0.0098*%
%ADD56C,0.0077*%
%FSLAX44Y44*%
G04*
G70*
G90*
G75*
G01*
%LNBotSilk*%
%LPD*%
X15776Y6321D2*
D10*
Y5809D1*
X37526Y6321D2*
Y5809D1*
X59151Y6321D2*
Y5809D1*
X5209Y14262D2*
X5218Y14522D1*
X5245Y14782D1*
X5290Y15038D1*
X5353Y15291D1*
X5434Y15539D1*
X5531Y15780D1*
X5646Y16014D1*
X5776Y16240D1*
X5921Y16456D1*
X6082Y16661D1*
X6256Y16855D1*
X6443Y17036D1*
X6643Y17203D1*
X6854Y17356D1*
X7074Y17494D1*
X7304Y17616D1*
X7542Y17722D1*
X7787Y17811D1*
X8037Y17883D1*
X8292Y17937D1*
X8550Y17974D1*
X8810Y17992D1*
X9070D1*
X9330Y17974D1*
X9588Y17937D1*
X9843Y17883D1*
X10093Y17811D1*
X10338Y17722D1*
X10576Y17616D1*
X10806Y17494D1*
X11026Y17356D1*
X11237Y17203D1*
X11437Y17036D1*
X11624Y16855D1*
X11798Y16661D1*
X11959Y16456D1*
X12104Y16240D1*
X12234Y16014D1*
X12349Y15780D1*
X12446Y15539D1*
X12527Y15291D1*
X12590Y15038D1*
X12635Y14782D1*
X12662Y14522D1*
X12671Y14262D1*
X12662Y14002D1*
X12635Y13743D1*
X12590Y13486D1*
X12527Y13233D1*
X12446Y12986D1*
X12349Y12744D1*
X12234Y12510D1*
X12104Y12284D1*
X11959Y12069D1*
X11798Y11863D1*
X11624Y11670D1*
X11437Y11489D1*
X11237Y11321D1*
X11026Y11168D1*
X10806Y11030D1*
X10576Y10908D1*
X10338Y10802D1*
X10093Y10713D1*
X9843Y10641D1*
X9588Y10587D1*
X9330Y10551D1*
X9070Y10532D1*
X8810D1*
X8550Y10551D1*
X8292Y10587D1*
X8037Y10641D1*
X7787Y10713D1*
X7542Y10802D1*
X7304Y10908D1*
X7074Y11030D1*
X6854Y11168D1*
X6643Y11321D1*
X6443Y11489D1*
X6256Y11670D1*
X6082Y11863D1*
X5921Y12069D1*
X5776Y12284D1*
X5646Y12510D1*
X5531Y12744D1*
X5434Y12986D1*
X5353Y13233D1*
X5290Y13486D1*
X5245Y13743D1*
X5218Y14002D1*
X5209Y14262D1*
X8921Y13244D2*
Y15244D1*
X9421Y14744D2*
X8921Y15244D1*
X8421Y14744D1*
X13440Y14262D2*
X13449Y14522D1*
X13476Y14782D1*
X13522Y15038D1*
X13585Y15291D1*
X13665Y15539D1*
X13763Y15780D1*
X13877Y16014D1*
X14007Y16240D1*
X14153Y16456D1*
X14313Y16661D1*
X14487Y16855D1*
X14675Y17036D1*
X14874Y17203D1*
X15085Y17356D1*
X15306Y17494D1*
X15536Y17616D1*
X15774Y17722D1*
X16018Y17811D1*
X16269Y17883D1*
X16523Y17937D1*
X16781Y17974D1*
X17041Y17992D1*
X17301D1*
X17561Y17974D1*
X17819Y17937D1*
X18074Y17883D1*
X18324Y17811D1*
X18569Y17722D1*
X18807Y17616D1*
X19037Y17494D1*
X19258Y17356D1*
X19468Y17203D1*
X19668Y17036D1*
X19855Y16855D1*
X20030Y16661D1*
X20190Y16456D1*
X20336Y16240D1*
X20466Y16014D1*
X20580Y15780D1*
X20677Y15539D1*
X20758Y15291D1*
X20821Y15038D1*
X20866Y14782D1*
X20893Y14522D1*
X20903Y14262D1*
X20893Y14002D1*
X20866Y13743D1*
X20821Y13486D1*
X20758Y13233D1*
X20677Y12986D1*
X20580Y12744D1*
X20466Y12510D1*
X20336Y12284D1*
X20190Y12069D1*
X20030Y11863D1*
X19855Y11670D1*
X19668Y11489D1*
X19468Y11321D1*
X19258Y11168D1*
X19037Y11030D1*
X18807Y10908D1*
X18569Y10802D1*
X18324Y10713D1*
X18074Y10641D1*
X17819Y10587D1*
X17561Y10551D1*
X17301Y10532D1*
X17041D1*
X16781Y10551D1*
X16523Y10587D1*
X16269Y10641D1*
X16018Y10713D1*
X15774Y10802D1*
X15536Y10908D1*
X15306Y11030D1*
X15085Y11168D1*
X14874Y11321D1*
X14675Y11489D1*
X14487Y11670D1*
X14313Y11863D1*
X14153Y12069D1*
X14007Y12284D1*
X13877Y12510D1*
X13763Y12744D1*
X13665Y12986D1*
X13585Y13233D1*
X13522Y13486D1*
X13476Y13743D1*
X13449Y14002D1*
X13440Y14262D1*
X17153Y13244D2*
Y15244D1*
X17653Y14744D2*
X17153Y15244D1*
X16653Y14744D1*
X21745Y14262D2*
X21754Y14522D1*
X21781Y14782D1*
X21827Y15038D1*
X21890Y15291D1*
X21970Y15539D1*
X22068Y15780D1*
X22182Y16014D1*
X22312Y16240D1*
X22458Y16456D1*
X22618Y16661D1*
X22792Y16855D1*
X22980Y17036D1*
X23179Y17203D1*
X23390Y17356D1*
X23611Y17494D1*
X23841Y17616D1*
X24078Y17722D1*
X24323Y17811D1*
X24574Y17883D1*
X24828Y17937D1*
X25086Y17974D1*
X25346Y17992D1*
X25606D1*
X25866Y17974D1*
X26124Y17937D1*
X26379Y17883D1*
X26629Y17811D1*
X26874Y17722D1*
X27112Y17616D1*
X27342Y17494D1*
X27563Y17356D1*
X27773Y17203D1*
X27973Y17036D1*
X28160Y16855D1*
X28335Y16661D1*
X28495Y16456D1*
X28641Y16240D1*
X28771Y16014D1*
X28885Y15780D1*
X28982Y15539D1*
X29063Y15291D1*
X29126Y15038D1*
X29171Y14782D1*
X29198Y14522D1*
X29207Y14262D1*
X29198Y14002D1*
X29171Y13743D1*
X29126Y13486D1*
X29063Y13233D1*
X28982Y12986D1*
X28885Y12744D1*
X28771Y12510D1*
X28641Y12284D1*
X28495Y12069D1*
X28335Y11863D1*
X28160Y11670D1*
X27973Y11489D1*
X27773Y11321D1*
X27563Y11168D1*
X27342Y11030D1*
X27112Y10908D1*
X26874Y10802D1*
X26629Y10713D1*
X26379Y10641D1*
X26124Y10587D1*
X25866Y10551D1*
X25606Y10532D1*
X25346D1*
X25086Y10551D1*
X24828Y10587D1*
X24574Y10641D1*
X24323Y10713D1*
X24078Y10802D1*
X23841Y10908D1*
X23611Y11030D1*
X23390Y11168D1*
X23179Y11321D1*
X22980Y11489D1*
X22792Y11670D1*
X22618Y11863D1*
X22458Y12069D1*
X22312Y12284D1*
X22182Y12510D1*
X22068Y12744D1*
X21970Y12986D1*
X21890Y13233D1*
X21827Y13486D1*
X21781Y13743D1*
X21754Y14002D1*
X21745Y14262D1*
X25458Y13244D2*
Y15244D1*
X25958Y14744D2*
X25458Y15244D1*
X24958Y14744D1*
X30045Y14262D2*
X30054Y14522D1*
X30081Y14782D1*
X30127Y15038D1*
X30190Y15291D1*
X30270Y15539D1*
X30368Y15780D1*
X30482Y16014D1*
X30612Y16240D1*
X30758Y16456D1*
X30918Y16661D1*
X31092Y16855D1*
X31280Y17036D1*
X31479Y17203D1*
X31690Y17356D1*
X31911Y17494D1*
X32141Y17616D1*
X32379Y17722D1*
X32623Y17811D1*
X32874Y17883D1*
X33128Y17937D1*
X33386Y17974D1*
X33646Y17992D1*
X33906D1*
X34166Y17974D1*
X34424Y17937D1*
X34679Y17883D1*
X34929Y17811D1*
X35174Y17722D1*
X35412Y17616D1*
X35642Y17494D1*
X35863Y17356D1*
X36073Y17203D1*
X36273Y17036D1*
X36460Y16855D1*
X36635Y16661D1*
X36795Y16456D1*
X36941Y16240D1*
X37071Y16014D1*
X37185Y15780D1*
X37282Y15539D1*
X37363Y15291D1*
X37426Y15038D1*
X37471Y14782D1*
X37498Y14522D1*
X37508Y14262D1*
X37498Y14002D1*
X37471Y13743D1*
X37426Y13486D1*
X37363Y13233D1*
X37282Y12986D1*
X37185Y12744D1*
X37071Y12510D1*
X36941Y12284D1*
X36795Y12069D1*
X36635Y11863D1*
X36460Y11670D1*
X36273Y11489D1*
X36073Y11321D1*
X35863Y11168D1*
X35642Y11030D1*
X35412Y10908D1*
X35174Y10802D1*
X34929Y10713D1*
X34679Y10641D1*
X34424Y10587D1*
X34166Y10551D1*
X33906Y10532D1*
X33646D1*
X33386Y10551D1*
X33128Y10587D1*
X32874Y10641D1*
X32623Y10713D1*
X32379Y10802D1*
X32141Y10908D1*
X31911Y11030D1*
X31690Y11168D1*
X31479Y11321D1*
X31280Y11489D1*
X31092Y11670D1*
X30918Y11863D1*
X30758Y12069D1*
X30612Y12284D1*
X30482Y12510D1*
X30368Y12744D1*
X30270Y12986D1*
X30190Y13233D1*
X30127Y13486D1*
X30081Y13743D1*
X30054Y14002D1*
X30045Y14262D1*
X33758Y13244D2*
Y15244D1*
X34258Y14744D2*
X33758Y15244D1*
X33258Y14744D1*
X38408Y14262D2*
X38417Y14522D1*
X38444Y14782D1*
X38489Y15038D1*
X38552Y15291D1*
X38633Y15539D1*
X38730Y15780D1*
X38844Y16014D1*
X38974Y16240D1*
X39120Y16456D1*
X39280Y16661D1*
X39455Y16855D1*
X39642Y17036D1*
X39842Y17203D1*
X40052Y17356D1*
X40273Y17494D1*
X40503Y17616D1*
X40741Y17722D1*
X40986Y17811D1*
X41236Y17883D1*
X41491Y17937D1*
X41749Y17974D1*
X42009Y17992D1*
X42269D1*
X42529Y17974D1*
X42787Y17937D1*
X43041Y17883D1*
X43292Y17811D1*
X43537Y17722D1*
X43774Y17616D1*
X44004Y17494D1*
X44225Y17356D1*
X44436Y17203D1*
X44635Y17036D1*
X44823Y16855D1*
X44997Y16661D1*
X45157Y16456D1*
X45303Y16240D1*
X45433Y16014D1*
X45547Y15780D1*
X45645Y15539D1*
X45725Y15291D1*
X45788Y15038D1*
X45834Y14782D1*
X45861Y14522D1*
X45870Y14262D1*
X45861Y14002D1*
X45834Y13743D1*
X45788Y13486D1*
X45725Y13233D1*
X45645Y12986D1*
X45547Y12744D1*
X45433Y12510D1*
X45303Y12284D1*
X45157Y12069D1*
X44997Y11863D1*
X44823Y11670D1*
X44635Y11489D1*
X44436Y11321D1*
X44225Y11168D1*
X44004Y11030D1*
X43774Y10908D1*
X43537Y10802D1*
X43292Y10713D1*
X43041Y10641D1*
X42787Y10587D1*
X42529Y10551D1*
X42269Y10532D1*
X42009D1*
X41749Y10551D1*
X41491Y10587D1*
X41236Y10641D1*
X40986Y10713D1*
X40741Y10802D1*
X40503Y10908D1*
X40273Y11030D1*
X40052Y11168D1*
X39842Y11321D1*
X39642Y11489D1*
X39455Y11670D1*
X39280Y11863D1*
X39120Y12069D1*
X38974Y12284D1*
X38844Y12510D1*
X38730Y12744D1*
X38633Y12986D1*
X38552Y13233D1*
X38489Y13486D1*
X38444Y13743D1*
X38417Y14002D1*
X38408Y14262D1*
X42120Y13244D2*
Y15244D1*
X42620Y14744D2*
X42120Y15244D1*
X41620Y14744D1*
X46645Y14262D2*
X46654Y14522D1*
X46681Y14782D1*
X46727Y15038D1*
X46790Y15291D1*
X46870Y15539D1*
X46968Y15780D1*
X47082Y16014D1*
X47212Y16240D1*
X47358Y16456D1*
X47518Y16661D1*
X47692Y16855D1*
X47880Y17036D1*
X48079Y17203D1*
X48290Y17356D1*
X48511Y17494D1*
X48741Y17616D1*
X48979Y17722D1*
X49223Y17811D1*
X49474Y17883D1*
X49728Y17937D1*
X49986Y17974D1*
X50246Y17992D1*
X50506D1*
X50766Y17974D1*
X51024Y17937D1*
X51279Y17883D1*
X51529Y17811D1*
X51774Y17722D1*
X52012Y17616D1*
X52242Y17494D1*
X52463Y17356D1*
X52673Y17203D1*
X52873Y17036D1*
X53060Y16855D1*
X53235Y16661D1*
X53395Y16456D1*
X53541Y16240D1*
X53671Y16014D1*
X53785Y15780D1*
X53882Y15539D1*
X53963Y15291D1*
X54026Y15038D1*
X54071Y14782D1*
X54098Y14522D1*
X54108Y14262D1*
X54098Y14002D1*
X54071Y13743D1*
X54026Y13486D1*
X53963Y13233D1*
X53882Y12986D1*
X53785Y12744D1*
X53671Y12510D1*
X53541Y12284D1*
X53395Y12069D1*
X53235Y11863D1*
X53060Y11670D1*
X52873Y11489D1*
X52673Y11321D1*
X52463Y11168D1*
X52242Y11030D1*
X52012Y10908D1*
X51774Y10802D1*
X51529Y10713D1*
X51279Y10641D1*
X51024Y10587D1*
X50766Y10551D1*
X50506Y10532D1*
X50246D1*
X49986Y10551D1*
X49728Y10587D1*
X49474Y10641D1*
X49223Y10713D1*
X48979Y10802D1*
X48741Y10908D1*
X48511Y11030D1*
X48290Y11168D1*
X48079Y11321D1*
X47880Y11489D1*
X47692Y11670D1*
X47518Y11863D1*
X47358Y12069D1*
X47212Y12284D1*
X47082Y12510D1*
X46968Y12744D1*
X46870Y12986D1*
X46790Y13233D1*
X46727Y13486D1*
X46681Y13743D1*
X46654Y14002D1*
X46645Y14262D1*
X50358Y13244D2*
Y15244D1*
X50858Y14744D2*
X50358Y15244D1*
X49858Y14744D1*
X54883Y14262D2*
X54892Y14522D1*
X54919Y14782D1*
X54964Y15038D1*
X55027Y15291D1*
X55108Y15539D1*
X55205Y15780D1*
X55319Y16014D1*
X55449Y16240D1*
X55595Y16456D1*
X55755Y16661D1*
X55930Y16855D1*
X56117Y17036D1*
X56317Y17203D1*
X56527Y17356D1*
X56748Y17494D1*
X56978Y17616D1*
X57216Y17722D1*
X57461Y17811D1*
X57711Y17883D1*
X57966Y17937D1*
X58224Y17974D1*
X58484Y17992D1*
X58744D1*
X59004Y17974D1*
X59262Y17937D1*
X59516Y17883D1*
X59767Y17811D1*
X60012Y17722D1*
X60249Y17616D1*
X60479Y17494D1*
X60700Y17356D1*
X60911Y17203D1*
X61110Y17036D1*
X61298Y16855D1*
X61472Y16661D1*
X61632Y16456D1*
X61778Y16240D1*
X61908Y16014D1*
X62022Y15780D1*
X62120Y15539D1*
X62200Y15291D1*
X62263Y15038D1*
X62309Y14782D1*
X62336Y14522D1*
X62345Y14262D1*
X62336Y14002D1*
X62309Y13743D1*
X62263Y13486D1*
X62200Y13233D1*
X62120Y12986D1*
X62022Y12744D1*
X61908Y12510D1*
X61778Y12284D1*
X61632Y12069D1*
X61472Y11863D1*
X61298Y11670D1*
X61110Y11489D1*
X60911Y11321D1*
X60700Y11168D1*
X60479Y11030D1*
X60249Y10908D1*
X60012Y10802D1*
X59767Y10713D1*
X59516Y10641D1*
X59262Y10587D1*
X59004Y10551D1*
X58744Y10532D1*
X58484D1*
X58224Y10551D1*
X57966Y10587D1*
X57711Y10641D1*
X57461Y10713D1*
X57216Y10802D1*
X56978Y10908D1*
X56748Y11030D1*
X56527Y11168D1*
X56317Y11321D1*
X56117Y11489D1*
X55930Y11670D1*
X55755Y11863D1*
X55595Y12069D1*
X55449Y12284D1*
X55319Y12510D1*
X55205Y12744D1*
X55108Y12986D1*
X55027Y13233D1*
X54964Y13486D1*
X54919Y13743D1*
X54892Y14002D1*
X54883Y14262D1*
X58595Y13244D2*
Y15244D1*
X59095Y14744D2*
X58595Y15244D1*
X58095Y14744D1*
X63228Y14308D2*
X63237Y14568D1*
X63264Y14827D1*
X63309Y15084D1*
X63372Y15337D1*
X63453Y15584D1*
X63550Y15826D1*
X63664Y16060D1*
X63794Y16286D1*
X63940Y16502D1*
X64100Y16707D1*
X64275Y16900D1*
X64462Y17081D1*
X64662Y17249D1*
X64872Y17402D1*
X65093Y17540D1*
X65323Y17662D1*
X65561Y17768D1*
X65806Y17857D1*
X66056Y17929D1*
X66311Y17983D1*
X66569Y18020D1*
X66829Y18038D1*
X67089D1*
X67349Y18020D1*
X67607Y17983D1*
X67861Y17929D1*
X68112Y17857D1*
X68357Y17768D1*
X68594Y17662D1*
X68824Y17540D1*
X69045Y17402D1*
X69256Y17249D1*
X69455Y17081D1*
X69643Y16900D1*
X69817Y16707D1*
X69977Y16502D1*
X70123Y16286D1*
X70253Y16060D1*
X70367Y15826D1*
X70465Y15584D1*
X70545Y15337D1*
X70608Y15084D1*
X70654Y14827D1*
X70681Y14568D1*
X70690Y14308D1*
X70681Y14048D1*
X70654Y13789D1*
X70608Y13532D1*
X70545Y13279D1*
X70465Y13032D1*
X70367Y12790D1*
X70253Y12556D1*
X70123Y12330D1*
X69977Y12114D1*
X69817Y11909D1*
X69643Y11716D1*
X69455Y11535D1*
X69256Y11367D1*
X69045Y11214D1*
X68824Y11076D1*
X68594Y10954D1*
X68357Y10848D1*
X68112Y10759D1*
X67861Y10687D1*
X67607Y10633D1*
X67349Y10597D1*
X67089Y10578D1*
X66829D1*
X66569Y10597D1*
X66311Y10633D1*
X66056Y10687D1*
X65806Y10759D1*
X65561Y10848D1*
X65323Y10954D1*
X65093Y11076D1*
X64872Y11214D1*
X64662Y11367D1*
X64462Y11535D1*
X64275Y11716D1*
X64100Y11909D1*
X63940Y12114D1*
X63794Y12330D1*
X63664Y12556D1*
X63550Y12790D1*
X63453Y13032D1*
X63372Y13279D1*
X63309Y13532D1*
X63264Y13789D1*
X63237Y14048D1*
X63228Y14308D1*
X66940Y13290D2*
Y15290D1*
X67440Y14790D2*
X66940Y15290D1*
X66440Y14790D1*
X66920Y15244D2*
X66420Y14744D1*
X16443Y6973D2*
D56*
X16467Y7021D1*
X16515Y7069D1*
X16562Y7093D1*
X16658D1*
X16706Y7069D1*
X16754Y7021D1*
X16778Y6973D1*
X16802Y6901D1*
Y6781D1*
X16778Y6710D1*
X16754Y6662D1*
X16706Y6614D1*
X16658Y6590D1*
X16562D1*
X16515Y6614D1*
X16467Y6662D1*
X16443Y6710D1*
X16289Y6996D2*
X16241Y7021D1*
X16169Y7092D1*
Y6590D1*
X38300Y6973D2*
X38324Y7021D1*
X38372Y7069D1*
X38420Y7093D1*
X38515D1*
X38564Y7069D1*
X38611Y7021D1*
X38635Y6973D1*
X38659Y6901D1*
Y6781D1*
X38635Y6710D1*
X38611Y6662D1*
X38564Y6614D1*
X38515Y6590D1*
X38420D1*
X38372Y6614D1*
X38324Y6662D1*
X38300Y6710D1*
X38122Y6973D2*
Y6996D1*
X38098Y7044D1*
X38074Y7068D1*
X38026Y7092D1*
X37931D1*
X37883Y7068D1*
X37859Y7044D1*
X37835Y6996D1*
Y6949D1*
X37859Y6901D1*
X37907Y6829D1*
X38146Y6590D1*
X37811D1*
X59925Y6973D2*
X59949Y7021D1*
X59997Y7069D1*
X60045Y7093D1*
X60140D1*
X60189Y7069D1*
X60236Y7021D1*
X60260Y6973D1*
X60284Y6901D1*
Y6781D1*
X60260Y6710D1*
X60236Y6662D1*
X60189Y6614D1*
X60140Y6590D1*
X60045D1*
X59997Y6614D1*
X59949Y6662D1*
X59925Y6710D1*
X59723Y7092D2*
X59460D1*
X59604Y6901D1*
X59532D1*
X59484Y6877D1*
X59460Y6853D1*
X59436Y6781D1*
Y6734D1*
X59460Y6662D1*
X59508Y6614D1*
X59580Y6590D1*
X59652D1*
X59723Y6614D1*
X59747Y6638D1*
X59771Y6686D1*
X8268Y18726D2*
X8077Y18224D1*
X7886Y18726D1*
X7732Y18630D2*
X7683Y18654D1*
X7612Y18726D1*
Y18224D1*
X16607Y18726D2*
X16416Y18224D1*
X16225Y18726D1*
X16046Y18606D2*
Y18630D1*
X16022Y18678D1*
X15998Y18702D1*
X15950Y18726D1*
X15855D1*
X15807Y18702D1*
X15783Y18678D1*
X15759Y18630D1*
Y18583D1*
X15783Y18535D1*
X15831Y18463D1*
X16070Y18224D1*
X15735D1*
X24912Y18726D2*
X24721Y18224D1*
X24530Y18726D1*
X24327D2*
X24065D1*
X24208Y18535D1*
X24136D1*
X24088Y18511D1*
X24065Y18487D1*
X24040Y18415D1*
Y18368D1*
X24065Y18296D1*
X24112Y18248D1*
X24184Y18224D1*
X24256D1*
X24327Y18248D1*
X24351Y18272D1*
X24375Y18320D1*
X33224Y18726D2*
X33033Y18224D1*
X32842Y18726D1*
X32448Y18224D2*
Y18726D1*
X32687Y18391D1*
X32328D1*
X41825Y18726D2*
X41633Y18224D1*
X41442Y18726D1*
X41001D2*
X41240D1*
X41263Y18511D1*
X41240Y18535D1*
X41168Y18559D1*
X41097D1*
X41025Y18535D1*
X40977Y18487D1*
X40953Y18415D1*
Y18368D1*
X40977Y18296D1*
X41025Y18248D1*
X41097Y18224D1*
X41168D1*
X41240Y18248D1*
X41263Y18272D1*
X41288Y18320D1*
X50050Y18726D2*
X49859Y18224D1*
X49668Y18726D1*
X49226Y18654D2*
X49250Y18702D1*
X49322Y18726D1*
X49369D1*
X49441Y18702D1*
X49489Y18630D1*
X49513Y18511D1*
Y18391D1*
X49489Y18296D1*
X49441Y18248D1*
X49369Y18224D1*
X49346D1*
X49274Y18248D1*
X49226Y18296D1*
X49203Y18368D1*
Y18391D1*
X49226Y18463D1*
X49274Y18511D1*
X49346Y18535D1*
X49369D1*
X49441Y18511D1*
X49489Y18463D1*
X49513Y18391D1*
X58300Y18726D2*
X58108Y18224D1*
X57917Y18726D1*
X57667Y18224D2*
X57428Y18726D1*
X57763D1*
X67394Y18772D2*
X67203Y18270D1*
X67012Y18772D1*
X66738D2*
X66809Y18748D1*
X66834Y18700D1*
Y18652D1*
X66809Y18605D1*
X66762Y18580D1*
X66666Y18557D1*
X66594Y18533D1*
X66547Y18485D1*
X66523Y18437D1*
Y18365D1*
X66547Y18318D1*
X66571Y18294D1*
X66643Y18270D1*
X66738D1*
X66809Y18294D1*
X66834Y18318D1*
X66858Y18365D1*
Y18437D1*
X66834Y18485D1*
X66786Y18533D1*
X66714Y18557D1*
X66619Y18580D1*
X66571Y18605D1*
X66547Y18652D1*
Y18700D1*
X66571Y18748D1*
X66643Y18772D1*
X66738D1*
M02*
