G04 DipTrace 2.4.0.2*
%INBottom.gbr*%
%MOIN*%
%ADD13C,0.013*%
%ADD14C,0.04*%
%ADD15C,0.02*%
%ADD16C,0.05*%
%ADD17C,0.025*%
%ADD20R,0.0512X0.0591*%
%ADD21R,0.0638X0.0638*%
%ADD22C,0.0638*%
%ADD23C,0.2187*%
%ADD24C,0.06*%
%ADD25C,0.06*%
%ADD29C,0.0591*%
%FSLAX44Y44*%
G04*
G70*
G90*
G75*
G01*
%LNBottom*%
%LPD*%
X51690Y7690D2*
D13*
X61752D1*
X46690Y7065D2*
D14*
X60313D1*
Y6065D1*
X46690Y7065D2*
X38688D1*
Y6065D1*
X16938D2*
Y7065D1*
X38688D1*
X39134Y5315D2*
D15*
X38315D1*
X37940Y5690D1*
Y6065D1*
X37634Y5384D2*
X37940Y5690D1*
X17384Y5315D2*
X16543D1*
X16293Y5565D1*
Y5587D1*
X16190Y5690D1*
Y6065D1*
X15884Y5440D2*
X16065D1*
X16190Y5565D1*
X16293D1*
X60759Y5315D2*
X60065D1*
X59690Y5690D1*
Y5940D1*
X59565Y6065D1*
X59259Y5384D2*
X59565Y5690D1*
X59690D1*
X59259Y9440D2*
X47690D1*
X37690D1*
X15940D1*
X57440Y5440D2*
D13*
X40134D1*
X59759Y8127D2*
X50690D1*
X38128D1*
X16378D1*
X35815Y5440D2*
X25440D1*
X24190Y6690D1*
X22440D1*
X21190Y5440D1*
X18440D1*
X61752Y8565D2*
X49690D1*
X40127D2*
X49690D1*
X18377D2*
X40127D1*
X61259Y9002D2*
X48690D1*
X39634D1*
X17884D1*
X8940Y23190D2*
D16*
X17190D1*
X25440D1*
Y21690D1*
X27315Y19815D1*
X31690D1*
X33690Y21815D1*
Y23190D1*
X42190D1*
Y21690D1*
X44190Y19690D1*
X48190D1*
X50315Y21815D1*
Y23190D1*
X58565D1*
X66940D2*
X58565D1*
X52690Y4690D2*
X66190D1*
X70815Y9315D1*
Y18940D1*
X70065Y19690D1*
X69128D1*
X68065Y20753D1*
Y22190D1*
X67065Y23190D1*
X66940D1*
D14*
X51690Y7690D3*
X61752D3*
X46690Y7065D3*
D3*
X38688D3*
X16938D3*
X60313D3*
X39134Y5315D3*
X37634Y5384D3*
X17384Y5315D3*
X15884Y5440D3*
X60759Y5315D3*
X59259Y5384D3*
Y9440D3*
X47690D3*
X37690D3*
X15940D3*
X57440Y5440D3*
X40134D3*
X59759Y8127D3*
X50690D3*
X38128D3*
X16378D3*
X35815Y5440D3*
X18440D3*
X61752Y8565D3*
X49690D3*
X40127D3*
X18377D3*
X40127D3*
X61259Y9002D3*
X48690D3*
X39634D3*
X17884D3*
X4340Y23816D2*
D17*
X8811D1*
X9072D2*
X17061D1*
X17322D2*
X25311D1*
X25572D2*
X33561D1*
X33822D2*
X42061D1*
X42322D2*
X50186D1*
X50447D2*
X58436D1*
X58697D2*
X66811D1*
X67072D2*
X71542D1*
X4340Y23568D2*
X8405D1*
X25975D2*
X33155D1*
X42725D2*
X49780D1*
X67541D2*
X71542D1*
X4340Y23319D2*
X8292D1*
X26088D2*
X33042D1*
X42838D2*
X49667D1*
X67787D2*
X71542D1*
X4340Y23070D2*
X8292D1*
X26088D2*
X33042D1*
X42838D2*
X49667D1*
X68037D2*
X71542D1*
X4340Y22822D2*
X8397D1*
X26049D2*
X33081D1*
X42799D2*
X49706D1*
X68287D2*
X71542D1*
X4340Y22573D2*
X8765D1*
X9115D2*
X17015D1*
X17365D2*
X24831D1*
X26049D2*
X33081D1*
X34299D2*
X41581D1*
X42799D2*
X49706D1*
X50924D2*
X58390D1*
X58740D2*
X66765D1*
X68533D2*
X71542D1*
X4340Y22324D2*
X6136D1*
X6246D2*
X11886D1*
X11996D2*
X14386D1*
X14496D2*
X20011D1*
X20121D2*
X22761D1*
X22871D2*
X24831D1*
X26049D2*
X28136D1*
X28246D2*
X31011D1*
X31121D2*
X33081D1*
X34299D2*
X36386D1*
X36496D2*
X39511D1*
X39621D2*
X41581D1*
X42799D2*
X44636D1*
X44746D2*
X47761D1*
X47871D2*
X49706D1*
X50924D2*
X52886D1*
X52996D2*
X55886D1*
X55996D2*
X61136D1*
X61246D2*
X64261D1*
X64371D2*
X67077D1*
X68658D2*
X69511D1*
X69621D2*
X71542D1*
X4340Y22075D2*
X5659D1*
X6721D2*
X11409D1*
X12471D2*
X13909D1*
X14971D2*
X19534D1*
X20596D2*
X22284D1*
X23346D2*
X24831D1*
X26049D2*
X27659D1*
X28721D2*
X30534D1*
X31596D2*
X33081D1*
X34299D2*
X35909D1*
X36971D2*
X39034D1*
X40096D2*
X41581D1*
X42799D2*
X44159D1*
X45221D2*
X47284D1*
X48346D2*
X49706D1*
X50924D2*
X52409D1*
X53471D2*
X55409D1*
X56471D2*
X60659D1*
X61721D2*
X63784D1*
X64846D2*
X67327D1*
X68674D2*
X69034D1*
X70096D2*
X71542D1*
X4340Y21827D2*
X5546D1*
X6834D2*
X11296D1*
X12584D2*
X13796D1*
X15084D2*
X19421D1*
X20709D2*
X22171D1*
X23459D2*
X24831D1*
X26154D2*
X27546D1*
X28834D2*
X30421D1*
X31709D2*
X32851D1*
X34299D2*
X35796D1*
X37084D2*
X38921D1*
X40209D2*
X41581D1*
X42904D2*
X44046D1*
X45334D2*
X47171D1*
X48459D2*
X49476D1*
X50924D2*
X52296D1*
X53584D2*
X55296D1*
X56584D2*
X60546D1*
X61834D2*
X63671D1*
X64959D2*
X67456D1*
X68674D2*
X68921D1*
X70209D2*
X71542D1*
X4340Y21578D2*
X5542D1*
X6838D2*
X11292D1*
X12588D2*
X13792D1*
X15088D2*
X19417D1*
X20713D2*
X22167D1*
X23463D2*
X24843D1*
X26404D2*
X27542D1*
X28838D2*
X30417D1*
X31713D2*
X32601D1*
X34248D2*
X35792D1*
X37088D2*
X38917D1*
X40213D2*
X41593D1*
X43154D2*
X44042D1*
X45338D2*
X47167D1*
X48463D2*
X49226D1*
X50873D2*
X52292D1*
X53588D2*
X55292D1*
X56588D2*
X60542D1*
X61838D2*
X63667D1*
X64963D2*
X67456D1*
X68674D2*
X68917D1*
X70213D2*
X71542D1*
X4340Y21329D2*
X5644D1*
X6736D2*
X11394D1*
X12486D2*
X13894D1*
X14986D2*
X19519D1*
X20611D2*
X22269D1*
X23361D2*
X24956D1*
X26654D2*
X27644D1*
X28736D2*
X30519D1*
X31611D2*
X32351D1*
X34057D2*
X35894D1*
X36986D2*
X39019D1*
X40111D2*
X41706D1*
X43404D2*
X44144D1*
X45236D2*
X47269D1*
X48361D2*
X48976D1*
X50682D2*
X52394D1*
X53486D2*
X55394D1*
X56486D2*
X60644D1*
X61736D2*
X63769D1*
X64861D2*
X67456D1*
X68674D2*
X69019D1*
X70111D2*
X71542D1*
X4340Y21081D2*
X5987D1*
X6393D2*
X11737D1*
X12143D2*
X14237D1*
X14643D2*
X19862D1*
X20268D2*
X22612D1*
X23018D2*
X25198D1*
X26901D2*
X27987D1*
X28393D2*
X30862D1*
X31268D2*
X32104D1*
X33807D2*
X36237D1*
X36643D2*
X39362D1*
X39768D2*
X41948D1*
X43651D2*
X44487D1*
X44893D2*
X47612D1*
X48018D2*
X48729D1*
X50432D2*
X52737D1*
X53143D2*
X55737D1*
X56143D2*
X60987D1*
X61393D2*
X64112D1*
X64518D2*
X67456D1*
X68674D2*
X69362D1*
X69768D2*
X71542D1*
X4340Y20832D2*
X25444D1*
X27151D2*
X31854D1*
X33561D2*
X42194D1*
X43901D2*
X48479D1*
X50186D2*
X67456D1*
X68838D2*
X71542D1*
X4340Y20583D2*
X25694D1*
X27401D2*
X31604D1*
X33311D2*
X42444D1*
X44151D2*
X48229D1*
X49936D2*
X67479D1*
X69088D2*
X71542D1*
X4340Y20335D2*
X25944D1*
X33061D2*
X42694D1*
X44397D2*
X47983D1*
X49686D2*
X67632D1*
X69334D2*
X71542D1*
X4340Y20086D2*
X26190D1*
X32815D2*
X42940D1*
X49440D2*
X67878D1*
X70522D2*
X71542D1*
X4340Y19837D2*
X26440D1*
X32565D2*
X43190D1*
X49190D2*
X68128D1*
X70772D2*
X71542D1*
X4340Y19589D2*
X8421D1*
X9459D2*
X16671D1*
X17709D2*
X24921D1*
X25959D2*
X26690D1*
X32315D2*
X33171D1*
X34209D2*
X41671D1*
X42709D2*
X43440D1*
X48940D2*
X49796D1*
X50834D2*
X58046D1*
X59084D2*
X66421D1*
X67459D2*
X68378D1*
X71018D2*
X71542D1*
X4340Y19340D2*
X8300D1*
X9580D2*
X16550D1*
X17830D2*
X24800D1*
X26080D2*
X26948D1*
X32057D2*
X33050D1*
X34330D2*
X41550D1*
X42830D2*
X43686D1*
X48694D2*
X49675D1*
X50955D2*
X57925D1*
X59205D2*
X66300D1*
X67580D2*
X68624D1*
X71268D2*
X71542D1*
X4340Y19091D2*
X8288D1*
X9592D2*
X16538D1*
X17842D2*
X24788D1*
X26092D2*
X33038D1*
X34342D2*
X41538D1*
X42842D2*
X49663D1*
X50967D2*
X57913D1*
X59217D2*
X66288D1*
X67592D2*
X69811D1*
X71404D2*
X71542D1*
X4340Y18843D2*
X8382D1*
X9498D2*
X16632D1*
X17748D2*
X24882D1*
X25998D2*
X33132D1*
X34248D2*
X41632D1*
X42748D2*
X49757D1*
X50873D2*
X58007D1*
X59123D2*
X66382D1*
X67498D2*
X70061D1*
X4340Y18594D2*
X8698D1*
X9182D2*
X16948D1*
X17432D2*
X25198D1*
X25682D2*
X33448D1*
X33932D2*
X41948D1*
X42432D2*
X50073D1*
X50557D2*
X58323D1*
X58807D2*
X66698D1*
X67182D2*
X70206D1*
X4340Y18345D2*
X70206D1*
X4340Y18096D2*
X5679D1*
X6701D2*
X11429D1*
X12451D2*
X13929D1*
X14951D2*
X19554D1*
X20576D2*
X22304D1*
X23326D2*
X27679D1*
X28701D2*
X30554D1*
X31576D2*
X35929D1*
X36951D2*
X39054D1*
X40076D2*
X44179D1*
X45201D2*
X47304D1*
X48326D2*
X52429D1*
X53451D2*
X55429D1*
X56451D2*
X60679D1*
X61701D2*
X63804D1*
X64826D2*
X69054D1*
X70076D2*
X70206D1*
X4340Y17848D2*
X5550D1*
X6830D2*
X11300D1*
X12580D2*
X13800D1*
X15080D2*
X19425D1*
X20705D2*
X22175D1*
X23455D2*
X27550D1*
X28830D2*
X30425D1*
X31705D2*
X35800D1*
X37080D2*
X38925D1*
X40205D2*
X44050D1*
X45330D2*
X47175D1*
X48455D2*
X52300D1*
X53580D2*
X55300D1*
X56580D2*
X60550D1*
X61830D2*
X63675D1*
X64955D2*
X68925D1*
X4340Y17599D2*
X5538D1*
X6842D2*
X11288D1*
X12592D2*
X13788D1*
X15092D2*
X19413D1*
X20717D2*
X22163D1*
X23467D2*
X27538D1*
X28842D2*
X30413D1*
X31717D2*
X35788D1*
X37092D2*
X38913D1*
X40217D2*
X44038D1*
X45342D2*
X47163D1*
X48467D2*
X52288D1*
X53592D2*
X55288D1*
X56592D2*
X60538D1*
X61842D2*
X63663D1*
X64967D2*
X68913D1*
X4340Y17350D2*
X5628D1*
X6752D2*
X11378D1*
X12502D2*
X13878D1*
X15002D2*
X19503D1*
X20627D2*
X22253D1*
X23377D2*
X27628D1*
X28752D2*
X30503D1*
X31627D2*
X35878D1*
X37002D2*
X39003D1*
X40127D2*
X44128D1*
X45252D2*
X47253D1*
X48377D2*
X52378D1*
X53502D2*
X55378D1*
X56502D2*
X60628D1*
X61752D2*
X63753D1*
X64877D2*
X69003D1*
X4340Y17102D2*
X5925D1*
X6455D2*
X8507D1*
X9334D2*
X11675D1*
X12205D2*
X14175D1*
X14705D2*
X16737D1*
X17569D2*
X19800D1*
X20330D2*
X22550D1*
X23080D2*
X25042D1*
X25873D2*
X27925D1*
X28455D2*
X30800D1*
X31330D2*
X33343D1*
X34170D2*
X36175D1*
X36705D2*
X39300D1*
X39830D2*
X41706D1*
X42533D2*
X44425D1*
X44955D2*
X47550D1*
X48080D2*
X49944D1*
X50772D2*
X52675D1*
X53205D2*
X55675D1*
X56205D2*
X58179D1*
X59010D2*
X60925D1*
X61455D2*
X64050D1*
X64580D2*
X66472D1*
X67408D2*
X69300D1*
X69830D2*
X70206D1*
X4340Y16853D2*
X7440D1*
X10404D2*
X15671D1*
X18635D2*
X23976D1*
X26940D2*
X32276D1*
X35240D2*
X40636D1*
X43604D2*
X48874D1*
X51842D2*
X57112D1*
X60076D2*
X65397D1*
X68483D2*
X70206D1*
X4340Y16604D2*
X7229D1*
X10615D2*
X15460D1*
X18846D2*
X23765D1*
X27151D2*
X32065D1*
X35451D2*
X40429D1*
X43815D2*
X48663D1*
X52049D2*
X56901D1*
X60287D2*
X65229D1*
X68651D2*
X70206D1*
X4340Y16356D2*
X7167D1*
X10674D2*
X15401D1*
X18904D2*
X23706D1*
X27209D2*
X32007D1*
X35510D2*
X40366D1*
X43873D2*
X48604D1*
X52111D2*
X56843D1*
X60346D2*
X65186D1*
X68694D2*
X70206D1*
X4340Y16107D2*
X6597D1*
X11244D2*
X14827D1*
X19475D2*
X23136D1*
X27779D2*
X31433D1*
X36080D2*
X39796D1*
X44444D2*
X48034D1*
X52682D2*
X56272D1*
X60920D2*
X64558D1*
X69322D2*
X70206D1*
X4340Y15858D2*
X6386D1*
X11459D2*
X14616D1*
X19690D2*
X22921D1*
X27994D2*
X31222D1*
X36295D2*
X39581D1*
X44658D2*
X47819D1*
X52897D2*
X56058D1*
X61131D2*
X64382D1*
X69498D2*
X70206D1*
X4340Y15610D2*
X6323D1*
X11522D2*
X14554D1*
X19752D2*
X22858D1*
X28057D2*
X31159D1*
X36358D2*
X39522D1*
X44717D2*
X47761D1*
X52955D2*
X55995D1*
X61194D2*
X64343D1*
X69537D2*
X70206D1*
X4340Y15361D2*
X6362D1*
X11479D2*
X14597D1*
X19709D2*
X22901D1*
X28014D2*
X31198D1*
X36315D2*
X39561D1*
X44678D2*
X47800D1*
X52916D2*
X56038D1*
X61154D2*
X64401D1*
X69479D2*
X70206D1*
X4340Y15112D2*
X6311D1*
X11529D2*
X14546D1*
X19760D2*
X22851D1*
X28065D2*
X31151D1*
X36365D2*
X39511D1*
X44729D2*
X47749D1*
X52967D2*
X55987D1*
X61201D2*
X64241D1*
X69639D2*
X70206D1*
X4340Y14864D2*
X6019D1*
X11826D2*
X14249D1*
X20057D2*
X22554D1*
X28361D2*
X30854D1*
X36662D2*
X39218D1*
X45026D2*
X47452D1*
X53260D2*
X55690D1*
X61498D2*
X64011D1*
X69869D2*
X70206D1*
X4340Y14615D2*
X5929D1*
X11916D2*
X14159D1*
X20147D2*
X22464D1*
X28451D2*
X30765D1*
X36752D2*
X39124D1*
X45115D2*
X47362D1*
X53354D2*
X55601D1*
X61588D2*
X63940D1*
X69940D2*
X70206D1*
X4340Y14366D2*
X5944D1*
X11901D2*
X14175D1*
X20131D2*
X22479D1*
X28436D2*
X30780D1*
X36736D2*
X39140D1*
X45100D2*
X47378D1*
X53338D2*
X55616D1*
X61572D2*
X63976D1*
X69904D2*
X70206D1*
X4340Y14117D2*
X6073D1*
X11768D2*
X14304D1*
X19998D2*
X22608D1*
X28303D2*
X30909D1*
X36604D2*
X39272D1*
X44967D2*
X47511D1*
X53205D2*
X55749D1*
X61444D2*
X64136D1*
X69744D2*
X70206D1*
X4340Y13869D2*
X6261D1*
X11584D2*
X14491D1*
X19815D2*
X22796D1*
X28119D2*
X31097D1*
X36420D2*
X39460D1*
X44783D2*
X47694D1*
X53018D2*
X55933D1*
X61256D2*
X64233D1*
X69647D2*
X70206D1*
X4340Y13620D2*
X6097D1*
X11748D2*
X14327D1*
X19979D2*
X22632D1*
X28283D2*
X30933D1*
X36584D2*
X39292D1*
X44947D2*
X47530D1*
X53186D2*
X55769D1*
X61420D2*
X64101D1*
X69779D2*
X70206D1*
X4340Y13371D2*
X6058D1*
X11783D2*
X14288D1*
X20014D2*
X22593D1*
X28319D2*
X30894D1*
X36619D2*
X39257D1*
X44983D2*
X47495D1*
X53221D2*
X55733D1*
X61459D2*
X64081D1*
X69799D2*
X70206D1*
X4340Y13123D2*
X6124D1*
X11717D2*
X14354D1*
X19947D2*
X22663D1*
X28252D2*
X30960D1*
X36553D2*
X39323D1*
X44916D2*
X47561D1*
X53154D2*
X55800D1*
X61393D2*
X64171D1*
X69709D2*
X70206D1*
X4340Y12874D2*
X6351D1*
X11490D2*
X14581D1*
X19725D2*
X22886D1*
X28029D2*
X31186D1*
X36330D2*
X39550D1*
X44690D2*
X47788D1*
X52928D2*
X56022D1*
X61166D2*
X64456D1*
X69424D2*
X70206D1*
X4340Y12625D2*
X6718D1*
X11123D2*
X14948D1*
X19358D2*
X23253D1*
X27662D2*
X31554D1*
X35963D2*
X39917D1*
X44322D2*
X48155D1*
X52561D2*
X56390D1*
X60799D2*
X64726D1*
X69154D2*
X70206D1*
X4340Y12377D2*
X6706D1*
X11135D2*
X14940D1*
X19365D2*
X23245D1*
X27670D2*
X31542D1*
X35971D2*
X39905D1*
X44334D2*
X48144D1*
X52572D2*
X56382D1*
X60807D2*
X64737D1*
X69143D2*
X70206D1*
X4340Y12128D2*
X6804D1*
X11037D2*
X15034D1*
X19268D2*
X23339D1*
X27572D2*
X31640D1*
X35873D2*
X40003D1*
X44236D2*
X48241D1*
X52475D2*
X56479D1*
X60713D2*
X64858D1*
X69022D2*
X70206D1*
X4340Y11879D2*
X7128D1*
X10717D2*
X15358D1*
X18947D2*
X23663D1*
X27252D2*
X31964D1*
X35553D2*
X40327D1*
X40779D2*
X40906D1*
X43912D2*
X48561D1*
X49018D2*
X49143D1*
X52151D2*
X56800D1*
X60389D2*
X65729D1*
X68151D2*
X70206D1*
X4340Y11631D2*
X7788D1*
X10053D2*
X16019D1*
X18287D2*
X24323D1*
X26592D2*
X32624D1*
X34889D2*
X40987D1*
X43252D2*
X49226D1*
X51490D2*
X57460D1*
X59729D2*
X65835D1*
X68045D2*
X70206D1*
X4340Y11382D2*
X8058D1*
X8654D2*
X9190D1*
X9783D2*
X16292D1*
X16885D2*
X17421D1*
X18014D2*
X24597D1*
X25190D2*
X25726D1*
X26319D2*
X32897D1*
X33490D2*
X34026D1*
X34619D2*
X41257D1*
X41850D2*
X42390D1*
X42983D2*
X49495D1*
X50088D2*
X50628D1*
X51221D2*
X57733D1*
X58326D2*
X58862D1*
X59455D2*
X66210D1*
X66537D2*
X67343D1*
X67670D2*
X70206D1*
X4340Y11133D2*
X70206D1*
X4340Y10885D2*
X70206D1*
X4340Y10636D2*
X70206D1*
X4340Y10387D2*
X70206D1*
X4340Y10138D2*
X70206D1*
X4340Y9890D2*
X15624D1*
X16256D2*
X37374D1*
X38006D2*
X47374D1*
X48006D2*
X58944D1*
X59572D2*
X70206D1*
X4340Y9641D2*
X15421D1*
X59779D2*
X70206D1*
X4340Y9392D2*
X15382D1*
X61651D2*
X70042D1*
X4340Y9144D2*
X15468D1*
X61799D2*
X69792D1*
X71401D2*
X71542D1*
X4340Y8895D2*
X17335D1*
X62197D2*
X69542D1*
X71248D2*
X71542D1*
X4340Y8646D2*
X16222D1*
X16533D2*
X17460D1*
X62307D2*
X69296D1*
X70998D2*
X71542D1*
X4340Y8398D2*
X15890D1*
X62287D2*
X69046D1*
X70748D2*
X71542D1*
X4340Y8149D2*
X15819D1*
X62115D2*
X68796D1*
X70502D2*
X71542D1*
X4340Y7900D2*
X15870D1*
X62268D2*
X68550D1*
X70252D2*
X71542D1*
X4340Y7652D2*
X16108D1*
X16647D2*
X37858D1*
X38397D2*
X50421D1*
X50959D2*
X51132D1*
X62311D2*
X68300D1*
X70002D2*
X71542D1*
X4340Y7403D2*
X51214D1*
X62229D2*
X68050D1*
X69756D2*
X71542D1*
X4340Y7154D2*
X67804D1*
X69506D2*
X71542D1*
X4340Y6906D2*
X22065D1*
X24565D2*
X67554D1*
X69256D2*
X71542D1*
X4340Y6657D2*
X15573D1*
X16807D2*
X21815D1*
X24815D2*
X37323D1*
X38557D2*
X58948D1*
X60182D2*
X67304D1*
X69010D2*
X71542D1*
X4340Y6408D2*
X15573D1*
X16807D2*
X21569D1*
X25061D2*
X37323D1*
X38557D2*
X58948D1*
X60182D2*
X67058D1*
X68760D2*
X71542D1*
X4340Y6159D2*
X15573D1*
X16807D2*
X21319D1*
X22498D2*
X24132D1*
X25311D2*
X37323D1*
X38557D2*
X58948D1*
X60182D2*
X66808D1*
X68510D2*
X71542D1*
X4340Y5911D2*
X15573D1*
X16807D2*
X18163D1*
X18717D2*
X21069D1*
X22252D2*
X24378D1*
X25561D2*
X35538D1*
X36092D2*
X37323D1*
X38557D2*
X39854D1*
X40412D2*
X57163D1*
X57717D2*
X58948D1*
X60182D2*
X66558D1*
X68264D2*
X71542D1*
X4340Y5662D2*
X15374D1*
X22002D2*
X24628D1*
X36326D2*
X37151D1*
X57951D2*
X58776D1*
X61190D2*
X66311D1*
X68014D2*
X71542D1*
X4340Y5413D2*
X15323D1*
X21752D2*
X24878D1*
X36373D2*
X37073D1*
X57998D2*
X58698D1*
X61311D2*
X66061D1*
X67764D2*
X71542D1*
X4340Y5165D2*
X15401D1*
X21506D2*
X25124D1*
X36299D2*
X37120D1*
X67518D2*
X71542D1*
X4340Y4916D2*
X15753D1*
X16018D2*
X16347D1*
X17764D2*
X18308D1*
X18572D2*
X35683D1*
X35947D2*
X37351D1*
X37916D2*
X38116D1*
X39514D2*
X40003D1*
X40268D2*
X47050D1*
X67268D2*
X71542D1*
X4340Y4667D2*
X47011D1*
X67018D2*
X71542D1*
X43717Y4419D2*
X47069D1*
X66772D2*
X71542D1*
X15724Y6695D2*
X16781D1*
Y5746D1*
X17070Y5750D1*
X17124Y5783D1*
X17240Y5830D1*
X17363Y5850D1*
X17487Y5840D1*
X17606Y5802D1*
X17713Y5737D1*
X17801Y5650D1*
X17868Y5544D1*
X17906Y5429D1*
X17909Y5509D1*
X17940Y5630D1*
X17997Y5741D1*
X18079Y5835D1*
X18180Y5908D1*
X18296Y5955D1*
X18419Y5975D1*
X18543Y5965D1*
X18662Y5927D1*
X18769Y5862D1*
X18794Y5838D1*
X19815Y5840D1*
X21022D1*
X22157Y6973D1*
X22258Y7046D1*
X22380Y7085D1*
X22690Y7090D1*
X24190D1*
X24313Y7071D1*
X24427Y7012D1*
X24650Y6796D1*
X25608Y5838D1*
X27440Y5840D1*
X35460D1*
X35555Y5908D1*
X35671Y5955D1*
X35794Y5975D1*
X35918Y5965D1*
X36037Y5927D1*
X36144Y5862D1*
X36232Y5775D1*
X36299Y5669D1*
X36338Y5551D1*
X36350Y5440D1*
X36335Y5316D1*
X36293Y5199D1*
X36224Y5095D1*
X36133Y5010D1*
X36025Y4948D1*
X35905Y4913D1*
X35780Y4906D1*
X35658Y4929D1*
X35544Y4979D1*
X35466Y5038D1*
X33940Y5040D1*
X25440D1*
X25317Y5059D1*
X25203Y5118D1*
X24980Y5334D1*
X24022Y6292D1*
X22608Y6290D1*
X21473Y5157D1*
X21372Y5084D1*
X21250Y5045D1*
X20940Y5040D1*
X18795D1*
X18650Y4948D1*
X18530Y4913D1*
X18405Y4906D1*
X18283Y4929D1*
X18169Y4979D1*
X18069Y5054D1*
X17990Y5151D1*
X17935Y5263D1*
X17919Y5315D1*
X17904Y5191D1*
X17862Y5074D1*
X17793Y4970D1*
X17702Y4885D1*
X17594Y4823D1*
X17474Y4788D1*
X17349Y4781D1*
X17227Y4804D1*
X17113Y4854D1*
X17078Y4880D1*
X16543D1*
X16420Y4898D1*
X16328Y4937D1*
X16222Y5021D1*
X16094Y4948D1*
X15974Y4913D1*
X15849Y4906D1*
X15727Y4929D1*
X15613Y4979D1*
X15513Y5054D1*
X15434Y5151D1*
X15379Y5263D1*
X15352Y5384D1*
X15353Y5509D1*
X15384Y5630D1*
X15441Y5741D1*
X15523Y5835D1*
X15602Y5892D1*
X15599Y6560D1*
Y6695D1*
X15724D1*
X37474D2*
X38531D1*
Y5746D1*
X38819Y5750D1*
X38990Y5830D1*
X39113Y5850D1*
X39237Y5840D1*
X39356Y5802D1*
X39463Y5737D1*
X39551Y5650D1*
X39611Y5554D1*
X39634Y5630D1*
X39691Y5741D1*
X39773Y5835D1*
X39874Y5908D1*
X39990Y5955D1*
X40113Y5975D1*
X40237Y5965D1*
X40356Y5927D1*
X40463Y5862D1*
X40488Y5838D1*
X41509Y5840D1*
X57083D1*
X57180Y5908D1*
X57296Y5955D1*
X57419Y5975D1*
X57543Y5965D1*
X57662Y5927D1*
X57769Y5862D1*
X57857Y5775D1*
X57924Y5669D1*
X57963Y5551D1*
X57975Y5440D1*
X57960Y5316D1*
X57946Y5276D1*
X58733Y5275D1*
X58728Y5453D1*
X58759Y5574D1*
X58816Y5685D1*
X58898Y5779D1*
X58977Y5836D1*
X58974Y6695D1*
X60156D1*
Y5840D1*
X60243Y5752D1*
X60444Y5750D1*
X60615Y5830D1*
X60738Y5850D1*
X60862Y5840D1*
X60981Y5802D1*
X61088Y5737D1*
X61176Y5650D1*
X61243Y5544D1*
X61282Y5426D1*
X61294Y5315D1*
X61289Y5272D1*
X62190Y5275D1*
X65953Y5280D1*
X70230Y9565D1*
X70225Y18703D1*
X69815Y19105D1*
X69128D1*
X69003Y19118D1*
X68885Y19158D1*
X68780Y19219D1*
X68625Y19365D1*
X67651Y20339D1*
X67573Y20436D1*
X67517Y20547D1*
X67487Y20665D1*
X67480Y20878D1*
X67475Y21953D1*
X66870Y22558D1*
X66691Y22606D1*
X60940Y22605D1*
X58806Y22603D1*
X58687Y22567D1*
X58562Y22555D1*
X58438Y22568D1*
X58315Y22605D1*
X50897D1*
X50900Y21815D1*
X50887Y21691D1*
X50847Y21573D1*
X50786Y21468D1*
X50640Y21313D1*
X48604Y19276D1*
X48507Y19198D1*
X48395Y19142D1*
X48278Y19112D1*
X48065Y19105D1*
X44190D1*
X44066Y19118D1*
X43948Y19158D1*
X43843Y19219D1*
X43688Y19365D1*
X41776Y21276D1*
X41698Y21373D1*
X41642Y21485D1*
X41612Y21602D1*
X41605Y21815D1*
Y22608D1*
X40815Y22605D1*
X34272D1*
X34275Y21815D1*
X34262Y21691D1*
X34222Y21573D1*
X34161Y21468D1*
X34015Y21313D1*
X32104Y19401D1*
X32007Y19323D1*
X31895Y19267D1*
X31778Y19237D1*
X31565Y19230D1*
X27315D1*
X27191Y19243D1*
X27073Y19283D1*
X26968Y19344D1*
X26813Y19490D1*
X25026Y21276D1*
X24948Y21373D1*
X24892Y21485D1*
X24862Y21602D1*
X24855Y21815D1*
Y22608D1*
X24065Y22605D1*
X17431Y22603D1*
X17312Y22567D1*
X17187Y22555D1*
X17063Y22568D1*
X16940Y22605D1*
X9181Y22603D1*
X9062Y22567D1*
X8937Y22555D1*
X8813Y22568D1*
X8694Y22605D1*
X8584Y22664D1*
X8488Y22744D1*
X8410Y22841D1*
X8352Y22951D1*
X8316Y23071D1*
X8305Y23195D1*
X8318Y23319D1*
X8356Y23438D1*
X8415Y23548D1*
X8496Y23643D1*
X8593Y23722D1*
X8703Y23779D1*
X8823Y23814D1*
X8948Y23825D1*
X9072Y23811D1*
X9190Y23775D1*
X16953Y23779D1*
X17073Y23814D1*
X17198Y23825D1*
X17322Y23811D1*
X17440Y23775D1*
X25203Y23779D1*
X25323Y23814D1*
X25448Y23825D1*
X25572Y23811D1*
X25691Y23773D1*
X25800Y23713D1*
X25895Y23633D1*
X25973Y23535D1*
X26030Y23424D1*
X26065Y23304D1*
X26075Y23190D1*
X26063Y23066D1*
X26025Y22940D1*
X26030Y21927D1*
X27565Y20400D1*
X31453Y20405D1*
X33105Y22065D1*
X33102Y22951D1*
X33066Y23071D1*
X33055Y23195D1*
X33068Y23319D1*
X33106Y23438D1*
X33165Y23548D1*
X33246Y23643D1*
X33343Y23722D1*
X33453Y23779D1*
X33573Y23814D1*
X33698Y23825D1*
X33822Y23811D1*
X33940Y23775D1*
X41953Y23779D1*
X42073Y23814D1*
X42198Y23825D1*
X42322Y23811D1*
X42441Y23773D1*
X42550Y23713D1*
X42645Y23633D1*
X42723Y23535D1*
X42780Y23424D1*
X42815Y23304D1*
X42825Y23190D1*
X42813Y23066D1*
X42775Y22940D1*
X42780Y21927D1*
X44440Y20275D1*
X47953Y20280D1*
X49730Y22065D1*
X49727Y22951D1*
X49691Y23071D1*
X49680Y23195D1*
X49693Y23319D1*
X49731Y23438D1*
X49790Y23548D1*
X49871Y23643D1*
X49968Y23722D1*
X50078Y23779D1*
X50198Y23814D1*
X50323Y23825D1*
X50447Y23811D1*
X50565Y23775D1*
X58328Y23779D1*
X58448Y23814D1*
X58573Y23825D1*
X58697Y23811D1*
X58815Y23775D1*
X66703Y23779D1*
X66823Y23814D1*
X66948Y23825D1*
X67072Y23811D1*
X67191Y23773D1*
X67304Y23724D1*
X67412Y23661D1*
X67567Y23515D1*
X68479Y22604D1*
X68557Y22507D1*
X68613Y22395D1*
X68643Y22278D1*
X68650Y22065D1*
X68655Y20989D1*
X69378Y20275D1*
X70065D1*
X70189Y20262D1*
X70307Y20222D1*
X70412Y20161D1*
X70567Y20015D1*
X71229Y19354D1*
X71307Y19257D1*
X71363Y19145D1*
X71393Y19028D1*
X71400Y18815D1*
Y9315D1*
X71387Y9191D1*
X71347Y9073D1*
X71286Y8968D1*
X71140Y8813D1*
X66663Y4336D1*
X69065Y4325D1*
X71569Y4315D1*
X71565Y5190D1*
Y24065D1*
X4315D1*
Y4565D1*
X47100Y4406D1*
X47061Y4513D1*
X47038Y4636D1*
X47040Y4761D1*
X47065Y4883D1*
X47113Y4998D1*
X47141Y5040D1*
X40491D1*
X40344Y4948D1*
X40224Y4913D1*
X40099Y4906D1*
X39977Y4929D1*
X39863Y4979D1*
X39763Y5054D1*
X39684Y5151D1*
X39658Y5203D1*
X39612Y5074D1*
X39543Y4970D1*
X39452Y4885D1*
X39344Y4823D1*
X39224Y4788D1*
X39099Y4781D1*
X38977Y4804D1*
X38863Y4854D1*
X38828Y4880D1*
X38315D1*
X38192Y4898D1*
X38100Y4937D1*
X37952Y4954D1*
X37844Y4892D1*
X37724Y4857D1*
X37599Y4850D1*
X37477Y4873D1*
X37363Y4923D1*
X37263Y4998D1*
X37184Y5095D1*
X37129Y5207D1*
X37102Y5328D1*
X37103Y5453D1*
X37134Y5574D1*
X37191Y5685D1*
X37273Y5779D1*
X37352Y5836D1*
X37349Y6695D1*
X37474D1*
X9563Y19066D2*
X9526Y18946D1*
X9467Y18836D1*
X9388Y18740D1*
X9291Y18661D1*
X9181Y18603D1*
X9062Y18567D1*
X8937Y18555D1*
X8813Y18568D1*
X8694Y18605D1*
X8584Y18664D1*
X8488Y18744D1*
X8410Y18841D1*
X8352Y18951D1*
X8316Y19071D1*
X8305Y19195D1*
X8318Y19319D1*
X8356Y19438D1*
X8415Y19548D1*
X8496Y19643D1*
X8593Y19722D1*
X8703Y19779D1*
X8823Y19814D1*
X8948Y19825D1*
X9072Y19811D1*
X9191Y19773D1*
X9300Y19713D1*
X9395Y19633D1*
X9473Y19535D1*
X9530Y19424D1*
X9565Y19304D1*
X9575Y19190D1*
X9563Y19066D1*
X17813D2*
X17776Y18946D1*
X17717Y18836D1*
X17638Y18740D1*
X17541Y18661D1*
X17431Y18603D1*
X17312Y18567D1*
X17187Y18555D1*
X17063Y18568D1*
X16944Y18605D1*
X16834Y18664D1*
X16738Y18744D1*
X16660Y18841D1*
X16602Y18951D1*
X16566Y19071D1*
X16555Y19195D1*
X16568Y19319D1*
X16606Y19438D1*
X16665Y19548D1*
X16746Y19643D1*
X16843Y19722D1*
X16953Y19779D1*
X17073Y19814D1*
X17198Y19825D1*
X17322Y19811D1*
X17441Y19773D1*
X17550Y19713D1*
X17645Y19633D1*
X17723Y19535D1*
X17780Y19424D1*
X17815Y19304D1*
X17825Y19190D1*
X17813Y19066D1*
X26063D2*
X26026Y18946D1*
X25967Y18836D1*
X25888Y18740D1*
X25791Y18661D1*
X25681Y18603D1*
X25562Y18567D1*
X25437Y18555D1*
X25313Y18568D1*
X25194Y18605D1*
X25084Y18664D1*
X24988Y18744D1*
X24910Y18841D1*
X24852Y18951D1*
X24816Y19071D1*
X24805Y19195D1*
X24818Y19319D1*
X24856Y19438D1*
X24915Y19548D1*
X24996Y19643D1*
X25093Y19722D1*
X25203Y19779D1*
X25323Y19814D1*
X25448Y19825D1*
X25572Y19811D1*
X25691Y19773D1*
X25800Y19713D1*
X25895Y19633D1*
X25973Y19535D1*
X26030Y19424D1*
X26065Y19304D1*
X26075Y19190D1*
X26063Y19066D1*
X34313D2*
X34276Y18946D1*
X34217Y18836D1*
X34138Y18740D1*
X34041Y18661D1*
X33931Y18603D1*
X33812Y18567D1*
X33687Y18555D1*
X33563Y18568D1*
X33444Y18605D1*
X33334Y18664D1*
X33238Y18744D1*
X33160Y18841D1*
X33102Y18951D1*
X33066Y19071D1*
X33055Y19195D1*
X33068Y19319D1*
X33106Y19438D1*
X33165Y19548D1*
X33246Y19643D1*
X33343Y19722D1*
X33453Y19779D1*
X33573Y19814D1*
X33698Y19825D1*
X33822Y19811D1*
X33941Y19773D1*
X34050Y19713D1*
X34145Y19633D1*
X34223Y19535D1*
X34280Y19424D1*
X34315Y19304D1*
X34325Y19190D1*
X34313Y19066D1*
X42813D2*
X42776Y18946D1*
X42717Y18836D1*
X42638Y18740D1*
X42541Y18661D1*
X42431Y18603D1*
X42312Y18567D1*
X42187Y18555D1*
X42063Y18568D1*
X41944Y18605D1*
X41834Y18664D1*
X41738Y18744D1*
X41660Y18841D1*
X41602Y18951D1*
X41566Y19071D1*
X41555Y19195D1*
X41568Y19319D1*
X41606Y19438D1*
X41665Y19548D1*
X41746Y19643D1*
X41843Y19722D1*
X41953Y19779D1*
X42073Y19814D1*
X42198Y19825D1*
X42322Y19811D1*
X42441Y19773D1*
X42550Y19713D1*
X42645Y19633D1*
X42723Y19535D1*
X42780Y19424D1*
X42815Y19304D1*
X42825Y19190D1*
X42813Y19066D1*
X50938D2*
X50901Y18946D1*
X50842Y18836D1*
X50763Y18740D1*
X50666Y18661D1*
X50556Y18603D1*
X50437Y18567D1*
X50312Y18555D1*
X50188Y18568D1*
X50069Y18605D1*
X49959Y18664D1*
X49863Y18744D1*
X49785Y18841D1*
X49727Y18951D1*
X49691Y19071D1*
X49680Y19195D1*
X49693Y19319D1*
X49731Y19438D1*
X49790Y19548D1*
X49871Y19643D1*
X49968Y19722D1*
X50078Y19779D1*
X50198Y19814D1*
X50323Y19825D1*
X50447Y19811D1*
X50566Y19773D1*
X50675Y19713D1*
X50770Y19633D1*
X50848Y19535D1*
X50905Y19424D1*
X50940Y19304D1*
X50950Y19190D1*
X50938Y19066D1*
X59188D2*
X59151Y18946D1*
X59092Y18836D1*
X59013Y18740D1*
X58916Y18661D1*
X58806Y18603D1*
X58687Y18567D1*
X58562Y18555D1*
X58438Y18568D1*
X58319Y18605D1*
X58209Y18664D1*
X58113Y18744D1*
X58035Y18841D1*
X57977Y18951D1*
X57941Y19071D1*
X57930Y19195D1*
X57943Y19319D1*
X57981Y19438D1*
X58040Y19548D1*
X58121Y19643D1*
X58218Y19722D1*
X58328Y19779D1*
X58448Y19814D1*
X58573Y19825D1*
X58697Y19811D1*
X58816Y19773D1*
X58925Y19713D1*
X59020Y19633D1*
X59098Y19535D1*
X59155Y19424D1*
X59190Y19304D1*
X59200Y19190D1*
X59188Y19066D1*
X67563D2*
X67526Y18946D1*
X67467Y18836D1*
X67388Y18740D1*
X67291Y18661D1*
X67181Y18603D1*
X67062Y18567D1*
X66937Y18555D1*
X66813Y18568D1*
X66694Y18605D1*
X66584Y18664D1*
X66488Y18744D1*
X66410Y18841D1*
X66352Y18951D1*
X66316Y19071D1*
X66305Y19195D1*
X66318Y19319D1*
X66356Y19438D1*
X66415Y19548D1*
X66496Y19643D1*
X66593Y19722D1*
X66703Y19779D1*
X66823Y19814D1*
X66948Y19825D1*
X67072Y19811D1*
X67191Y19773D1*
X67300Y19713D1*
X67395Y19633D1*
X67473Y19535D1*
X67530Y19424D1*
X67565Y19304D1*
X67575Y19190D1*
X67563Y19066D1*
X6813Y21566D2*
X6776Y21446D1*
X6717Y21336D1*
X6638Y21240D1*
X6541Y21161D1*
X6431Y21103D1*
X6312Y21067D1*
X6187Y21055D1*
X6063Y21068D1*
X5944Y21105D1*
X5834Y21164D1*
X5738Y21244D1*
X5660Y21341D1*
X5602Y21451D1*
X5566Y21571D1*
X5555Y21695D1*
X5568Y21819D1*
X5606Y21938D1*
X5665Y22048D1*
X5746Y22143D1*
X5843Y22222D1*
X5953Y22279D1*
X6073Y22314D1*
X6198Y22325D1*
X6322Y22311D1*
X6441Y22273D1*
X6550Y22213D1*
X6645Y22133D1*
X6723Y22035D1*
X6780Y21924D1*
X6815Y21804D1*
X6825Y21690D1*
X6813Y21566D1*
Y17566D2*
X6776Y17446D1*
X6717Y17336D1*
X6638Y17240D1*
X6541Y17161D1*
X6431Y17103D1*
X6312Y17067D1*
X6187Y17055D1*
X6063Y17068D1*
X5944Y17105D1*
X5834Y17164D1*
X5738Y17244D1*
X5660Y17341D1*
X5602Y17451D1*
X5566Y17571D1*
X5555Y17695D1*
X5568Y17819D1*
X5606Y17938D1*
X5665Y18048D1*
X5746Y18143D1*
X5843Y18222D1*
X5953Y18279D1*
X6073Y18314D1*
X6198Y18325D1*
X6322Y18311D1*
X6441Y18273D1*
X6550Y18213D1*
X6645Y18133D1*
X6723Y18035D1*
X6780Y17924D1*
X6815Y17804D1*
X6825Y17690D1*
X6813Y17566D1*
X12563Y21566D2*
X12526Y21446D1*
X12467Y21336D1*
X12388Y21240D1*
X12291Y21161D1*
X12181Y21103D1*
X12062Y21067D1*
X11937Y21055D1*
X11813Y21068D1*
X11694Y21105D1*
X11584Y21164D1*
X11488Y21244D1*
X11410Y21341D1*
X11352Y21451D1*
X11316Y21571D1*
X11305Y21695D1*
X11318Y21819D1*
X11356Y21938D1*
X11415Y22048D1*
X11496Y22143D1*
X11593Y22222D1*
X11703Y22279D1*
X11823Y22314D1*
X11948Y22325D1*
X12072Y22311D1*
X12191Y22273D1*
X12300Y22213D1*
X12395Y22133D1*
X12473Y22035D1*
X12530Y21924D1*
X12565Y21804D1*
X12575Y21690D1*
X12563Y21566D1*
Y17566D2*
X12526Y17446D1*
X12467Y17336D1*
X12388Y17240D1*
X12291Y17161D1*
X12181Y17103D1*
X12062Y17067D1*
X11937Y17055D1*
X11813Y17068D1*
X11694Y17105D1*
X11584Y17164D1*
X11488Y17244D1*
X11410Y17341D1*
X11352Y17451D1*
X11316Y17571D1*
X11305Y17695D1*
X11318Y17819D1*
X11356Y17938D1*
X11415Y18048D1*
X11496Y18143D1*
X11593Y18222D1*
X11703Y18279D1*
X11823Y18314D1*
X11948Y18325D1*
X12072Y18311D1*
X12191Y18273D1*
X12300Y18213D1*
X12395Y18133D1*
X12473Y18035D1*
X12530Y17924D1*
X12565Y17804D1*
X12575Y17690D1*
X12563Y17566D1*
X15063Y21566D2*
X15026Y21446D1*
X14967Y21336D1*
X14888Y21240D1*
X14791Y21161D1*
X14681Y21103D1*
X14562Y21067D1*
X14437Y21055D1*
X14313Y21068D1*
X14194Y21105D1*
X14084Y21164D1*
X13988Y21244D1*
X13910Y21341D1*
X13852Y21451D1*
X13816Y21571D1*
X13805Y21695D1*
X13818Y21819D1*
X13856Y21938D1*
X13915Y22048D1*
X13996Y22143D1*
X14093Y22222D1*
X14203Y22279D1*
X14323Y22314D1*
X14448Y22325D1*
X14572Y22311D1*
X14691Y22273D1*
X14800Y22213D1*
X14895Y22133D1*
X14973Y22035D1*
X15030Y21924D1*
X15065Y21804D1*
X15075Y21690D1*
X15063Y21566D1*
Y17566D2*
X15026Y17446D1*
X14967Y17336D1*
X14888Y17240D1*
X14791Y17161D1*
X14681Y17103D1*
X14562Y17067D1*
X14437Y17055D1*
X14313Y17068D1*
X14194Y17105D1*
X14084Y17164D1*
X13988Y17244D1*
X13910Y17341D1*
X13852Y17451D1*
X13816Y17571D1*
X13805Y17695D1*
X13818Y17819D1*
X13856Y17938D1*
X13915Y18048D1*
X13996Y18143D1*
X14093Y18222D1*
X14203Y18279D1*
X14323Y18314D1*
X14448Y18325D1*
X14572Y18311D1*
X14691Y18273D1*
X14800Y18213D1*
X14895Y18133D1*
X14973Y18035D1*
X15030Y17924D1*
X15065Y17804D1*
X15075Y17690D1*
X15063Y17566D1*
X20688Y21566D2*
X20651Y21446D1*
X20592Y21336D1*
X20513Y21240D1*
X20416Y21161D1*
X20306Y21103D1*
X20187Y21067D1*
X20062Y21055D1*
X19938Y21068D1*
X19819Y21105D1*
X19709Y21164D1*
X19613Y21244D1*
X19535Y21341D1*
X19477Y21451D1*
X19441Y21571D1*
X19430Y21695D1*
X19443Y21819D1*
X19481Y21938D1*
X19540Y22048D1*
X19621Y22143D1*
X19718Y22222D1*
X19828Y22279D1*
X19948Y22314D1*
X20073Y22325D1*
X20197Y22311D1*
X20316Y22273D1*
X20425Y22213D1*
X20520Y22133D1*
X20598Y22035D1*
X20655Y21924D1*
X20690Y21804D1*
X20700Y21690D1*
X20688Y21566D1*
Y17566D2*
X20651Y17446D1*
X20592Y17336D1*
X20513Y17240D1*
X20416Y17161D1*
X20306Y17103D1*
X20187Y17067D1*
X20062Y17055D1*
X19938Y17068D1*
X19819Y17105D1*
X19709Y17164D1*
X19613Y17244D1*
X19535Y17341D1*
X19477Y17451D1*
X19441Y17571D1*
X19430Y17695D1*
X19443Y17819D1*
X19481Y17938D1*
X19540Y18048D1*
X19621Y18143D1*
X19718Y18222D1*
X19828Y18279D1*
X19948Y18314D1*
X20073Y18325D1*
X20197Y18311D1*
X20316Y18273D1*
X20425Y18213D1*
X20520Y18133D1*
X20598Y18035D1*
X20655Y17924D1*
X20690Y17804D1*
X20700Y17690D1*
X20688Y17566D1*
X23438Y21566D2*
X23401Y21446D1*
X23342Y21336D1*
X23263Y21240D1*
X23166Y21161D1*
X23056Y21103D1*
X22937Y21067D1*
X22812Y21055D1*
X22688Y21068D1*
X22569Y21105D1*
X22459Y21164D1*
X22363Y21244D1*
X22285Y21341D1*
X22227Y21451D1*
X22191Y21571D1*
X22180Y21695D1*
X22193Y21819D1*
X22231Y21938D1*
X22290Y22048D1*
X22371Y22143D1*
X22468Y22222D1*
X22578Y22279D1*
X22698Y22314D1*
X22823Y22325D1*
X22947Y22311D1*
X23066Y22273D1*
X23175Y22213D1*
X23270Y22133D1*
X23348Y22035D1*
X23405Y21924D1*
X23440Y21804D1*
X23450Y21690D1*
X23438Y21566D1*
Y17566D2*
X23401Y17446D1*
X23342Y17336D1*
X23263Y17240D1*
X23166Y17161D1*
X23056Y17103D1*
X22937Y17067D1*
X22812Y17055D1*
X22688Y17068D1*
X22569Y17105D1*
X22459Y17164D1*
X22363Y17244D1*
X22285Y17341D1*
X22227Y17451D1*
X22191Y17571D1*
X22180Y17695D1*
X22193Y17819D1*
X22231Y17938D1*
X22290Y18048D1*
X22371Y18143D1*
X22468Y18222D1*
X22578Y18279D1*
X22698Y18314D1*
X22823Y18325D1*
X22947Y18311D1*
X23066Y18273D1*
X23175Y18213D1*
X23270Y18133D1*
X23348Y18035D1*
X23405Y17924D1*
X23440Y17804D1*
X23450Y17690D1*
X23438Y17566D1*
X28813Y21566D2*
X28776Y21446D1*
X28717Y21336D1*
X28638Y21240D1*
X28541Y21161D1*
X28431Y21103D1*
X28312Y21067D1*
X28187Y21055D1*
X28063Y21068D1*
X27944Y21105D1*
X27834Y21164D1*
X27738Y21244D1*
X27660Y21341D1*
X27602Y21451D1*
X27566Y21571D1*
X27555Y21695D1*
X27568Y21819D1*
X27606Y21938D1*
X27665Y22048D1*
X27746Y22143D1*
X27843Y22222D1*
X27953Y22279D1*
X28073Y22314D1*
X28198Y22325D1*
X28322Y22311D1*
X28441Y22273D1*
X28550Y22213D1*
X28645Y22133D1*
X28723Y22035D1*
X28780Y21924D1*
X28815Y21804D1*
X28825Y21690D1*
X28813Y21566D1*
Y17566D2*
X28776Y17446D1*
X28717Y17336D1*
X28638Y17240D1*
X28541Y17161D1*
X28431Y17103D1*
X28312Y17067D1*
X28187Y17055D1*
X28063Y17068D1*
X27944Y17105D1*
X27834Y17164D1*
X27738Y17244D1*
X27660Y17341D1*
X27602Y17451D1*
X27566Y17571D1*
X27555Y17695D1*
X27568Y17819D1*
X27606Y17938D1*
X27665Y18048D1*
X27746Y18143D1*
X27843Y18222D1*
X27953Y18279D1*
X28073Y18314D1*
X28198Y18325D1*
X28322Y18311D1*
X28441Y18273D1*
X28550Y18213D1*
X28645Y18133D1*
X28723Y18035D1*
X28780Y17924D1*
X28815Y17804D1*
X28825Y17690D1*
X28813Y17566D1*
X31688Y21566D2*
X31651Y21446D1*
X31592Y21336D1*
X31513Y21240D1*
X31416Y21161D1*
X31306Y21103D1*
X31187Y21067D1*
X31062Y21055D1*
X30938Y21068D1*
X30819Y21105D1*
X30709Y21164D1*
X30613Y21244D1*
X30535Y21341D1*
X30477Y21451D1*
X30441Y21571D1*
X30430Y21695D1*
X30443Y21819D1*
X30481Y21938D1*
X30540Y22048D1*
X30621Y22143D1*
X30718Y22222D1*
X30828Y22279D1*
X30948Y22314D1*
X31073Y22325D1*
X31197Y22311D1*
X31316Y22273D1*
X31425Y22213D1*
X31520Y22133D1*
X31598Y22035D1*
X31655Y21924D1*
X31690Y21804D1*
X31700Y21690D1*
X31688Y21566D1*
Y17566D2*
X31651Y17446D1*
X31592Y17336D1*
X31513Y17240D1*
X31416Y17161D1*
X31306Y17103D1*
X31187Y17067D1*
X31062Y17055D1*
X30938Y17068D1*
X30819Y17105D1*
X30709Y17164D1*
X30613Y17244D1*
X30535Y17341D1*
X30477Y17451D1*
X30441Y17571D1*
X30430Y17695D1*
X30443Y17819D1*
X30481Y17938D1*
X30540Y18048D1*
X30621Y18143D1*
X30718Y18222D1*
X30828Y18279D1*
X30948Y18314D1*
X31073Y18325D1*
X31197Y18311D1*
X31316Y18273D1*
X31425Y18213D1*
X31520Y18133D1*
X31598Y18035D1*
X31655Y17924D1*
X31690Y17804D1*
X31700Y17690D1*
X31688Y17566D1*
X37063Y21566D2*
X37026Y21446D1*
X36967Y21336D1*
X36888Y21240D1*
X36791Y21161D1*
X36681Y21103D1*
X36562Y21067D1*
X36437Y21055D1*
X36313Y21068D1*
X36194Y21105D1*
X36084Y21164D1*
X35988Y21244D1*
X35910Y21341D1*
X35852Y21451D1*
X35816Y21571D1*
X35805Y21695D1*
X35818Y21819D1*
X35856Y21938D1*
X35915Y22048D1*
X35996Y22143D1*
X36093Y22222D1*
X36203Y22279D1*
X36323Y22314D1*
X36448Y22325D1*
X36572Y22311D1*
X36691Y22273D1*
X36800Y22213D1*
X36895Y22133D1*
X36973Y22035D1*
X37030Y21924D1*
X37065Y21804D1*
X37075Y21690D1*
X37063Y21566D1*
Y17566D2*
X37026Y17446D1*
X36967Y17336D1*
X36888Y17240D1*
X36791Y17161D1*
X36681Y17103D1*
X36562Y17067D1*
X36437Y17055D1*
X36313Y17068D1*
X36194Y17105D1*
X36084Y17164D1*
X35988Y17244D1*
X35910Y17341D1*
X35852Y17451D1*
X35816Y17571D1*
X35805Y17695D1*
X35818Y17819D1*
X35856Y17938D1*
X35915Y18048D1*
X35996Y18143D1*
X36093Y18222D1*
X36203Y18279D1*
X36323Y18314D1*
X36448Y18325D1*
X36572Y18311D1*
X36691Y18273D1*
X36800Y18213D1*
X36895Y18133D1*
X36973Y18035D1*
X37030Y17924D1*
X37065Y17804D1*
X37075Y17690D1*
X37063Y17566D1*
X40188Y21566D2*
X40151Y21446D1*
X40092Y21336D1*
X40013Y21240D1*
X39916Y21161D1*
X39806Y21103D1*
X39687Y21067D1*
X39562Y21055D1*
X39438Y21068D1*
X39319Y21105D1*
X39209Y21164D1*
X39113Y21244D1*
X39035Y21341D1*
X38977Y21451D1*
X38941Y21571D1*
X38930Y21695D1*
X38943Y21819D1*
X38981Y21938D1*
X39040Y22048D1*
X39121Y22143D1*
X39218Y22222D1*
X39328Y22279D1*
X39448Y22314D1*
X39573Y22325D1*
X39697Y22311D1*
X39816Y22273D1*
X39925Y22213D1*
X40020Y22133D1*
X40098Y22035D1*
X40155Y21924D1*
X40190Y21804D1*
X40200Y21690D1*
X40188Y21566D1*
Y17566D2*
X40151Y17446D1*
X40092Y17336D1*
X40013Y17240D1*
X39916Y17161D1*
X39806Y17103D1*
X39687Y17067D1*
X39562Y17055D1*
X39438Y17068D1*
X39319Y17105D1*
X39209Y17164D1*
X39113Y17244D1*
X39035Y17341D1*
X38977Y17451D1*
X38941Y17571D1*
X38930Y17695D1*
X38943Y17819D1*
X38981Y17938D1*
X39040Y18048D1*
X39121Y18143D1*
X39218Y18222D1*
X39328Y18279D1*
X39448Y18314D1*
X39573Y18325D1*
X39697Y18311D1*
X39816Y18273D1*
X39925Y18213D1*
X40020Y18133D1*
X40098Y18035D1*
X40155Y17924D1*
X40190Y17804D1*
X40200Y17690D1*
X40188Y17566D1*
X45313Y21566D2*
X45276Y21446D1*
X45217Y21336D1*
X45138Y21240D1*
X45041Y21161D1*
X44931Y21103D1*
X44812Y21067D1*
X44687Y21055D1*
X44563Y21068D1*
X44444Y21105D1*
X44334Y21164D1*
X44238Y21244D1*
X44160Y21341D1*
X44102Y21451D1*
X44066Y21571D1*
X44055Y21695D1*
X44068Y21819D1*
X44106Y21938D1*
X44165Y22048D1*
X44246Y22143D1*
X44343Y22222D1*
X44453Y22279D1*
X44573Y22314D1*
X44698Y22325D1*
X44822Y22311D1*
X44941Y22273D1*
X45050Y22213D1*
X45145Y22133D1*
X45223Y22035D1*
X45280Y21924D1*
X45315Y21804D1*
X45325Y21690D1*
X45313Y21566D1*
Y17566D2*
X45276Y17446D1*
X45217Y17336D1*
X45138Y17240D1*
X45041Y17161D1*
X44931Y17103D1*
X44812Y17067D1*
X44687Y17055D1*
X44563Y17068D1*
X44444Y17105D1*
X44334Y17164D1*
X44238Y17244D1*
X44160Y17341D1*
X44102Y17451D1*
X44066Y17571D1*
X44055Y17695D1*
X44068Y17819D1*
X44106Y17938D1*
X44165Y18048D1*
X44246Y18143D1*
X44343Y18222D1*
X44453Y18279D1*
X44573Y18314D1*
X44698Y18325D1*
X44822Y18311D1*
X44941Y18273D1*
X45050Y18213D1*
X45145Y18133D1*
X45223Y18035D1*
X45280Y17924D1*
X45315Y17804D1*
X45325Y17690D1*
X45313Y17566D1*
X48438Y21566D2*
X48401Y21446D1*
X48342Y21336D1*
X48263Y21240D1*
X48166Y21161D1*
X48056Y21103D1*
X47937Y21067D1*
X47812Y21055D1*
X47688Y21068D1*
X47569Y21105D1*
X47459Y21164D1*
X47363Y21244D1*
X47285Y21341D1*
X47227Y21451D1*
X47191Y21571D1*
X47180Y21695D1*
X47193Y21819D1*
X47231Y21938D1*
X47290Y22048D1*
X47371Y22143D1*
X47468Y22222D1*
X47578Y22279D1*
X47698Y22314D1*
X47823Y22325D1*
X47947Y22311D1*
X48066Y22273D1*
X48175Y22213D1*
X48270Y22133D1*
X48348Y22035D1*
X48405Y21924D1*
X48440Y21804D1*
X48450Y21690D1*
X48438Y21566D1*
Y17566D2*
X48401Y17446D1*
X48342Y17336D1*
X48263Y17240D1*
X48166Y17161D1*
X48056Y17103D1*
X47937Y17067D1*
X47812Y17055D1*
X47688Y17068D1*
X47569Y17105D1*
X47459Y17164D1*
X47363Y17244D1*
X47285Y17341D1*
X47227Y17451D1*
X47191Y17571D1*
X47180Y17695D1*
X47193Y17819D1*
X47231Y17938D1*
X47290Y18048D1*
X47371Y18143D1*
X47468Y18222D1*
X47578Y18279D1*
X47698Y18314D1*
X47823Y18325D1*
X47947Y18311D1*
X48066Y18273D1*
X48175Y18213D1*
X48270Y18133D1*
X48348Y18035D1*
X48405Y17924D1*
X48440Y17804D1*
X48450Y17690D1*
X48438Y17566D1*
X53563Y21566D2*
X53526Y21446D1*
X53467Y21336D1*
X53388Y21240D1*
X53291Y21161D1*
X53181Y21103D1*
X53062Y21067D1*
X52937Y21055D1*
X52813Y21068D1*
X52694Y21105D1*
X52584Y21164D1*
X52488Y21244D1*
X52410Y21341D1*
X52352Y21451D1*
X52316Y21571D1*
X52305Y21695D1*
X52318Y21819D1*
X52356Y21938D1*
X52415Y22048D1*
X52496Y22143D1*
X52593Y22222D1*
X52703Y22279D1*
X52823Y22314D1*
X52948Y22325D1*
X53072Y22311D1*
X53191Y22273D1*
X53300Y22213D1*
X53395Y22133D1*
X53473Y22035D1*
X53530Y21924D1*
X53565Y21804D1*
X53575Y21690D1*
X53563Y21566D1*
Y17566D2*
X53526Y17446D1*
X53467Y17336D1*
X53388Y17240D1*
X53291Y17161D1*
X53181Y17103D1*
X53062Y17067D1*
X52937Y17055D1*
X52813Y17068D1*
X52694Y17105D1*
X52584Y17164D1*
X52488Y17244D1*
X52410Y17341D1*
X52352Y17451D1*
X52316Y17571D1*
X52305Y17695D1*
X52318Y17819D1*
X52356Y17938D1*
X52415Y18048D1*
X52496Y18143D1*
X52593Y18222D1*
X52703Y18279D1*
X52823Y18314D1*
X52948Y18325D1*
X53072Y18311D1*
X53191Y18273D1*
X53300Y18213D1*
X53395Y18133D1*
X53473Y18035D1*
X53530Y17924D1*
X53565Y17804D1*
X53575Y17690D1*
X53563Y17566D1*
X56563Y21566D2*
X56526Y21446D1*
X56467Y21336D1*
X56388Y21240D1*
X56291Y21161D1*
X56181Y21103D1*
X56062Y21067D1*
X55937Y21055D1*
X55813Y21068D1*
X55694Y21105D1*
X55584Y21164D1*
X55488Y21244D1*
X55410Y21341D1*
X55352Y21451D1*
X55316Y21571D1*
X55305Y21695D1*
X55318Y21819D1*
X55356Y21938D1*
X55415Y22048D1*
X55496Y22143D1*
X55593Y22222D1*
X55703Y22279D1*
X55823Y22314D1*
X55948Y22325D1*
X56072Y22311D1*
X56191Y22273D1*
X56300Y22213D1*
X56395Y22133D1*
X56473Y22035D1*
X56530Y21924D1*
X56565Y21804D1*
X56575Y21690D1*
X56563Y21566D1*
Y17566D2*
X56526Y17446D1*
X56467Y17336D1*
X56388Y17240D1*
X56291Y17161D1*
X56181Y17103D1*
X56062Y17067D1*
X55937Y17055D1*
X55813Y17068D1*
X55694Y17105D1*
X55584Y17164D1*
X55488Y17244D1*
X55410Y17341D1*
X55352Y17451D1*
X55316Y17571D1*
X55305Y17695D1*
X55318Y17819D1*
X55356Y17938D1*
X55415Y18048D1*
X55496Y18143D1*
X55593Y18222D1*
X55703Y18279D1*
X55823Y18314D1*
X55948Y18325D1*
X56072Y18311D1*
X56191Y18273D1*
X56300Y18213D1*
X56395Y18133D1*
X56473Y18035D1*
X56530Y17924D1*
X56565Y17804D1*
X56575Y17690D1*
X56563Y17566D1*
X61813Y21566D2*
X61776Y21446D1*
X61717Y21336D1*
X61638Y21240D1*
X61541Y21161D1*
X61431Y21103D1*
X61312Y21067D1*
X61187Y21055D1*
X61063Y21068D1*
X60944Y21105D1*
X60834Y21164D1*
X60738Y21244D1*
X60660Y21341D1*
X60602Y21451D1*
X60566Y21571D1*
X60555Y21695D1*
X60568Y21819D1*
X60606Y21938D1*
X60665Y22048D1*
X60746Y22143D1*
X60843Y22222D1*
X60953Y22279D1*
X61073Y22314D1*
X61198Y22325D1*
X61322Y22311D1*
X61441Y22273D1*
X61550Y22213D1*
X61645Y22133D1*
X61723Y22035D1*
X61780Y21924D1*
X61815Y21804D1*
X61825Y21690D1*
X61813Y21566D1*
Y17566D2*
X61776Y17446D1*
X61717Y17336D1*
X61638Y17240D1*
X61541Y17161D1*
X61431Y17103D1*
X61312Y17067D1*
X61187Y17055D1*
X61063Y17068D1*
X60944Y17105D1*
X60834Y17164D1*
X60738Y17244D1*
X60660Y17341D1*
X60602Y17451D1*
X60566Y17571D1*
X60555Y17695D1*
X60568Y17819D1*
X60606Y17938D1*
X60665Y18048D1*
X60746Y18143D1*
X60843Y18222D1*
X60953Y18279D1*
X61073Y18314D1*
X61198Y18325D1*
X61322Y18311D1*
X61441Y18273D1*
X61550Y18213D1*
X61645Y18133D1*
X61723Y18035D1*
X61780Y17924D1*
X61815Y17804D1*
X61825Y17690D1*
X61813Y17566D1*
X64938Y21566D2*
X64901Y21446D1*
X64842Y21336D1*
X64763Y21240D1*
X64666Y21161D1*
X64556Y21103D1*
X64437Y21067D1*
X64312Y21055D1*
X64188Y21068D1*
X64069Y21105D1*
X63959Y21164D1*
X63863Y21244D1*
X63785Y21341D1*
X63727Y21451D1*
X63691Y21571D1*
X63680Y21695D1*
X63693Y21819D1*
X63731Y21938D1*
X63790Y22048D1*
X63871Y22143D1*
X63968Y22222D1*
X64078Y22279D1*
X64198Y22314D1*
X64323Y22325D1*
X64447Y22311D1*
X64566Y22273D1*
X64675Y22213D1*
X64770Y22133D1*
X64848Y22035D1*
X64905Y21924D1*
X64940Y21804D1*
X64950Y21690D1*
X64938Y21566D1*
Y17566D2*
X64901Y17446D1*
X64842Y17336D1*
X64763Y17240D1*
X64666Y17161D1*
X64556Y17103D1*
X64437Y17067D1*
X64312Y17055D1*
X64188Y17068D1*
X64069Y17105D1*
X63959Y17164D1*
X63863Y17244D1*
X63785Y17341D1*
X63727Y17451D1*
X63691Y17571D1*
X63680Y17695D1*
X63693Y17819D1*
X63731Y17938D1*
X63790Y18048D1*
X63871Y18143D1*
X63968Y18222D1*
X64078Y18279D1*
X64198Y18314D1*
X64323Y18325D1*
X64447Y18311D1*
X64566Y18273D1*
X64675Y18213D1*
X64770Y18133D1*
X64848Y18035D1*
X64905Y17924D1*
X64940Y17804D1*
X64950Y17690D1*
X64938Y17566D1*
X70188Y21566D2*
X70151Y21446D1*
X70092Y21336D1*
X70013Y21240D1*
X69916Y21161D1*
X69806Y21103D1*
X69687Y21067D1*
X69562Y21055D1*
X69438Y21068D1*
X69319Y21105D1*
X69209Y21164D1*
X69113Y21244D1*
X69035Y21341D1*
X68977Y21451D1*
X68941Y21571D1*
X68930Y21695D1*
X68943Y21819D1*
X68981Y21938D1*
X69040Y22048D1*
X69121Y22143D1*
X69218Y22222D1*
X69328Y22279D1*
X69448Y22314D1*
X69573Y22325D1*
X69697Y22311D1*
X69816Y22273D1*
X69925Y22213D1*
X70020Y22133D1*
X70098Y22035D1*
X70155Y21924D1*
X70190Y21804D1*
X70200Y21690D1*
X70188Y21566D1*
Y17566D2*
X70151Y17446D1*
X70092Y17336D1*
X70013Y17240D1*
X69916Y17161D1*
X69806Y17103D1*
X69687Y17067D1*
X69562Y17055D1*
X69438Y17068D1*
X69319Y17105D1*
X69209Y17164D1*
X69113Y17244D1*
X69035Y17341D1*
X68977Y17451D1*
X68941Y17571D1*
X68930Y17695D1*
X68943Y17819D1*
X68981Y17938D1*
X69040Y18048D1*
X69121Y18143D1*
X69218Y18222D1*
X69328Y18279D1*
X69448Y18314D1*
X69573Y18325D1*
X69697Y18311D1*
X69816Y18273D1*
X69925Y18213D1*
X70020Y18133D1*
X70098Y18035D1*
X70155Y17924D1*
X70190Y17804D1*
X70200Y17690D1*
X70188Y17566D1*
X8306Y16738D2*
X8348Y16868D1*
X8411Y16976D1*
X8494Y17069D1*
X8593Y17144D1*
X8706Y17199D1*
X8827Y17229D1*
X8951Y17236D1*
X9075Y17218D1*
X9192Y17175D1*
X9299Y17111D1*
X9391Y17027D1*
X9465Y16926D1*
X9517Y16813D1*
X9534Y16740D1*
X9591Y16799D1*
X9691Y16874D1*
X9803Y16928D1*
X9924Y16959D1*
X10049Y16965D1*
X10172Y16947D1*
X10290Y16905D1*
X10397Y16840D1*
X10489Y16756D1*
X10562Y16655D1*
X10615Y16542D1*
X10644Y16421D1*
X10649Y16336D1*
X10637Y16212D1*
X10624Y16171D1*
X10771Y16209D1*
X10895Y16216D1*
X11019Y16197D1*
X11136Y16155D1*
X11243Y16091D1*
X11335Y16006D1*
X11409Y15906D1*
X11461Y15792D1*
X11490Y15671D1*
X11496Y15586D1*
X11483Y15462D1*
X11447Y15342D1*
X11387Y15233D1*
X11325Y15158D1*
X11420Y15140D1*
X11537Y15098D1*
X11644Y15033D1*
X11736Y14949D1*
X11809Y14848D1*
X11862Y14735D1*
X11891Y14614D1*
X11896Y14529D1*
X11884Y14405D1*
X11848Y14285D1*
X11788Y14176D1*
X11708Y14080D1*
X11611Y14001D1*
X11474Y13936D1*
X11600Y13827D1*
X11673Y13726D1*
X11726Y13613D1*
X11754Y13491D1*
X11760Y13406D1*
X11748Y13282D1*
X11711Y13163D1*
X11652Y13053D1*
X11572Y12957D1*
X11475Y12879D1*
X11364Y12821D1*
X11244Y12787D1*
X11120Y12776D1*
X11039Y12786D1*
X11083Y12682D1*
X11112Y12561D1*
X11118Y12476D1*
X11106Y12352D1*
X11069Y12232D1*
X11010Y12123D1*
X10930Y12027D1*
X10833Y11948D1*
X10722Y11891D1*
X10602Y11856D1*
X10478Y11846D1*
X10354Y11860D1*
X10235Y11899D1*
X10117Y11967D1*
X10104Y11826D1*
X10068Y11707D1*
X10009Y11597D1*
X9929Y11501D1*
X9832Y11423D1*
X9721Y11365D1*
X9601Y11331D1*
X9477Y11320D1*
X9353Y11335D1*
X9234Y11373D1*
X9125Y11434D1*
X9030Y11516D1*
X8954Y11614D1*
X8924Y11673D1*
X8878Y11597D1*
X8798Y11501D1*
X8701Y11423D1*
X8590Y11365D1*
X8470Y11331D1*
X8346Y11320D1*
X8222Y11335D1*
X8103Y11373D1*
X7994Y11434D1*
X7900Y11516D1*
X7823Y11614D1*
X7767Y11726D1*
X7734Y11846D1*
X7726Y11967D1*
X7589Y11891D1*
X7469Y11856D1*
X7345Y11846D1*
X7221Y11860D1*
X7102Y11899D1*
X6993Y11960D1*
X6899Y12041D1*
X6822Y12139D1*
X6766Y12251D1*
X6733Y12371D1*
X6725Y12496D1*
X6741Y12620D1*
X6781Y12738D1*
X6807Y12782D1*
X6703Y12776D1*
X6579Y12791D1*
X6460Y12829D1*
X6351Y12890D1*
X6256Y12971D1*
X6180Y13070D1*
X6124Y13181D1*
X6091Y13302D1*
X6083Y13426D1*
X6099Y13550D1*
X6139Y13668D1*
X6202Y13776D1*
X6285Y13869D1*
X6369Y13933D1*
X6215Y14013D1*
X6120Y14094D1*
X6043Y14192D1*
X5988Y14304D1*
X5955Y14424D1*
X5946Y14549D1*
X5963Y14672D1*
X6003Y14791D1*
X6066Y14898D1*
X6149Y14992D1*
X6248Y15067D1*
X6361Y15121D1*
X6517Y15154D1*
X6444Y15249D1*
X6388Y15361D1*
X6356Y15481D1*
X6347Y15606D1*
X6364Y15730D1*
X6404Y15848D1*
X6467Y15956D1*
X6549Y16049D1*
X6649Y16124D1*
X6762Y16178D1*
X6882Y16209D1*
X7007Y16216D1*
X7131Y16197D1*
X7215Y16167D1*
X7194Y16356D1*
X7210Y16479D1*
X7250Y16597D1*
X7313Y16705D1*
X7396Y16799D1*
X7495Y16874D1*
X7608Y16928D1*
X7729Y16959D1*
X7853Y16965D1*
X7977Y16947D1*
X8094Y16905D1*
X8201Y16840D1*
X8305Y16740D1*
X16537Y16738D2*
X16579Y16868D1*
X16642Y16976D1*
X16725Y17069D1*
X16824Y17144D1*
X16937Y17199D1*
X17058Y17229D1*
X17182Y17236D1*
X17306Y17218D1*
X17423Y17175D1*
X17530Y17111D1*
X17622Y17027D1*
X17696Y16926D1*
X17748Y16813D1*
X17765Y16740D1*
X17823Y16799D1*
X17922Y16874D1*
X18035Y16928D1*
X18156Y16959D1*
X18280Y16965D1*
X18404Y16947D1*
X18521Y16905D1*
X18628Y16840D1*
X18720Y16756D1*
X18794Y16655D1*
X18846Y16542D1*
X18875Y16421D1*
X18881Y16336D1*
X18868Y16212D1*
X18856Y16171D1*
X19002Y16209D1*
X19126Y16216D1*
X19250Y16197D1*
X19367Y16155D1*
X19474Y16091D1*
X19566Y16006D1*
X19640Y15906D1*
X19692Y15792D1*
X19721Y15671D1*
X19727Y15586D1*
X19714Y15462D1*
X19678Y15342D1*
X19619Y15233D1*
X19556Y15158D1*
X19651Y15140D1*
X19768Y15098D1*
X19875Y15033D1*
X19967Y14949D1*
X20041Y14848D1*
X20093Y14735D1*
X20122Y14614D1*
X20128Y14529D1*
X20115Y14405D1*
X20079Y14285D1*
X20019Y14176D1*
X19940Y14080D1*
X19842Y14001D1*
X19706Y13936D1*
X19831Y13827D1*
X19904Y13726D1*
X19957Y13613D1*
X19986Y13491D1*
X19991Y13406D1*
X19979Y13282D1*
X19943Y13163D1*
X19883Y13053D1*
X19803Y12957D1*
X19706Y12879D1*
X19595Y12821D1*
X19476Y12787D1*
X19351Y12776D1*
X19270Y12786D1*
X19315Y12682D1*
X19343Y12561D1*
X19349Y12476D1*
X19337Y12352D1*
X19300Y12232D1*
X19241Y12123D1*
X19161Y12027D1*
X19064Y11948D1*
X18953Y11891D1*
X18833Y11856D1*
X18709Y11846D1*
X18585Y11860D1*
X18466Y11899D1*
X18349Y11967D1*
X18336Y11826D1*
X18299Y11707D1*
X18240Y11597D1*
X18160Y11501D1*
X18063Y11423D1*
X17952Y11365D1*
X17832Y11331D1*
X17708Y11320D1*
X17584Y11335D1*
X17465Y11373D1*
X17356Y11434D1*
X17262Y11516D1*
X17185Y11614D1*
X17155Y11673D1*
X17109Y11597D1*
X17029Y11501D1*
X16932Y11423D1*
X16821Y11365D1*
X16702Y11331D1*
X16577Y11320D1*
X16453Y11335D1*
X16335Y11373D1*
X16226Y11434D1*
X16131Y11516D1*
X16054Y11614D1*
X15998Y11726D1*
X15966Y11846D1*
X15957Y11967D1*
X15820Y11891D1*
X15700Y11856D1*
X15576Y11846D1*
X15452Y11860D1*
X15333Y11899D1*
X15225Y11960D1*
X15130Y12041D1*
X15053Y12139D1*
X14997Y12251D1*
X14965Y12371D1*
X14956Y12496D1*
X14972Y12620D1*
X15013Y12738D1*
X15038Y12782D1*
X14934Y12776D1*
X14810Y12791D1*
X14691Y12829D1*
X14582Y12890D1*
X14488Y12971D1*
X14411Y13070D1*
X14355Y13181D1*
X14322Y13302D1*
X14314Y13426D1*
X14330Y13550D1*
X14370Y13668D1*
X14433Y13776D1*
X14516Y13869D1*
X14600Y13933D1*
X14446Y14013D1*
X14351Y14094D1*
X14275Y14192D1*
X14219Y14304D1*
X14186Y14424D1*
X14178Y14549D1*
X14194Y14672D1*
X14234Y14791D1*
X14297Y14898D1*
X14380Y14992D1*
X14479Y15067D1*
X14592Y15121D1*
X14748Y15154D1*
X14676Y15249D1*
X14620Y15361D1*
X14587Y15481D1*
X14578Y15606D1*
X14595Y15730D1*
X14635Y15848D1*
X14698Y15956D1*
X14781Y16049D1*
X14880Y16124D1*
X14993Y16178D1*
X15114Y16209D1*
X15238Y16216D1*
X15362Y16197D1*
X15446Y16167D1*
X15425Y16356D1*
X15441Y16479D1*
X15481Y16597D1*
X15544Y16705D1*
X15627Y16799D1*
X15727Y16874D1*
X15839Y16928D1*
X15960Y16959D1*
X16085Y16965D1*
X16208Y16947D1*
X16326Y16905D1*
X16432Y16840D1*
X16536Y16740D1*
X24842Y16738D2*
X24884Y16868D1*
X24947Y16976D1*
X25030Y17069D1*
X25129Y17144D1*
X25242Y17199D1*
X25363Y17229D1*
X25487Y17236D1*
X25611Y17218D1*
X25728Y17175D1*
X25835Y17111D1*
X25927Y17027D1*
X26001Y16926D1*
X26053Y16813D1*
X26070Y16740D1*
X26128Y16799D1*
X26227Y16874D1*
X26340Y16928D1*
X26461Y16959D1*
X26585Y16965D1*
X26709Y16947D1*
X26826Y16905D1*
X26933Y16840D1*
X27025Y16756D1*
X27099Y16655D1*
X27151Y16542D1*
X27180Y16421D1*
X27186Y16336D1*
X27173Y16212D1*
X27161Y16171D1*
X27307Y16209D1*
X27431Y16216D1*
X27555Y16197D1*
X27672Y16155D1*
X27779Y16091D1*
X27871Y16006D1*
X27945Y15906D1*
X27997Y15792D1*
X28026Y15671D1*
X28032Y15586D1*
X28019Y15462D1*
X27983Y15342D1*
X27924Y15233D1*
X27861Y15158D1*
X27956Y15140D1*
X28073Y15098D1*
X28180Y15033D1*
X28272Y14949D1*
X28346Y14848D1*
X28398Y14735D1*
X28427Y14614D1*
X28433Y14529D1*
X28420Y14405D1*
X28384Y14285D1*
X28324Y14176D1*
X28245Y14080D1*
X28147Y14001D1*
X28011Y13936D1*
X28136Y13827D1*
X28209Y13726D1*
X28262Y13613D1*
X28291Y13491D1*
X28296Y13406D1*
X28284Y13282D1*
X28248Y13163D1*
X28188Y13053D1*
X28108Y12957D1*
X28011Y12879D1*
X27900Y12821D1*
X27781Y12787D1*
X27656Y12776D1*
X27575Y12786D1*
X27619Y12682D1*
X27648Y12561D1*
X27654Y12476D1*
X27642Y12352D1*
X27605Y12232D1*
X27546Y12123D1*
X27466Y12027D1*
X27369Y11948D1*
X27258Y11891D1*
X27138Y11856D1*
X27014Y11846D1*
X26890Y11860D1*
X26771Y11899D1*
X26654Y11967D1*
X26641Y11826D1*
X26604Y11707D1*
X26545Y11597D1*
X26465Y11501D1*
X26368Y11423D1*
X26257Y11365D1*
X26137Y11331D1*
X26013Y11320D1*
X25889Y11335D1*
X25770Y11373D1*
X25661Y11434D1*
X25567Y11516D1*
X25490Y11614D1*
X25460Y11673D1*
X25414Y11597D1*
X25334Y11501D1*
X25237Y11423D1*
X25126Y11365D1*
X25007Y11331D1*
X24882Y11320D1*
X24758Y11335D1*
X24640Y11373D1*
X24531Y11434D1*
X24436Y11516D1*
X24359Y11614D1*
X24303Y11726D1*
X24271Y11846D1*
X24262Y11967D1*
X24125Y11891D1*
X24005Y11856D1*
X23881Y11846D1*
X23757Y11860D1*
X23638Y11899D1*
X23530Y11960D1*
X23435Y12041D1*
X23358Y12139D1*
X23302Y12251D1*
X23270Y12371D1*
X23261Y12496D1*
X23277Y12620D1*
X23318Y12738D1*
X23343Y12782D1*
X23239Y12776D1*
X23115Y12791D1*
X22996Y12829D1*
X22887Y12890D1*
X22793Y12971D1*
X22716Y13070D1*
X22660Y13181D1*
X22627Y13302D1*
X22619Y13426D1*
X22635Y13550D1*
X22675Y13668D1*
X22738Y13776D1*
X22821Y13869D1*
X22905Y13933D1*
X22751Y14013D1*
X22656Y14094D1*
X22580Y14192D1*
X22524Y14304D1*
X22491Y14424D1*
X22483Y14549D1*
X22499Y14672D1*
X22539Y14791D1*
X22602Y14898D1*
X22685Y14992D1*
X22784Y15067D1*
X22897Y15121D1*
X23053Y15154D1*
X22981Y15249D1*
X22925Y15361D1*
X22892Y15481D1*
X22883Y15606D1*
X22900Y15730D1*
X22940Y15848D1*
X23003Y15956D1*
X23086Y16049D1*
X23185Y16124D1*
X23298Y16178D1*
X23419Y16209D1*
X23543Y16216D1*
X23667Y16197D1*
X23751Y16167D1*
X23730Y16356D1*
X23746Y16479D1*
X23786Y16597D1*
X23849Y16705D1*
X23932Y16799D1*
X24032Y16874D1*
X24144Y16928D1*
X24265Y16959D1*
X24390Y16965D1*
X24513Y16947D1*
X24631Y16905D1*
X24737Y16840D1*
X24841Y16740D1*
X33142Y16738D2*
X33184Y16868D1*
X33247Y16976D1*
X33330Y17069D1*
X33429Y17144D1*
X33542Y17199D1*
X33663Y17229D1*
X33787Y17236D1*
X33911Y17218D1*
X34028Y17175D1*
X34135Y17111D1*
X34227Y17027D1*
X34301Y16926D1*
X34353Y16813D1*
X34370Y16740D1*
X34428Y16799D1*
X34527Y16874D1*
X34640Y16928D1*
X34761Y16959D1*
X34885Y16965D1*
X35009Y16947D1*
X35126Y16905D1*
X35233Y16840D1*
X35325Y16756D1*
X35399Y16655D1*
X35451Y16542D1*
X35480Y16421D1*
X35486Y16336D1*
X35473Y16212D1*
X35461Y16171D1*
X35607Y16209D1*
X35731Y16216D1*
X35855Y16197D1*
X35972Y16155D1*
X36079Y16091D1*
X36171Y16006D1*
X36245Y15906D1*
X36297Y15792D1*
X36326Y15671D1*
X36332Y15586D1*
X36319Y15462D1*
X36283Y15342D1*
X36224Y15233D1*
X36161Y15158D1*
X36256Y15140D1*
X36373Y15098D1*
X36480Y15033D1*
X36572Y14949D1*
X36646Y14848D1*
X36698Y14735D1*
X36727Y14614D1*
X36733Y14529D1*
X36720Y14405D1*
X36684Y14285D1*
X36624Y14176D1*
X36545Y14080D1*
X36447Y14001D1*
X36311Y13936D1*
X36436Y13827D1*
X36509Y13726D1*
X36562Y13613D1*
X36591Y13491D1*
X36596Y13406D1*
X36584Y13282D1*
X36548Y13163D1*
X36488Y13053D1*
X36408Y12957D1*
X36311Y12879D1*
X36200Y12821D1*
X36081Y12787D1*
X35956Y12776D1*
X35875Y12786D1*
X35920Y12682D1*
X35948Y12561D1*
X35954Y12476D1*
X35942Y12352D1*
X35905Y12232D1*
X35846Y12123D1*
X35766Y12027D1*
X35669Y11948D1*
X35558Y11891D1*
X35438Y11856D1*
X35314Y11846D1*
X35190Y11860D1*
X35071Y11899D1*
X34954Y11967D1*
X34941Y11826D1*
X34904Y11707D1*
X34845Y11597D1*
X34765Y11501D1*
X34668Y11423D1*
X34557Y11365D1*
X34437Y11331D1*
X34313Y11320D1*
X34189Y11335D1*
X34070Y11373D1*
X33961Y11434D1*
X33867Y11516D1*
X33790Y11614D1*
X33760Y11673D1*
X33714Y11597D1*
X33634Y11501D1*
X33537Y11423D1*
X33426Y11365D1*
X33307Y11331D1*
X33182Y11320D1*
X33058Y11335D1*
X32940Y11373D1*
X32831Y11434D1*
X32736Y11516D1*
X32659Y11614D1*
X32603Y11726D1*
X32571Y11846D1*
X32562Y11967D1*
X32425Y11891D1*
X32305Y11856D1*
X32181Y11846D1*
X32057Y11860D1*
X31938Y11899D1*
X31830Y11960D1*
X31735Y12041D1*
X31658Y12139D1*
X31602Y12251D1*
X31570Y12371D1*
X31561Y12496D1*
X31577Y12620D1*
X31618Y12738D1*
X31643Y12782D1*
X31539Y12776D1*
X31415Y12791D1*
X31296Y12829D1*
X31187Y12890D1*
X31093Y12971D1*
X31016Y13070D1*
X30960Y13181D1*
X30927Y13302D1*
X30919Y13426D1*
X30935Y13550D1*
X30975Y13668D1*
X31038Y13776D1*
X31121Y13869D1*
X31205Y13933D1*
X31051Y14013D1*
X30956Y14094D1*
X30880Y14192D1*
X30824Y14304D1*
X30791Y14424D1*
X30783Y14549D1*
X30799Y14672D1*
X30839Y14791D1*
X30902Y14898D1*
X30985Y14992D1*
X31084Y15067D1*
X31197Y15121D1*
X31353Y15154D1*
X31281Y15249D1*
X31225Y15361D1*
X31192Y15481D1*
X31183Y15606D1*
X31200Y15730D1*
X31240Y15848D1*
X31303Y15956D1*
X31386Y16049D1*
X31485Y16124D1*
X31598Y16178D1*
X31719Y16209D1*
X31843Y16216D1*
X31967Y16197D1*
X32051Y16167D1*
X32030Y16356D1*
X32046Y16479D1*
X32086Y16597D1*
X32149Y16705D1*
X32232Y16799D1*
X32332Y16874D1*
X32444Y16928D1*
X32565Y16959D1*
X32690Y16965D1*
X32813Y16947D1*
X32931Y16905D1*
X33037Y16840D1*
X33141Y16740D1*
X41505Y16738D2*
X41547Y16868D1*
X41609Y16976D1*
X41692Y17069D1*
X41792Y17144D1*
X41904Y17199D1*
X42025Y17229D1*
X42150Y17236D1*
X42273Y17218D1*
X42391Y17175D1*
X42498Y17111D1*
X42590Y17027D1*
X42663Y16926D1*
X42716Y16813D1*
X42733Y16740D1*
X42790Y16799D1*
X42890Y16874D1*
X43002Y16928D1*
X43123Y16959D1*
X43248Y16965D1*
X43371Y16947D1*
X43489Y16905D1*
X43595Y16840D1*
X43687Y16756D1*
X43761Y16655D1*
X43813Y16542D1*
X43842Y16421D1*
X43848Y16336D1*
X43836Y16212D1*
X43823Y16171D1*
X43969Y16209D1*
X44094Y16216D1*
X44217Y16197D1*
X44335Y16155D1*
X44442Y16091D1*
X44534Y16006D1*
X44607Y15906D1*
X44660Y15792D1*
X44689Y15671D1*
X44694Y15586D1*
X44682Y15462D1*
X44645Y15342D1*
X44586Y15233D1*
X44524Y15158D1*
X44618Y15140D1*
X44736Y15098D1*
X44843Y15033D1*
X44935Y14949D1*
X45008Y14848D1*
X45061Y14735D1*
X45090Y14614D1*
X45095Y14529D1*
X45083Y14405D1*
X45046Y14285D1*
X44987Y14176D1*
X44907Y14080D1*
X44810Y14001D1*
X44673Y13936D1*
X44798Y13827D1*
X44872Y13726D1*
X44924Y13613D1*
X44953Y13491D1*
X44959Y13406D1*
X44947Y13282D1*
X44910Y13163D1*
X44851Y13053D1*
X44771Y12957D1*
X44674Y12879D1*
X44563Y12821D1*
X44443Y12787D1*
X44319Y12776D1*
X44237Y12786D1*
X44282Y12682D1*
X44311Y12561D1*
X44317Y12476D1*
X44304Y12352D1*
X44268Y12232D1*
X44208Y12123D1*
X44129Y12027D1*
X44031Y11948D1*
X43921Y11891D1*
X43801Y11856D1*
X43676Y11846D1*
X43552Y11860D1*
X43434Y11899D1*
X43316Y11967D1*
X43303Y11826D1*
X43267Y11707D1*
X43207Y11597D1*
X43127Y11501D1*
X43030Y11423D1*
X42920Y11365D1*
X42800Y11331D1*
X42675Y11320D1*
X42551Y11335D1*
X42433Y11373D1*
X42324Y11434D1*
X42229Y11516D1*
X42152Y11614D1*
X42123Y11673D1*
X42077Y11597D1*
X41997Y11501D1*
X41900Y11423D1*
X41789Y11365D1*
X41669Y11331D1*
X41545Y11320D1*
X41421Y11335D1*
X41302Y11373D1*
X41193Y11434D1*
X41099Y11516D1*
X41022Y11614D1*
X40966Y11726D1*
X40933Y11846D1*
X40925Y11967D1*
X40788Y11891D1*
X40668Y11856D1*
X40544Y11846D1*
X40420Y11860D1*
X40301Y11899D1*
X40192Y11960D1*
X40097Y12041D1*
X40021Y12139D1*
X39965Y12251D1*
X39932Y12371D1*
X39924Y12496D1*
X39940Y12620D1*
X39980Y12738D1*
X40006Y12782D1*
X39901Y12776D1*
X39777Y12791D1*
X39659Y12829D1*
X39550Y12890D1*
X39455Y12971D1*
X39378Y13070D1*
X39323Y13181D1*
X39290Y13302D1*
X39281Y13426D1*
X39298Y13550D1*
X39338Y13668D1*
X39401Y13776D1*
X39484Y13869D1*
X39568Y13933D1*
X39414Y14013D1*
X39319Y14094D1*
X39242Y14192D1*
X39186Y14304D1*
X39153Y14424D1*
X39145Y14549D1*
X39161Y14672D1*
X39202Y14791D1*
X39264Y14898D1*
X39347Y14992D1*
X39447Y15067D1*
X39559Y15121D1*
X39715Y15154D1*
X39643Y15249D1*
X39587Y15361D1*
X39554Y15481D1*
X39546Y15606D1*
X39562Y15730D1*
X39603Y15848D1*
X39665Y15956D1*
X39748Y16049D1*
X39848Y16124D1*
X39960Y16178D1*
X40081Y16209D1*
X40206Y16216D1*
X40329Y16197D1*
X40414Y16167D1*
X40392Y16356D1*
X40409Y16479D1*
X40449Y16597D1*
X40512Y16705D1*
X40595Y16799D1*
X40694Y16874D1*
X40807Y16928D1*
X40927Y16959D1*
X41052Y16965D1*
X41176Y16947D1*
X41293Y16905D1*
X41400Y16840D1*
X41503Y16740D1*
X49742Y16738D2*
X49784Y16868D1*
X49847Y16976D1*
X49930Y17069D1*
X50029Y17144D1*
X50142Y17199D1*
X50263Y17229D1*
X50387Y17236D1*
X50511Y17218D1*
X50628Y17175D1*
X50735Y17111D1*
X50827Y17027D1*
X50901Y16926D1*
X50953Y16813D1*
X50970Y16740D1*
X51028Y16799D1*
X51127Y16874D1*
X51240Y16928D1*
X51361Y16959D1*
X51485Y16965D1*
X51609Y16947D1*
X51726Y16905D1*
X51833Y16840D1*
X51925Y16756D1*
X51999Y16655D1*
X52051Y16542D1*
X52080Y16421D1*
X52086Y16336D1*
X52073Y16212D1*
X52061Y16171D1*
X52207Y16209D1*
X52331Y16216D1*
X52455Y16197D1*
X52572Y16155D1*
X52679Y16091D1*
X52771Y16006D1*
X52845Y15906D1*
X52897Y15792D1*
X52926Y15671D1*
X52932Y15586D1*
X52919Y15462D1*
X52883Y15342D1*
X52824Y15233D1*
X52761Y15158D1*
X52856Y15140D1*
X52973Y15098D1*
X53080Y15033D1*
X53172Y14949D1*
X53246Y14848D1*
X53298Y14735D1*
X53327Y14614D1*
X53333Y14529D1*
X53320Y14405D1*
X53284Y14285D1*
X53224Y14176D1*
X53145Y14080D1*
X53047Y14001D1*
X52911Y13936D1*
X53036Y13827D1*
X53109Y13726D1*
X53162Y13613D1*
X53191Y13491D1*
X53196Y13406D1*
X53184Y13282D1*
X53148Y13163D1*
X53088Y13053D1*
X53008Y12957D1*
X52911Y12879D1*
X52800Y12821D1*
X52681Y12787D1*
X52556Y12776D1*
X52475Y12786D1*
X52520Y12682D1*
X52548Y12561D1*
X52554Y12476D1*
X52542Y12352D1*
X52505Y12232D1*
X52446Y12123D1*
X52366Y12027D1*
X52269Y11948D1*
X52158Y11891D1*
X52038Y11856D1*
X51914Y11846D1*
X51790Y11860D1*
X51671Y11899D1*
X51554Y11967D1*
X51541Y11826D1*
X51504Y11707D1*
X51445Y11597D1*
X51365Y11501D1*
X51268Y11423D1*
X51157Y11365D1*
X51037Y11331D1*
X50913Y11320D1*
X50789Y11335D1*
X50670Y11373D1*
X50561Y11434D1*
X50467Y11516D1*
X50390Y11614D1*
X50360Y11673D1*
X50314Y11597D1*
X50234Y11501D1*
X50137Y11423D1*
X50026Y11365D1*
X49907Y11331D1*
X49782Y11320D1*
X49658Y11335D1*
X49540Y11373D1*
X49431Y11434D1*
X49336Y11516D1*
X49259Y11614D1*
X49203Y11726D1*
X49171Y11846D1*
X49162Y11967D1*
X49025Y11891D1*
X48905Y11856D1*
X48781Y11846D1*
X48657Y11860D1*
X48538Y11899D1*
X48430Y11960D1*
X48335Y12041D1*
X48258Y12139D1*
X48202Y12251D1*
X48170Y12371D1*
X48161Y12496D1*
X48177Y12620D1*
X48218Y12738D1*
X48243Y12782D1*
X48139Y12776D1*
X48015Y12791D1*
X47896Y12829D1*
X47787Y12890D1*
X47693Y12971D1*
X47616Y13070D1*
X47560Y13181D1*
X47527Y13302D1*
X47519Y13426D1*
X47535Y13550D1*
X47575Y13668D1*
X47638Y13776D1*
X47721Y13869D1*
X47805Y13933D1*
X47651Y14013D1*
X47556Y14094D1*
X47480Y14192D1*
X47424Y14304D1*
X47391Y14424D1*
X47383Y14549D1*
X47399Y14672D1*
X47439Y14791D1*
X47502Y14898D1*
X47585Y14992D1*
X47684Y15067D1*
X47797Y15121D1*
X47953Y15154D1*
X47881Y15249D1*
X47825Y15361D1*
X47792Y15481D1*
X47783Y15606D1*
X47800Y15730D1*
X47840Y15848D1*
X47903Y15956D1*
X47986Y16049D1*
X48085Y16124D1*
X48198Y16178D1*
X48319Y16209D1*
X48443Y16216D1*
X48567Y16197D1*
X48651Y16167D1*
X48630Y16356D1*
X48646Y16479D1*
X48686Y16597D1*
X48749Y16705D1*
X48832Y16799D1*
X48932Y16874D1*
X49044Y16928D1*
X49165Y16959D1*
X49290Y16965D1*
X49413Y16947D1*
X49531Y16905D1*
X49637Y16840D1*
X49741Y16740D1*
X57980Y16738D2*
X58022Y16868D1*
X58084Y16976D1*
X58167Y17069D1*
X58267Y17144D1*
X58379Y17199D1*
X58500Y17229D1*
X58625Y17236D1*
X58748Y17218D1*
X58866Y17175D1*
X58973Y17111D1*
X59065Y17027D1*
X59138Y16926D1*
X59191Y16813D1*
X59208Y16740D1*
X59265Y16799D1*
X59365Y16874D1*
X59477Y16928D1*
X59598Y16959D1*
X59723Y16965D1*
X59846Y16947D1*
X59964Y16905D1*
X60070Y16840D1*
X60162Y16756D1*
X60236Y16655D1*
X60288Y16542D1*
X60317Y16421D1*
X60323Y16336D1*
X60311Y16212D1*
X60298Y16171D1*
X60444Y16209D1*
X60569Y16216D1*
X60692Y16197D1*
X60810Y16155D1*
X60917Y16091D1*
X61009Y16006D1*
X61082Y15906D1*
X61135Y15792D1*
X61164Y15671D1*
X61169Y15586D1*
X61157Y15462D1*
X61120Y15342D1*
X61061Y15233D1*
X60999Y15158D1*
X61093Y15140D1*
X61211Y15098D1*
X61318Y15033D1*
X61410Y14949D1*
X61483Y14848D1*
X61536Y14735D1*
X61565Y14614D1*
X61570Y14529D1*
X61558Y14405D1*
X61521Y14285D1*
X61462Y14176D1*
X61382Y14080D1*
X61285Y14001D1*
X61148Y13936D1*
X61273Y13827D1*
X61347Y13726D1*
X61399Y13613D1*
X61428Y13491D1*
X61434Y13406D1*
X61422Y13282D1*
X61385Y13163D1*
X61326Y13053D1*
X61246Y12957D1*
X61149Y12879D1*
X61038Y12821D1*
X60918Y12787D1*
X60794Y12776D1*
X60712Y12786D1*
X60757Y12682D1*
X60786Y12561D1*
X60792Y12476D1*
X60779Y12352D1*
X60743Y12232D1*
X60683Y12123D1*
X60604Y12027D1*
X60506Y11948D1*
X60396Y11891D1*
X60276Y11856D1*
X60151Y11846D1*
X60027Y11860D1*
X59909Y11899D1*
X59791Y11967D1*
X59778Y11826D1*
X59742Y11707D1*
X59682Y11597D1*
X59602Y11501D1*
X59505Y11423D1*
X59395Y11365D1*
X59275Y11331D1*
X59150Y11320D1*
X59026Y11335D1*
X58908Y11373D1*
X58799Y11434D1*
X58704Y11516D1*
X58627Y11614D1*
X58598Y11673D1*
X58552Y11597D1*
X58472Y11501D1*
X58375Y11423D1*
X58264Y11365D1*
X58144Y11331D1*
X58020Y11320D1*
X57896Y11335D1*
X57777Y11373D1*
X57668Y11434D1*
X57574Y11516D1*
X57497Y11614D1*
X57441Y11726D1*
X57408Y11846D1*
X57400Y11967D1*
X57263Y11891D1*
X57143Y11856D1*
X57019Y11846D1*
X56895Y11860D1*
X56776Y11899D1*
X56667Y11960D1*
X56572Y12041D1*
X56496Y12139D1*
X56440Y12251D1*
X56407Y12371D1*
X56399Y12496D1*
X56415Y12620D1*
X56455Y12738D1*
X56481Y12782D1*
X56376Y12776D1*
X56252Y12791D1*
X56134Y12829D1*
X56025Y12890D1*
X55930Y12971D1*
X55853Y13070D1*
X55798Y13181D1*
X55765Y13302D1*
X55756Y13426D1*
X55773Y13550D1*
X55813Y13668D1*
X55876Y13776D1*
X55959Y13869D1*
X56043Y13933D1*
X55889Y14013D1*
X55794Y14094D1*
X55717Y14192D1*
X55661Y14304D1*
X55628Y14424D1*
X55620Y14549D1*
X55636Y14672D1*
X55677Y14791D1*
X55739Y14898D1*
X55822Y14992D1*
X55922Y15067D1*
X56034Y15121D1*
X56190Y15154D1*
X56118Y15249D1*
X56062Y15361D1*
X56029Y15481D1*
X56021Y15606D1*
X56037Y15730D1*
X56078Y15848D1*
X56140Y15956D1*
X56223Y16049D1*
X56323Y16124D1*
X56435Y16178D1*
X56556Y16209D1*
X56681Y16216D1*
X56804Y16197D1*
X56889Y16167D1*
X56867Y16356D1*
X56884Y16479D1*
X56924Y16597D1*
X56987Y16705D1*
X57070Y16799D1*
X57169Y16874D1*
X57282Y16928D1*
X57402Y16959D1*
X57527Y16965D1*
X57651Y16947D1*
X57768Y16905D1*
X57875Y16840D1*
X57978Y16740D1*
X66325Y16784D2*
X66367Y16914D1*
X66429Y17022D1*
X66512Y17115D1*
X66612Y17190D1*
X66724Y17244D1*
X66845Y17275D1*
X66970Y17282D1*
X67093Y17264D1*
X67211Y17221D1*
X67318Y17157D1*
X67410Y17073D1*
X67483Y16972D1*
X67536Y16858D1*
X67553Y16786D1*
X67610Y16845D1*
X67710Y16920D1*
X67822Y16974D1*
X67943Y17005D1*
X68068Y17011D1*
X68191Y16993D1*
X68309Y16951D1*
X68415Y16886D1*
X68507Y16802D1*
X68581Y16701D1*
X68633Y16588D1*
X68662Y16467D1*
X68668Y16382D1*
X68656Y16257D1*
X68643Y16216D1*
X68789Y16255D1*
X68914Y16261D1*
X69037Y16243D1*
X69155Y16201D1*
X69262Y16137D1*
X69354Y16052D1*
X69427Y15951D1*
X69480Y15838D1*
X69509Y15717D1*
X69514Y15632D1*
X69502Y15508D1*
X69465Y15388D1*
X69406Y15279D1*
X69344Y15204D1*
X69438Y15186D1*
X69556Y15144D1*
X69663Y15079D1*
X69755Y14995D1*
X69828Y14894D1*
X69881Y14781D1*
X69910Y14660D1*
X69915Y14575D1*
X69903Y14451D1*
X69866Y14331D1*
X69807Y14221D1*
X69727Y14126D1*
X69630Y14047D1*
X69493Y13982D1*
X69618Y13873D1*
X69692Y13772D1*
X69744Y13659D1*
X69773Y13537D1*
X69779Y13452D1*
X69767Y13328D1*
X69730Y13209D1*
X69671Y13099D1*
X69591Y13003D1*
X69494Y12925D1*
X69383Y12867D1*
X69263Y12833D1*
X69139Y12822D1*
X69057Y12832D1*
X69102Y12728D1*
X69131Y12607D1*
X69137Y12522D1*
X69124Y12398D1*
X69088Y12278D1*
X69028Y12169D1*
X68949Y12073D1*
X68851Y11994D1*
X68741Y11937D1*
X68621Y11902D1*
X68496Y11892D1*
X68372Y11906D1*
X68254Y11944D1*
X68136Y12013D1*
X68123Y11872D1*
X68087Y11753D1*
X68027Y11643D1*
X67947Y11547D1*
X67850Y11469D1*
X67740Y11411D1*
X67620Y11377D1*
X67495Y11366D1*
X67371Y11381D1*
X67253Y11419D1*
X67144Y11480D1*
X67049Y11561D1*
X66972Y11660D1*
X66943Y11719D1*
X66897Y11643D1*
X66817Y11547D1*
X66720Y11469D1*
X66609Y11411D1*
X66489Y11377D1*
X66365Y11366D1*
X66241Y11381D1*
X66122Y11419D1*
X66013Y11480D1*
X65919Y11561D1*
X65842Y11660D1*
X65786Y11771D1*
X65753Y11892D1*
X65745Y12012D1*
X65608Y11937D1*
X65488Y11902D1*
X65364Y11892D1*
X65240Y11906D1*
X65121Y11944D1*
X65012Y12006D1*
X64917Y12087D1*
X64841Y12185D1*
X64785Y12297D1*
X64752Y12417D1*
X64744Y12542D1*
X64760Y12666D1*
X64800Y12784D1*
X64826Y12827D1*
X64721Y12822D1*
X64597Y12836D1*
X64479Y12875D1*
X64370Y12936D1*
X64275Y13017D1*
X64198Y13116D1*
X64143Y13227D1*
X64110Y13348D1*
X64101Y13472D1*
X64118Y13596D1*
X64158Y13714D1*
X64221Y13822D1*
X64304Y13915D1*
X64388Y13979D1*
X64234Y14058D1*
X64139Y14140D1*
X64062Y14238D1*
X64006Y14350D1*
X63973Y14470D1*
X63965Y14595D1*
X63981Y14718D1*
X64022Y14836D1*
X64084Y14944D1*
X64167Y15038D1*
X64267Y15113D1*
X64379Y15167D1*
X64535Y15200D1*
X64463Y15295D1*
X64407Y15407D1*
X64374Y15527D1*
X64366Y15652D1*
X64382Y15776D1*
X64423Y15894D1*
X64485Y16001D1*
X64568Y16095D1*
X64668Y16170D1*
X64780Y16224D1*
X64901Y16255D1*
X65026Y16261D1*
X65149Y16243D1*
X65234Y16213D1*
X65212Y16402D1*
X65229Y16525D1*
X65269Y16643D1*
X65332Y16751D1*
X65415Y16845D1*
X65514Y16920D1*
X65627Y16974D1*
X65747Y17005D1*
X65872Y17011D1*
X65996Y16993D1*
X66113Y16951D1*
X66220Y16886D1*
X66323Y16786D1*
X61397Y7290D2*
X52045D1*
X51900Y7198D1*
X51780Y7163D1*
X51655Y7156D1*
X51533Y7179D1*
X51419Y7229D1*
X51319Y7304D1*
X51240Y7401D1*
X51185Y7513D1*
X51158Y7634D1*
X51159Y7724D1*
X51044Y7727D1*
X50900Y7635D1*
X50780Y7600D1*
X50655Y7594D1*
X50533Y7616D1*
X50419Y7666D1*
X50341Y7725D1*
X48815Y7727D1*
X38483D1*
X38337Y7635D1*
X38217Y7600D1*
X38093Y7594D1*
X37970Y7616D1*
X37856Y7666D1*
X37778Y7725D1*
X36253Y7727D1*
X16733D1*
X16587Y7635D1*
X16467Y7600D1*
X16343Y7594D1*
X16220Y7616D1*
X16106Y7666D1*
X16007Y7742D1*
X15928Y7838D1*
X15873Y7950D1*
X15845Y8072D1*
X15847Y8197D1*
X15877Y8318D1*
X15935Y8428D1*
X16017Y8522D1*
X16118Y8595D1*
X16233Y8643D1*
X16356Y8662D1*
X16481Y8652D1*
X16599Y8614D1*
X16706Y8550D1*
X16731Y8525D1*
X17639Y8527D1*
X17513Y8617D1*
X17434Y8713D1*
X17379Y8825D1*
X17352Y8947D1*
X17353Y9005D1*
X16249D1*
X16150Y8948D1*
X16030Y8913D1*
X15905Y8906D1*
X15783Y8929D1*
X15669Y8979D1*
X15569Y9054D1*
X15490Y9151D1*
X15435Y9263D1*
X15408Y9384D1*
X15409Y9509D1*
X15440Y9630D1*
X15497Y9741D1*
X15579Y9835D1*
X15680Y9908D1*
X15796Y9955D1*
X15919Y9975D1*
X16043Y9965D1*
X16162Y9927D1*
X16245Y9876D1*
X32440Y9875D1*
X37381D1*
X37430Y9908D1*
X37546Y9955D1*
X37669Y9975D1*
X37793Y9965D1*
X37912Y9927D1*
X37995Y9876D1*
X47381Y9875D1*
X47430Y9908D1*
X47546Y9955D1*
X47669Y9975D1*
X47793Y9965D1*
X47912Y9927D1*
X47995Y9876D1*
X58944Y9875D1*
X59115Y9955D1*
X59238Y9975D1*
X59362Y9965D1*
X59481Y9927D1*
X59588Y9862D1*
X59676Y9775D1*
X59743Y9669D1*
X59782Y9551D1*
X59790Y9405D1*
X60690Y9402D1*
X60905D1*
X60999Y9470D1*
X61115Y9518D1*
X61238Y9537D1*
X61362Y9527D1*
X61481Y9489D1*
X61588Y9425D1*
X61676Y9337D1*
X61743Y9231D1*
X61784Y9096D1*
X61856Y9090D1*
X61974Y9052D1*
X62081Y8987D1*
X62170Y8900D1*
X62236Y8794D1*
X62276Y8676D1*
X62287Y8565D1*
X62273Y8441D1*
X62230Y8324D1*
X62161Y8220D1*
X62060Y8129D1*
X62170Y8025D1*
X62236Y7919D1*
X62276Y7801D1*
X62287Y7690D1*
X62273Y7566D1*
X62230Y7449D1*
X62161Y7345D1*
X62070Y7260D1*
X61962Y7198D1*
X61842Y7163D1*
X61718Y7156D1*
X61595Y7179D1*
X61481Y7229D1*
X61403Y7288D1*
D20*
X16190Y6065D3*
X16938D3*
X37940D3*
X38688D3*
X59565D3*
X60313D3*
D21*
X52690Y4690D3*
D22*
X51690D3*
X50690D3*
X49690D3*
X48690D3*
X47690D3*
X46690D3*
D23*
X29565Y23065D3*
X46190D3*
X70565D3*
Y5315D3*
X23315D3*
D24*
X8940Y23190D3*
D25*
Y19190D3*
D24*
X17190Y23190D3*
D25*
Y19190D3*
D24*
X25440Y23190D3*
D25*
Y19190D3*
D24*
X33690Y23190D3*
D25*
Y19190D3*
D24*
X42190Y23190D3*
D25*
Y19190D3*
D24*
X50315Y23190D3*
D25*
Y19190D3*
D24*
X58565Y23190D3*
D25*
Y19190D3*
D24*
X66940Y23190D3*
D25*
Y19190D3*
D24*
X6190Y21690D3*
D25*
Y17690D3*
D24*
X11940Y21690D3*
D25*
Y17690D3*
D24*
X14440Y21690D3*
D25*
Y17690D3*
D24*
X20065Y21690D3*
D25*
Y17690D3*
D24*
X22815Y21690D3*
D25*
Y17690D3*
D24*
X28190Y21690D3*
D25*
Y17690D3*
D24*
X31065Y21690D3*
D25*
Y17690D3*
D24*
X36440Y21690D3*
D25*
Y17690D3*
D24*
X39565Y21690D3*
D25*
Y17690D3*
D24*
X44690Y21690D3*
D25*
Y17690D3*
D24*
X47815Y21690D3*
D25*
Y17690D3*
D24*
X52940Y21690D3*
D25*
Y17690D3*
D24*
X55940Y21690D3*
D25*
Y17690D3*
D24*
X61190Y21690D3*
D25*
Y17690D3*
D24*
X64315Y21690D3*
D25*
Y17690D3*
D24*
X69565Y21690D3*
D25*
Y17690D3*
D29*
X8921Y16606D3*
X7823Y16336D3*
X6977Y15586D3*
X6576Y14529D3*
X6713Y13406D3*
X7355Y12476D3*
X8356Y11951D3*
X9487D3*
X10488Y12476D3*
X11130Y13406D3*
X11266Y14529D3*
X10865Y15586D3*
X10019Y16336D3*
X17153Y16606D3*
X16055Y16336D3*
X15208Y15586D3*
X14808Y14529D3*
X14944Y13406D3*
X15586Y12476D3*
X16587Y11951D3*
X17718D3*
X18719Y12476D3*
X19361Y13406D3*
X19497Y14529D3*
X19097Y15586D3*
X18250Y16336D3*
X25457Y16606D3*
X24360Y16336D3*
X23513Y15586D3*
X23113Y14529D3*
X23249Y13406D3*
X23891Y12476D3*
X24892Y11951D3*
X26023D3*
X27024Y12476D3*
X27666Y13406D3*
X27802Y14529D3*
X27402Y15586D3*
X26555Y16336D3*
X33758Y16606D3*
X32660Y16336D3*
X31813Y15586D3*
X31413Y14529D3*
X31549Y13406D3*
X32191Y12476D3*
X33192Y11951D3*
X34323D3*
X35324Y12476D3*
X35966Y13406D3*
X36102Y14529D3*
X35702Y15586D3*
X34855Y16336D3*
X42120Y16606D3*
X41022Y16336D3*
X40176Y15586D3*
X39775Y14529D3*
X39911Y13406D3*
X40554Y12476D3*
X41555Y11951D3*
X42685D3*
X43686Y12476D3*
X44329Y13406D3*
X44465Y14529D3*
X44064Y15586D3*
X43218Y16336D3*
X50358Y16606D3*
X49260Y16336D3*
X48413Y15586D3*
X48013Y14529D3*
X48149Y13406D3*
X48791Y12476D3*
X49792Y11951D3*
X50923D3*
X51924Y12476D3*
X52566Y13406D3*
X52702Y14529D3*
X52302Y15586D3*
X51455Y16336D3*
X58595Y16606D3*
X57497Y16336D3*
X56651Y15586D3*
X56250Y14529D3*
X56386Y13406D3*
X57029Y12476D3*
X58030Y11951D3*
X59160D3*
X60161Y12476D3*
X60804Y13406D3*
X60940Y14529D3*
X60539Y15586D3*
X59693Y16336D3*
X66940Y16652D3*
X65842Y16382D3*
X64996Y15632D3*
X64595Y14575D3*
X64731Y13452D3*
X65374Y12522D3*
X66375Y11996D3*
X67505D3*
X68506Y12522D3*
X69149Y13452D3*
X69285Y14575D3*
X68884Y15632D3*
X68038Y16382D3*
M02*
