M48
INCH
T01C0.0191
T02C0.0354
T03C0.038
T04C0.0402
T05C0.125
%
T01
X+051690Y+007690
X+050690Y+008127
X+049690Y+008565
X+048690Y+009002
X+047690Y+009440
X+046690Y+007065
X+040127Y+008565
X+039634Y+009002
X+038128Y+008127
X+038688Y+007065
X+039134Y+005315
X+040134Y+005440
X+037634Y+005384
X+035815Y+005440
X+037690Y+009440
X+018377Y+008565
X+017884Y+009002
X+016378Y+008127
X+016938Y+007065
X+017384Y+005315
X+018440Y+005440
X+015884Y+005440
X+015940Y+009440
X+057440Y+005440
X+059259Y+005384
X+060759Y+005315
X+060313Y+007065
X+059759Y+008127
X+059259Y+009440
X+061259Y+009002
X+061752Y+008565
X+061752Y+007690
T02
X+008921Y+016606
X+007823Y+016336
X+006977Y+015586
X+006576Y+014529
X+006713Y+013406
X+007355Y+012476
X+008356Y+011951
X+009487Y+011951
X+010488Y+012476
X+011130Y+013406
X+011266Y+014529
X+010865Y+015586
X+010019Y+016336
X+014808Y+014529
X+015208Y+015586
X+016055Y+016336
X+017153Y+016606
X+018250Y+016336
X+019097Y+015586
X+019497Y+014529
X+019361Y+013406
X+018719Y+012476
X+017718Y+011951
X+016587Y+011951
X+015586Y+012476
X+014944Y+013406
X+023113Y+014529
X+023513Y+015586
X+024360Y+016336
X+025457Y+016606
X+026555Y+016336
X+027402Y+015586
X+027802Y+014529
X+027666Y+013406
X+027024Y+012476
X+026023Y+011951
X+024892Y+011951
X+023891Y+012476
X+023249Y+013406
X+031413Y+014529
X+031813Y+015586
X+032660Y+016336
X+033758Y+016606
X+034855Y+016336
X+035702Y+015586
X+036102Y+014529
X+035966Y+013406
X+035324Y+012476
X+034323Y+011951
X+033192Y+011951
X+032191Y+012476
X+031549Y+013406
X+039775Y+014529
X+040176Y+015586
X+041022Y+016336
X+042120Y+016606
X+043218Y+016336
X+044064Y+015586
X+044465Y+014529
X+044329Y+013406
X+043686Y+012476
X+042685Y+011951
X+041555Y+011951
X+040554Y+012476
X+039911Y+013406
X+048013Y+014529
X+048413Y+015586
X+049260Y+016336
X+050358Y+016606
X+051455Y+016336
X+052302Y+015586
X+052702Y+014529
X+052566Y+013406
X+051924Y+012476
X+050923Y+011951
X+049792Y+011951
X+048791Y+012476
X+048149Y+013406
X+056250Y+014529
X+056651Y+015586
X+057497Y+016336
X+058595Y+016606
X+059693Y+016336
X+060539Y+015586
X+060940Y+014529
X+060804Y+013406
X+060161Y+012476
X+059160Y+011951
X+058030Y+011951
X+057029Y+012476
X+056386Y+013406
X+064595Y+014575
X+064996Y+015632
X+065842Y+016382
X+066940Y+016652
X+068038Y+016382
X+068884Y+015632
X+069285Y+014575
X+069149Y+013452
X+068506Y+012522
X+067505Y+011996
X+066375Y+011996
X+065374Y+012522
X+064731Y+013452
T03
X+008940Y+023190
X+006190Y+021690
X+008940Y+019190
X+006190Y+017690
X+011940Y+017690
X+014440Y+017690
X+017190Y+019190
X+020065Y+017690
X+022815Y+017690
X+025440Y+019190
X+028190Y+017690
X+031065Y+017690
X+033690Y+019190
X+036440Y+017690
X+039565Y+017690
X+042190Y+019190
X+044690Y+017690
X+047815Y+017690
X+050315Y+019190
X+052940Y+017690
X+055940Y+017690
X+058565Y+019190
X+061190Y+017690
X+064315Y+017690
X+066940Y+019190
X+069565Y+017690
X+069565Y+021690
X+066940Y+023190
X+064315Y+021690
X+061190Y+021690
X+058565Y+023190
X+055940Y+021690
X+052940Y+021690
X+050315Y+023190
X+047815Y+021690
X+044690Y+021690
X+042190Y+023190
X+039565Y+021690
X+036440Y+021690
X+033690Y+023190
X+031065Y+021690
X+028190Y+021690
X+025440Y+023190
X+022815Y+021690
X+020065Y+021690
X+017190Y+023190
X+014440Y+021690
X+011940Y+021690
T04
X+052690Y+004690
X+051690Y+004690
X+050690Y+004690
X+049690Y+004690
X+048690Y+004690
X+047690Y+004690
X+046690Y+004690
T05
X+029565Y+023065
X+046190Y+023065
X+070565Y+023065
X+070565Y+005315
X+023315Y+005315
T00
M30
