G04 DipTrace 2.4.0.2*
%INTop.gbr*%
%MOIN*%
%ADD13C,0.013*%
%ADD14C,0.04*%
%ADD15C,0.02*%
%ADD21R,0.0638X0.0638*%
%ADD22C,0.0638*%
%ADD23C,0.2187*%
%ADD24C,0.06*%
%ADD25C,0.06*%
%ADD27R,0.0866X0.0236*%
%ADD28R,0.0236X0.0866*%
%ADD29C,0.0591*%
%FSLAX44Y44*%
G04*
G70*
G90*
G75*
G01*
%LNTop*%
%LPD*%
X51690Y4690D2*
D13*
Y7690D1*
X61752D2*
Y4506D1*
X61759D1*
X46690Y4690D2*
D14*
Y7065D1*
X38634Y4506D2*
Y7011D1*
X38688Y7065D1*
X16884Y4506D2*
Y7011D1*
X16938Y7065D1*
X60259Y4506D2*
Y7011D1*
X60313Y7065D1*
X39134Y4506D2*
D15*
Y5315D1*
X37634Y4506D2*
Y5384D1*
X17384Y4506D2*
Y5315D1*
X15884Y4506D2*
Y5440D1*
X60759Y4506D2*
Y5315D1*
X59259Y4506D2*
Y5384D1*
Y9440D1*
X47690D2*
Y4690D1*
X37690Y9440D2*
Y5384D1*
X37634D1*
X15940Y9440D2*
Y5496D1*
X15884Y5440D1*
X57259Y4506D2*
D13*
Y5259D1*
X57440Y5440D1*
X40134D2*
Y4506D1*
X59759D2*
Y8127D1*
X50690D2*
Y4690D1*
X38128Y8127D2*
Y4512D1*
X38134Y4506D1*
X16378Y8127D2*
Y4512D1*
X16384Y4506D1*
X35634D2*
Y5259D1*
X35815Y5440D1*
X18440D2*
Y5065D1*
X18377Y5002D1*
Y4513D1*
X18384Y4506D1*
X62259D2*
Y8059D1*
X61752Y8565D1*
X49690D2*
Y4690D1*
X40634Y4506D2*
Y8059D1*
X40127Y8565D1*
X18884Y4506D2*
Y8059D1*
X18377Y8565D1*
X61259Y4506D2*
Y9002D1*
X48690D2*
Y4690D1*
X39634Y9002D2*
Y4506D1*
X17884Y9002D2*
Y4506D1*
X13190Y10190D2*
X13065D1*
X12440Y10815D1*
Y14815D1*
X11690Y15565D1*
X10886D1*
X10865Y15586D1*
X13190Y9690D2*
X12815D1*
X11940Y10565D1*
Y13855D1*
X11266Y14529D1*
X13190Y9190D2*
X12565D1*
X11190Y10565D1*
Y13346D1*
X11130Y13406D1*
X13190Y8690D2*
X11440D1*
X10440Y9690D1*
Y12524D1*
X10488Y12476D1*
X13190Y8190D2*
X10315D1*
X9440Y9065D1*
Y11951D1*
X9487D1*
X13190Y7690D2*
X10065D1*
X8315Y9440D1*
Y11815D1*
X8491D1*
X8356Y11951D1*
X13190Y7190D2*
X9815D1*
X7315Y9690D1*
Y12436D1*
X7355Y12476D1*
X13190Y6690D2*
X9565D1*
X6690Y9565D1*
Y13384D1*
X6713Y13406D1*
X13190Y6190D2*
X9315D1*
X6190Y9315D1*
Y14143D1*
X6576Y14529D1*
X13190Y5690D2*
X9190D1*
X5690Y9190D1*
Y14565D1*
X6690Y15565D1*
X6956D1*
X6977Y15586D1*
X13874Y10884D2*
Y11256D1*
X13190Y11940D1*
Y16815D1*
X12315Y17690D1*
X11940D1*
X6190Y21690D2*
X7190D1*
X7815Y21065D1*
Y16344D1*
X7823Y16336D1*
X8940Y19190D2*
Y16625D1*
X8921Y16606D1*
X14874Y10884D2*
Y11256D1*
X13940Y12190D1*
Y14940D1*
X14565Y15565D1*
X15187D1*
X15208Y15586D1*
X15374Y10884D2*
Y11256D1*
X14315Y12315D1*
Y14036D1*
X14808Y14529D1*
X15874Y10884D2*
Y11256D1*
X14940Y12190D1*
Y13403D1*
X14944Y13406D1*
X16374Y10884D2*
Y11256D1*
X15565Y12065D1*
Y12455D1*
X15586Y12476D1*
X16874Y10884D2*
Y11664D1*
X16587Y11951D1*
X17374Y10884D2*
Y11607D1*
X17718Y11951D1*
X17874Y10884D2*
Y11249D1*
X18690Y12065D1*
Y12447D1*
X18719Y12476D1*
X18374Y10884D2*
Y11249D1*
X19315Y12190D1*
Y13360D1*
X19361Y13406D1*
X18874Y10884D2*
Y11249D1*
X19940Y12315D1*
Y14086D1*
X19497Y14529D1*
X19568Y10200D2*
Y11443D1*
X20315Y12190D1*
Y15065D1*
X19815Y15565D1*
X19118D1*
X19097Y15586D1*
X14374Y10884D2*
Y11256D1*
X13565Y12065D1*
Y16815D1*
X14440Y17690D1*
X19568Y9700D2*
X19950D1*
X20690Y10440D1*
Y17190D1*
X20190Y17690D1*
X20065D1*
X19568Y8700D2*
X19950D1*
X21440Y10190D1*
Y14565D1*
X22440Y15565D1*
X23492D1*
X23513Y15586D1*
X19568Y8200D2*
X19950D1*
X22315Y10565D1*
Y13731D1*
X23113Y14529D1*
X19568Y7700D2*
X20075D1*
X23315Y10940D1*
Y13473D1*
X23249Y13406D1*
X19568Y7200D2*
X20325D1*
X23940Y10815D1*
Y12525D1*
X23891Y12476D1*
X19568Y6700D2*
X20575D1*
X24940Y11065D1*
Y11903D1*
X24892Y11951D1*
X19568Y6200D2*
X20825D1*
X26065Y11440D1*
Y11951D1*
X26023D1*
X19568Y5700D2*
X21075D1*
X27065Y11690D1*
Y12435D1*
X27024Y12476D1*
X34940Y5190D2*
X33440D1*
X28690Y9940D1*
Y12565D1*
X27849Y13406D1*
X27666D1*
X34940Y5690D2*
X33565D1*
X29065Y10190D1*
Y13266D1*
X27802Y14529D1*
X34940Y6190D2*
X33690D1*
X29440Y10440D1*
Y14815D1*
X28669Y15586D1*
X27402D1*
X16055Y16336D2*
Y21075D1*
X15440Y21690D1*
X14440D1*
X20065D2*
X18940D1*
X18315Y21065D1*
Y16400D1*
X18250Y16336D1*
X34940Y7690D2*
X34065D1*
X30565Y11190D1*
Y14815D1*
X31315Y15565D1*
X31792D1*
X31813Y15586D1*
X34940Y8190D2*
X34190D1*
X30940Y11440D1*
Y14056D1*
X31413Y14529D1*
X34940Y8690D2*
X34315D1*
X31440Y11565D1*
Y13298D1*
X31549Y13406D1*
X34940Y9190D2*
X34440D1*
X32190Y11440D1*
Y12475D1*
X32191Y12476D1*
X34940Y9690D2*
X34565D1*
X33190Y11065D1*
Y11948D1*
X33192Y11951D1*
X34940Y10190D2*
Y11333D1*
X34323Y11951D1*
X35624Y10884D2*
Y12176D1*
X35324Y12476D1*
X36124Y10884D2*
Y13249D1*
X35966Y13406D1*
X36624Y10884D2*
Y14007D1*
X36102Y14529D1*
X37124Y10884D2*
Y15006D1*
X36565Y15565D1*
X35723D1*
X35702Y15586D1*
X24360Y16336D2*
Y21020D1*
X23690Y21690D1*
X22815D1*
X19568Y9200D2*
X19950D1*
X21065Y10315D1*
Y17190D1*
X21565Y17690D1*
X22815D1*
X38624Y10884D2*
Y14874D1*
X39315Y15565D1*
X40155D1*
X40176Y15586D1*
X39124Y10884D2*
Y13878D1*
X39775Y14529D1*
X39624Y10884D2*
Y13119D1*
X39911Y13406D1*
X40124Y10884D2*
Y12046D1*
X40554Y12476D1*
X40624Y10884D2*
Y11020D1*
X41555Y11951D1*
X41318Y10200D2*
X41825D1*
X42690Y11065D1*
Y11946D1*
X42685Y11951D1*
X41318Y9700D2*
X42450D1*
X43686Y10936D1*
Y12476D1*
X41318Y9200D2*
X42700D1*
X44315Y10815D1*
Y13420D1*
X44329Y13406D1*
X41318Y8700D2*
X42825D1*
X44940Y10815D1*
Y14054D1*
X44465Y14529D1*
X41318Y8200D2*
X42950D1*
X45315Y10565D1*
Y15065D1*
X44815Y15565D1*
X44085D1*
X44064Y15586D1*
X34940Y6690D2*
X33815D1*
X29815Y10690D1*
Y16065D1*
X28190Y17690D1*
X26555Y16336D2*
Y21055D1*
X27190Y21690D1*
X28190D1*
X41318Y6700D2*
X43325D1*
X46440Y9815D1*
Y14440D1*
X47565Y15565D1*
X48392D1*
X48413Y15586D1*
X41318Y6200D2*
X43450D1*
X46815Y9565D1*
Y13815D1*
X47565Y14565D1*
X47976D1*
X48013Y14529D1*
X41318Y5700D2*
X43575D1*
X47190Y9315D1*
Y12940D1*
X47690Y13440D1*
X48115D1*
X48149Y13406D1*
X56565Y5190D2*
X54940D1*
X48815Y11315D1*
Y12500D1*
X48791Y12476D1*
X56565Y5690D2*
X55065D1*
X49815Y10940D1*
Y11973D1*
X49792Y11951D1*
X56565Y6190D2*
X55190D1*
X50940Y10440D1*
Y11933D1*
X50923Y11951D1*
X56565Y6690D2*
X55315D1*
X51940Y10065D1*
Y12440D1*
X51904Y12476D1*
X51924D1*
X56565Y7190D2*
X55440D1*
X52565Y10065D1*
Y13565D1*
X52724Y13406D1*
X52566D1*
X56565Y7690D2*
X55565D1*
X53190Y10065D1*
Y14041D1*
X52702Y14529D1*
X56565Y8190D2*
X55690D1*
X53815Y10065D1*
Y14690D1*
X52940Y15565D1*
X52323D1*
X52302Y15586D1*
X32660Y16336D2*
Y21095D1*
X32065Y21690D1*
X31065D1*
X34940Y7190D2*
X33940D1*
X30190Y10940D1*
Y17315D1*
X30565Y17690D1*
X31065D1*
X56565Y9690D2*
X56065D1*
X55440Y10315D1*
Y14940D1*
X56065Y15565D1*
X56630D1*
X56651Y15586D1*
X56565Y10190D2*
Y11440D1*
X55815Y12190D1*
Y14094D1*
X56250Y14529D1*
X57249Y10884D2*
Y11381D1*
X56315Y12315D1*
Y13335D1*
X56386Y13406D1*
X57749Y10884D2*
Y11381D1*
X57190Y11940D1*
Y12315D1*
X57029Y12476D1*
X58249Y10884D2*
Y11731D1*
X58030Y11951D1*
X58749Y10884D2*
Y11539D1*
X59160Y11951D1*
X59249Y10884D2*
Y11249D1*
X60190Y12190D1*
Y12447D1*
X60161Y12476D1*
X59749Y10884D2*
Y11249D1*
X60815Y12315D1*
Y13395D1*
X60804Y13406D1*
X60249Y10884D2*
Y11249D1*
X61440Y12440D1*
Y14029D1*
X60940Y14529D1*
X60749Y10884D2*
Y11249D1*
X61815Y12315D1*
Y14690D1*
X60940Y15565D1*
X60560D1*
X60539Y15586D1*
X34855Y16336D2*
Y21105D1*
X35440Y21690D1*
X36440D1*
X41022Y16336D2*
Y21108D1*
X40440Y21690D1*
X39565D1*
X62249Y10884D2*
Y11436D1*
X62877Y12065D1*
Y14252D1*
X64252Y15627D1*
X64992D1*
X64996Y15632D1*
X62943Y10200D2*
Y11693D1*
X63190Y11940D1*
Y13815D1*
X63940Y14565D1*
X64585D1*
X64595Y14575D1*
X62943Y9700D2*
X63700D1*
X64690Y10690D1*
Y13440D1*
X64744D1*
X64731Y13452D1*
X62943Y9200D2*
X63825D1*
X65377Y10753D1*
Y12502D1*
X65393D1*
X65374Y12522D1*
X62943Y8700D2*
X63950D1*
X66375Y11125D1*
Y11996D1*
X62943Y8200D2*
X64075D1*
X67440Y11565D1*
Y11996D1*
X67505D1*
X62943Y7700D2*
X64200D1*
X68502Y12002D1*
Y12518D1*
X68506Y12522D1*
X62943Y7200D2*
X64325D1*
X69252Y12128D1*
Y13349D1*
X69149Y13452D1*
X62943Y6700D2*
X64450D1*
X69752Y12003D1*
Y14503D1*
X69690Y14565D1*
X69295D1*
X69285Y14575D1*
X62943Y6200D2*
X64575D1*
X70190Y11815D1*
Y15065D1*
X69627Y15627D1*
X68888D1*
X68884Y15632D1*
X43218Y16336D2*
Y21093D1*
X43815Y21690D1*
X44690D1*
X11940D2*
X10690D1*
X10065Y21065D1*
Y16382D1*
X10019Y16336D1*
X13190Y5190D2*
X8940D1*
X5190Y8940D1*
Y16940D1*
X5940Y17690D1*
X6190D1*
X49260Y16336D2*
Y21120D1*
X48690Y21690D1*
X47815D1*
X51455Y16336D2*
Y21080D1*
X52065Y21690D1*
X52940D1*
X57497Y16336D2*
Y21008D1*
X56815Y21690D1*
X55940D1*
X59693Y16336D2*
Y21068D1*
X60315Y21690D1*
X61190D1*
X65842Y16382D2*
Y21038D1*
X65190Y21690D1*
X64315D1*
X68038Y16382D2*
Y21038D1*
X68690Y21690D1*
X69565D1*
X37624Y10884D2*
Y17131D1*
X37065Y17690D1*
X36440D1*
X38124Y10884D2*
Y17124D1*
X38690Y17690D1*
X39565D1*
X41318Y7700D2*
X43075D1*
X45690Y10315D1*
Y16815D1*
X44815Y17690D1*
X44690D1*
X41318Y7200D2*
X43200D1*
X46065Y10065D1*
Y16815D1*
X46940Y17690D1*
X47815D1*
X56565Y8690D2*
X55815D1*
X54440Y10065D1*
Y16815D1*
X53565Y17690D1*
X52940D1*
X56565Y9190D2*
X55940D1*
X54940Y10190D1*
Y16815D1*
X55815Y17690D1*
X55940D1*
X61249Y10884D2*
Y11249D1*
X62190Y12190D1*
Y16690D1*
X61190Y17690D1*
X61749Y10884D2*
Y11374D1*
X62565Y12190D1*
Y16690D1*
X63565Y17690D1*
X64315D1*
X62943Y5700D2*
X64700D1*
X70565Y11565D1*
Y16815D1*
X69815Y17565D1*
X69690D1*
X69565Y17690D1*
X17190Y19190D2*
Y16644D1*
X17153Y16606D1*
X25440Y19190D2*
Y16624D1*
X25457Y16606D1*
X33690Y19190D2*
Y16674D1*
X33758Y16606D1*
X42190Y19190D2*
Y16676D1*
X42120Y16606D1*
X50315Y19190D2*
Y16649D1*
X50358Y16606D1*
X58565Y19190D2*
Y16636D1*
X58595Y16606D1*
X66940Y19190D2*
Y16652D1*
D14*
X51690Y7690D3*
X61752D3*
X46690Y7065D3*
D3*
X38688D3*
X16938D3*
X60313D3*
X39134Y5315D3*
X37634Y5384D3*
X17384Y5315D3*
X15884Y5440D3*
X60759Y5315D3*
X59259Y5384D3*
Y9440D3*
X47690D3*
X37690D3*
X15940D3*
X57440Y5440D3*
X40134D3*
X59759Y8127D3*
X50690D3*
X38128D3*
X16378D3*
X35815Y5440D3*
X18440D3*
X61752Y8565D3*
X49690D3*
X40127D3*
X18377D3*
X40127D3*
X61259Y9002D3*
X48690D3*
X39634D3*
X17884D3*
D21*
X52690Y4690D3*
D22*
X51690D3*
X50690D3*
X49690D3*
X48690D3*
X47690D3*
X46690D3*
D23*
X29565Y23065D3*
X46190D3*
X70565D3*
Y5315D3*
X23315D3*
D24*
X8940Y23190D3*
D25*
Y19190D3*
D24*
X17190Y23190D3*
D25*
Y19190D3*
D24*
X25440Y23190D3*
D25*
Y19190D3*
D24*
X33690Y23190D3*
D25*
Y19190D3*
D24*
X42190Y23190D3*
D25*
Y19190D3*
D24*
X50315Y23190D3*
D25*
Y19190D3*
D24*
X58565Y23190D3*
D25*
Y19190D3*
D24*
X66940Y23190D3*
D25*
Y19190D3*
D24*
X6190Y21690D3*
D25*
Y17690D3*
D24*
X11940Y21690D3*
D25*
Y17690D3*
D24*
X14440Y21690D3*
D25*
Y17690D3*
D24*
X20065Y21690D3*
D25*
Y17690D3*
D24*
X22815Y21690D3*
D25*
Y17690D3*
D24*
X28190Y21690D3*
D25*
Y17690D3*
D24*
X31065Y21690D3*
D25*
Y17690D3*
D24*
X36440Y21690D3*
D25*
Y17690D3*
D24*
X39565Y21690D3*
D25*
Y17690D3*
D24*
X44690Y21690D3*
D25*
Y17690D3*
D24*
X47815Y21690D3*
D25*
Y17690D3*
D24*
X52940Y21690D3*
D25*
Y17690D3*
D24*
X55940Y21690D3*
D25*
Y17690D3*
D24*
X61190Y21690D3*
D25*
Y17690D3*
D24*
X64315Y21690D3*
D25*
Y17690D3*
D24*
X69565Y21690D3*
D25*
Y17690D3*
D27*
X13190Y10190D3*
Y9690D3*
Y9190D3*
Y8690D3*
Y8190D3*
Y7690D3*
Y7190D3*
Y6690D3*
Y6190D3*
Y5690D3*
Y5190D3*
D28*
X13884Y4506D3*
X14384D3*
X14884D3*
X15384D3*
X15884D3*
X16384D3*
X16884D3*
X17384D3*
X17884D3*
X18384D3*
X18884D3*
D27*
X19568Y5200D3*
Y5700D3*
Y6200D3*
Y6700D3*
Y7200D3*
Y7700D3*
Y8200D3*
Y8700D3*
Y9200D3*
Y9700D3*
Y10200D3*
D28*
X18874Y10884D3*
X18374D3*
X17874D3*
X17374D3*
X16874D3*
X16374D3*
X15874D3*
X15374D3*
X14874D3*
X14374D3*
X13874D3*
D27*
X34940Y10190D3*
Y9690D3*
Y9190D3*
Y8690D3*
Y8190D3*
Y7690D3*
Y7190D3*
Y6690D3*
Y6190D3*
Y5690D3*
Y5190D3*
D28*
X35634Y4506D3*
X36134D3*
X36634D3*
X37134D3*
X37634D3*
X38134D3*
X38634D3*
X39134D3*
X39634D3*
X40134D3*
X40634D3*
D27*
X41318Y5200D3*
Y5700D3*
Y6200D3*
Y6700D3*
Y7200D3*
Y7700D3*
Y8200D3*
Y8700D3*
Y9200D3*
Y9700D3*
Y10200D3*
D28*
X40624Y10884D3*
X40124D3*
X39624D3*
X39124D3*
X38624D3*
X38124D3*
X37624D3*
X37124D3*
X36624D3*
X36124D3*
X35624D3*
D27*
X56565Y10190D3*
Y9690D3*
Y9190D3*
Y8690D3*
Y8190D3*
Y7690D3*
Y7190D3*
Y6690D3*
Y6190D3*
Y5690D3*
Y5190D3*
D28*
X57259Y4506D3*
X57759D3*
X58259D3*
X58759D3*
X59259D3*
X59759D3*
X60259D3*
X60759D3*
X61259D3*
X61759D3*
X62259D3*
D27*
X62943Y5200D3*
Y5700D3*
Y6200D3*
Y6700D3*
Y7200D3*
Y7700D3*
Y8200D3*
Y8700D3*
Y9200D3*
Y9700D3*
Y10200D3*
D28*
X62249Y10884D3*
X61749D3*
X61249D3*
X60749D3*
X60249D3*
X59749D3*
X59249D3*
X58749D3*
X58249D3*
X57749D3*
X57249D3*
D29*
X8921Y16606D3*
X7823Y16336D3*
X6977Y15586D3*
X6576Y14529D3*
X6713Y13406D3*
X7355Y12476D3*
X8356Y11951D3*
X9487D3*
X10488Y12476D3*
X11130Y13406D3*
X11266Y14529D3*
X10865Y15586D3*
X10019Y16336D3*
X17153Y16606D3*
X16055Y16336D3*
X15208Y15586D3*
X14808Y14529D3*
X14944Y13406D3*
X15586Y12476D3*
X16587Y11951D3*
X17718D3*
X18719Y12476D3*
X19361Y13406D3*
X19497Y14529D3*
X19097Y15586D3*
X18250Y16336D3*
X25457Y16606D3*
X24360Y16336D3*
X23513Y15586D3*
X23113Y14529D3*
X23249Y13406D3*
X23891Y12476D3*
X24892Y11951D3*
X26023D3*
X27024Y12476D3*
X27666Y13406D3*
X27802Y14529D3*
X27402Y15586D3*
X26555Y16336D3*
X33758Y16606D3*
X32660Y16336D3*
X31813Y15586D3*
X31413Y14529D3*
X31549Y13406D3*
X32191Y12476D3*
X33192Y11951D3*
X34323D3*
X35324Y12476D3*
X35966Y13406D3*
X36102Y14529D3*
X35702Y15586D3*
X34855Y16336D3*
X42120Y16606D3*
X41022Y16336D3*
X40176Y15586D3*
X39775Y14529D3*
X39911Y13406D3*
X40554Y12476D3*
X41555Y11951D3*
X42685D3*
X43686Y12476D3*
X44329Y13406D3*
X44465Y14529D3*
X44064Y15586D3*
X43218Y16336D3*
X50358Y16606D3*
X49260Y16336D3*
X48413Y15586D3*
X48013Y14529D3*
X48149Y13406D3*
X48791Y12476D3*
X49792Y11951D3*
X50923D3*
X51924Y12476D3*
X52566Y13406D3*
X52702Y14529D3*
X52302Y15586D3*
X51455Y16336D3*
X58595Y16606D3*
X57497Y16336D3*
X56651Y15586D3*
X56250Y14529D3*
X56386Y13406D3*
X57029Y12476D3*
X58030Y11951D3*
X59160D3*
X60161Y12476D3*
X60804Y13406D3*
X60940Y14529D3*
X60539Y15586D3*
X59693Y16336D3*
X66940Y16652D3*
X65842Y16382D3*
X64996Y15632D3*
X64595Y14575D3*
X64731Y13452D3*
X65374Y12522D3*
X66375Y11996D3*
X67505D3*
X68506Y12522D3*
X69149Y13452D3*
X69285Y14575D3*
X68884Y15632D3*
X68038Y16382D3*
M02*
