G04 DipTrace 2.4.0.2*
%INTopPaste.gbr*%
%MOIN*%
%ADD41R,0.0156X0.0786*%
%ADD43R,0.0786X0.0156*%
%FSLAX44Y44*%
G04*
G70*
G90*
G75*
G01*
%LNTopPaste*%
%LPD*%
D43*
X13190Y10190D3*
Y9690D3*
Y9190D3*
Y8690D3*
Y8190D3*
Y7690D3*
Y7190D3*
Y6690D3*
Y6190D3*
Y5690D3*
Y5190D3*
D41*
X13884Y4506D3*
X14384D3*
X14884D3*
X15384D3*
X15884D3*
X16384D3*
X16884D3*
X17384D3*
X17884D3*
X18384D3*
X18884D3*
D43*
X19568Y5200D3*
Y5700D3*
Y6200D3*
Y6700D3*
Y7200D3*
Y7700D3*
Y8200D3*
Y8700D3*
Y9200D3*
Y9700D3*
Y10200D3*
D41*
X18874Y10884D3*
X18374D3*
X17874D3*
X17374D3*
X16874D3*
X16374D3*
X15874D3*
X15374D3*
X14874D3*
X14374D3*
X13874D3*
D43*
X34940Y10190D3*
Y9690D3*
Y9190D3*
Y8690D3*
Y8190D3*
Y7690D3*
Y7190D3*
Y6690D3*
Y6190D3*
Y5690D3*
Y5190D3*
D41*
X35634Y4506D3*
X36134D3*
X36634D3*
X37134D3*
X37634D3*
X38134D3*
X38634D3*
X39134D3*
X39634D3*
X40134D3*
X40634D3*
D43*
X41318Y5200D3*
Y5700D3*
Y6200D3*
Y6700D3*
Y7200D3*
Y7700D3*
Y8200D3*
Y8700D3*
Y9200D3*
Y9700D3*
Y10200D3*
D41*
X40624Y10884D3*
X40124D3*
X39624D3*
X39124D3*
X38624D3*
X38124D3*
X37624D3*
X37124D3*
X36624D3*
X36124D3*
X35624D3*
D43*
X56565Y10190D3*
Y9690D3*
Y9190D3*
Y8690D3*
Y8190D3*
Y7690D3*
Y7190D3*
Y6690D3*
Y6190D3*
Y5690D3*
Y5190D3*
D41*
X57259Y4506D3*
X57759D3*
X58259D3*
X58759D3*
X59259D3*
X59759D3*
X60259D3*
X60759D3*
X61259D3*
X61759D3*
X62259D3*
D43*
X62943Y5200D3*
Y5700D3*
Y6200D3*
Y6700D3*
Y7200D3*
Y7700D3*
Y8200D3*
Y8700D3*
Y9200D3*
Y9700D3*
Y10200D3*
D41*
X62249Y10884D3*
X61749D3*
X61249D3*
X60749D3*
X60249D3*
X59749D3*
X59249D3*
X58749D3*
X58249D3*
X57749D3*
X57249D3*
M02*
